<svg xmlns="http://www.w3.org/2000/svg" xmlns:xlink="http://www.w3.org/1999/xlink" version="1.1" width="0.3736000000" height="0.5455000000" viewBox="0 0 26.8987 39.2794">
  <title><![CDATA[]]></title>
  <g transform=" scale(1.000000) ">
    <g xmlns="http://www.w3.org/2000/svg" id="Layer1041">
      <path d="  M16.8904,3.4278 C16.8904,1.7139 18.6304,0.0000 20.3715,0.0000 C22.5466,0.0000 23.8516,1.7139 23.8516,3.4278 C23.8516,5.1427 22.5456,6.8566 20.3715,6.8566 C18.6304,6.8566 16.8904,5.1427 16.8904,3.4278 Z" style="stroke-width: 1.2000; stroke-linecap: round; stroke-linejoin: round; fill-rule: evenodd; fill: #ffffff; "/>
      <path d="  M16.8904,3.4278 C16.8904,1.7139 18.6304,0.0000 20.3715,0.0000 C22.5466,0.0000 23.8516,1.7139 23.8516,3.4278 C23.8516,5.1427 22.5456,6.8566 20.3715,6.8566 C18.6304,6.8566 16.8904,5.1427 16.8904,3.4278 Z" style="stroke-width: 1.2000; stroke: #ffffff; stroke-dasharray: none; stroke-linecap: round; stroke-linejoin: round; fill: none; "/>
    </g>
    <g xmlns="http://www.w3.org/2000/svg" id="Layer1042">
      <path d="  M16.8904,3.4278 C16.8904,1.7139 18.6304,0.0000 20.3715,0.0000 C22.5466,0.0000 23.8516,1.7139 23.8516,3.4278 C23.8516,4.2848 23.4166,5.1427 22.9816,5.9997 C26.8977,8.1416 26.8977,8.1416 26.8977,8.1416 C26.8977,17.5681 26.8977,17.5681 26.8977,17.5681 C25.5917,17.9971 25.5917,17.9971 25.5917,17.9971 C25.5917,29.1365 25.5917,29.1365 25.5917,29.1365 C21.6765,31.2794 21.6765,31.2794 21.6765,31.2794 C16.0193,28.2785 16.0193,28.2785 16.0193,28.2785 C16.0193,16.2822 16.0193,16.2822 16.0193,16.2822 C14.7143,15.4252 14.7143,15.4252 14.7143,15.4252 C14.7143,5.9997 14.7143,5.9997 14.7143,5.9997 C17.3244,4.7138 17.3244,4.7138 17.3244,4.7138 C16.8904,4.2848 16.8904,3.8578 16.8904,3.4278 Z" style="stroke-width: 0.7200; stroke-linecap: round; stroke-linejoin: round; fill-rule: evenodd; fill: #ffffff; "/>
      <path d="  M16.8904,3.4278 C16.8904,1.7139 18.6304,0.0000 20.3715,0.0000 C22.5466,0.0000 23.8516,1.7139 23.8516,3.4278 C23.8516,4.2848 23.4166,5.1427 22.9816,5.9997 C26.8977,8.1416 26.8977,8.1416 26.8977,8.1416 C26.8977,17.5681 26.8977,17.5681 26.8977,17.5681 C25.5917,17.9971 25.5917,17.9971 25.5917,17.9971 C25.5917,29.1365 25.5917,29.1365 25.5917,29.1365 C21.6765,31.2794 21.6765,31.2794 21.6765,31.2794 C16.0193,28.2785 16.0193,28.2785 16.0193,28.2785 C16.0193,16.2822 16.0193,16.2822 16.0193,16.2822 C14.7143,15.4252 14.7143,15.4252 14.7143,15.4252 C14.7143,5.9997 14.7143,5.9997 14.7143,5.9997 C17.3244,4.7138 17.3244,4.7138 17.3244,4.7138 C16.8904,4.2848 16.8904,3.8578 16.8904,3.4278 Z" style="stroke-width: 0.7200; stroke: #ffffff; stroke-dasharray: none; stroke-linecap: round; stroke-linejoin: round; fill: none; "/>
    </g>
    <g xmlns="http://www.w3.org/2000/svg" xmlns:xlink="http://www.w3.org/1999/xlink" id="Layer1043">
      <defs>
        <linearGradient id="grad82">
          <stop offset="0%" stop-color="#ffcc00" stop-opacity="1.0000"/>
          <stop offset="100%" stop-color="#ff6600" stop-opacity="1.0000"/>
        </linearGradient>
        <linearGradient xlink:href="#grad82" id="grad83" x1="0" y1="0" x2="0" y2="1" gradientTransform="rotate(225 .5 .5)" gradientUnits="objectBoundingBox">
  </linearGradient>
      </defs>
      <path d="  M14.7143,5.9997 L19.0654,3.8578 L26.8987,8.1416 L22.9826,9.8555 L14.7143,5.9997 Z" style="stroke-width: 0.7200; stroke-linecap: round; stroke-linejoin: round; fill-rule: evenodd; fill: url(#grad83); "/>
      <path d="  M14.7143,5.9997 L19.0654,3.8578 L26.8987,8.1416 L22.9826,9.8555 L14.7143,5.9997 Z" style="stroke-width: 0.7200; stroke: #ffffff; stroke-dasharray: none; stroke-linecap: round; stroke-linejoin: round; fill: none; "/>
    </g>
    <g xmlns="http://www.w3.org/2000/svg" xmlns:xlink="http://www.w3.org/1999/xlink" id="Layer1044">
      <defs>
        <linearGradient id="grad84">
          <stop offset="0%" stop-color="#ffcc00" stop-opacity="1.0000"/>
          <stop offset="100%" stop-color="#cc3300" stop-opacity="1.0000"/>
        </linearGradient>
        <linearGradient xlink:href="#grad84" id="grad85" x1="0" y1="0" x2="0" y2="1" gradientTransform="rotate(315 .5 .5)" gradientUnits="objectBoundingBox">
  </linearGradient>
      </defs>
      <path d="  M21.6775,18.8530 L25.5927,16.7101 L25.5927,29.1355 L21.6775,31.2774 L21.6775,18.8530 Z" style="stroke-width: 0.7200; stroke-linecap: round; stroke-linejoin: round; fill-rule: evenodd; fill: url(#grad85); "/>
      <path d="  M21.6775,18.8530 L25.5927,16.7101 L25.5927,29.1355 L21.6775,31.2774 L21.6775,18.8530 Z" style="stroke-width: 0.7200; stroke: #ffffff; stroke-dasharray: none; stroke-linecap: round; stroke-linejoin: round; fill: none; "/>
    </g>
    <g xmlns="http://www.w3.org/2000/svg" xmlns:xlink="http://www.w3.org/1999/xlink" id="Layer1045">
      <defs>
        <linearGradient id="grad86">
          <stop offset="0%" stop-color="#ffcc00" stop-opacity="1.0000"/>
          <stop offset="100%" stop-color="#ff6600" stop-opacity="1.0000"/>
        </linearGradient>
        <linearGradient xlink:href="#grad86" id="grad87" x1="0" y1="0" x2="0" y2="1" gradientTransform="rotate(315 .5 .5)" gradientUnits="objectBoundingBox">
  </linearGradient>
      </defs>
      <path d="  M14.7143,5.9997 L22.9826,9.8555 L22.9826,19.7090 L21.6775,18.8530 L21.6775,31.2774 L16.0193,28.2785 L16.0193,16.2822 L14.7143,15.4252 L14.7143,5.9997 Z" style="stroke-width: 0.7200; stroke-linecap: round; stroke-linejoin: round; fill-rule: evenodd; fill: url(#grad87); "/>
      <path d="  M14.7143,5.9997 L22.9826,9.8555 L22.9826,19.7090 L21.6775,18.8530 L21.6775,31.2774 L16.0193,28.2785 L16.0193,16.2822 L14.7143,15.4252 L14.7143,5.9997 Z" style="stroke-width: 0.7200; stroke: #ffffff; stroke-dasharray: none; stroke-linecap: round; stroke-linejoin: round; fill: none; "/>
    </g>
    <g xmlns="http://www.w3.org/2000/svg" xmlns:xlink="http://www.w3.org/1999/xlink" id="Layer1046">
      <defs>
        <linearGradient id="grad88">
          <stop offset="0%" stop-color="#ffcc00" stop-opacity="1.0000"/>
          <stop offset="100%" stop-color="#cc3300" stop-opacity="1.0000"/>
        </linearGradient>
        <linearGradient xlink:href="#grad88" id="grad89" x1="0" y1="0" x2="0" y2="1" gradientTransform="rotate(315 .5 .5)" gradientUnits="objectBoundingBox">
  </linearGradient>
      </defs>
      <path d="  M22.9826,9.8555 L26.8987,8.1416 L26.8987,17.5671 L22.9826,19.7090 L22.9826,9.8555 Z" style="stroke-width: 0.7200; stroke-linecap: round; stroke-linejoin: round; fill-rule: evenodd; fill: url(#grad89); "/>
      <path d="  M22.9826,9.8555 L26.8987,8.1416 L26.8987,17.5671 L22.9826,19.7090 L22.9826,9.8555 Z" style="stroke-width: 0.7200; stroke: #ffffff; stroke-dasharray: none; stroke-linecap: round; stroke-linejoin: round; fill: none; "/>
    </g>
    <path xmlns="http://www.w3.org/2000/svg" d="  M21.6775,31.2774 L21.6775,18.8530 L22.9826,19.7090 L25.5927,17.9961" style="stroke-width: 0.7200; stroke: #ffffff; stroke-dasharray: none; stroke-linecap: round; stroke-linejoin: round; fill: none; "/>
    <path xmlns="http://www.w3.org/2000/svg" d="  M16.0193,16.2822 L14.7143,15.4252 L14.7143,5.9997 L19.0654,3.8578 L26.8987,8.1416 L26.8987,17.5671 L25.5927,17.9961 L25.5927,29.1355 L21.6775,31.2774 L16.0193,28.2785 L16.0193,16.2822 Z" style="stroke-width: 1.2000; stroke: #ffffff; stroke-dasharray: none; stroke-linecap: round; stroke-linejoin: round; fill: none; "/>
    <path xmlns="http://www.w3.org/2000/svg" d="  M14.7143,5.9997 L22.9826,9.8555" style="stroke-width: 0.7200; stroke: #ffffff; stroke-dasharray: none; stroke-linecap: round; stroke-linejoin: round; fill: none; "/>
    <path xmlns="http://www.w3.org/2000/svg" d="  M22.9826,9.8555 L22.9826,19.7090" style="stroke-width: 0.7200; stroke: #ffffff; stroke-dasharray: none; stroke-linecap: round; stroke-linejoin: round; fill: none; "/>
    <path xmlns="http://www.w3.org/2000/svg" d="  M22.9826,9.8555 L26.8987,8.1416" style="stroke-width: 0.7200; stroke: #ffffff; stroke-dasharray: none; stroke-linecap: round; stroke-linejoin: round; fill: none; "/>
    <path xmlns="http://www.w3.org/2000/svg" d="  M18.6304,19.2810 L18.6304,29.5645" style="stroke-width: 0.7200; stroke: #ffffff; stroke-dasharray: none; stroke-linecap: round; stroke-linejoin: round; fill: none; "/>
    <g xmlns="http://www.w3.org/2000/svg" id="Layer1047">
      <path d="  M16.8904,3.4278 C16.8904,1.7139 18.6304,0.0000 20.3715,0.0000 C22.5466,0.0000 23.8516,1.7139 23.8516,3.4278 C23.8516,5.1427 22.5456,6.8566 20.3715,6.8566 C18.6304,6.8566 16.8904,5.1427 16.8904,3.4278 Z" style="stroke-width: 0.7200; stroke-linecap: round; stroke-linejoin: round; fill-rule: evenodd; fill: #ffffff; "/>
      <path d="  M16.8904,3.4278 C16.8904,1.7139 18.6304,0.0000 20.3715,0.0000 C22.5466,0.0000 23.8516,1.7139 23.8516,3.4278 C23.8516,5.1427 22.5456,6.8566 20.3715,6.8566 C18.6304,6.8566 16.8904,5.1427 16.8904,3.4278 Z" style="stroke-width: 0.7200; stroke: #ffffff; stroke-dasharray: none; stroke-linecap: round; stroke-linejoin: round; fill: none; "/>
    </g>
    <path xmlns="http://www.w3.org/2000/svg" d="  M18.1944,18.3530 L19.4995,19.2090 L19.4995,19.6380 L18.1944,19.2090 L18.1944,18.3530 Z" style="fill-rule: evenodd; fill: #ff9900; "/>
    <g xmlns="http://www.w3.org/2000/svg" xmlns:xlink="http://www.w3.org/1999/xlink" id="Layer1048">
      <defs>
        <linearGradient id="grad90">
          <stop offset="0%" stop-color="#ffff00" stop-opacity="1.0000"/>
          <stop offset="100%" stop-color="#ff6600" stop-opacity="1.0000"/>
        </linearGradient>
        <linearGradient xlink:href="#grad90" id="grad91" x1="0" y1="0" x2="0" y2="1" gradientTransform="rotate(315 .5 .5)" gradientUnits="objectBoundingBox">
  </linearGradient>
      </defs>
      <path d="  M16.8904,3.4278 C16.8904,1.7139 18.6304,0.0000 20.3715,0.0000 C22.5466,0.0000 23.8516,1.7139 23.8516,3.4278 C23.8516,5.1427 22.5456,6.8566 20.3715,6.8566 C18.6304,6.8566 16.8904,5.1427 16.8904,3.4278 Z" style="stroke-width: 0.7200; stroke-linecap: round; stroke-linejoin: round; fill-rule: evenodd; fill: url(#grad91); "/>
      <path d="  M16.8904,3.4278 C16.8904,1.7139 18.6304,0.0000 20.3715,0.0000 C22.5466,0.0000 23.8516,1.7139 23.8516,3.4278 C23.8516,5.1427 22.5456,6.8566 20.3715,6.8566 C18.6304,6.8566 16.8904,5.1427 16.8904,3.4278 Z" style="stroke-width: 0.7200; stroke: #ffffff; stroke-dasharray: none; stroke-linecap: round; stroke-linejoin: round; fill: none; "/>
    </g>
    <g xmlns="http://www.w3.org/2000/svg" id="Layer1049">
      <path d="  M13.8904,11.4278 C13.8904,9.7139 15.6304,8.0000 17.3715,8.0000 C19.5466,8.0000 20.8516,9.7139 20.8516,11.4278 C20.8516,13.1427 19.5456,14.8566 17.3715,14.8566 C15.6304,14.8566 13.8904,13.1427 13.8904,11.4278 Z" style="stroke-width: 1.2000; stroke-linecap: round; stroke-linejoin: round; fill-rule: evenodd; fill: #ffffff; "/>
      <path d="  M13.8904,11.4278 C13.8904,9.7139 15.6304,8.0000 17.3715,8.0000 C19.5466,8.0000 20.8516,9.7139 20.8516,11.4278 C20.8516,13.1427 19.5456,14.8566 17.3715,14.8566 C15.6304,14.8566 13.8904,13.1427 13.8904,11.4278 Z" style="stroke-width: 1.2000; stroke: #ffffff; stroke-dasharray: none; stroke-linecap: round; stroke-linejoin: round; fill: none; "/>
    </g>
    <g xmlns="http://www.w3.org/2000/svg" id="Layer1050">
      <path d="  M13.8904,11.4278 C13.8904,9.7139 15.6304,8.0000 17.3715,8.0000 C19.5466,8.0000 20.8516,9.7139 20.8516,11.4278 C20.8516,12.2848 20.4166,13.1427 19.9816,13.9997 C23.8977,16.1416 23.8977,16.1416 23.8977,16.1416 C23.8977,25.5681 23.8977,25.5681 23.8977,25.5681 C22.5917,25.9971 22.5917,25.9971 22.5917,25.9971 C22.5917,37.1365 22.5917,37.1365 22.5917,37.1365 C18.6765,39.2794 18.6765,39.2794 18.6765,39.2794 C13.0193,36.2785 13.0193,36.2785 13.0193,36.2785 C13.0193,24.2822 13.0193,24.2822 13.0193,24.2822 C11.7143,23.4252 11.7143,23.4252 11.7143,23.4252 C11.7143,13.9997 11.7143,13.9997 11.7143,13.9997 C14.3244,12.7138 14.3244,12.7138 14.3244,12.7138 C13.8904,12.2848 13.8904,11.8578 13.8904,11.4278 Z" style="stroke-width: 0.7200; stroke-linecap: round; stroke-linejoin: round; fill-rule: evenodd; fill: #ffffff; "/>
      <path d="  M13.8904,11.4278 C13.8904,9.7139 15.6304,8.0000 17.3715,8.0000 C19.5466,8.0000 20.8516,9.7139 20.8516,11.4278 C20.8516,12.2848 20.4166,13.1427 19.9816,13.9997 C23.8977,16.1416 23.8977,16.1416 23.8977,16.1416 C23.8977,25.5681 23.8977,25.5681 23.8977,25.5681 C22.5917,25.9971 22.5917,25.9971 22.5917,25.9971 C22.5917,37.1365 22.5917,37.1365 22.5917,37.1365 C18.6765,39.2794 18.6765,39.2794 18.6765,39.2794 C13.0193,36.2785 13.0193,36.2785 13.0193,36.2785 C13.0193,24.2822 13.0193,24.2822 13.0193,24.2822 C11.7143,23.4252 11.7143,23.4252 11.7143,23.4252 C11.7143,13.9997 11.7143,13.9997 11.7143,13.9997 C14.3244,12.7138 14.3244,12.7138 14.3244,12.7138 C13.8904,12.2848 13.8904,11.8578 13.8904,11.4278 Z" style="stroke-width: 0.7200; stroke: #ffffff; stroke-dasharray: none; stroke-linecap: round; stroke-linejoin: round; fill: none; "/>
    </g>
    <g xmlns="http://www.w3.org/2000/svg" xmlns:xlink="http://www.w3.org/1999/xlink" id="Layer1051">
      <defs>
        <linearGradient id="grad92">
          <stop offset="0%" stop-color="#ffcc00" stop-opacity="1.0000"/>
          <stop offset="100%" stop-color="#ff6600" stop-opacity="1.0000"/>
        </linearGradient>
        <linearGradient xlink:href="#grad92" id="grad93" x1="0" y1="0" x2="0" y2="1" gradientTransform="rotate(225 .5 .5)" gradientUnits="objectBoundingBox">
  </linearGradient>
      </defs>
      <path d="  M11.7143,13.9997 L16.0654,11.8578 L23.8987,16.1416 L19.9826,17.8555 L11.7143,13.9997 Z" style="stroke-width: 0.7200; stroke-linecap: round; stroke-linejoin: round; fill-rule: evenodd; fill: url(#grad93); "/>
      <path d="  M11.7143,13.9997 L16.0654,11.8578 L23.8987,16.1416 L19.9826,17.8555 L11.7143,13.9997 Z" style="stroke-width: 0.7200; stroke: #ffffff; stroke-dasharray: none; stroke-linecap: round; stroke-linejoin: round; fill: none; "/>
    </g>
    <g xmlns="http://www.w3.org/2000/svg" xmlns:xlink="http://www.w3.org/1999/xlink" id="Layer1052">
      <defs>
        <linearGradient id="grad94">
          <stop offset="0%" stop-color="#ffcc00" stop-opacity="1.0000"/>
          <stop offset="100%" stop-color="#cc3300" stop-opacity="1.0000"/>
        </linearGradient>
        <linearGradient xlink:href="#grad94" id="grad95" x1="0" y1="0" x2="0" y2="1" gradientTransform="rotate(315 .5 .5)" gradientUnits="objectBoundingBox">
  </linearGradient>
      </defs>
      <path d="  M18.6775,26.8530 L22.5927,24.7101 L22.5927,37.1355 L18.6775,39.2774 L18.6775,26.8530 Z" style="stroke-width: 0.7200; stroke-linecap: round; stroke-linejoin: round; fill-rule: evenodd; fill: url(#grad95); "/>
      <path d="  M18.6775,26.8530 L22.5927,24.7101 L22.5927,37.1355 L18.6775,39.2774 L18.6775,26.8530 Z" style="stroke-width: 0.7200; stroke: #ffffff; stroke-dasharray: none; stroke-linecap: round; stroke-linejoin: round; fill: none; "/>
    </g>
    <g xmlns="http://www.w3.org/2000/svg" xmlns:xlink="http://www.w3.org/1999/xlink" id="Layer1053">
      <defs>
        <linearGradient id="grad96">
          <stop offset="0%" stop-color="#ffcc00" stop-opacity="1.0000"/>
          <stop offset="100%" stop-color="#ff6600" stop-opacity="1.0000"/>
        </linearGradient>
        <linearGradient xlink:href="#grad96" id="grad97" x1="0" y1="0" x2="0" y2="1" gradientTransform="rotate(315 .5 .5)" gradientUnits="objectBoundingBox">
  </linearGradient>
      </defs>
      <path d="  M11.7143,13.9997 L19.9826,17.8555 L19.9826,27.7090 L18.6775,26.8530 L18.6775,39.2774 L13.0193,36.2785 L13.0193,24.2822 L11.7143,23.4252 L11.7143,13.9997 Z" style="stroke-width: 0.7200; stroke-linecap: round; stroke-linejoin: round; fill-rule: evenodd; fill: url(#grad97); "/>
      <path d="  M11.7143,13.9997 L19.9826,17.8555 L19.9826,27.7090 L18.6775,26.8530 L18.6775,39.2774 L13.0193,36.2785 L13.0193,24.2822 L11.7143,23.4252 L11.7143,13.9997 Z" style="stroke-width: 0.7200; stroke: #ffffff; stroke-dasharray: none; stroke-linecap: round; stroke-linejoin: round; fill: none; "/>
    </g>
    <g xmlns="http://www.w3.org/2000/svg" xmlns:xlink="http://www.w3.org/1999/xlink" id="Layer1054">
      <defs>
        <linearGradient id="grad98">
          <stop offset="0%" stop-color="#ffcc00" stop-opacity="1.0000"/>
          <stop offset="100%" stop-color="#cc3300" stop-opacity="1.0000"/>
        </linearGradient>
        <linearGradient xlink:href="#grad98" id="grad99" x1="0" y1="0" x2="0" y2="1" gradientTransform="rotate(315 .5 .5)" gradientUnits="objectBoundingBox">
  </linearGradient>
      </defs>
      <path d="  M19.9826,17.8555 L23.8987,16.1416 L23.8987,25.5671 L19.9826,27.7090 L19.9826,17.8555 Z" style="stroke-width: 0.7200; stroke-linecap: round; stroke-linejoin: round; fill-rule: evenodd; fill: url(#grad99); "/>
      <path d="  M19.9826,17.8555 L23.8987,16.1416 L23.8987,25.5671 L19.9826,27.7090 L19.9826,17.8555 Z" style="stroke-width: 0.7200; stroke: #ffffff; stroke-dasharray: none; stroke-linecap: round; stroke-linejoin: round; fill: none; "/>
    </g>
    <path xmlns="http://www.w3.org/2000/svg" d="  M18.6775,39.2774 L18.6775,26.8530 L19.9826,27.7090 L22.5927,25.9961" style="stroke-width: 0.7200; stroke: #ffffff; stroke-dasharray: none; stroke-linecap: round; stroke-linejoin: round; fill: none; "/>
    <path xmlns="http://www.w3.org/2000/svg" d="  M13.0193,24.2822 L11.7143,23.4252 L11.7143,13.9997 L16.0654,11.8578 L23.8987,16.1416 L23.8987,25.5671 L22.5927,25.9961 L22.5927,37.1355 L18.6775,39.2774 L13.0193,36.2785 L13.0193,24.2822 Z" style="stroke-width: 1.2000; stroke: #ffffff; stroke-dasharray: none; stroke-linecap: round; stroke-linejoin: round; fill: none; "/>
    <path xmlns="http://www.w3.org/2000/svg" d="  M11.7143,13.9997 L19.9826,17.8555" style="stroke-width: 0.7200; stroke: #ffffff; stroke-dasharray: none; stroke-linecap: round; stroke-linejoin: round; fill: none; "/>
    <path xmlns="http://www.w3.org/2000/svg" d="  M19.9826,17.8555 L19.9826,27.7090" style="stroke-width: 0.7200; stroke: #ffffff; stroke-dasharray: none; stroke-linecap: round; stroke-linejoin: round; fill: none; "/>
    <path xmlns="http://www.w3.org/2000/svg" d="  M19.9826,17.8555 L23.8987,16.1416" style="stroke-width: 0.7200; stroke: #ffffff; stroke-dasharray: none; stroke-linecap: round; stroke-linejoin: round; fill: none; "/>
    <path xmlns="http://www.w3.org/2000/svg" d="  M15.6304,27.2810 L15.6304,37.5645" style="stroke-width: 0.7200; stroke: #ffffff; stroke-dasharray: none; stroke-linecap: round; stroke-linejoin: round; fill: none; "/>
    <g xmlns="http://www.w3.org/2000/svg" id="Layer1055">
      <path d="  M13.8904,11.4278 C13.8904,9.7139 15.6304,8.0000 17.3715,8.0000 C19.5466,8.0000 20.8516,9.7139 20.8516,11.4278 C20.8516,13.1427 19.5456,14.8566 17.3715,14.8566 C15.6304,14.8566 13.8904,13.1427 13.8904,11.4278 Z" style="stroke-width: 0.7200; stroke-linecap: round; stroke-linejoin: round; fill-rule: evenodd; fill: #ffffff; "/>
      <path d="  M13.8904,11.4278 C13.8904,9.7139 15.6304,8.0000 17.3715,8.0000 C19.5466,8.0000 20.8516,9.7139 20.8516,11.4278 C20.8516,13.1427 19.5456,14.8566 17.3715,14.8566 C15.6304,14.8566 13.8904,13.1427 13.8904,11.4278 Z" style="stroke-width: 0.7200; stroke: #ffffff; stroke-dasharray: none; stroke-linecap: round; stroke-linejoin: round; fill: none; "/>
    </g>
    <path xmlns="http://www.w3.org/2000/svg" d="  M15.1944,26.3530 L16.4995,27.2090 L16.4995,27.6380 L15.1944,27.2090 L15.1944,26.3530 Z" style="fill-rule: evenodd; fill: #ff9900; "/>
    <g xmlns="http://www.w3.org/2000/svg" xmlns:xlink="http://www.w3.org/1999/xlink" id="Layer1056">
      <defs>
        <linearGradient id="grad100">
          <stop offset="0%" stop-color="#ffff00" stop-opacity="1.0000"/>
          <stop offset="100%" stop-color="#ff6600" stop-opacity="1.0000"/>
        </linearGradient>
        <linearGradient xlink:href="#grad100" id="grad101" x1="0" y1="0" x2="0" y2="1" gradientTransform="rotate(315 .5 .5)" gradientUnits="objectBoundingBox">
  </linearGradient>
      </defs>
      <path d="  M13.8904,11.4278 C13.8904,9.7139 15.6304,8.0000 17.3715,8.0000 C19.5466,8.0000 20.8516,9.7139 20.8516,11.4278 C20.8516,13.1427 19.5456,14.8566 17.3715,14.8566 C15.6304,14.8566 13.8904,13.1427 13.8904,11.4278 Z" style="stroke-width: 0.7200; stroke-linecap: round; stroke-linejoin: round; fill-rule: evenodd; fill: url(#grad101); "/>
      <path d="  M13.8904,11.4278 C13.8904,9.7139 15.6304,8.0000 17.3715,8.0000 C19.5466,8.0000 20.8516,9.7139 20.8516,11.4278 C20.8516,13.1427 19.5456,14.8566 17.3715,14.8566 C15.6304,14.8566 13.8904,13.1427 13.8904,11.4278 Z" style="stroke-width: 0.7200; stroke: #ffffff; stroke-dasharray: none; stroke-linecap: round; stroke-linejoin: round; fill: none; "/>
    </g>
    <g xmlns="http://www.w3.org/2000/svg" id="Layer1057">
      <path d="  M2.1761,5.5707 C2.1761,3.8568 3.9161,2.1429 5.6572,2.1429 C7.8323,2.1429 9.1373,3.8568 9.1373,5.5707 C9.1373,7.2856 7.8313,8.9995 5.6572,8.9995 C3.9161,8.9995 2.1761,7.2856 2.1761,5.5707 Z" style="stroke-width: 1.2000; stroke-linecap: round; stroke-linejoin: round; fill-rule: evenodd; fill: #ffffff; "/>
      <path d="  M2.1761,5.5707 C2.1761,3.8568 3.9161,2.1429 5.6572,2.1429 C7.8323,2.1429 9.1373,3.8568 9.1373,5.5707 C9.1373,7.2856 7.8313,8.9995 5.6572,8.9995 C3.9161,8.9995 2.1761,7.2856 2.1761,5.5707 Z" style="stroke-width: 1.2000; stroke: #ffffff; stroke-dasharray: none; stroke-linecap: round; stroke-linejoin: round; fill: none; "/>
    </g>
    <g xmlns="http://www.w3.org/2000/svg" id="Layer1058">
      <path d="  M2.1761,5.5707 C2.1761,3.8568 3.9161,2.1429 5.6572,2.1429 C7.8323,2.1429 9.1373,3.8568 9.1373,5.5707 C9.1373,6.4276 8.7023,7.2856 8.2673,8.1425 C12.1835,10.2844 12.1835,10.2844 12.1835,10.2844 C12.1835,19.7110 12.1835,19.7110 12.1835,19.7110 C10.8774,20.1399 10.8774,20.1399 10.8774,20.1399 C10.8774,31.2794 10.8774,31.2794 10.8774,31.2794 C6.9623,33.4223 6.9623,33.4223 6.9623,33.4223 C1.3050,30.4214 1.3050,30.4214 1.3050,30.4214 C1.3050,18.4250 1.3050,18.4250 1.3050,18.4250 C0.0000,17.5681 0.0000,17.5681 0.0000,17.5681 C0.0000,8.1425 0.0000,8.1425 0.0000,8.1425 C2.6101,6.8566 2.6101,6.8566 2.6101,6.8566 C2.1761,6.4276 2.1761,6.0007 2.1761,5.5707 Z" style="stroke-width: 0.7200; stroke-linecap: round; stroke-linejoin: round; fill-rule: evenodd; fill: #ffffff; "/>
      <path d="  M2.1761,5.5707 C2.1761,3.8568 3.9161,2.1429 5.6572,2.1429 C7.8323,2.1429 9.1373,3.8568 9.1373,5.5707 C9.1373,6.4276 8.7023,7.2856 8.2673,8.1425 C12.1835,10.2844 12.1835,10.2844 12.1835,10.2844 C12.1835,19.7110 12.1835,19.7110 12.1835,19.7110 C10.8774,20.1399 10.8774,20.1399 10.8774,20.1399 C10.8774,31.2794 10.8774,31.2794 10.8774,31.2794 C6.9623,33.4223 6.9623,33.4223 6.9623,33.4223 C1.3050,30.4214 1.3050,30.4214 1.3050,30.4214 C1.3050,18.4250 1.3050,18.4250 1.3050,18.4250 C0.0000,17.5681 0.0000,17.5681 0.0000,17.5681 C0.0000,8.1425 0.0000,8.1425 0.0000,8.1425 C2.6101,6.8566 2.6101,6.8566 2.6101,6.8566 C2.1761,6.4276 2.1761,6.0007 2.1761,5.5707 Z" style="stroke-width: 0.7200; stroke: #ffffff; stroke-dasharray: none; stroke-linecap: round; stroke-linejoin: round; fill: none; "/>
    </g>
    <g xmlns="http://www.w3.org/2000/svg" xmlns:xlink="http://www.w3.org/1999/xlink" id="Layer1059">
      <defs>
        <linearGradient id="grad102">
          <stop offset="0%" stop-color="#ffcc00" stop-opacity="1.0000"/>
          <stop offset="100%" stop-color="#ff6600" stop-opacity="1.0000"/>
        </linearGradient>
        <linearGradient xlink:href="#grad102" id="grad103" x1="0" y1="0" x2="0" y2="1" gradientTransform="rotate(225 .5 .5)" gradientUnits="objectBoundingBox">
  </linearGradient>
      </defs>
      <path d="  M0.0000,8.1425 L4.3512,6.0007 L12.1845,10.2844 L8.2683,11.9984 L0.0000,8.1425 Z" style="stroke-width: 0.7200; stroke-linecap: round; stroke-linejoin: round; fill-rule: evenodd; fill: url(#grad103); "/>
      <path d="  M0.0000,8.1425 L4.3512,6.0007 L12.1845,10.2844 L8.2683,11.9984 L0.0000,8.1425 Z" style="stroke-width: 0.7200; stroke: #ffffff; stroke-dasharray: none; stroke-linecap: round; stroke-linejoin: round; fill: none; "/>
    </g>
    <g xmlns="http://www.w3.org/2000/svg" xmlns:xlink="http://www.w3.org/1999/xlink" id="Layer1060">
      <defs>
        <linearGradient id="grad104">
          <stop offset="0%" stop-color="#ffcc00" stop-opacity="1.0000"/>
          <stop offset="100%" stop-color="#cc3300" stop-opacity="1.0000"/>
        </linearGradient>
        <linearGradient xlink:href="#grad104" id="grad105" x1="0" y1="0" x2="0" y2="1" gradientTransform="rotate(315 .5 .5)" gradientUnits="objectBoundingBox">
  </linearGradient>
      </defs>
      <path d="  M6.9633,20.9959 L10.8784,18.8530 L10.8784,31.2784 L6.9633,33.4203 L6.9633,20.9959 Z" style="stroke-width: 0.7200; stroke-linecap: round; stroke-linejoin: round; fill-rule: evenodd; fill: url(#grad105); "/>
      <path d="  M6.9633,20.9959 L10.8784,18.8530 L10.8784,31.2784 L6.9633,33.4203 L6.9633,20.9959 Z" style="stroke-width: 0.7200; stroke: #ffffff; stroke-dasharray: none; stroke-linecap: round; stroke-linejoin: round; fill: none; "/>
    </g>
    <g xmlns="http://www.w3.org/2000/svg" xmlns:xlink="http://www.w3.org/1999/xlink" id="Layer1061">
      <defs>
        <linearGradient id="grad106">
          <stop offset="0%" stop-color="#ffcc00" stop-opacity="1.0000"/>
          <stop offset="100%" stop-color="#ff6600" stop-opacity="1.0000"/>
        </linearGradient>
        <linearGradient xlink:href="#grad106" id="grad107" x1="0" y1="0" x2="0" y2="1" gradientTransform="rotate(315 .5 .5)" gradientUnits="objectBoundingBox">
  </linearGradient>
      </defs>
      <path d="  M0.0000,8.1425 L8.2683,11.9984 L8.2683,21.8518 L6.9633,20.9959 L6.9633,33.4203 L1.3050,30.4214 L1.3050,18.4250 L0.0000,17.5681 L0.0000,8.1425 Z" style="stroke-width: 0.7200; stroke-linecap: round; stroke-linejoin: round; fill-rule: evenodd; fill: url(#grad107); "/>
      <path d="  M0.0000,8.1425 L8.2683,11.9984 L8.2683,21.8518 L6.9633,20.9959 L6.9633,33.4203 L1.3050,30.4214 L1.3050,18.4250 L0.0000,17.5681 L0.0000,8.1425 Z" style="stroke-width: 0.7200; stroke: #ffffff; stroke-dasharray: none; stroke-linecap: round; stroke-linejoin: round; fill: none; "/>
    </g>
    <g xmlns="http://www.w3.org/2000/svg" xmlns:xlink="http://www.w3.org/1999/xlink" id="Layer1062">
      <defs>
        <linearGradient id="grad108">
          <stop offset="0%" stop-color="#ffcc00" stop-opacity="1.0000"/>
          <stop offset="100%" stop-color="#cc3300" stop-opacity="1.0000"/>
        </linearGradient>
        <linearGradient xlink:href="#grad108" id="grad109" x1="0" y1="0" x2="0" y2="1" gradientTransform="rotate(315 .5 .5)" gradientUnits="objectBoundingBox">
  </linearGradient>
      </defs>
      <path d="  M8.2683,11.9984 L12.1845,10.2844 L12.1845,19.7100 L8.2683,21.8518 L8.2683,11.9984 Z" style="stroke-width: 0.7200; stroke-linecap: round; stroke-linejoin: round; fill-rule: evenodd; fill: url(#grad109); "/>
      <path d="  M8.2683,11.9984 L12.1845,10.2844 L12.1845,19.7100 L8.2683,21.8518 L8.2683,11.9984 Z" style="stroke-width: 0.7200; stroke: #ffffff; stroke-dasharray: none; stroke-linecap: round; stroke-linejoin: round; fill: none; "/>
    </g>
    <path xmlns="http://www.w3.org/2000/svg" d="  M6.9633,33.4203 L6.9633,20.9959 L8.2683,21.8518 L10.8784,20.1389" style="stroke-width: 0.7200; stroke: #ffffff; stroke-dasharray: none; stroke-linecap: round; stroke-linejoin: round; fill: none; "/>
    <path xmlns="http://www.w3.org/2000/svg" d="  M1.3050,18.4250 L0.0000,17.5681 L0.0000,8.1425 L4.3512,6.0007 L12.1845,10.2844 L12.1845,19.7100 L10.8784,20.1389 L10.8784,31.2784 L6.9633,33.4203 L1.3050,30.4214 L1.3050,18.4250 Z" style="stroke-width: 1.2000; stroke: #ffffff; stroke-dasharray: none; stroke-linecap: round; stroke-linejoin: round; fill: none; "/>
    <path xmlns="http://www.w3.org/2000/svg" d="  M0.0000,8.1425 L8.2683,11.9984" style="stroke-width: 0.7200; stroke: #ffffff; stroke-dasharray: none; stroke-linecap: round; stroke-linejoin: round; fill: none; "/>
    <path xmlns="http://www.w3.org/2000/svg" d="  M8.2683,11.9984 L8.2683,21.8518" style="stroke-width: 0.7200; stroke: #ffffff; stroke-dasharray: none; stroke-linecap: round; stroke-linejoin: round; fill: none; "/>
    <path xmlns="http://www.w3.org/2000/svg" d="  M8.2683,11.9984 L12.1845,10.2844" style="stroke-width: 0.7200; stroke: #ffffff; stroke-dasharray: none; stroke-linecap: round; stroke-linejoin: round; fill: none; "/>
    <path xmlns="http://www.w3.org/2000/svg" d="  M3.9161,21.4239 L3.9161,31.7073" style="stroke-width: 0.7200; stroke: #ffffff; stroke-dasharray: none; stroke-linecap: round; stroke-linejoin: round; fill: none; "/>
    <g xmlns="http://www.w3.org/2000/svg" id="Layer1063">
      <path d="  M2.1761,5.5707 C2.1761,3.8568 3.9161,2.1429 5.6572,2.1429 C7.8323,2.1429 9.1373,3.8568 9.1373,5.5707 C9.1373,7.2856 7.8313,8.9995 5.6572,8.9995 C3.9161,8.9995 2.1761,7.2856 2.1761,5.5707 Z" style="stroke-width: 0.7200; stroke-linecap: round; stroke-linejoin: round; fill-rule: evenodd; fill: #ffffff; "/>
      <path d="  M2.1761,5.5707 C2.1761,3.8568 3.9161,2.1429 5.6572,2.1429 C7.8323,2.1429 9.1373,3.8568 9.1373,5.5707 C9.1373,7.2856 7.8313,8.9995 5.6572,8.9995 C3.9161,8.9995 2.1761,7.2856 2.1761,5.5707 Z" style="stroke-width: 0.7200; stroke: #ffffff; stroke-dasharray: none; stroke-linecap: round; stroke-linejoin: round; fill: none; "/>
    </g>
    <path xmlns="http://www.w3.org/2000/svg" d="  M3.4801,20.4959 L4.7852,21.3518 L4.7852,21.7808 L3.4801,21.3518 L3.4801,20.4959 Z" style="fill-rule: evenodd; fill: #ff9900; "/>
    <g xmlns="http://www.w3.org/2000/svg" xmlns:xlink="http://www.w3.org/1999/xlink" id="Layer1064">
      <defs>
        <linearGradient id="grad110">
          <stop offset="0%" stop-color="#ffff00" stop-opacity="1.0000"/>
          <stop offset="100%" stop-color="#ff6600" stop-opacity="1.0000"/>
        </linearGradient>
        <linearGradient xlink:href="#grad110" id="grad111" x1="0" y1="0" x2="0" y2="1" gradientTransform="rotate(315 .5 .5)" gradientUnits="objectBoundingBox">
  </linearGradient>
      </defs>
      <path d="  M2.1761,5.5707 C2.1761,3.8568 3.9161,2.1429 5.6572,2.1429 C7.8323,2.1429 9.1373,3.8568 9.1373,5.5707 C9.1373,7.2856 7.8313,8.9995 5.6572,8.9995 C3.9161,8.9995 2.1761,7.2856 2.1761,5.5707 Z" style="stroke-width: 0.7200; stroke-linecap: round; stroke-linejoin: round; fill-rule: evenodd; fill: url(#grad111); "/>
      <path d="  M2.1761,5.5707 C2.1761,3.8568 3.9161,2.1429 5.6572,2.1429 C7.8323,2.1429 9.1373,3.8568 9.1373,5.5707 C9.1373,7.2856 7.8313,8.9995 5.6572,8.9995 C3.9161,8.9995 2.1761,7.2856 2.1761,5.5707 Z" style="stroke-width: 0.7200; stroke: #ffffff; stroke-dasharray: none; stroke-linecap: round; stroke-linejoin: round; fill: none; "/>
    </g>
    <!--converted by libvisio2svg-->
  </g>
</svg>
