<svg xmlns="http://www.w3.org/2000/svg" xmlns:xlink="http://www.w3.org/1999/xlink" version="1.1" width="0.2925000000" height="0.1942000000" viewBox="0 0 21.0600 13.9800">
  <title><![CDATA[]]></title>
  <g transform=" scale(1.000000) ">
    <g xmlns="http://www.w3.org/2000/svg" id="Layer1081">
      <path d="  M0.0000,10.2354 L0.0000,3.4950 L0.2478,2.7461 L0.9911,2.2468 L1.9821,1.4979 L3.2209,0.9986 L6.4419,0.2496 L10.4061,0.0000 L14.6181,0.2496 L17.8391,0.9986 L19.0779,1.4979 L20.0689,2.2468 L20.8122,2.7461 L21.0600,3.4950 L21.0600,10.2354 L20.8122,10.9843 L20.0689,11.7332 L19.0779,12.4821 L17.8391,12.9814 L16.3525,13.4807 L14.6181,13.7304 L12.6360,13.9800 L10.4061,13.9800 L8.4240,13.9800 L6.4419,13.7304 L4.7075,13.4807 L3.2209,12.9814 L1.9821,12.4821 L0.9911,11.7332 L0.2478,10.9843 L0.0000,10.2354 Z" style="stroke-width: 1.2000; stroke-linecap: round; stroke-linejoin: round; fill-rule: evenodd; fill: #ffffff; "/>
      <path d="  M0.0000,10.2354 L0.0000,3.4950 L0.2478,2.7461 L0.9911,2.2468 L1.9821,1.4979 L3.2209,0.9986 L6.4419,0.2496 L10.4061,0.0000 L14.6181,0.2496 L17.8391,0.9986 L19.0779,1.4979 L20.0689,2.2468 L20.8122,2.7461 L21.0600,3.4950 L21.0600,10.2354 L20.8122,10.9843 L20.0689,11.7332 L19.0779,12.4821 L17.8391,12.9814 L16.3525,13.4807 L14.6181,13.7304 L12.6360,13.9800 L10.4061,13.9800 L8.4240,13.9800 L6.4419,13.7304 L4.7075,13.4807 L3.2209,12.9814 L1.9821,12.4821 L0.9911,11.7332 L0.2478,10.9843 L0.0000,10.2354 Z" style="stroke-width: 1.2000; stroke: #ffffff; stroke-dasharray: none; stroke-linecap: round; stroke-linejoin: round; fill: none; "/>
    </g>
    <g xmlns="http://www.w3.org/2000/svg" id="Layer1082">
      <defs>
        <linearGradient id="grad143">
          <stop offset="0%" stop-color="#e64d00" stop-opacity="1.0000"/>
          <stop offset="50%" stop-color="#ffcc00" stop-opacity="1.0000"/>
          <stop offset="100%" stop-color="#e64d00" stop-opacity="1.0000"/>
        </linearGradient>
      </defs>
      <path d="  M21.0600,3.4950 L20.8122,4.2439 L20.0689,4.9929 L19.0779,5.4921 L17.8391,5.9914 L16.3525,6.4907 L14.6181,6.9900 L12.6360,7.2396 L10.4061,7.2396 L8.4240,7.2396 L6.4419,6.9900 L4.7075,6.4907 L3.2209,5.9914 L1.9821,5.4921 L0.9911,4.9929 L0.2478,4.2439 L0.0000,3.4950 L0.0000,10.2354 L0.2478,10.9843 L0.9911,11.7332 L1.9821,12.4821 L3.2209,12.9814 L4.7075,13.4807 L6.4419,13.7304 L8.4240,13.9800 L10.4061,13.9800 L12.6360,13.9800 L14.6181,13.7304 L16.3525,13.4807 L17.8391,12.9814 L19.0779,12.4821 L20.0689,11.7332 L20.8122,10.9843 L21.0600,10.2354 L21.0600,3.4950 Z" style="stroke-width: 1.2000; stroke-linecap: round; stroke-linejoin: round; fill-rule: evenodd; fill: url(#grad143); "/>
      <path d="  M21.0600,3.4950 L20.8122,4.2439 L20.0689,4.9929 L19.0779,5.4921 L17.8391,5.9914 L16.3525,6.4907 L14.6181,6.9900 L12.6360,7.2396 L10.4061,7.2396 L8.4240,7.2396 L6.4419,6.9900 L4.7075,6.4907 L3.2209,5.9914 L1.9821,5.4921 L0.9911,4.9929 L0.2478,4.2439 L0.0000,3.4950 L0.0000,10.2354 L0.2478,10.9843 L0.9911,11.7332 L1.9821,12.4821 L3.2209,12.9814 L4.7075,13.4807 L6.4419,13.7304 L8.4240,13.9800 L10.4061,13.9800 L12.6360,13.9800 L14.6181,13.7304 L16.3525,13.4807 L17.8391,12.9814 L19.0779,12.4821 L20.0689,11.7332 L20.8122,10.9843 L21.0600,10.2354 L21.0600,3.4950 Z" style="stroke-width: 1.2000; stroke: #ffffff; stroke-dasharray: none; stroke-linecap: round; stroke-linejoin: round; fill: none; "/>
    </g>
    <g xmlns="http://www.w3.org/2000/svg" xmlns:xlink="http://www.w3.org/1999/xlink" id="Layer1083">
      <defs>
        <linearGradient id="grad144">
          <stop offset="0%" stop-color="#ffcc00" stop-opacity="1.0000"/>
          <stop offset="100%" stop-color="#ff6600" stop-opacity="1.0000"/>
        </linearGradient>
        <linearGradient xlink:href="#grad144" id="grad145" x1="0" y1="0" x2="0" y2="1" gradientTransform="rotate(225 .5 .5)" gradientUnits="objectBoundingBox">
  </linearGradient>
      </defs>
      <path d="  M0.0000,3.4950 L0.2478,2.7461 L0.9911,2.2468 L1.9821,1.4979 L3.2209,0.9986 L6.4419,0.2496 L10.4061,0.0000 L14.6181,0.2496 L17.8391,0.9986 L19.0779,1.4979 L20.0689,2.2468 L20.8122,2.7461 L21.0600,3.4950 L20.8122,4.2439 L20.0689,4.9929 L19.0779,5.4921 L17.8391,5.9914 L16.3525,6.4907 L14.6181,6.9900 L12.6360,7.2396 L10.4061,7.2396 L8.4240,7.2396 L6.4419,6.9900 L4.7075,6.4907 L3.2209,5.9914 L1.9821,5.4921 L0.9911,4.9929 L0.2478,4.2439 L0.0000,3.4950 Z" style="stroke-width: 1.2000; stroke-linecap: round; stroke-linejoin: round; fill-rule: evenodd; fill: url(#grad145); "/>
      <path d="  M0.0000,3.4950 L0.2478,2.7461 L0.9911,2.2468 L1.9821,1.4979 L3.2209,0.9986 L6.4419,0.2496 L10.4061,0.0000 L14.6181,0.2496 L17.8391,0.9986 L19.0779,1.4979 L20.0689,2.2468 L20.8122,2.7461 L21.0600,3.4950 L20.8122,4.2439 L20.0689,4.9929 L19.0779,5.4921 L17.8391,5.9914 L16.3525,6.4907 L14.6181,6.9900 L12.6360,7.2396 L10.4061,7.2396 L8.4240,7.2396 L6.4419,6.9900 L4.7075,6.4907 L3.2209,5.9914 L1.9821,5.4921 L0.9911,4.9929 L0.2478,4.2439 L0.0000,3.4950 Z" style="stroke-width: 1.2000; stroke: #ffffff; stroke-dasharray: none; stroke-linecap: round; stroke-linejoin: round; fill: none; "/>
    </g>
    <!--converted by libvisio2svg-->
  </g>
</svg>
