<svg xmlns="http://www.w3.org/2000/svg" xmlns:xlink="http://www.w3.org/1999/xlink" version="1.1" width="0.5129000000" height="0.6183000000" viewBox="0 0 36.9300 44.5181">
  <title><![CDATA[]]></title>
  <g transform=" scale(1.000000) ">
    <g xmlns="http://www.w3.org/2000/svg" id="Layer1025">
      <path d="  M0.0000,8.2559 L16.0333,0.0000 L24.0500,4.0028 L24.0500,34.0241 L8.0167,42.2800 L0.0000,38.0270 L0.0000,8.2559 Z" style="stroke-width: 1.2000; stroke-linecap: round; stroke-linejoin: round; fill-rule: evenodd; fill: #ffffff; "/>
      <path d="  M0.0000,8.2559 L16.0333,0.0000 L24.0500,4.0028 L24.0500,34.0241 L8.0167,42.2800 L0.0000,38.0270 L0.0000,8.2559 Z" style="stroke-width: 1.2000; stroke: #ffffff; stroke-dasharray: none; stroke-linecap: round; stroke-linejoin: round; fill: none; "/>
    </g>
    <g xmlns="http://www.w3.org/2000/svg" xmlns:xlink="http://www.w3.org/1999/xlink" id="Layer1026">
      <defs>
        <linearGradient id="grad56">
          <stop offset="0%" stop-color="#ffcc00" stop-opacity="1.0000"/>
          <stop offset="100%" stop-color="#ff6600" stop-opacity="1.0000"/>
        </linearGradient>
        <linearGradient xlink:href="#grad56" id="grad57" x1="0" y1="0" x2="0" y2="1" gradientTransform="rotate(225 .5 .5)" gradientUnits="objectBoundingBox">
  </linearGradient>
      </defs>
      <path d="  M16.0333,0.0000 L24.0500,4.0028 L8.0167,12.5089 L0.0000,8.2559 L16.0333,0.0000 Z" style="stroke-width: 1.2000; stroke-linecap: round; stroke-linejoin: round; fill-rule: evenodd; fill: url(#grad57); "/>
      <path d="  M16.0333,0.0000 L24.0500,4.0028 L8.0167,12.5089 L0.0000,8.2559 L16.0333,0.0000 Z" style="stroke-width: 1.2000; stroke: #ffffff; stroke-dasharray: none; stroke-linecap: round; stroke-linejoin: round; fill: none; "/>
    </g>
    <g xmlns="http://www.w3.org/2000/svg" xmlns:xlink="http://www.w3.org/1999/xlink" id="Layer1027">
      <defs>
        <linearGradient id="grad58">
          <stop offset="0%" stop-color="#ffcc00" stop-opacity="1.0000"/>
          <stop offset="100%" stop-color="#cc3300" stop-opacity="1.0000"/>
        </linearGradient>
        <linearGradient xlink:href="#grad58" id="grad59" x1="0" y1="0" x2="0" y2="1" gradientTransform="rotate(315 .5 .5)" gradientUnits="objectBoundingBox">
  </linearGradient>
      </defs>
      <path d="  M8.0167,12.5089 L8.0167,42.2800 L24.0500,34.0241 L24.0500,4.0028 L8.0167,12.5089 Z" style="stroke-width: 1.2000; stroke-linecap: round; stroke-linejoin: round; fill-rule: evenodd; fill: url(#grad59); "/>
      <path d="  M8.0167,12.5089 L8.0167,42.2800 L24.0500,34.0241 L24.0500,4.0028 L8.0167,12.5089 Z" style="stroke-width: 1.2000; stroke: #ffffff; stroke-dasharray: none; stroke-linecap: round; stroke-linejoin: round; fill: none; "/>
    </g>
    <g xmlns="http://www.w3.org/2000/svg" xmlns:xlink="http://www.w3.org/1999/xlink" id="Layer1028">
      <defs>
        <linearGradient id="grad60">
          <stop offset="0%" stop-color="#ffcc00" stop-opacity="1.0000"/>
          <stop offset="100%" stop-color="#ff6600" stop-opacity="1.0000"/>
        </linearGradient>
        <linearGradient xlink:href="#grad60" id="grad61" x1="0" y1="0" x2="0" y2="1" gradientTransform="rotate(315 .5 .5)" gradientUnits="objectBoundingBox">
  </linearGradient>
      </defs>
      <path d="  M8.0167,12.5089 L8.0167,42.2800 L0.0000,38.0270 L0.0000,8.2559 L8.0167,12.5089 Z" style="stroke-width: 1.2000; stroke-linecap: round; stroke-linejoin: round; fill-rule: evenodd; fill: url(#grad61); "/>
      <path d="  M8.0167,12.5089 L8.0167,42.2800 L0.0000,38.0270 L0.0000,8.2559 L8.0167,12.5089 Z" style="stroke-width: 1.2000; stroke: #ffffff; stroke-dasharray: none; stroke-linecap: round; stroke-linejoin: round; fill: none; "/>
    </g>
    <path xmlns="http://www.w3.org/2000/svg" d="  M0.0000,8.2559 L8.0167,12.5089" style="stroke-width: 1.2000; stroke: #ffffff; stroke-dasharray: none; stroke-linecap: round; stroke-linejoin: round; fill: none; "/>
    <path xmlns="http://www.w3.org/2000/svg" d="  M8.0167,12.5089 L24.0500,4.0028" style="stroke-width: 1.2000; stroke: #ffffff; stroke-dasharray: none; stroke-linecap: round; stroke-linejoin: round; fill: none; "/>
    <path xmlns="http://www.w3.org/2000/svg" d="  M2.5052,21.7654 L5.5115,23.0163" style="stroke-width: 0.7200; stroke: #ffffff; stroke-dasharray: none; stroke-linecap: round; stroke-linejoin: round; fill: none; "/>
    <path xmlns="http://www.w3.org/2000/svg" d="  M2.5052,18.5131 L5.5115,19.7640" style="stroke-width: 0.7200; stroke: #ffffff; stroke-dasharray: none; stroke-linecap: round; stroke-linejoin: round; fill: none; "/>
    <path xmlns="http://www.w3.org/2000/svg" d="  M16.0333,0.0000 L24.0500,4.0028 L24.0500,34.0241 L8.0167,42.2800 L0.0000,38.0270 L0.0000,8.2559 L16.0333,0.0000 Z" style="stroke-width: 1.2000; stroke: #ffffff; stroke-dasharray: none; stroke-linecap: round; stroke-linejoin: round; fill: none; "/>
    <path xmlns="http://www.w3.org/2000/svg" d="  M8.0167,42.2800 L8.0167,12.5089" style="stroke-width: 1.2000; stroke: #ffffff; stroke-dasharray: none; stroke-linecap: round; stroke-linejoin: round; fill: none; "/>
    <defs xmlns="http://www.w3.org/2000/svg">
      <radialGradient id="grad62" cx="0.0000%" cy="0.0000%" r="100.0000%">
        <stop offset="0%" stop-color="#ffffff" stop-opacity="1.0000"/>
        <stop offset="100%" stop-color="#0066ff" stop-opacity="1.0000"/>
      </radialGradient>
    </defs>
    <path xmlns="http://www.w3.org/2000/svg" d="  M36.6135,32.8511 L36.4050,35.2057 L35.7793,37.3462 L34.7366,39.2728 L33.4854,40.9852 L31.8170,42.2695 L29.9401,43.3398 L27.8547,43.9820 L25.7693,44.1961 L23.4753,43.9820 L21.3899,43.3398 L19.5130,42.2695 L17.8446,40.9852 L16.5934,39.2728 L15.5507,37.3462 L14.9250,35.2057 L14.7165,32.8511 L14.9250,30.7105 L15.5507,28.5699 L16.5934,26.6434 L17.8446,24.9310 L19.5130,23.6466 L21.3899,22.5764 L23.4753,21.9342 L25.7693,21.7201 L27.8547,21.9342 L29.9401,22.5764 L31.8170,23.6466 L33.4854,24.9310 L34.7366,26.6434 L35.7793,28.5699 L36.4050,30.7105 L36.6135,32.8511 Z" style="fill-rule: evenodd; fill: url(#grad62); "/>
    <defs xmlns="http://www.w3.org/2000/svg">
      <radialGradient id="grad63" cx="50.0000%" cy="50.0000%" r="100.0000%">
        <stop offset="0%" stop-color="#ffffff" stop-opacity="1.0000"/>
        <stop offset="100%" stop-color="#0080ff" stop-opacity="1.0000"/>
      </radialGradient>
    </defs>
    <path xmlns="http://www.w3.org/2000/svg" d="  M31.5657,29.5833 L31.4242,31.1373 L30.9997,32.5499 L30.2922,33.8213 L29.4431,34.9515 L28.3111,35.7991 L27.0375,36.5054 L25.6225,36.9292 L24.2074,37.0705 L22.6509,36.9292 L21.2358,36.5054 L19.9623,35.7991 L18.8302,34.9515 L17.9812,33.8213 L17.2737,32.5499 L16.8492,31.1373 L16.7077,29.5833 L16.8492,28.1706 L17.2737,26.7580 L17.9812,25.4866 L18.8302,24.3564 L19.9623,23.5088 L21.2358,22.8025 L22.6509,22.3787 L24.2074,22.2374 L25.6225,22.3787 L27.0375,22.8025 L28.3111,23.5088 L29.4431,24.3564 L30.2922,25.4866 L30.9997,26.7580 L31.4242,28.1706 L31.5657,29.5833 Z" style="fill-rule: evenodd; fill: url(#grad63); "/>
    <g xmlns="http://www.w3.org/2000/svg" xmlns:xlink="http://www.w3.org/1999/xlink" id="Layer1029">
      <defs>
        <linearGradient id="grad64">
          <stop offset="0%" stop-color="#ffcc00" stop-opacity="1.0000"/>
          <stop offset="100%" stop-color="#cc3300" stop-opacity="1.0000"/>
        </linearGradient>
        <linearGradient xlink:href="#grad64" id="grad65" x1="0" y1="0" x2="0" y2="1" gradientTransform="rotate(45 .5 .5)" gradientUnits="objectBoundingBox">
  </linearGradient>
      </defs>
      <path d="  M20.9728,23.6466 L21.3899,23.6466 L21.5984,23.2185 L21.5984,23.0045 L21.1813,22.5764 L19.9301,23.2185 L18.6788,24.2888 L17.6361,25.1450 L16.8019,26.4294 L15.9677,27.4997 L15.3421,28.9981 L14.9250,30.4964 L14.7165,31.9948 L14.9250,32.4230 L15.3421,32.6370 L15.7592,32.8511 L16.3848,33.4932 L17.4275,35.2057 L18.0532,36.0619 L18.8873,36.7041 L18.4703,37.5603 L18.2617,38.4165 L18.2617,39.4868 L18.4703,39.7009 L18.8873,40.1290 L19.9301,41.1993 L20.5557,41.6274 L21.1813,41.8414 L20.9728,43.1258 L23.0582,43.7679 L25.1436,44.1961 L25.7693,43.7679 L27.2291,42.2695 L28.6889,40.7712 L29.3145,40.5571 L29.3145,40.3430 L29.3145,39.9149 L29.1060,39.7009 L28.8974,39.4868 L28.2718,39.2728 L26.8120,39.0587 L25.5607,38.6306 L24.7266,37.7744 L23.8924,36.9181 L23.0582,36.2760 L22.2240,35.8479 L21.5984,35.8479 L20.9728,35.8479 L19.7215,35.8479 L19.5130,35.6338 L19.3044,35.6338 L19.0959,35.6338 L18.6788,35.4197 L18.4703,34.9916 L18.2617,34.3495 L18.2617,33.7073 L18.4703,33.4932 L18.8873,33.2792 L18.6788,32.4230 L18.2617,32.6370 L17.6361,32.6370 L17.2190,32.2089 L17.0105,31.7808 L16.8019,31.1386 L16.8019,30.7105 L17.0105,30.0683 L17.4275,29.8543 L18.0532,29.6402 L18.4703,29.8543 L19.0959,30.2824 L19.5130,30.7105 L19.9301,31.9948 L20.1386,32.2089 L20.3471,32.2089 L20.3471,30.9246 L20.5557,30.4964 L20.9728,30.0683 L21.8070,29.4262 L22.0155,28.9981 L22.2240,28.5699 L22.6411,28.1418 L23.0582,28.1418 L23.4753,27.9278 L24.1009,27.4997 L24.7266,26.8575 L25.1436,26.4294 L25.7693,26.2153 L25.7693,25.7872 L24.9351,25.7872 L24.5180,25.5732 L23.4753,24.7169 L22.6411,24.2888 L22.4326,24.5029 L22.2240,25.1450 L21.8070,25.5732 L21.5984,25.1450 L21.1813,24.7169 L20.9728,24.2888 L20.9728,23.6466 Z" style="stroke-width: 0.7200; stroke-linecap: round; stroke-linejoin: round; fill-rule: evenodd; fill: url(#grad65); "/>
      <path d="  M20.9728,23.6466 L21.3899,23.6466 L21.5984,23.2185 L21.5984,23.0045 L21.1813,22.5764 L19.9301,23.2185 L18.6788,24.2888 L17.6361,25.1450 L16.8019,26.4294 L15.9677,27.4997 L15.3421,28.9981 L14.9250,30.4964 L14.7165,31.9948 L14.9250,32.4230 L15.3421,32.6370 L15.7592,32.8511 L16.3848,33.4932 L17.4275,35.2057 L18.0532,36.0619 L18.8873,36.7041 L18.4703,37.5603 L18.2617,38.4165 L18.2617,39.4868 L18.4703,39.7009 L18.8873,40.1290 L19.9301,41.1993 L20.5557,41.6274 L21.1813,41.8414 L20.9728,43.1258 L23.0582,43.7679 L25.1436,44.1961 L25.7693,43.7679 L27.2291,42.2695 L28.6889,40.7712 L29.3145,40.5571 L29.3145,40.3430 L29.3145,39.9149 L29.1060,39.7009 L28.8974,39.4868 L28.2718,39.2728 L26.8120,39.0587 L25.5607,38.6306 L24.7266,37.7744 L23.8924,36.9181 L23.0582,36.2760 L22.2240,35.8479 L21.5984,35.8479 L20.9728,35.8479 L19.7215,35.8479 L19.5130,35.6338 L19.3044,35.6338 L19.0959,35.6338 L18.6788,35.4197 L18.4703,34.9916 L18.2617,34.3495 L18.2617,33.7073 L18.4703,33.4932 L18.8873,33.2792 L18.6788,32.4230 L18.2617,32.6370 L17.6361,32.6370 L17.2190,32.2089 L17.0105,31.7808 L16.8019,31.1386 L16.8019,30.7105 L17.0105,30.0683 L17.4275,29.8543 L18.0532,29.6402 L18.4703,29.8543 L19.0959,30.2824 L19.5130,30.7105 L19.9301,31.9948 L20.1386,32.2089 L20.3471,32.2089 L20.3471,30.9246 L20.5557,30.4964 L20.9728,30.0683 L21.8070,29.4262 L22.0155,28.9981 L22.2240,28.5699 L22.6411,28.1418 L23.0582,28.1418 L23.4753,27.9278 L24.1009,27.4997 L24.7266,26.8575 L25.1436,26.4294 L25.7693,26.2153 L25.7693,25.7872 L24.9351,25.7872 L24.5180,25.5732 L23.4753,24.7169 L22.6411,24.2888 L22.4326,24.5029 L22.2240,25.1450 L21.8070,25.5732 L21.5984,25.1450 L21.1813,24.7169 L20.9728,24.2888 L20.9728,23.6466 Z" style="stroke-width: 0.7200; stroke: #ffcc00; stroke-dasharray: none; stroke-linecap: round; stroke-linejoin: round; fill: none; "/>
    </g>
    <g xmlns="http://www.w3.org/2000/svg" xmlns:xlink="http://www.w3.org/1999/xlink" id="Layer1030">
      <defs>
        <linearGradient id="grad66">
          <stop offset="0%" stop-color="#ffcc00" stop-opacity="1.0000"/>
          <stop offset="100%" stop-color="#cc3300" stop-opacity="1.0000"/>
        </linearGradient>
        <linearGradient xlink:href="#grad66" id="grad67" x1="0" y1="0" x2="0" y2="1" gradientTransform="rotate(315 .5 .5)" gradientUnits="objectBoundingBox">
  </linearGradient>
      </defs>
      <path d="  M35.5708,28.1418 L35.3623,28.1418 L35.1537,27.9278 L34.5281,28.7840 L34.1110,29.6402 L33.4854,30.7105 L32.8597,31.9948 L32.6512,33.7073 L32.6512,34.5635 L33.0683,35.6338 L33.6939,36.2760 L34.5281,36.7041 L35.1537,36.7041 L35.3623,36.4900 L35.7793,36.2760 L36.1964,36.0619 L36.6135,34.5635 L36.6135,32.8511 L36.6135,31.7808 L36.4050,30.4964 L36.1964,29.2121 L35.5708,28.1418 Z M32.8597,24.2888 L32.4427,25.3591 L32.2341,26.0013 L32.2341,26.4294 L32.2341,26.8575 L32.2341,27.0715 L32.2341,27.4997 L31.8170,27.9278 L31.6085,28.3559 L31.6085,28.7840 L32.2341,29.6402 L32.6512,29.8543 L32.8597,29.8543 L33.2768,29.8543 L33.4854,29.4262 L33.6939,28.5699 L33.6939,27.9278 L33.6939,27.7137 L34.5281,27.7137 L34.7366,27.7137 L35.1537,27.9278 L35.1537,27.2856 L34.1110,25.7872 L32.8597,24.2888 Z" style="stroke-width: 0.7200; stroke-linecap: round; stroke-linejoin: round; fill-rule: evenodd; fill: url(#grad67); "/>
      <path d="  M35.5708,28.1418 L35.3623,28.1418 L35.1537,27.9278 L34.5281,28.7840 L34.1110,29.6402 L33.4854,30.7105 L32.8597,31.9948 L32.6512,33.7073 L32.6512,34.5635 L33.0683,35.6338 L33.6939,36.2760 L34.5281,36.7041 L35.1537,36.7041 L35.3623,36.4900 L35.7793,36.2760 L36.1964,36.0619 L36.6135,34.5635 L36.6135,32.8511 L36.6135,31.7808 L36.4050,30.4964 L36.1964,29.2121 L35.5708,28.1418 Z M32.8597,24.2888 L32.4427,25.3591 L32.2341,26.0013 L32.2341,26.4294 L32.2341,26.8575 L32.2341,27.0715 L32.2341,27.4997 L31.8170,27.9278 L31.6085,28.3559 L31.6085,28.7840 L32.2341,29.6402 L32.6512,29.8543 L32.8597,29.8543 L33.2768,29.8543 L33.4854,29.4262 L33.6939,28.5699 L33.6939,27.9278 L33.6939,27.7137 L34.5281,27.7137 L34.7366,27.7137 L35.1537,27.9278 L35.1537,27.2856 L34.1110,25.7872 L32.8597,24.2888 Z" style="stroke-width: 0.7200; stroke: #ffcc00; stroke-dasharray: none; stroke-linecap: round; stroke-linejoin: round; fill: none; "/>
    </g>
    <g xmlns="http://www.w3.org/2000/svg" xmlns:xlink="http://www.w3.org/1999/xlink" id="Layer1031">
      <defs>
        <linearGradient id="grad68">
          <stop offset="0%" stop-color="#ffcc00" stop-opacity="1.0000"/>
          <stop offset="100%" stop-color="#cc3300" stop-opacity="1.0000"/>
        </linearGradient>
        <linearGradient xlink:href="#grad68" id="grad69" x1="0" y1="0" x2="0" y2="1" gradientTransform="rotate(315 .5 .5)" gradientUnits="objectBoundingBox">
  </linearGradient>
      </defs>
      <path d="  M30.3572,22.7904 L30.5658,23.8607 L30.7743,24.2888 L30.9829,24.7169 L32.2341,23.8607 L30.3572,22.7904 Z" style="stroke-width: 0.7200; stroke-linecap: round; stroke-linejoin: round; fill-rule: evenodd; fill: url(#grad69); "/>
      <path d="  M30.3572,22.7904 L30.5658,23.8607 L30.7743,24.2888 L30.9829,24.7169 L32.2341,23.8607 L30.3572,22.7904 Z" style="stroke-width: 0.7200; stroke: #ffcc00; stroke-dasharray: none; stroke-linecap: round; stroke-linejoin: round; fill: none; "/>
    </g>
    <g xmlns="http://www.w3.org/2000/svg" xmlns:xlink="http://www.w3.org/1999/xlink" id="Layer1032">
      <defs>
        <linearGradient id="grad70">
          <stop offset="0%" stop-color="#ffcc00" stop-opacity="1.0000"/>
          <stop offset="100%" stop-color="#cc3300" stop-opacity="1.0000"/>
        </linearGradient>
        <linearGradient xlink:href="#grad70" id="grad71" x1="0" y1="0" x2="0" y2="1" gradientTransform="rotate(315 .5 .5)" gradientUnits="objectBoundingBox">
  </linearGradient>
      </defs>
      <path d="  M25.7693,21.7201 L24.3095,21.7201 L22.8497,21.9342 L23.2668,22.3623 L23.6838,22.7904 L24.7266,23.0045 L24.5180,23.4326 L24.3095,24.0748 L24.5180,25.1450 L25.5607,24.9310 L26.8120,24.7169 L27.6462,24.2888 L28.0632,24.0748 L28.6889,24.0748 L28.6889,23.6466 L29.9401,23.6466 L29.7316,23.0045 L29.5230,22.3623 L27.6462,21.9342 L25.7693,21.7201 Z" style="stroke-width: 0.7200; stroke-linecap: round; stroke-linejoin: round; fill-rule: evenodd; fill: url(#grad71); "/>
      <path d="  M25.7693,21.7201 L24.3095,21.7201 L22.8497,21.9342 L23.2668,22.3623 L23.6838,22.7904 L24.7266,23.0045 L24.5180,23.4326 L24.3095,24.0748 L24.5180,25.1450 L25.5607,24.9310 L26.8120,24.7169 L27.6462,24.2888 L28.0632,24.0748 L28.6889,24.0748 L28.6889,23.6466 L29.9401,23.6466 L29.7316,23.0045 L29.5230,22.3623 L27.6462,21.9342 L25.7693,21.7201 Z" style="stroke-width: 0.7200; stroke: #ffcc00; stroke-dasharray: none; stroke-linecap: round; stroke-linejoin: round; fill: none; "/>
    </g>
    <path xmlns="http://www.w3.org/2000/svg" d="  M36.9300,32.8480 L36.7154,35.2701 L36.0717,37.4720 L34.9989,39.4537 L33.7114,41.2152 L31.9949,42.5364 L30.0637,43.6373 L27.9180,44.2979 L25.7723,44.5181 L23.4120,44.2979 L21.2663,43.6373 L19.3351,42.5364 L17.6186,41.2152 L16.3311,39.4537 L15.2583,37.4720 L14.6146,35.2701 L14.4000,32.8480 L14.6146,30.6461 L15.2583,28.4442 L16.3311,26.4625 L17.6186,24.7010 L19.3351,23.3798 L21.2663,22.2789 L23.4120,21.6183 L25.7723,21.3981 L27.9180,21.6183 L30.0637,22.2789 L31.9949,23.3798 L33.7114,24.7010 L34.9989,26.4625 L36.0717,28.4442 L36.7154,30.6461 L36.9300,32.8480 Z" style="stroke-width: 1.2000; stroke: #ffffff; stroke-dasharray: none; stroke-linecap: round; stroke-linejoin: round; fill: none; "/>
    <!--converted by libvisio2svg-->
  </g>
</svg>
