<svg xmlns="http://www.w3.org/2000/svg" xmlns:xlink="http://www.w3.org/1999/xlink" version="1.1" width="0.3340000000" height="0.5872000000" viewBox="0 0 24.0500 42.2800">
  <title><![CDATA[]]></title>
  <g transform=" scale(1.000000) ">
    <g xmlns="http://www.w3.org/2000/svg" id="Layer1000">
      <path d="  M0.0000,8.2559 L16.0333,0.0000 L24.0500,4.0028 L24.0500,34.0241 L8.0167,42.2800 L0.0000,38.0270 L0.0000,8.2559 Z" style="stroke-width: 1.2000; stroke-linecap: round; stroke-linejoin: round; fill-rule: evenodd; fill: #ffffff; "/>
      <path d="  M0.0000,8.2559 L16.0333,0.0000 L24.0500,4.0028 L24.0500,34.0241 L8.0167,42.2800 L0.0000,38.0270 L0.0000,8.2559 Z" style="stroke-width: 1.2000; stroke: #ffffff; stroke-dasharray: none; stroke-linecap: round; stroke-linejoin: round; fill: none; "/>
    </g>
    <g xmlns="http://www.w3.org/2000/svg" xmlns:xlink="http://www.w3.org/1999/xlink" id="Layer1001">
      <defs>
        <linearGradient id="grad1">
          <stop offset="0%" stop-color="#ffcc00" stop-opacity="1.0000"/>
          <stop offset="100%" stop-color="#ff6600" stop-opacity="1.0000"/>
        </linearGradient>
        <linearGradient xlink:href="#grad1" id="grad2" x1="0" y1="0" x2="0" y2="1" gradientTransform="rotate(225 .5 .5)" gradientUnits="objectBoundingBox">
  </linearGradient>
      </defs>
      <path d="  M16.0333,0.0000 L24.0500,4.0028 L8.0167,12.5089 L0.0000,8.2559 L16.0333,0.0000 Z" style="stroke-width: 1.2000; stroke-linecap: round; stroke-linejoin: round; fill-rule: evenodd; fill: url(#grad2); "/>
      <path d="  M16.0333,0.0000 L24.0500,4.0028 L8.0167,12.5089 L0.0000,8.2559 L16.0333,0.0000 Z" style="stroke-width: 1.2000; stroke: #ffffff; stroke-dasharray: none; stroke-linecap: round; stroke-linejoin: round; fill: none; "/>
    </g>
    <g xmlns="http://www.w3.org/2000/svg" xmlns:xlink="http://www.w3.org/1999/xlink" id="Layer1002">
      <defs>
        <linearGradient id="grad3">
          <stop offset="0%" stop-color="#ffcc00" stop-opacity="1.0000"/>
          <stop offset="100%" stop-color="#cc3300" stop-opacity="1.0000"/>
        </linearGradient>
        <linearGradient xlink:href="#grad3" id="grad4" x1="0" y1="0" x2="0" y2="1" gradientTransform="rotate(315 .5 .5)" gradientUnits="objectBoundingBox">
  </linearGradient>
      </defs>
      <path d="  M8.0167,12.5089 L8.0167,42.2800 L24.0500,34.0241 L24.0500,4.0028 L8.0167,12.5089 Z" style="stroke-width: 1.2000; stroke-linecap: round; stroke-linejoin: round; fill-rule: evenodd; fill: url(#grad4); "/>
      <path d="  M8.0167,12.5089 L8.0167,42.2800 L24.0500,34.0241 L24.0500,4.0028 L8.0167,12.5089 Z" style="stroke-width: 1.2000; stroke: #ffffff; stroke-dasharray: none; stroke-linecap: round; stroke-linejoin: round; fill: none; "/>
    </g>
    <g xmlns="http://www.w3.org/2000/svg" xmlns:xlink="http://www.w3.org/1999/xlink" id="Layer1003">
      <defs>
        <linearGradient id="grad5">
          <stop offset="0%" stop-color="#ffcc00" stop-opacity="1.0000"/>
          <stop offset="100%" stop-color="#ff6600" stop-opacity="1.0000"/>
        </linearGradient>
        <linearGradient xlink:href="#grad5" id="grad6" x1="0" y1="0" x2="0" y2="1" gradientTransform="rotate(315 .5 .5)" gradientUnits="objectBoundingBox">
  </linearGradient>
      </defs>
      <path d="  M8.0167,12.5089 L8.0167,42.2800 L0.0000,38.0270 L0.0000,8.2559 L8.0167,12.5089 Z" style="stroke-width: 1.2000; stroke-linecap: round; stroke-linejoin: round; fill-rule: evenodd; fill: url(#grad6); "/>
      <path d="  M8.0167,12.5089 L8.0167,42.2800 L0.0000,38.0270 L0.0000,8.2559 L8.0167,12.5089 Z" style="stroke-width: 1.2000; stroke: #ffffff; stroke-dasharray: none; stroke-linecap: round; stroke-linejoin: round; fill: none; "/>
    </g>
    <path xmlns="http://www.w3.org/2000/svg" d="  M0.0000,8.2559 L8.0167,12.5089" style="stroke-width: 1.2000; stroke: #ffffff; stroke-dasharray: none; stroke-linecap: round; stroke-linejoin: round; fill: none; "/>
    <path xmlns="http://www.w3.org/2000/svg" d="  M8.0167,12.5089 L24.0500,4.0028" style="stroke-width: 1.2000; stroke: #ffffff; stroke-dasharray: none; stroke-linecap: round; stroke-linejoin: round; fill: none; "/>
    <path xmlns="http://www.w3.org/2000/svg" d="  M2.5052,21.7654 L5.5115,23.0163" style="stroke-width: 0.7200; stroke: #ffffff; stroke-dasharray: none; stroke-linecap: round; stroke-linejoin: round; fill: none; "/>
    <path xmlns="http://www.w3.org/2000/svg" d="  M2.5052,18.5131 L5.5115,19.7640" style="stroke-width: 0.7200; stroke: #ffffff; stroke-dasharray: none; stroke-linecap: round; stroke-linejoin: round; fill: none; "/>
    <path xmlns="http://www.w3.org/2000/svg" d="  M16.0333,0.0000 L24.0500,4.0028 L24.0500,34.0241 L8.0167,42.2800 L0.0000,38.0270 L0.0000,8.2559 L16.0333,0.0000 Z" style="stroke-width: 1.2000; stroke: #ffffff; stroke-dasharray: none; stroke-linecap: round; stroke-linejoin: round; fill: none; "/>
    <path xmlns="http://www.w3.org/2000/svg" d="  M8.0167,42.2800 L8.0167,12.5089" style="stroke-width: 1.2000; stroke: #ffffff; stroke-dasharray: none; stroke-linecap: round; stroke-linejoin: round; fill: none; "/>
    <!--converted by libvisio2svg-->
  </g>
</svg>
