<svg xmlns="http://www.w3.org/2000/svg" xmlns:xlink="http://www.w3.org/1999/xlink" version="1.1" width="0.3185000000" height="0.2714000000" viewBox="0 0 22.9330 19.5400">
  <title><![CDATA[Active Directory-Sm]]></title>
  <g transform=" scale(1.000000) ">
    <path xmlns="http://www.w3.org/2000/svg" d="  M22.9330,19.5400 L0.0000,19.5400 L11.2172,0.0000 L22.9330,19.5400 Z" style="stroke-width: 3.6000; stroke: #ffffff; stroke-dasharray: none; stroke-linecap: round; stroke-linejoin: round; fill: none; "/>
    <g xmlns="http://www.w3.org/2000/svg" xmlns:xlink="http://www.w3.org/1999/xlink" id="Layer1197">
      <defs>
        <linearGradient id="grad339">
          <stop offset="0%" stop-color="#ffcc00" stop-opacity="1.0000"/>
          <stop offset="100%" stop-color="#ff6600" stop-opacity="1.0000"/>
        </linearGradient>
        <linearGradient xlink:href="#grad339" id="grad340" x1="0" y1="0" x2="0" y2="1" gradientTransform="rotate(225 .5 .5)" gradientUnits="objectBoundingBox">
  </linearGradient>
      </defs>
      <path d="  M22.9330,19.5400 L0.0000,19.5400 L11.2172,0.0000 L22.9330,19.5400 Z" style="stroke-width: 1.2000; stroke-linecap: round; stroke-linejoin: round; fill-rule: evenodd; fill: url(#grad340); "/>
      <path d="  M22.9330,19.5400 L0.0000,19.5400 L11.2172,0.0000 L22.9330,19.5400 Z" style="stroke-width: 1.2000; stroke: #e68000; stroke-dasharray: none; stroke-linecap: round; stroke-linejoin: round; fill: none; "/>
    </g>
    <path xmlns="http://www.w3.org/2000/svg" d="  M11.2172,7.4203 L11.2172,15.8299" style="stroke-width: 0.7591; stroke: #3366cc; stroke-dasharray: none; stroke-linecap: round; stroke-linejoin: round; fill: none; "/>
    <defs xmlns="http://www.w3.org/2000/svg">
      <radialGradient id="grad341" cx="0.0000%" cy="0.0000%" r="100.0000%">
        <stop offset="0%" stop-color="#99ccff" stop-opacity="1.0000"/>
        <stop offset="100%" stop-color="#0066ff" stop-opacity="1.0000"/>
      </radialGradient>
    </defs>
    <path xmlns="http://www.w3.org/2000/svg" d="  M9.4723,15.8299 L9.7216,15.0878 L10.2201,14.5932 L10.7187,14.0985 L11.2172,14.0985 L11.9650,14.0985 L12.7129,14.5932 L12.9621,15.0878 L12.9621,15.8299 L12.9621,16.3246 L12.7129,16.8192 L11.9650,17.3139 L11.2172,17.5613 L10.7187,17.3139 L10.2201,16.8192 L9.7216,16.3246 L9.4723,15.8299 Z" style="fill-rule: evenodd; fill: url(#grad341); "/>
    <path xmlns="http://www.w3.org/2000/svg" d="  M11.2172,6.9256 L16.4519,15.8299" style="stroke-width: 0.7591; stroke: #3366cc; stroke-dasharray: none; stroke-linecap: round; stroke-linejoin: round; fill: none; "/>
    <path xmlns="http://www.w3.org/2000/svg" d="  M11.2172,6.9256 L6.2318,15.8299" style="stroke-width: 0.7591; stroke: #3366cc; stroke-dasharray: none; stroke-linecap: round; stroke-linejoin: round; fill: none; "/>
    <defs xmlns="http://www.w3.org/2000/svg">
      <radialGradient id="grad342" cx="0.0000%" cy="0.0000%" r="100.0000%">
        <stop offset="0%" stop-color="#99ccff" stop-opacity="1.0000"/>
        <stop offset="100%" stop-color="#0066ff" stop-opacity="1.0000"/>
      </radialGradient>
    </defs>
    <path xmlns="http://www.w3.org/2000/svg" d="  M9.4723,6.9256 L9.7216,6.4309 L10.2201,5.6889 L10.7187,5.4415 L11.2172,5.1942 L11.9650,5.4415 L12.7129,5.6889 L12.9621,6.4309 L12.9621,6.9256 L12.9621,7.6676 L12.7129,8.1623 L11.9650,8.4096 L11.2172,8.6570 L10.7187,8.4096 L10.2201,8.1623 L9.7216,7.6676 L9.4723,6.9256 Z" style="fill-rule: evenodd; fill: url(#grad342); "/>
    <defs xmlns="http://www.w3.org/2000/svg">
      <radialGradient id="grad343" cx="0.0000%" cy="0.0000%" r="100.0000%">
        <stop offset="0%" stop-color="#99ccff" stop-opacity="1.0000"/>
        <stop offset="100%" stop-color="#0066ff" stop-opacity="1.0000"/>
      </radialGradient>
    </defs>
    <path xmlns="http://www.w3.org/2000/svg" d="  M15.2056,15.8299 L15.2056,15.0878 L15.4548,14.5932 L15.9534,14.0985 L16.4519,14.0985 L17.1997,14.0985 L17.9476,14.5932 L18.1968,15.0878 L18.1968,15.8299 L18.1968,16.3246 L17.9476,16.8192 L17.1997,17.3139 L16.4519,17.5613 L15.9534,17.3139 L15.4548,16.8192 L15.2056,16.3246 L15.2056,15.8299 Z" style="fill-rule: evenodd; fill: url(#grad343); "/>
    <defs xmlns="http://www.w3.org/2000/svg">
      <radialGradient id="grad344" cx="0.0000%" cy="0.0000%" r="100.0000%">
        <stop offset="0%" stop-color="#99ccff" stop-opacity="1.0000"/>
        <stop offset="100%" stop-color="#0066ff" stop-opacity="1.0000"/>
      </radialGradient>
    </defs>
    <path xmlns="http://www.w3.org/2000/svg" d="  M4.4869,15.8299 L4.4869,15.0878 L4.9854,14.5932 L5.4840,14.0985 L6.2318,14.0985 L6.9796,14.0985 L7.4782,14.5932 L7.7274,15.0878 L7.7274,15.8299 L7.7274,16.3246 L7.4782,16.8192 L6.9796,17.3139 L6.2318,17.5613 L5.4840,17.3139 L4.9854,16.8192 L4.4869,16.3246 L4.4869,15.8299 Z" style="fill-rule: evenodd; fill: url(#grad344); "/>
    <!--converted by libvisio2svg-->
  </g>
</svg>
