<svg xmlns="http://www.w3.org/2000/svg" xmlns:xlink="http://www.w3.org/1999/xlink" version="1.1" width="0.6708000000" height="0.6687000000" viewBox="0 0 48.3000 48.1490">
  <title><![CDATA[Cluster server]]></title>
  <g transform=" scale(1.000000) ">
    <path xmlns="http://www.w3.org/2000/svg" d="  M48.3000,23.9922 A24.1500,23.9922 180.0000 1,1 24.1500,0.0000 A24.1500,23.9922 180.0000 0,1 48.3000,23.9922 Z" style="stroke-width: 4.2000; stroke: #ffffff; stroke-dasharray: none; stroke-linecap: round; stroke-linejoin: round; fill: none; "/>
    <defs xmlns="http://www.w3.org/2000/svg" xmlns:xlink="http://www.w3.org/1999/xlink">
      <linearGradient id="grad287">
        <stop offset="0%" stop-color="#ffcc00" stop-opacity="1.0000"/>
        <stop offset="100%" stop-color="#ff6600" stop-opacity="1.0000"/>
      </linearGradient>
      <linearGradient xlink:href="#grad287" id="grad288" x1="0" y1="0" x2="0" y2="1" gradientTransform="rotate(225 .5 .5)" gradientUnits="objectBoundingBox">
  </linearGradient>
    </defs>
    <path xmlns="http://www.w3.org/2000/svg" d="  M48.1500,23.9922 A24.0000,23.8431 180.0000 1,1 24.1500,0.1490 A24.0000,23.8431 180.0000 0,1 48.1500,23.9922 Z" style="fill-rule: evenodd; fill: url(#grad288); "/>
    <path xmlns="http://www.w3.org/2000/svg" d="  M35.8342,9.7289 L12.1500,9.7289" style="stroke-width: 0.7200; stroke: #0066ff; stroke-dasharray: none; stroke-linecap: round; stroke-linejoin: round; fill: none; "/>
    <path xmlns="http://www.w3.org/2000/svg" d="  M12.1500,26.2667 L12.1500,9.7289" style="stroke-width: 0.7200; stroke: #0066ff; stroke-dasharray: none; stroke-linecap: round; stroke-linejoin: round; fill: none; "/>
    <path xmlns="http://www.w3.org/2000/svg" d="  M35.8342,26.2667 L35.8342,9.7289" style="stroke-width: 0.7200; stroke: #0066ff; stroke-dasharray: none; stroke-linecap: round; stroke-linejoin: round; fill: none; "/>
    <g xmlns="http://www.w3.org/2000/svg" id="Layer1184">
      <path d="  M15.7026,10.6238 L15.7026,5.3373 L15.8982,4.7499 L16.4850,4.3583 L17.2675,3.7709 L18.2455,3.3793 L20.7883,2.7919 L23.9180,2.5961 L27.2433,2.7919 L29.7861,3.3793 L30.7641,3.7709 L31.5465,4.3583 L32.1333,4.7499 L32.3289,5.3373 L32.3289,10.6238 L32.1333,11.2112 L31.5465,11.7986 L30.7641,12.3860 L29.7861,12.7776 L28.6125,13.1692 L27.2433,13.3650 L25.6784,13.5608 L23.9180,13.5608 L22.3532,13.5608 L20.7883,13.3650 L19.4191,13.1692 L18.2455,12.7776 L17.2675,12.3860 L16.4850,11.7986 L15.8982,11.2112 L15.7026,10.6238 Z" style="stroke-width: 1.2000; stroke-linecap: round; stroke-linejoin: round; fill-rule: evenodd; fill: #ffffff; "/>
      <path d="  M15.7026,10.6238 L15.7026,5.3373 L15.8982,4.7499 L16.4850,4.3583 L17.2675,3.7709 L18.2455,3.3793 L20.7883,2.7919 L23.9180,2.5961 L27.2433,2.7919 L29.7861,3.3793 L30.7641,3.7709 L31.5465,4.3583 L32.1333,4.7499 L32.3289,5.3373 L32.3289,10.6238 L32.1333,11.2112 L31.5465,11.7986 L30.7641,12.3860 L29.7861,12.7776 L28.6125,13.1692 L27.2433,13.3650 L25.6784,13.5608 L23.9180,13.5608 L22.3532,13.5608 L20.7883,13.3650 L19.4191,13.1692 L18.2455,12.7776 L17.2675,12.3860 L16.4850,11.7986 L15.8982,11.2112 L15.7026,10.6238 Z" style="stroke-width: 1.2000; stroke: #ffffff; stroke-dasharray: none; stroke-linecap: round; stroke-linejoin: round; fill: none; "/>
    </g>
    <g xmlns="http://www.w3.org/2000/svg" id="Layer1185">
      <defs>
        <linearGradient id="grad289">
          <stop offset="0%" stop-color="#000099" stop-opacity="1.0000"/>
          <stop offset="50%" stop-color="#c0e5ff" stop-opacity="1.0000"/>
          <stop offset="100%" stop-color="#000099" stop-opacity="1.0000"/>
        </linearGradient>
      </defs>
      <path d="  M32.3289,5.3373 L32.1333,5.9246 L31.5465,6.5120 L30.7641,6.9036 L29.7861,7.2952 L28.6125,7.6868 L27.2433,8.0784 L25.6784,8.2742 L23.9180,8.2742 L22.3532,8.2742 L20.7883,8.0784 L19.4191,7.6868 L18.2455,7.2952 L17.2675,6.9036 L16.4850,6.5120 L15.8982,5.9246 L15.7026,5.3373 L15.7026,10.6238 L15.8982,11.2112 L16.4850,11.7986 L17.2675,12.3860 L18.2455,12.7776 L19.4191,13.1692 L20.7883,13.3650 L22.3532,13.5608 L23.9180,13.5608 L25.6784,13.5608 L27.2433,13.3650 L28.6125,13.1692 L29.7861,12.7776 L30.7641,12.3860 L31.5465,11.7986 L32.1333,11.2112 L32.3289,10.6238 L32.3289,5.3373 Z" style="stroke-width: 1.2000; stroke-linecap: round; stroke-linejoin: round; fill-rule: evenodd; fill: url(#grad289); "/>
      <path d="  M32.3289,5.3373 L32.1333,5.9246 L31.5465,6.5120 L30.7641,6.9036 L29.7861,7.2952 L28.6125,7.6868 L27.2433,8.0784 L25.6784,8.2742 L23.9180,8.2742 L22.3532,8.2742 L20.7883,8.0784 L19.4191,7.6868 L18.2455,7.2952 L17.2675,6.9036 L16.4850,6.5120 L15.8982,5.9246 L15.7026,5.3373 L15.7026,10.6238 L15.8982,11.2112 L16.4850,11.7986 L17.2675,12.3860 L18.2455,12.7776 L19.4191,13.1692 L20.7883,13.3650 L22.3532,13.5608 L23.9180,13.5608 L25.6784,13.5608 L27.2433,13.3650 L28.6125,13.1692 L29.7861,12.7776 L30.7641,12.3860 L31.5465,11.7986 L32.1333,11.2112 L32.3289,10.6238 L32.3289,5.3373 Z" style="stroke-width: 1.2000; stroke: #ffffff; stroke-dasharray: none; stroke-linecap: round; stroke-linejoin: round; fill: none; "/>
    </g>
    <g xmlns="http://www.w3.org/2000/svg" xmlns:xlink="http://www.w3.org/1999/xlink" id="Layer1186">
      <defs>
        <linearGradient id="grad290">
          <stop offset="0%" stop-color="#c0e5ff" stop-opacity="1.0000"/>
          <stop offset="100%" stop-color="#0099ff" stop-opacity="1.0000"/>
        </linearGradient>
        <linearGradient xlink:href="#grad290" id="grad291" x1="0" y1="0" x2="0" y2="1" gradientTransform="rotate(225 .5 .5)" gradientUnits="objectBoundingBox">
  </linearGradient>
      </defs>
      <path d="  M15.7026,5.3373 L15.8982,4.7499 L16.4850,4.3583 L17.2675,3.7709 L18.2455,3.3793 L20.7883,2.7919 L23.9180,2.5961 L27.2433,2.7919 L29.7861,3.3793 L30.7641,3.7709 L31.5465,4.3583 L32.1333,4.7499 L32.3289,5.3373 L32.1333,5.9246 L31.5465,6.5120 L30.7641,6.9036 L29.7861,7.2952 L28.6125,7.6868 L27.2433,8.0784 L25.6784,8.2742 L23.9180,8.2742 L22.3532,8.2742 L20.7883,8.0784 L19.4191,7.6868 L18.2455,7.2952 L17.2675,6.9036 L16.4850,6.5120 L15.8982,5.9246 L15.7026,5.3373 Z" style="stroke-width: 0.7200; stroke-linecap: round; stroke-linejoin: round; fill-rule: evenodd; fill: url(#grad291); "/>
      <path d="  M15.7026,5.3373 L15.8982,4.7499 L16.4850,4.3583 L17.2675,3.7709 L18.2455,3.3793 L20.7883,2.7919 L23.9180,2.5961 L27.2433,2.7919 L29.7861,3.3793 L30.7641,3.7709 L31.5465,4.3583 L32.1333,4.7499 L32.3289,5.3373 L32.1333,5.9246 L31.5465,6.5120 L30.7641,6.9036 L29.7861,7.2952 L28.6125,7.6868 L27.2433,8.0784 L25.6784,8.2742 L23.9180,8.2742 L22.3532,8.2742 L20.7883,8.0784 L19.4191,7.6868 L18.2455,7.2952 L17.2675,6.9036 L16.4850,6.5120 L15.8982,5.9246 L15.7026,5.3373 Z" style="stroke-width: 0.7200; stroke: #ffffff; stroke-dasharray: none; stroke-linecap: round; stroke-linejoin: round; fill: none; "/>
    </g>
    <g xmlns="http://www.w3.org/2000/svg" id="Layer1187">
      <path d="  M9.4284,20.8253 L21.5837,14.6073 L27.6613,17.6221 L27.6613,40.2332 L15.5060,46.4513 L9.4284,43.2480 L9.4284,20.8253 Z" style="stroke-width: 1.2000; stroke-linecap: round; stroke-linejoin: round; fill-rule: evenodd; fill: #ffffff; "/>
      <path d="  M9.4284,20.8253 L21.5837,14.6073 L27.6613,17.6221 L27.6613,40.2332 L15.5060,46.4513 L9.4284,43.2480 L9.4284,20.8253 Z" style="stroke-width: 1.2000; stroke: #ffffff; stroke-dasharray: none; stroke-linecap: round; stroke-linejoin: round; fill: none; "/>
    </g>
    <g xmlns="http://www.w3.org/2000/svg" xmlns:xlink="http://www.w3.org/1999/xlink" id="Layer1188">
      <defs>
        <linearGradient id="grad292">
          <stop offset="0%" stop-color="#c0e5ff" stop-opacity="1.0000"/>
          <stop offset="100%" stop-color="#0099ff" stop-opacity="1.0000"/>
        </linearGradient>
        <linearGradient xlink:href="#grad292" id="grad293" x1="0" y1="0" x2="0" y2="1" gradientTransform="rotate(225 .5 .5)" gradientUnits="objectBoundingBox">
  </linearGradient>
      </defs>
      <path d="  M21.5837,14.6073 L27.6613,17.6221 L15.5060,24.0286 L9.4284,20.8253 L21.5837,14.6073 Z" style="stroke-width: 1.2000; stroke-linecap: round; stroke-linejoin: round; fill-rule: evenodd; fill: url(#grad293); "/>
      <path d="  M21.5837,14.6073 L27.6613,17.6221 L15.5060,24.0286 L9.4284,20.8253 L21.5837,14.6073 Z" style="stroke-width: 1.2000; stroke: #ffffff; stroke-dasharray: none; stroke-linecap: round; stroke-linejoin: round; fill: none; "/>
    </g>
    <g xmlns="http://www.w3.org/2000/svg" xmlns:xlink="http://www.w3.org/1999/xlink" id="Layer1189">
      <defs>
        <linearGradient id="grad294">
          <stop offset="0%" stop-color="#000099" stop-opacity="1.0000"/>
          <stop offset="100%" stop-color="#99c0ff" stop-opacity="1.0000"/>
        </linearGradient>
        <linearGradient xlink:href="#grad294" id="grad295" x1="0" y1="0" x2="0" y2="1" gradientTransform="rotate(135 .5 .5)" gradientUnits="objectBoundingBox">
  </linearGradient>
      </defs>
      <path d="  M15.5060,24.0286 L15.5060,46.4513 L27.6613,40.2332 L27.6613,17.6221 L15.5060,24.0286 Z" style="stroke-width: 1.2000; stroke-linecap: round; stroke-linejoin: round; fill-rule: evenodd; fill: url(#grad295); "/>
      <path d="  M15.5060,24.0286 L15.5060,46.4513 L27.6613,40.2332 L27.6613,17.6221 L15.5060,24.0286 Z" style="stroke-width: 1.2000; stroke: #ffffff; stroke-dasharray: none; stroke-linecap: round; stroke-linejoin: round; fill: none; "/>
    </g>
    <g xmlns="http://www.w3.org/2000/svg" id="Layer1190">
      <defs>
        <radialGradient id="grad296" cx="0.0000%" cy="0.0000%" r="100.0000%">
          <stop offset="0%" stop-color="#99ccff" stop-opacity="1.0000"/>
          <stop offset="100%" stop-color="#0066ff" stop-opacity="1.0000"/>
        </radialGradient>
      </defs>
      <path d="  M15.5060,24.0286 L15.5060,46.4513 L9.4284,43.2480 L9.4284,20.8253 L15.5060,24.0286 Z" style="stroke-width: 1.2000; stroke-linecap: round; stroke-linejoin: round; fill-rule: evenodd; fill: url(#grad296); "/>
      <path d="  M15.5060,24.0286 L15.5060,46.4513 L9.4284,43.2480 L9.4284,20.8253 L15.5060,24.0286 Z" style="stroke-width: 1.2000; stroke: #ffffff; stroke-dasharray: none; stroke-linecap: round; stroke-linejoin: round; fill: none; "/>
    </g>
    <path xmlns="http://www.w3.org/2000/svg" d="  M9.4284,20.8253 L15.5060,24.0286" style="stroke-width: 1.2000; stroke: #ffffff; stroke-dasharray: none; stroke-linecap: round; stroke-linejoin: round; fill: none; "/>
    <path xmlns="http://www.w3.org/2000/svg" d="  M15.5060,24.0286 L27.6613,17.6221" style="stroke-width: 1.2000; stroke: #ffffff; stroke-dasharray: none; stroke-linecap: round; stroke-linejoin: round; fill: none; "/>
    <path xmlns="http://www.w3.org/2000/svg" d="  M11.3277,31.0003 L13.6068,31.9425" style="stroke-width: 0.7200; stroke: #ffffff; stroke-dasharray: none; stroke-linecap: round; stroke-linejoin: round; fill: none; "/>
    <path xmlns="http://www.w3.org/2000/svg" d="  M11.3277,28.5508 L13.6068,29.4929" style="stroke-width: 0.7200; stroke: #ffffff; stroke-dasharray: none; stroke-linecap: round; stroke-linejoin: round; fill: none; "/>
    <path xmlns="http://www.w3.org/2000/svg" d="  M21.5837,14.6073 L27.6613,17.6221 L27.6613,40.2332 L15.5060,46.4513 L9.4284,43.2480 L9.4284,20.8253 L21.5837,14.6073 Z" style="stroke-width: 1.2000; stroke: #ffffff; stroke-dasharray: none; stroke-linecap: round; stroke-linejoin: round; fill: none; "/>
    <path xmlns="http://www.w3.org/2000/svg" d="  M15.5060,46.4513 L15.5060,24.0286" style="stroke-width: 1.2000; stroke: #ffffff; stroke-dasharray: none; stroke-linecap: round; stroke-linejoin: round; fill: none; "/>
    <g xmlns="http://www.w3.org/2000/svg" id="Layer1191">
      <path d="  M19.9338,26.9152 L32.0891,20.6972 L38.1667,23.7120 L37.9658,43.5216 L26.0447,48.1490 L19.8868,47.6784 L19.9338,26.9152 Z" style="stroke-width: 1.2000; stroke-linecap: round; stroke-linejoin: round; fill-rule: evenodd; fill: #ffffff; "/>
      <path d="  M19.9338,26.9152 L32.0891,20.6972 L38.1667,23.7120 L37.9658,43.5216 L26.0447,48.1490 L19.8868,47.6784 L19.9338,26.9152 Z" style="stroke-width: 1.2000; stroke: #ffffff; stroke-dasharray: none; stroke-linecap: round; stroke-linejoin: round; fill: none; "/>
    </g>
    <g xmlns="http://www.w3.org/2000/svg" xmlns:xlink="http://www.w3.org/1999/xlink" id="Layer1192">
      <defs>
        <linearGradient id="grad297">
          <stop offset="0%" stop-color="#c0e5ff" stop-opacity="1.0000"/>
          <stop offset="100%" stop-color="#0099ff" stop-opacity="1.0000"/>
        </linearGradient>
        <linearGradient xlink:href="#grad297" id="grad298" x1="0" y1="0" x2="0" y2="1" gradientTransform="rotate(225 .5 .5)" gradientUnits="objectBoundingBox">
  </linearGradient>
      </defs>
      <path d="  M32.0891,20.6972 L38.1667,23.7120 L26.0115,30.1185 L19.9338,26.9152 L32.0891,20.6972 Z" style="stroke-width: 1.2000; stroke-linecap: round; stroke-linejoin: round; fill-rule: evenodd; fill: url(#grad298); "/>
      <path d="  M32.0891,20.6972 L38.1667,23.7120 L26.0115,30.1185 L19.9338,26.9152 L32.0891,20.6972 Z" style="stroke-width: 1.2000; stroke: #ffffff; stroke-dasharray: none; stroke-linecap: round; stroke-linejoin: round; fill: none; "/>
    </g>
    <defs xmlns="http://www.w3.org/2000/svg" xmlns:xlink="http://www.w3.org/1999/xlink">
      <linearGradient id="grad299">
        <stop offset="0%" stop-color="#000099" stop-opacity="1.0000"/>
        <stop offset="100%" stop-color="#99c0ff" stop-opacity="1.0000"/>
      </linearGradient>
      <linearGradient xlink:href="#grad299" id="grad300" x1="0" y1="0" x2="0" y2="1" gradientTransform="rotate(135 .5 .5)" gradientUnits="objectBoundingBox">
  </linearGradient>
    </defs>
    <path xmlns="http://www.w3.org/2000/svg" d="  M26.0115,30.1185 L26.0447,48.1490 L38.2026,43.5216 L38.1667,23.7120 L26.0115,30.1185 Z" style="fill-rule: evenodd; fill: url(#grad300); "/>
    <g xmlns="http://www.w3.org/2000/svg" id="Layer1193">
      <defs>
        <radialGradient id="grad301" cx="0.0000%" cy="0.0000%" r="100.0000%">
          <stop offset="0%" stop-color="#99ccff" stop-opacity="1.0000"/>
          <stop offset="100%" stop-color="#0066ff" stop-opacity="1.0000"/>
        </radialGradient>
      </defs>
      <path d="  M26.0115,30.1185 L26.0447,47.9922 L19.8868,47.6784 L19.9338,26.9152 L26.0115,30.1185 Z" style="stroke-width: 1.2000; stroke-linecap: round; stroke-linejoin: round; fill-rule: evenodd; fill: url(#grad301); "/>
      <path d="  M26.0115,30.1185 L26.0447,47.9922 L19.8868,47.6784 L19.9338,26.9152 L26.0115,30.1185 Z" style="stroke-width: 1.2000; stroke: #ffffff; stroke-dasharray: none; stroke-linecap: round; stroke-linejoin: round; fill: none; "/>
    </g>
    <path xmlns="http://www.w3.org/2000/svg" d="  M19.9338,26.9152 L26.0115,30.1185" style="stroke-width: 1.2000; stroke: #ffffff; stroke-dasharray: none; stroke-linecap: round; stroke-linejoin: round; fill: none; "/>
    <path xmlns="http://www.w3.org/2000/svg" d="  M26.0115,30.1185 L38.1667,23.7120" style="stroke-width: 1.2000; stroke: #ffffff; stroke-dasharray: none; stroke-linecap: round; stroke-linejoin: round; fill: none; "/>
    <path xmlns="http://www.w3.org/2000/svg" d="  M21.8331,37.0902 L24.1122,38.0324" style="stroke-width: 0.7200; stroke: #ffffff; stroke-dasharray: none; stroke-linecap: round; stroke-linejoin: round; fill: none; "/>
    <path xmlns="http://www.w3.org/2000/svg" d="  M21.8331,34.6407 L24.1122,35.5828" style="stroke-width: 0.7200; stroke: #ffffff; stroke-dasharray: none; stroke-linecap: round; stroke-linejoin: round; fill: none; "/>
    <path xmlns="http://www.w3.org/2000/svg" d="  M26.0115,48.1490 L26.0115,30.1185" style="stroke-width: 1.2000; stroke: #ffffff; stroke-dasharray: none; stroke-linecap: round; stroke-linejoin: round; fill: none; "/>
    <path xmlns="http://www.w3.org/2000/svg" d="  M38.1237,23.9137 L38.1237,43.4431" style="stroke-width: 1.2000; stroke: #ffffff; stroke-dasharray: none; stroke-linecap: round; stroke-linejoin: round; fill: none; "/>
    <path xmlns="http://www.w3.org/2000/svg" d="  M48.3000,23.9922 A24.1500,23.9922 180.0000 1,1 24.1500,0.0000 A24.1500,23.9922 180.0000 0,1 48.3000,23.9922 Z" style="stroke-width: 1.8000; stroke: #0066ff; stroke-dasharray: none; stroke-linecap: round; stroke-linejoin: round; fill: none; "/>
    <!--converted by libvisio2svg-->
  </g>
</svg>
