<svg xmlns="http://www.w3.org/2000/svg" xmlns:xlink="http://www.w3.org/1999/xlink" version="1.1" width="0.5781000000" height="0.3362000000" viewBox="0 0 41.6250 24.2092">
  <title><![CDATA[Database Partision 5]]></title>
  <g transform=" scale(1.000000) ">
    <g xmlns="http://www.w3.org/2000/svg" id="Layer1086">
      <defs>
        <linearGradient id="grad155">
          <stop offset="0%" stop-color="#000099" stop-opacity="1.0000"/>
          <stop offset="50%" stop-color="#c0e5ff" stop-opacity="1.0000"/>
          <stop offset="100%" stop-color="#000099" stop-opacity="1.0000"/>
        </linearGradient>
      </defs>
      <path d="  M41.6250,6.9177 L41.6250,7.4667 L41.2946,8.0156 L39.9732,9.1135 L37.9911,10.2113 L35.3482,11.0347 L32.3750,11.8581 L28.7411,12.4071 L24.7768,12.6816 L20.8125,12.9560 L16.5179,12.6816 L12.8839,12.4071 L9.2500,11.8581 L5.9464,11.0347 L3.6339,10.2113 L1.6518,9.1135 L0.3304,8.0156 L0.0000,7.4667 L0.0000,6.9177 L0.0000,18.1709 L0.0000,18.7199 L0.3304,19.2688 L1.6518,20.3667 L3.6339,21.4645 L5.9464,22.2879 L9.2500,23.1113 L12.8839,23.6603 L16.5179,23.9348 L20.8125,24.2092 L24.7768,23.9348 L28.7411,23.6603 L32.3750,23.1113 L35.3482,22.2879 L37.9911,21.4645 L39.9732,20.3667 L41.2946,19.2688 L41.6250,18.7199 L41.6250,18.1709 L41.6250,6.9177 Z" style="stroke-width: 1.2000; stroke-linecap: round; stroke-linejoin: round; fill-rule: evenodd; fill: url(#grad155); "/>
      <path d="  M41.6250,6.9177 L41.6250,7.4667 L41.2946,8.0156 L39.9732,9.1135 L37.9911,10.2113 L35.3482,11.0347 L32.3750,11.8581 L28.7411,12.4071 L24.7768,12.6816 L20.8125,12.9560 L16.5179,12.6816 L12.8839,12.4071 L9.2500,11.8581 L5.9464,11.0347 L3.6339,10.2113 L1.6518,9.1135 L0.3304,8.0156 L0.0000,7.4667 L0.0000,6.9177 L0.0000,18.1709 L0.0000,18.7199 L0.3304,19.2688 L1.6518,20.3667 L3.6339,21.4645 L5.9464,22.2879 L9.2500,23.1113 L12.8839,23.6603 L16.5179,23.9348 L20.8125,24.2092 L24.7768,23.9348 L28.7411,23.6603 L32.3750,23.1113 L35.3482,22.2879 L37.9911,21.4645 L39.9732,20.3667 L41.2946,19.2688 L41.6250,18.7199 L41.6250,18.1709 L41.6250,6.9177 Z" style="stroke-width: 1.2000; stroke: #ffffff; stroke-dasharray: none; stroke-linecap: round; stroke-linejoin: round; fill: none; "/>
    </g>
    <g xmlns="http://www.w3.org/2000/svg" xmlns:xlink="http://www.w3.org/1999/xlink" id="Layer1087">
      <defs>
        <linearGradient id="grad156">
          <stop offset="0%" stop-color="#c0e5ff" stop-opacity="1.0000"/>
          <stop offset="100%" stop-color="#0099ff" stop-opacity="1.0000"/>
        </linearGradient>
        <linearGradient xlink:href="#grad156" id="grad157" x1="0" y1="0" x2="0" y2="1" gradientTransform="rotate(225 .5 .5)" gradientUnits="objectBoundingBox">
  </linearGradient>
      </defs>
      <path d="  M0.0000,6.9177 L0.0000,5.9295 L0.3304,5.2706 L1.6518,3.9530 L3.6339,2.9647 L5.9464,1.9765 L9.2500,0.9882 L12.8839,0.6588 L16.5179,0.0000 L20.8125,0.0000 L24.7768,0.0000 L28.7411,0.6588 L32.3750,0.9882 L35.3482,1.9765 L37.9911,2.9647 L39.9732,3.9530 L41.2946,5.2706 L41.6250,5.9295 L41.6250,6.9177 L41.6250,7.5765 L41.2946,8.2354 L39.9732,9.5530 L37.9911,10.8707 L35.3482,11.8589 L32.3750,12.8472 L28.7411,13.5060 L24.7768,13.8354 L20.8125,14.1648 L16.5179,13.8354 L12.8839,13.5060 L9.2500,12.8472 L5.9464,11.8589 L3.6339,10.8707 L1.6518,9.5530 L0.3304,8.2354 L0.0000,7.5765 L0.0000,6.9177 Z" style="stroke-width: 1.2000; stroke-linecap: round; stroke-linejoin: round; fill-rule: evenodd; fill: url(#grad157); "/>
      <path d="  M0.0000,6.9177 L0.0000,5.9295 L0.3304,5.2706 L1.6518,3.9530 L3.6339,2.9647 L5.9464,1.9765 L9.2500,0.9882 L12.8839,0.6588 L16.5179,0.0000 L20.8125,0.0000 L24.7768,0.0000 L28.7411,0.6588 L32.3750,0.9882 L35.3482,1.9765 L37.9911,2.9647 L39.9732,3.9530 L41.2946,5.2706 L41.6250,5.9295 L41.6250,6.9177 L41.6250,7.5765 L41.2946,8.2354 L39.9732,9.5530 L37.9911,10.8707 L35.3482,11.8589 L32.3750,12.8472 L28.7411,13.5060 L24.7768,13.8354 L20.8125,14.1648 L16.5179,13.8354 L12.8839,13.5060 L9.2500,12.8472 L5.9464,11.8589 L3.6339,10.8707 L1.6518,9.5530 L0.3304,8.2354 L0.0000,7.5765 L0.0000,6.9177 Z" style="stroke-width: 1.2000; stroke: #ffffff; stroke-dasharray: none; stroke-linecap: round; stroke-linejoin: round; fill: none; "/>
    </g>
    <path xmlns="http://www.w3.org/2000/svg" d="  M9.7741,15.2850 L9.7741,22.8068" style="stroke-width: 1.2000; stroke: #ffffff; stroke-dasharray: 2.4000, 2.4000, 2.4000, 2.4000; stroke-linecap: round; stroke-linejoin: round; fill: none; "/>
    <path xmlns="http://www.w3.org/2000/svg" d="  M0.5625,6.4905 L21.6562,6.4905 L38.1094,10.7092 L38.2500,20.2717" style="stroke-width: 1.2000; stroke: #ffffff; stroke-dasharray: 2.4000, 2.4000, 2.4000, 2.4000; stroke-linecap: round; stroke-linejoin: round; fill: none; "/>
    <path xmlns="http://www.w3.org/2000/svg" d="  M21.1875,5.6467 L16.5469,0.3030" style="stroke-width: 1.2000; stroke: #ffffff; stroke-dasharray: 2.4000, 2.4000, 2.4000, 2.4000; stroke-linecap: round; stroke-linejoin: round; fill: none; "/>
    <path xmlns="http://www.w3.org/2000/svg" d="  M10.1250,12.7717 L21.0938,6.8655" style="stroke-width: 1.2000; stroke: #ffffff; stroke-dasharray: 2.4000, 2.4000, 2.4000, 2.4000; stroke-linecap: round; stroke-linejoin: round; fill: none; "/>
    <path xmlns="http://www.w3.org/2000/svg" d="  M22.3594,6.3030 L35.1562,2.3655" style="stroke-width: 1.2000; stroke: #ffffff; stroke-dasharray: 2.4000, 2.4000, 2.4000, 2.4000; stroke-linecap: round; stroke-linejoin: round; fill: none; "/>
    <!--converted by libvisio2svg-->
  </g>
</svg>
