<svg xmlns="http://www.w3.org/2000/svg" xmlns:xlink="http://www.w3.org/1999/xlink" version="1.1" width="0.4383000000" height="0.4112000000" viewBox="0 0 31.5600 29.6050">
  <title><![CDATA[Databases]]></title>
  <g transform=" scale(1.000000) ">
    <path xmlns="http://www.w3.org/2000/svg" d="  M0.0000,15.4852 L0.0000,5.2450 L0.2505,3.9962 L1.2524,2.9971 L2.7552,2.2479 L4.7590,1.4986 L7.0133,0.7493 L9.7686,0.4995 L12.5238,0.0000 L15.7800,0.0000 L18.7857,0.0000 L21.7914,0.4995 L24.5467,0.7493 L26.8010,1.4986 L28.8048,2.2479 L30.3076,2.9971 L31.3095,3.9962 L31.5600,4.4957 L31.5600,5.2450 L31.5600,15.4852 L31.5600,15.9848 L31.3095,16.4843 L30.3076,17.4833 L28.8048,18.4824 L26.8010,19.2317 L24.5467,19.9810 L21.7914,20.4805 L18.7857,20.7302 L15.7800,20.9800 L12.5238,20.7302 L9.7686,20.4805 L7.0133,19.9810 L4.5086,19.2317 L2.7552,18.4824 L1.2524,17.4833 L0.2505,16.4843 L0.0000,15.9848 L0.0000,15.4852 Z" style="fill-rule: evenodd; fill: #ffffff; "/>
    <g xmlns="http://www.w3.org/2000/svg" id="Layer1070">
      <defs>
        <linearGradient id="grad134">
          <stop offset="0%" stop-color="#000099" stop-opacity="1.0000"/>
          <stop offset="50%" stop-color="#c0e5ff" stop-opacity="1.0000"/>
          <stop offset="100%" stop-color="#000099" stop-opacity="1.0000"/>
        </linearGradient>
      </defs>
      <path d="  M31.5600,5.2450 L31.5600,5.7445 L31.3095,6.2440 L30.3076,7.2431 L28.8048,8.2421 L26.8010,8.9914 L24.5467,9.7407 L21.7914,10.2402 L18.7857,10.4900 L15.7800,10.7398 L12.5238,10.4900 L9.7686,10.2402 L7.0133,9.7407 L4.5086,8.9914 L2.7552,8.2421 L1.2524,7.2431 L0.2505,6.2440 L0.0000,5.7445 L0.0000,5.2450 L0.0000,15.4852 L0.0000,15.9848 L0.2505,16.4843 L1.2524,17.4833 L2.7552,18.4824 L4.5086,19.2317 L7.0133,19.9810 L9.7686,20.4805 L12.5238,20.7302 L15.7800,20.9800 L18.7857,20.7302 L21.7914,20.4805 L24.5467,19.9810 L26.8010,19.2317 L28.8048,18.4824 L30.3076,17.4833 L31.3095,16.4843 L31.5600,15.9848 L31.5600,15.4852 L31.5600,5.2450 Z" style="stroke-width: 1.2000; stroke-linecap: round; stroke-linejoin: round; fill-rule: evenodd; fill: url(#grad134); "/>
      <path d="  M31.5600,5.2450 L31.5600,5.7445 L31.3095,6.2440 L30.3076,7.2431 L28.8048,8.2421 L26.8010,8.9914 L24.5467,9.7407 L21.7914,10.2402 L18.7857,10.4900 L15.7800,10.7398 L12.5238,10.4900 L9.7686,10.2402 L7.0133,9.7407 L4.5086,8.9914 L2.7552,8.2421 L1.2524,7.2431 L0.2505,6.2440 L0.0000,5.7445 L0.0000,5.2450 L0.0000,15.4852 L0.0000,15.9848 L0.2505,16.4843 L1.2524,17.4833 L2.7552,18.4824 L4.5086,19.2317 L7.0133,19.9810 L9.7686,20.4805 L12.5238,20.7302 L15.7800,20.9800 L18.7857,20.7302 L21.7914,20.4805 L24.5467,19.9810 L26.8010,19.2317 L28.8048,18.4824 L30.3076,17.4833 L31.3095,16.4843 L31.5600,15.9848 L31.5600,15.4852 L31.5600,5.2450 Z" style="stroke-width: 1.2000; stroke: #ffffff; stroke-dasharray: none; stroke-linecap: round; stroke-linejoin: round; fill: none; "/>
    </g>
    <g xmlns="http://www.w3.org/2000/svg" xmlns:xlink="http://www.w3.org/1999/xlink" id="Layer1071">
      <defs>
        <linearGradient id="grad135">
          <stop offset="0%" stop-color="#c0e5ff" stop-opacity="1.0000"/>
          <stop offset="100%" stop-color="#0099ff" stop-opacity="1.0000"/>
        </linearGradient>
        <linearGradient xlink:href="#grad135" id="grad136" x1="0" y1="0" x2="0" y2="1" gradientTransform="rotate(225 .5 .5)" gradientUnits="objectBoundingBox">
  </linearGradient>
      </defs>
      <path d="  M0.0000,5.2450 L0.0000,4.4957 L0.2505,3.9962 L1.2524,2.9971 L2.7552,2.2479 L4.5086,1.4986 L7.0133,0.7493 L9.7686,0.4995 L12.5238,0.0000 L15.7800,0.0000 L18.7857,0.0000 L21.7914,0.4995 L24.5467,0.7493 L26.8010,1.4986 L28.8048,2.2479 L30.3076,2.9971 L31.3095,3.9962 L31.5600,4.4957 L31.5600,5.2450 L31.5600,5.7445 L31.3095,6.2440 L30.3076,7.2431 L28.8048,8.2421 L26.8010,8.9914 L24.5467,9.7407 L21.7914,10.2402 L18.7857,10.4900 L15.7800,10.7398 L12.5238,10.4900 L9.7686,10.2402 L7.0133,9.7407 L4.5086,8.9914 L2.7552,8.2421 L1.2524,7.2431 L0.2505,6.2440 L0.0000,5.7445 L0.0000,5.2450 Z" style="stroke-width: 1.2000; stroke-linecap: round; stroke-linejoin: round; fill-rule: evenodd; fill: url(#grad136); "/>
      <path d="  M0.0000,5.2450 L0.0000,4.4957 L0.2505,3.9962 L1.2524,2.9971 L2.7552,2.2479 L4.5086,1.4986 L7.0133,0.7493 L9.7686,0.4995 L12.5238,0.0000 L15.7800,0.0000 L18.7857,0.0000 L21.7914,0.4995 L24.5467,0.7493 L26.8010,1.4986 L28.8048,2.2479 L30.3076,2.9971 L31.3095,3.9962 L31.5600,4.4957 L31.5600,5.2450 L31.5600,5.7445 L31.3095,6.2440 L30.3076,7.2431 L28.8048,8.2421 L26.8010,8.9914 L24.5467,9.7407 L21.7914,10.2402 L18.7857,10.4900 L15.7800,10.7398 L12.5238,10.4900 L9.7686,10.2402 L7.0133,9.7407 L4.5086,8.9914 L2.7552,8.2421 L1.2524,7.2431 L0.2505,6.2440 L0.0000,5.7445 L0.0000,5.2450 Z" style="stroke-width: 1.2000; stroke: #ffffff; stroke-dasharray: none; stroke-linecap: round; stroke-linejoin: round; fill: none; "/>
    </g>
    <g xmlns="http://www.w3.org/2000/svg" id="Layer1072">
      <defs>
        <linearGradient id="grad137">
          <stop offset="0%" stop-color="#000099" stop-opacity="1.0000"/>
          <stop offset="50%" stop-color="#c0e5ff" stop-opacity="1.0000"/>
          <stop offset="100%" stop-color="#000099" stop-opacity="1.0000"/>
        </linearGradient>
      </defs>
      <path d="  M31.5600,13.8700 L31.5600,14.3695 L31.3095,14.8690 L30.3076,15.8681 L28.8048,16.8671 L26.8010,17.6164 L24.5467,18.3657 L21.7914,18.8652 L18.7857,19.1150 L15.7800,19.3648 L12.5238,19.1150 L9.7686,18.8652 L7.0133,18.3657 L4.5086,17.6164 L2.7552,16.8671 L1.2524,15.8681 L0.2505,14.8690 L0.0000,14.3695 L0.0000,13.8700 L0.0000,24.1102 L0.0000,24.6098 L0.2505,25.1093 L1.2524,26.1083 L2.7552,27.1074 L4.5086,27.8567 L7.0133,28.6060 L9.7686,29.1055 L12.5238,29.3552 L15.7800,29.6050 L18.7857,29.3552 L21.7914,29.1055 L24.5467,28.6060 L26.8010,27.8567 L28.8048,27.1074 L30.3076,26.1083 L31.3095,25.1093 L31.5600,24.6098 L31.5600,24.1102 L31.5600,13.8700 Z" style="stroke-width: 1.2000; stroke-linecap: round; stroke-linejoin: round; fill-rule: evenodd; fill: url(#grad137); "/>
      <path d="  M31.5600,13.8700 L31.5600,14.3695 L31.3095,14.8690 L30.3076,15.8681 L28.8048,16.8671 L26.8010,17.6164 L24.5467,18.3657 L21.7914,18.8652 L18.7857,19.1150 L15.7800,19.3648 L12.5238,19.1150 L9.7686,18.8652 L7.0133,18.3657 L4.5086,17.6164 L2.7552,16.8671 L1.2524,15.8681 L0.2505,14.8690 L0.0000,14.3695 L0.0000,13.8700 L0.0000,24.1102 L0.0000,24.6098 L0.2505,25.1093 L1.2524,26.1083 L2.7552,27.1074 L4.5086,27.8567 L7.0133,28.6060 L9.7686,29.1055 L12.5238,29.3552 L15.7800,29.6050 L18.7857,29.3552 L21.7914,29.1055 L24.5467,28.6060 L26.8010,27.8567 L28.8048,27.1074 L30.3076,26.1083 L31.3095,25.1093 L31.5600,24.6098 L31.5600,24.1102 L31.5600,13.8700 Z" style="stroke-width: 1.2000; stroke: #ffffff; stroke-dasharray: none; stroke-linecap: round; stroke-linejoin: round; fill: none; "/>
    </g>
    <!--converted by libvisio2svg-->
  </g>
</svg>
