<svg xmlns="http://www.w3.org/2000/svg" xmlns:xlink="http://www.w3.org/1999/xlink" version="1.1" width="0.1736000000" height="0.2547000000" viewBox="0 0 12.5000 18.3400">
  <title><![CDATA[Documents-Sm]]></title>
  <g transform=" scale(1.000000) ">
    <g xmlns="http://www.w3.org/2000/svg" id="Layer1547">
      <path d="  M0.0000,1.1383 L7.8947,5.5616 L7.8947,18.3400 L0.0000,14.0805 L0.0000,1.1383 Z" style="stroke-width: 3.1200; stroke-linecap: round; stroke-linejoin: round; fill-rule: evenodd; fill: #ffffff; "/>
      <path d="  M0.0000,1.1383 L7.8947,5.5616 L7.8947,18.3400 L0.0000,14.0805 L0.0000,1.1383 Z" style="stroke-width: 3.1200; stroke: #ffffff; stroke-dasharray: none; stroke-linecap: round; stroke-linejoin: round; fill: none; "/>
    </g>
    <g xmlns="http://www.w3.org/2000/svg" id="Layer1548">
      <path d="  M4.6053,0.0000 L12.5000,4.4233 L12.5000,17.2017 L4.6053,12.9423 L4.6053,0.0000 Z" style="stroke-width: 3.1200; stroke-linecap: round; stroke-linejoin: round; fill-rule: evenodd; fill: #ffffff; "/>
      <path d="  M4.6053,0.0000 L12.5000,4.4233 L12.5000,17.2017 L4.6053,12.9423 L4.6053,0.0000 Z" style="stroke-width: 3.1200; stroke: #ffffff; stroke-dasharray: none; stroke-linecap: round; stroke-linejoin: round; fill: none; "/>
    </g>
    <path xmlns="http://www.w3.org/2000/svg" d="  M4.6053,12.9423 L12.5000,17.2017 L12.5000,4.4233 L4.6053,0.0000 L4.6053,12.9423 Z" style="stroke-width: 0.7422; stroke: #4d99ff; stroke-dasharray: none; stroke-linecap: round; stroke-linejoin: round; fill: none; "/>
    <path xmlns="http://www.w3.org/2000/svg" d="  M6.1803,10.1727 L10.4803,12.3727" style="stroke-width: 0.4948; stroke: #0066ff; stroke-dasharray: none; stroke-linecap: round; stroke-linejoin: round; fill: none; "/>
    <path xmlns="http://www.w3.org/2000/svg" d="  M6.1803,7.3727 L10.4803,9.5727" style="stroke-width: 0.4948; stroke: #0066ff; stroke-dasharray: none; stroke-linecap: round; stroke-linejoin: round; fill: none; "/>
    <path xmlns="http://www.w3.org/2000/svg" d="  M6.1803,4.6584 L10.4803,6.8584" style="stroke-width: 0.4948; stroke: #0066ff; stroke-dasharray: none; stroke-linecap: round; stroke-linejoin: round; fill: none; "/>
    <g xmlns="http://www.w3.org/2000/svg" id="Layer1549">
      <path d="  M0.0000,1.1383 L7.8947,5.5616 L7.8947,18.3400 L0.0000,14.0805 L0.0000,1.1383 Z" style="stroke-width: 2.2265; stroke-linecap: round; stroke-linejoin: round; fill-rule: evenodd; fill: #ffffff; "/>
      <path d="  M0.0000,1.1383 L7.8947,5.5616 L7.8947,18.3400 L0.0000,14.0805 L0.0000,1.1383 Z" style="stroke-width: 2.2265; stroke: #ffffff; stroke-dasharray: none; stroke-linecap: round; stroke-linejoin: round; fill: none; "/>
    </g>
    <path xmlns="http://www.w3.org/2000/svg" d="  M0.0000,14.0805 L7.8947,18.3400 L7.8947,5.5616 L0.0000,1.1383 L0.0000,14.0805 Z" style="stroke-width: 0.7422; stroke: #4d99ff; stroke-dasharray: none; stroke-linecap: round; stroke-linejoin: round; fill: none; "/>
    <path xmlns="http://www.w3.org/2000/svg" d="  M1.5751,11.3109 L5.8751,13.5109" style="stroke-width: 0.4948; stroke: #0066ff; stroke-dasharray: none; stroke-linecap: round; stroke-linejoin: round; fill: none; "/>
    <path xmlns="http://www.w3.org/2000/svg" d="  M1.5751,8.5109 L5.8751,10.7109" style="stroke-width: 0.4948; stroke: #0066ff; stroke-dasharray: none; stroke-linecap: round; stroke-linejoin: round; fill: none; "/>
    <path xmlns="http://www.w3.org/2000/svg" d="  M1.5751,5.7966 L5.8751,7.9966" style="stroke-width: 0.4948; stroke: #0066ff; stroke-dasharray: none; stroke-linecap: round; stroke-linejoin: round; fill: none; "/>
    <!--converted by libvisio2svg-->
  </g>
</svg>
