<svg xmlns="http://www.w3.org/2000/svg" xmlns:xlink="http://www.w3.org/1999/xlink" version="1.1" width="0.2562000000" height="0.4025000000" viewBox="0 0 18.4499 28.9819">
  <title><![CDATA[Documents]]></title>
  <g transform=" scale(1.000000) ">
    <g xmlns="http://www.w3.org/2000/svg" id="Layer1544">
      <path d="  M0.0000,2.5202 L12.1381,9.3246 L12.1381,28.9819 L0.0000,22.4294 L0.0000,2.5202 Z" style="stroke-width: 3.1200; stroke-linecap: round; stroke-linejoin: round; fill-rule: evenodd; fill: #ffffff; "/>
      <path d="  M0.0000,2.5202 L12.1381,9.3246 L12.1381,28.9819 L0.0000,22.4294 L0.0000,2.5202 Z" style="stroke-width: 3.1200; stroke: #ffffff; stroke-dasharray: none; stroke-linecap: round; stroke-linejoin: round; fill: none; "/>
    </g>
    <g xmlns="http://www.w3.org/2000/svg" id="Layer1545">
      <path d="  M6.3118,0.0000 L18.4499,6.8044 L18.4499,26.4617 L6.3118,19.9093 L6.3118,0.0000 Z" style="stroke-width: 3.1200; stroke-linecap: round; stroke-linejoin: round; fill-rule: evenodd; fill: #ffffff; "/>
      <path d="  M6.3118,0.0000 L18.4499,6.8044 L18.4499,26.4617 L6.3118,19.9093 L6.3118,0.0000 Z" style="stroke-width: 3.1200; stroke: #ffffff; stroke-dasharray: none; stroke-linecap: round; stroke-linejoin: round; fill: none; "/>
    </g>
    <path xmlns="http://www.w3.org/2000/svg" d="  M6.3118,19.9093 L18.4499,26.4617 L18.4499,6.8044 L6.3118,0.0000 L6.3118,19.9093 Z" style="stroke-width: 0.7200; stroke: #4d99ff; stroke-dasharray: none; stroke-linecap: round; stroke-linejoin: round; fill: none; "/>
    <path xmlns="http://www.w3.org/2000/svg" d="  M8.2539,6.8044 L16.0222,11.0887" style="stroke-width: 0.4948; stroke: #0066ff; stroke-dasharray: none; stroke-linecap: round; stroke-linejoin: round; fill: none; "/>
    <path xmlns="http://www.w3.org/2000/svg" d="  M8.2539,11.0887 L16.0222,15.1210" style="stroke-width: 0.4948; stroke: #0066ff; stroke-dasharray: none; stroke-linecap: round; stroke-linejoin: round; fill: none; "/>
    <path xmlns="http://www.w3.org/2000/svg" d="  M8.2539,15.1210 L16.0222,19.4052" style="stroke-width: 0.4948; stroke: #0066ff; stroke-dasharray: none; stroke-linecap: round; stroke-linejoin: round; fill: none; "/>
    <g xmlns="http://www.w3.org/2000/svg" id="Layer1546">
      <path d="  M0.0000,2.5202 L12.1381,9.3246 L12.1381,28.9819 L0.0000,22.4294 L0.0000,2.5202 Z" style="stroke-width: 2.2265; stroke-linecap: round; stroke-linejoin: round; fill-rule: evenodd; fill: #ffffff; "/>
      <path d="  M0.0000,2.5202 L12.1381,9.3246 L12.1381,28.9819 L0.0000,22.4294 L0.0000,2.5202 Z" style="stroke-width: 2.2265; stroke: #ffffff; stroke-dasharray: none; stroke-linecap: round; stroke-linejoin: round; fill: none; "/>
    </g>
    <path xmlns="http://www.w3.org/2000/svg" d="  M0.0000,22.4294 L12.1381,28.9819 L12.1381,9.3246 L0.0000,2.5202 L0.0000,22.4294 Z" style="stroke-width: 0.7200; stroke: #4d99ff; stroke-dasharray: none; stroke-linecap: round; stroke-linejoin: round; fill: none; "/>
    <path xmlns="http://www.w3.org/2000/svg" d="  M1.9421,9.3246 L9.7105,13.6089" style="stroke-width: 0.4948; stroke: #0066ff; stroke-dasharray: none; stroke-linecap: round; stroke-linejoin: round; fill: none; "/>
    <path xmlns="http://www.w3.org/2000/svg" d="  M1.9421,13.6089 L9.7105,17.6411" style="stroke-width: 0.4948; stroke: #0066ff; stroke-dasharray: none; stroke-linecap: round; stroke-linejoin: round; fill: none; "/>
    <path xmlns="http://www.w3.org/2000/svg" d="  M1.9421,17.6411 L9.7105,21.9254" style="stroke-width: 0.4948; stroke: #0066ff; stroke-dasharray: none; stroke-linecap: round; stroke-linejoin: round; fill: none; "/>
    <!--converted by libvisio2svg-->
  </g>
</svg>
