<svg xmlns="http://www.w3.org/2000/svg" xmlns:xlink="http://www.w3.org/1999/xlink" version="1.1" width="0.2695000000" height="0.2098000000" viewBox="0 0 19.4033 15.1047">
  <title><![CDATA[Fax-Sm]]></title>
  <g transform=" scale(1.000000) ">
    <g xmlns="http://www.w3.org/2000/svg" id="Layer1576">
      <path d="  M4.2289,10.0698 L6.9653,11.8320 L3.4826,13.5943 L0.2488,12.0838 L4.2289,10.0698 Z" style="stroke-width: 2.0000; stroke-linecap: round; stroke-linejoin: round; fill-rule: evenodd; fill: #ffffff; "/>
      <path d="  M4.2289,10.0698 L6.9653,11.8320 L3.4826,13.5943 L0.2488,12.0838 L4.2289,10.0698 Z" style="stroke-width: 2.0000; stroke: #ffffff; stroke-dasharray: none; stroke-linecap: round; stroke-linejoin: round; fill: none; "/>
    </g>
    <g xmlns="http://www.w3.org/2000/svg" id="Layer1577">
      <path d="  M11.7912,1.0573 L11.6917,0.7552 L11.1942,0.2517 L10.1992,0.0000 L9.4529,0.0000 L4.2289,2.7692 L3.2339,3.2727 L2.7364,4.0279 L2.4876,4.5314 L2.2388,5.0349 L0.0000,6.2936 L0.0000,10.8251 L1.2438,11.5803 L0.2488,12.0838 L3.4826,13.5943 L4.4777,13.0908 L8.4578,15.1047 L19.4033,9.5663 L19.4033,5.0349 L11.9829,1.3875 L11.9405,1.2587 L11.7912,1.0573 Z" style="stroke-width: 1.6800; stroke-linecap: round; stroke-linejoin: round; fill-rule: evenodd; fill: #ffffff; "/>
      <path d="  M11.7912,1.0573 L11.6917,0.7552 L11.1942,0.2517 L10.1992,0.0000 L9.4529,0.0000 L4.2289,2.7692 L3.2339,3.2727 L2.7364,4.0279 L2.4876,4.5314 L2.2388,5.0349 L0.0000,6.2936 L0.0000,10.8251 L1.2438,11.5803 L0.2488,12.0838 L3.4826,13.5943 L4.4777,13.0908 L8.4578,15.1047 L19.4033,9.5663 L19.4033,5.0349 L11.9829,1.3875 L11.9405,1.2587 L11.7912,1.0573 Z" style="stroke-width: 1.6800; stroke: #ffffff; stroke-dasharray: none; stroke-linecap: round; stroke-linejoin: round; fill: none; "/>
    </g>
    <g xmlns="http://www.w3.org/2000/svg" xmlns:xlink="http://www.w3.org/1999/xlink" id="Layer1578">
      <defs>
        <linearGradient id="grad754">
          <stop offset="0%" stop-color="#c0e5ff" stop-opacity="1.0000"/>
          <stop offset="100%" stop-color="#0099ff" stop-opacity="1.0000"/>
        </linearGradient>
        <linearGradient xlink:href="#grad754" id="grad755" x1="0" y1="0" x2="0" y2="1" gradientTransform="rotate(225 .5 .5)" gradientUnits="objectBoundingBox">
  </linearGradient>
      </defs>
      <path d="  M4.4777,12.8390 L3.4826,13.5943 L0.2488,12.0838 L1.2438,11.5803 L0.0000,10.8251 L0.0000,6.2936 L2.2388,5.0349 L2.4876,4.5314 L2.7364,4.0279 L3.2339,3.2727 L4.2289,2.7692 L9.4529,0.0000 L10.1992,0.0000 L11.1942,0.2517 L11.6917,0.7552 L11.9405,1.5105 L19.4033,5.0349 L19.4033,9.5663 L8.4578,15.1047 L4.4777,12.8390 Z" style="stroke-width: 0.7200; stroke-linecap: round; stroke-linejoin: round; fill-rule: evenodd; fill: url(#grad755); "/>
      <path d="  M4.4777,12.8390 L3.4826,13.5943 L0.2488,12.0838 L1.2438,11.5803 L0.0000,10.8251 L0.0000,6.2936 L2.2388,5.0349 L2.4876,4.5314 L2.7364,4.0279 L3.2339,3.2727 L4.2289,2.7692 L9.4529,0.0000 L10.1992,0.0000 L11.1942,0.2517 L11.6917,0.7552 L11.9405,1.5105 L19.4033,5.0349 L19.4033,9.5663 L8.4578,15.1047 L4.4777,12.8390 Z" style="stroke-width: 0.7200; stroke: #ffffff; stroke-dasharray: none; stroke-linecap: round; stroke-linejoin: round; fill: none; "/>
    </g>
    <g xmlns="http://www.w3.org/2000/svg" xmlns:xlink="http://www.w3.org/1999/xlink" id="Layer1579">
      <defs>
        <linearGradient id="grad756">
          <stop offset="0%" stop-color="#c0e5ff" stop-opacity="1.0000"/>
          <stop offset="100%" stop-color="#0099ff" stop-opacity="1.0000"/>
        </linearGradient>
        <linearGradient xlink:href="#grad756" id="grad757" x1="0" y1="0" x2="0" y2="1" gradientTransform="rotate(225 .5 .5)" gradientUnits="objectBoundingBox">
  </linearGradient>
      </defs>
      <path d="  M8.4578,10.3216 L19.4033,5.0349 L10.6967,0.7552 L0.0000,6.2936 L8.4578,10.3216 Z" style="stroke-width: 0.7200; stroke-linecap: round; stroke-linejoin: round; fill-rule: evenodd; fill: url(#grad757); "/>
      <path d="  M8.4578,10.3216 L19.4033,5.0349 L10.6967,0.7552 L0.0000,6.2936 L8.4578,10.3216 Z" style="stroke-width: 0.7200; stroke: #ffffff; stroke-dasharray: none; stroke-linecap: round; stroke-linejoin: round; fill: none; "/>
    </g>
    <g xmlns="http://www.w3.org/2000/svg" xmlns:xlink="http://www.w3.org/1999/xlink" id="Layer1580">
      <defs>
        <linearGradient id="grad758">
          <stop offset="0%" stop-color="#000099" stop-opacity="1.0000"/>
          <stop offset="100%" stop-color="#99c0ff" stop-opacity="1.0000"/>
        </linearGradient>
        <linearGradient xlink:href="#grad758" id="grad759" x1="0" y1="0" x2="0" y2="1" gradientTransform="rotate(135 .5 .5)" gradientUnits="objectBoundingBox">
  </linearGradient>
      </defs>
      <path d="  M8.4578,10.3216 L19.4033,5.0349 L19.4033,9.5663 L8.4578,15.1047 L8.4578,10.3216 Z" style="stroke-width: 0.7200; stroke-linecap: round; stroke-linejoin: round; fill-rule: evenodd; fill: url(#grad759); "/>
      <path d="  M8.4578,10.3216 L19.4033,5.0349 L19.4033,9.5663 L8.4578,15.1047 L8.4578,10.3216 Z" style="stroke-width: 0.7200; stroke: #ffffff; stroke-dasharray: none; stroke-linecap: round; stroke-linejoin: round; fill: none; "/>
    </g>
    <g xmlns="http://www.w3.org/2000/svg" id="Layer1581">
      <defs>
        <radialGradient id="grad760" cx="0.0000%" cy="0.0000%" r="100.0000%">
          <stop offset="0%" stop-color="#99ccff" stop-opacity="1.0000"/>
          <stop offset="100%" stop-color="#0066ff" stop-opacity="1.0000"/>
        </radialGradient>
      </defs>
      <path d="  M0.0000,6.2936 L8.4578,10.3216 L8.4578,15.1047 L0.0000,10.8251 L0.0000,6.2936 Z" style="stroke-width: 0.7200; stroke-linecap: round; stroke-linejoin: round; fill-rule: evenodd; fill: url(#grad760); "/>
      <path d="  M0.0000,6.2936 L8.4578,10.3216 L8.4578,15.1047 L0.0000,10.8251 L0.0000,6.2936 Z" style="stroke-width: 0.7200; stroke: #ffffff; stroke-dasharray: none; stroke-linecap: round; stroke-linejoin: round; fill: none; "/>
    </g>
    <path xmlns="http://www.w3.org/2000/svg" d="  M0.0000,6.2936 L0.0000,10.8251 L8.4578,15.1047 L19.4033,9.5663 L19.4033,5.0349 L10.6967,0.7552 L0.0000,6.2936 Z" style="stroke-width: 0.2503; stroke: #ffffff; stroke-dasharray: none; stroke-linecap: round; stroke-linejoin: round; fill: none; "/>
    <path xmlns="http://www.w3.org/2000/svg" d="  M0.0000,6.2936 L8.4578,10.3216 L8.4578,15.1047 L8.4578,10.3216 L19.4033,5.0349" style="stroke-width: 0.2503; stroke: #ffffff; stroke-dasharray: none; stroke-linecap: round; stroke-linejoin: round; fill: none; "/>
    <path xmlns="http://www.w3.org/2000/svg" d="  M8.7066,5.7901 L13.4330,3.5244 L16.4181,5.0349 L11.6917,7.5524 L8.7066,5.7901 Z" style="fill-rule: evenodd; fill: #0099ff; "/>
    <g xmlns="http://www.w3.org/2000/svg" id="Layer1582">
      <path d="  M13.4330,3.5244 L16.4181,5.0349 L11.6917,7.5524 L8.7066,5.7901 L13.4330,3.5244 Z" style="stroke-width: 0.4000; stroke-linecap: round; stroke-linejoin: round; fill-rule: evenodd; fill: #ffffff; "/>
      <path d="  M13.4330,3.5244 L16.4181,5.0349 L11.6917,7.5524 L8.7066,5.7901 L13.4330,3.5244 Z" style="stroke-width: 0.4000; stroke: #0066ff; stroke-dasharray: none; stroke-linecap: round; stroke-linejoin: round; fill: none; "/>
    </g>
    <path xmlns="http://www.w3.org/2000/svg" d="  M8.7066,2.7692 L9.2041,3.0209 L10.1992,3.5244 L11.4430,3.2727 L11.9405,3.0209 L12.1892,2.7692 L12.1892,2.0140 L11.9405,1.2587 L11.1942,0.2517 L10.1992,0.0000 L9.4529,0.0000 L4.2289,2.7692 L3.2339,3.2727 L2.7364,4.0279 L2.4876,4.5314 L2.2388,5.2867 L2.4876,5.5384 L2.7364,6.0419 L3.9802,6.5454 L5.4727,6.2936 L5.7215,6.0419 L5.9702,5.7901 L5.9702,5.5384 L6.2190,5.2867 L6.2190,4.5314 L5.9702,4.0279 L8.7066,2.7692 Z" style="fill-rule: evenodd; fill: #ffffff; "/>
    <g xmlns="http://www.w3.org/2000/svg" id="Layer1583">
      <path d="  M4.2289,10.0698 L6.9653,11.8320 L3.4826,13.5943 L0.2488,12.0838 L4.2289,10.0698 Z" style="stroke-width: 0.4000; stroke-linecap: round; stroke-linejoin: round; fill-rule: evenodd; fill: #ffffff; "/>
      <path d="  M4.2289,10.0698 L6.9653,11.8320 L3.4826,13.5943 L0.2488,12.0838 L4.2289,10.0698 Z" style="stroke-width: 0.4000; stroke: #0066ff; stroke-dasharray: none; stroke-linecap: round; stroke-linejoin: round; fill: none; "/>
    </g>
    <g xmlns="http://www.w3.org/2000/svg" id="Layer1584">
      <path d="  M8.7066,2.7692 L9.2041,3.0209 L10.1992,3.5244 L11.4430,3.2727 L11.9405,3.0209 L12.1892,2.7692 L12.1892,2.0140 L11.9405,1.2587 L11.1942,0.2517 L10.1992,0.0000 L9.4529,0.0000 L4.2289,2.7692 L3.2339,3.2727 L2.7364,4.0279 L2.4876,4.5314 L2.2388,5.2867 L2.4876,5.5384 L2.7364,6.0419 L3.9802,6.5454 L5.4727,6.2936 L5.7215,6.0419 L5.9702,5.7901 L5.9702,5.5384 L6.2190,5.2867 L6.2190,4.5314 L5.9702,4.0279 L8.7066,2.7692 Z" style="stroke-width: 0.4000; stroke-linecap: round; stroke-linejoin: round; fill-rule: evenodd; fill: #0066ff; "/>
      <path d="  M8.7066,2.7692 L9.2041,3.0209 L10.1992,3.5244 L11.4430,3.2727 L11.9405,3.0209 L12.1892,2.7692 L12.1892,2.0140 L11.9405,1.2587 L11.1942,0.2517 L10.1992,0.0000 L9.4529,0.0000 L4.2289,2.7692 L3.2339,3.2727 L2.7364,4.0279 L2.4876,4.5314 L2.2388,5.2867 L2.4876,5.5384 L2.7364,6.0419 L3.9802,6.5454 L5.4727,6.2936 L5.7215,6.0419 L5.9702,5.7901 L5.9702,5.5384 L6.2190,5.2867 L6.2190,4.5314 L5.9702,4.0279 L8.7066,2.7692 Z" style="stroke-width: 0.4000; stroke: #ffffff; stroke-dasharray: none; stroke-linecap: round; stroke-linejoin: round; fill: none; "/>
    </g>
    <path xmlns="http://www.w3.org/2000/svg" d="  M8.7066,2.7692 L10.1992,1.7622" style="stroke-width: 0.2503; stroke: #ffffff; stroke-dasharray: none; stroke-linecap: round; stroke-linejoin: round; fill: none; "/>
    <!--converted by libvisio2svg-->
  </g>
</svg>
