<svg xmlns="http://www.w3.org/2000/svg" xmlns:xlink="http://www.w3.org/1999/xlink" version="1.1" width="0.4290000000" height="0.2263000000" viewBox="0 0 30.8896 16.2960">
  <title><![CDATA[Hard disk]]></title>
  <g transform=" scale(1.000000) ">
    <path xmlns="http://www.w3.org/2000/svg" d="  M0.0000,7.9084 L0.0000,6.9498 L0.2491,6.7101 L0.7473,6.2308 L0.2491,5.9912 L0.0000,5.5119 L0.0000,4.7929 L0.0000,4.0740 L0.2491,3.5947 L1.2455,2.8758 L2.4911,1.9172 L4.4840,1.1982 L6.7260,0.7189 L9.4662,0.2396 L12.4555,0.0000 L15.6939,0.0000 L18.6832,0.0000 L21.6725,0.2396 L24.1636,0.7189 L26.4056,1.1982 L28.3985,1.9172 L29.8931,2.8758 L30.6405,3.5947 L30.8896,4.0740 L30.8896,4.7929 L30.8896,5.5119 L30.6405,5.9912 L30.1423,6.2308 L30.6405,6.7101 L30.8896,6.9498 L30.8896,7.9084 L30.8896,8.8669 L30.6405,9.1066 L30.1423,9.3462 L30.8896,10.3048 L30.8896,11.0238 L30.8896,11.5031 L30.6405,11.9824 L29.8931,12.9410 L28.3985,13.8995 L26.4056,14.6185 L24.1636,15.3374 L21.6725,15.8167 L18.6832,16.0564 L15.6939,16.2960 L12.4555,16.0564 L9.4662,15.8167 L6.7260,15.3374 L4.4840,14.6185 L2.4911,13.8995 L1.2455,12.9410 L0.2491,11.9824 L0.0000,11.5031 L0.0000,11.0238 L0.0000,10.3048 L0.7473,9.3462 L0.2491,9.1066 L0.0000,8.8669 L0.0000,7.9084 Z" style="stroke-width: 1.6800; stroke: #ffffff; stroke-dasharray: none; stroke-linecap: round; stroke-linejoin: round; fill: none; "/>
    <path xmlns="http://www.w3.org/2000/svg" d="  M0.0000,7.9084 L0.0000,7.4291 L0.2491,6.9498 L1.2455,5.9912 L2.4911,5.0326 L4.4840,4.3137 L6.7260,3.8344 L9.4662,3.3551 L12.4555,3.1154 L15.6939,3.1154 L18.6832,3.1154 L21.6725,3.3551 L24.1636,3.8344 L26.4056,4.3137 L28.3985,5.0326 L29.8931,5.9912 L30.6405,6.9498 L30.8896,7.4291 L30.8896,7.9084 L30.8896,8.3877 L30.6405,8.8669 L29.8931,9.8255 L28.3985,10.7841 L26.4056,11.5031 L24.1636,12.2220 L21.6725,12.7013 L18.6832,12.9410 L15.6939,12.9410 L12.4555,12.9410 L9.4662,12.7013 L6.7260,12.2220 L4.4840,11.5031 L2.4911,10.7841 L1.2455,9.8255 L0.2491,8.8669 L0.0000,8.3877 L0.0000,7.9084 Z" style="fill-rule: evenodd; fill: #ffffff; "/>
    <path xmlns="http://www.w3.org/2000/svg" d="  M0.0000,4.7929 L0.0000,4.0740 L0.2491,3.5947 L1.2455,2.8758 L2.4911,1.9172 L4.4840,1.1982 L6.7260,0.7189 L9.4662,0.2396 L12.4555,0.0000 L15.6939,0.0000 L18.6832,0.0000 L21.6725,0.2396 L24.1636,0.7189 L26.4056,1.1982 L28.3985,1.9172 L29.8931,2.8758 L30.6405,3.5947 L30.8896,4.0740 L30.8896,4.7929 L30.8896,5.2722 L30.6405,5.7515 L29.8931,6.7101 L28.3985,7.4291 L26.4056,8.3877 L24.1636,8.8669 L21.6725,9.3462 L18.6832,9.8255 L15.6939,9.8255 L12.4555,9.8255 L9.4662,9.3462 L6.7260,8.8669 L4.4840,8.3877 L2.4911,7.4291 L1.2455,6.7101 L0.2491,5.7515 L0.0000,5.2722 L0.0000,4.7929 Z" style="fill-rule: evenodd; fill: #ffffff; "/>
    <path xmlns="http://www.w3.org/2000/svg" d="  M0.0000,11.0238 L0.0000,10.5445 L0.2491,10.0652 L1.2455,9.1066 L2.4911,8.3877 L4.4840,7.6687 L6.7260,6.9498 L9.4662,6.7101 L12.4555,6.4705 L15.6939,6.2308 L18.6832,6.4705 L21.6725,6.7101 L24.1636,6.9498 L26.4056,7.6687 L28.3985,8.3877 L29.8931,9.1066 L30.6405,10.0652 L30.8896,10.5445 L30.8896,11.0238 L30.8896,11.5031 L30.6405,11.9824 L29.8931,12.9410 L28.3985,13.8995 L26.4056,14.6185 L24.1636,15.3374 L21.6725,15.8167 L18.6832,16.0564 L15.6939,16.2960 L12.4555,16.0564 L9.4662,15.8167 L6.7260,15.3374 L4.4840,14.6185 L2.4911,13.8995 L1.2455,12.9410 L0.2491,11.9824 L0.0000,11.5031 L0.0000,11.0238 Z" style="fill-rule: evenodd; fill: #ffffff; "/>
    <g xmlns="http://www.w3.org/2000/svg" id="Layer1426">
      <defs>
        <radialGradient id="grad624" cx="0.0000%" cy="100.0000%" r="100.0000%">
          <stop offset="0%" stop-color="#ffffff" stop-opacity="1.0000"/>
          <stop offset="100%" stop-color="#000099" stop-opacity="1.0000"/>
        </radialGradient>
      </defs>
      <path d="  M0.0000,11.0238 L0.0000,10.5445 L0.2491,10.0652 L1.2455,9.1066 L2.4911,8.3877 L4.4840,7.6687 L6.7260,6.9498 L9.4662,6.7101 L12.4555,6.4705 L15.6939,6.2308 L18.6832,6.4705 L21.6725,6.7101 L24.1636,6.9498 L26.4056,7.6687 L28.3985,8.3877 L29.8931,9.1066 L30.6405,10.0652 L30.8896,10.5445 L30.8896,11.0238 L30.8896,11.5031 L30.6405,11.9824 L29.8931,12.9410 L28.3985,13.8995 L26.4056,14.6185 L24.1636,15.3374 L21.6725,15.8167 L18.6832,16.0564 L15.6939,16.2960 L12.4555,16.0564 L9.4662,15.8167 L6.7260,15.3374 L4.4840,14.6185 L2.4911,13.8995 L1.2455,12.9410 L0.2491,11.9824 L0.0000,11.5031 L0.0000,11.0238 Z" style="stroke-width: 0.7200; stroke-linecap: round; stroke-linejoin: round; fill-rule: evenodd; fill: url(#grad624); "/>
      <path d="  M0.0000,11.0238 L0.0000,10.5445 L0.2491,10.0652 L1.2455,9.1066 L2.4911,8.3877 L4.4840,7.6687 L6.7260,6.9498 L9.4662,6.7101 L12.4555,6.4705 L15.6939,6.2308 L18.6832,6.4705 L21.6725,6.7101 L24.1636,6.9498 L26.4056,7.6687 L28.3985,8.3877 L29.8931,9.1066 L30.6405,10.0652 L30.8896,10.5445 L30.8896,11.0238 L30.8896,11.5031 L30.6405,11.9824 L29.8931,12.9410 L28.3985,13.8995 L26.4056,14.6185 L24.1636,15.3374 L21.6725,15.8167 L18.6832,16.0564 L15.6939,16.2960 L12.4555,16.0564 L9.4662,15.8167 L6.7260,15.3374 L4.4840,14.6185 L2.4911,13.8995 L1.2455,12.9410 L0.2491,11.9824 L0.0000,11.5031 L0.0000,11.0238 Z" style="stroke-width: 0.7200; stroke: #ffffff; stroke-dasharray: none; stroke-linecap: round; stroke-linejoin: round; fill: none; "/>
    </g>
    <g xmlns="http://www.w3.org/2000/svg" id="Layer1427">
      <defs>
        <radialGradient id="grad625" cx="0.0000%" cy="100.0000%" r="100.0000%">
          <stop offset="0%" stop-color="#ffffff" stop-opacity="1.0000"/>
          <stop offset="100%" stop-color="#000099" stop-opacity="1.0000"/>
        </radialGradient>
      </defs>
      <path d="  M0.0000,7.9084 L0.0000,7.4291 L0.2491,6.9498 L1.2455,5.9912 L2.4911,5.0326 L4.4840,4.3137 L6.7260,3.8344 L9.4662,3.3551 L12.4555,3.1154 L15.6939,3.1154 L18.6832,3.1154 L21.6725,3.3551 L24.1636,3.8344 L26.4056,4.3137 L28.3985,5.0326 L29.8931,5.9912 L30.6405,6.9498 L30.8896,7.4291 L30.8896,7.9084 L30.8896,8.3877 L30.6405,8.8669 L29.8931,9.8255 L28.3985,10.7841 L26.4056,11.5031 L24.1636,12.2220 L21.6725,12.7013 L18.6832,12.9410 L15.6939,12.9410 L12.4555,12.9410 L9.4662,12.7013 L6.7260,12.2220 L4.4840,11.5031 L2.4911,10.7841 L1.2455,9.8255 L0.2491,8.8669 L0.0000,8.3877 L0.0000,7.9084 Z" style="stroke-width: 0.7200; stroke-linecap: round; stroke-linejoin: round; fill-rule: evenodd; fill: url(#grad625); "/>
      <path d="  M0.0000,7.9084 L0.0000,7.4291 L0.2491,6.9498 L1.2455,5.9912 L2.4911,5.0326 L4.4840,4.3137 L6.7260,3.8344 L9.4662,3.3551 L12.4555,3.1154 L15.6939,3.1154 L18.6832,3.1154 L21.6725,3.3551 L24.1636,3.8344 L26.4056,4.3137 L28.3985,5.0326 L29.8931,5.9912 L30.6405,6.9498 L30.8896,7.4291 L30.8896,7.9084 L30.8896,8.3877 L30.6405,8.8669 L29.8931,9.8255 L28.3985,10.7841 L26.4056,11.5031 L24.1636,12.2220 L21.6725,12.7013 L18.6832,12.9410 L15.6939,12.9410 L12.4555,12.9410 L9.4662,12.7013 L6.7260,12.2220 L4.4840,11.5031 L2.4911,10.7841 L1.2455,9.8255 L0.2491,8.8669 L0.0000,8.3877 L0.0000,7.9084 Z" style="stroke-width: 0.7200; stroke: #ffffff; stroke-dasharray: none; stroke-linecap: round; stroke-linejoin: round; fill: none; "/>
    </g>
    <g xmlns="http://www.w3.org/2000/svg" xmlns:xlink="http://www.w3.org/1999/xlink" id="Layer1428">
      <defs>
        <linearGradient id="grad626">
          <stop offset="0%" stop-color="#c0e5ff" stop-opacity="1.0000"/>
          <stop offset="100%" stop-color="#0099ff" stop-opacity="1.0000"/>
        </linearGradient>
        <linearGradient xlink:href="#grad626" id="grad627" x1="0" y1="0" x2="0" y2="1" gradientTransform="rotate(225 .5 .5)" gradientUnits="objectBoundingBox">
  </linearGradient>
      </defs>
      <path d="  M0.0000,4.7929 L0.0000,4.0740 L0.2491,3.5947 L1.2455,2.8758 L2.4911,1.9172 L4.4840,1.1982 L6.7260,0.7189 L9.4662,0.2396 L12.4555,0.0000 L15.6939,0.0000 L18.6832,0.0000 L21.6725,0.2396 L24.1636,0.7189 L26.4056,1.1982 L28.3985,1.9172 L29.8931,2.8758 L30.6405,3.5947 L30.8896,4.0740 L30.8896,4.7929 L30.8896,5.2722 L30.6405,5.7515 L29.8931,6.7101 L28.3985,7.4291 L26.4056,8.3877 L24.1636,8.8669 L21.6725,9.3462 L18.6832,9.8255 L15.6939,9.8255 L12.4555,9.8255 L9.4662,9.3462 L6.7260,8.8669 L4.4840,8.3877 L2.4911,7.4291 L1.2455,6.7101 L0.2491,5.7515 L0.0000,5.2722 L0.0000,4.7929 Z" style="stroke-width: 0.7200; stroke-linecap: round; stroke-linejoin: round; fill-rule: evenodd; fill: url(#grad627); "/>
      <path d="  M0.0000,4.7929 L0.0000,4.0740 L0.2491,3.5947 L1.2455,2.8758 L2.4911,1.9172 L4.4840,1.1982 L6.7260,0.7189 L9.4662,0.2396 L12.4555,0.0000 L15.6939,0.0000 L18.6832,0.0000 L21.6725,0.2396 L24.1636,0.7189 L26.4056,1.1982 L28.3985,1.9172 L29.8931,2.8758 L30.6405,3.5947 L30.8896,4.0740 L30.8896,4.7929 L30.8896,5.2722 L30.6405,5.7515 L29.8931,6.7101 L28.3985,7.4291 L26.4056,8.3877 L24.1636,8.8669 L21.6725,9.3462 L18.6832,9.8255 L15.6939,9.8255 L12.4555,9.8255 L9.4662,9.3462 L6.7260,8.8669 L4.4840,8.3877 L2.4911,7.4291 L1.2455,6.7101 L0.2491,5.7515 L0.0000,5.2722 L0.0000,4.7929 Z" style="stroke-width: 0.7200; stroke: #ffffff; stroke-dasharray: none; stroke-linecap: round; stroke-linejoin: round; fill: none; "/>
    </g>
    <g xmlns="http://www.w3.org/2000/svg" xmlns:xlink="http://www.w3.org/1999/xlink" id="Layer1429">
      <defs>
        <linearGradient id="grad628">
          <stop offset="0%" stop-color="#000099" stop-opacity="1.0000"/>
          <stop offset="100%" stop-color="#ffffff" stop-opacity="1.0000"/>
        </linearGradient>
        <linearGradient xlink:href="#grad628" id="grad629" x1="0" y1="0" x2="0" y2="1" gradientTransform="rotate(225 .5 .5)" gradientUnits="objectBoundingBox">
  </linearGradient>
      </defs>
      <path d="  M9.7153,4.7929 L9.7153,4.3137 L10.2135,3.8344 L11.4590,3.3551 L13.2028,2.8758 L15.6939,2.6361 L17.6868,2.8758 L19.4305,3.3551 L20.6761,3.8344 L21.1743,4.3137 L21.1743,4.7929 L21.1743,5.0326 L20.6761,5.5119 L19.4305,6.2308 L17.6868,6.4705 L15.6939,6.7101 L13.2028,6.4705 L11.4590,6.2308 L10.2135,5.5119 L9.7153,5.0326 L9.7153,4.7929 Z" style="stroke-width: 0.7200; stroke-linecap: round; stroke-linejoin: round; fill-rule: evenodd; fill: url(#grad629); "/>
      <path d="  M9.7153,4.7929 L9.7153,4.3137 L10.2135,3.8344 L11.4590,3.3551 L13.2028,2.8758 L15.6939,2.6361 L17.6868,2.8758 L19.4305,3.3551 L20.6761,3.8344 L21.1743,4.3137 L21.1743,4.7929 L21.1743,5.0326 L20.6761,5.5119 L19.4305,6.2308 L17.6868,6.4705 L15.6939,6.7101 L13.2028,6.4705 L11.4590,6.2308 L10.2135,5.5119 L9.7153,5.0326 L9.7153,4.7929 Z" style="stroke-width: 0.7200; stroke: #ffffff; stroke-dasharray: none; stroke-linecap: round; stroke-linejoin: round; fill: none; "/>
    </g>
    <!--converted by libvisio2svg-->
  </g>
</svg>
