<svg xmlns="http://www.w3.org/2000/svg" xmlns:xlink="http://www.w3.org/1999/xlink" version="1.1" width="0.2906000000" height="0.1498000000" viewBox="0 0 20.9252 10.7841">
  <title><![CDATA[Hard disk-Sm]]></title>
  <g transform=" scale(1.000000) ">
    <g xmlns="http://www.w3.org/2000/svg" id="Layer1430">
      <path d="  M20.9252,3.1154 L20.6761,2.3965 L19.9288,1.9172 L19.1814,1.4379 L17.9359,0.9586 L14.6975,0.2396 L10.7117,0.0000 L6.4768,0.2396 L3.2384,0.9586 L1.9929,1.4379 L0.9964,1.9172 L0.2491,2.3965 L0.0000,3.1154 L0.2491,3.8344 L0.6975,4.2657 L0.2491,4.5533 L0.0000,5.2722 L0.2491,5.9912 L0.6975,6.4225 L0.2491,6.7101 L0.0000,7.4291 L0.2491,8.1480 L0.9964,8.6273 L1.9929,9.3462 L3.2384,9.8255 L4.7331,10.3048 L6.4768,10.5445 L8.4697,10.7841 L10.7117,10.7841 L12.7046,10.7841 L14.6975,10.5445 L16.4412,10.3048 L17.9359,9.8255 L19.1814,9.3462 L19.9288,8.6273 L20.6761,8.1480 L20.9252,7.4291 L20.6761,6.7101 L20.2277,6.4225 L20.6761,5.9912 L20.9252,5.2722 L20.6761,4.5533 L20.2277,4.2657 L20.6761,3.8344 L20.9252,3.1154 Z" style="stroke-width: 2.0000; stroke-linecap: round; stroke-linejoin: round; fill-rule: evenodd; fill: #ffffff; "/>
      <path d="  M20.9252,3.1154 L20.6761,2.3965 L19.9288,1.9172 L19.1814,1.4379 L17.9359,0.9586 L14.6975,0.2396 L10.7117,0.0000 L6.4768,0.2396 L3.2384,0.9586 L1.9929,1.4379 L0.9964,1.9172 L0.2491,2.3965 L0.0000,3.1154 L0.2491,3.8344 L0.6975,4.2657 L0.2491,4.5533 L0.0000,5.2722 L0.2491,5.9912 L0.6975,6.4225 L0.2491,6.7101 L0.0000,7.4291 L0.2491,8.1480 L0.9964,8.6273 L1.9929,9.3462 L3.2384,9.8255 L4.7331,10.3048 L6.4768,10.5445 L8.4697,10.7841 L10.7117,10.7841 L12.7046,10.7841 L14.6975,10.5445 L16.4412,10.3048 L17.9359,9.8255 L19.1814,9.3462 L19.9288,8.6273 L20.6761,8.1480 L20.9252,7.4291 L20.6761,6.7101 L20.2277,6.4225 L20.6761,5.9912 L20.9252,5.2722 L20.6761,4.5533 L20.2277,4.2657 L20.6761,3.8344 L20.9252,3.1154 Z" style="stroke-width: 2.0000; stroke: #ffffff; stroke-dasharray: none; stroke-linecap: round; stroke-linejoin: round; fill: none; "/>
    </g>
    <path xmlns="http://www.w3.org/2000/svg" d="  M0.0000,5.2722 L0.2491,4.7929 L0.2491,4.5533 L0.7473,4.3137 L0.2491,3.8344 L0.0000,3.1154 L0.2491,2.3965 L0.9964,1.9172 L1.9929,1.4379 L3.2384,0.9586 L6.4768,0.2396 L10.7117,0.0000 L14.6975,0.2396 L17.9359,0.9586 L19.1814,1.4379 L19.9288,1.9172 L20.6761,2.3965 L20.9252,3.1154 L20.6761,3.8344 L20.1779,4.3137 L20.6761,4.5533 L20.6761,4.7929 L20.9252,5.2722 L20.6761,5.9912 L20.1779,6.2308 L20.6761,6.9498 L20.9252,7.4291 L20.6761,8.1480 L19.9288,8.6273 L19.1814,9.3462 L17.9359,9.8255 L16.4412,10.3048 L14.6975,10.5445 L12.7046,10.7841 L10.7117,10.7841 L8.4697,10.7841 L6.4768,10.5445 L4.7331,10.3048 L3.2384,9.8255 L1.9929,9.3462 L0.9964,8.6273 L0.2491,8.1480 L0.0000,7.4291 L0.2491,6.9498 L0.7473,6.2308 L0.2491,5.9912 L0.0000,5.2722 Z" style="stroke-width: 0.4000; stroke: #ffffff; stroke-dasharray: none; stroke-linecap: round; stroke-linejoin: round; fill: none; "/>
    <g xmlns="http://www.w3.org/2000/svg" id="Layer1431">
      <path d="  M0.0000,5.2722 L0.2491,4.5533 L0.9964,4.0740 L1.9929,3.3551 L3.2384,3.1154 L6.4768,2.3965 L10.7117,2.1568 L14.6975,2.3965 L17.9359,3.1154 L19.1814,3.3551 L19.9288,4.0740 L20.6761,4.5533 L20.9252,5.2722 L20.6761,5.9912 L19.9288,6.7101 L19.1814,7.1894 L17.9359,7.6687 L16.4412,8.1480 L14.6975,8.3877 L12.7046,8.6273 L10.7117,8.6273 L8.4697,8.6273 L6.4768,8.3877 L4.7331,8.1480 L3.2384,7.6687 L1.9929,7.1894 L0.9964,6.7101 L0.2491,5.9912 L0.0000,5.2722 Z" style="stroke-width: 0.4000; stroke-linecap: round; stroke-linejoin: round; fill-rule: evenodd; fill: #ffffff; "/>
      <path d="  M0.0000,5.2722 L0.2491,4.5533 L0.9964,4.0740 L1.9929,3.3551 L3.2384,3.1154 L6.4768,2.3965 L10.7117,2.1568 L14.6975,2.3965 L17.9359,3.1154 L19.1814,3.3551 L19.9288,4.0740 L20.6761,4.5533 L20.9252,5.2722 L20.6761,5.9912 L19.9288,6.7101 L19.1814,7.1894 L17.9359,7.6687 L16.4412,8.1480 L14.6975,8.3877 L12.7046,8.6273 L10.7117,8.6273 L8.4697,8.6273 L6.4768,8.3877 L4.7331,8.1480 L3.2384,7.6687 L1.9929,7.1894 L0.9964,6.7101 L0.2491,5.9912 L0.0000,5.2722 Z" style="stroke-width: 0.4000; stroke: #ffffff; stroke-dasharray: none; stroke-linecap: round; stroke-linejoin: round; fill: none; "/>
    </g>
    <g xmlns="http://www.w3.org/2000/svg" xmlns:xlink="http://www.w3.org/1999/xlink" id="Layer1432">
      <defs>
        <linearGradient id="grad630">
          <stop offset="0%" stop-color="#c0e5ff" stop-opacity="1.0000"/>
          <stop offset="100%" stop-color="#0099ff" stop-opacity="1.0000"/>
        </linearGradient>
        <linearGradient xlink:href="#grad630" id="grad631" x1="0" y1="0" x2="0" y2="1" gradientTransform="rotate(225 .5 .5)" gradientUnits="objectBoundingBox">
  </linearGradient>
      </defs>
      <path d="  M0.0000,3.1154 L0.2491,2.3965 L0.9964,1.9172 L1.9929,1.4379 L3.2384,0.9586 L6.4768,0.2396 L10.7117,0.0000 L14.6975,0.2396 L17.9359,0.9586 L19.1814,1.4379 L19.9288,1.9172 L20.6761,2.3965 L20.9252,3.1154 L20.6761,3.8344 L19.9288,4.5533 L19.1814,5.0326 L17.9359,5.5119 L16.4412,5.9912 L14.6975,6.2308 L12.7046,6.4705 L10.7117,6.7101 L8.4697,6.4705 L6.4768,6.2308 L4.7331,5.9912 L3.2384,5.5119 L1.9929,5.0326 L0.9964,4.5533 L0.2491,3.8344 L0.0000,3.1154 Z" style="stroke-width: 0.4000; stroke-linecap: round; stroke-linejoin: round; fill-rule: evenodd; fill: url(#grad631); "/>
      <path d="  M0.0000,3.1154 L0.2491,2.3965 L0.9964,1.9172 L1.9929,1.4379 L3.2384,0.9586 L6.4768,0.2396 L10.7117,0.0000 L14.6975,0.2396 L17.9359,0.9586 L19.1814,1.4379 L19.9288,1.9172 L20.6761,2.3965 L20.9252,3.1154 L20.6761,3.8344 L19.9288,4.5533 L19.1814,5.0326 L17.9359,5.5119 L16.4412,5.9912 L14.6975,6.2308 L12.7046,6.4705 L10.7117,6.7101 L8.4697,6.4705 L6.4768,6.2308 L4.7331,5.9912 L3.2384,5.5119 L1.9929,5.0326 L0.9964,4.5533 L0.2491,3.8344 L0.0000,3.1154 Z" style="stroke-width: 0.4000; stroke: #ffffff; stroke-dasharray: none; stroke-linecap: round; stroke-linejoin: round; fill: none; "/>
    </g>
    <g xmlns="http://www.w3.org/2000/svg" id="Layer1433">
      <path d="  M0.0000,7.4291 L0.2491,6.7101 L0.9964,6.2308 L1.9929,5.5119 L3.2384,5.0326 L6.4768,4.5533 L10.7117,4.3137 L14.6975,4.5533 L17.9359,5.0326 L19.1814,5.5119 L19.9288,6.2308 L20.6761,6.7101 L20.9252,7.4291 L20.6761,8.1480 L19.9288,8.6273 L19.1814,9.3462 L17.9359,9.8255 L16.4412,10.3048 L14.6975,10.5445 L12.7046,10.7841 L10.7117,10.7841 L8.4697,10.7841 L6.4768,10.5445 L4.7331,10.3048 L3.2384,9.8255 L1.9929,9.3462 L0.9964,8.6273 L0.2491,8.1480 L0.0000,7.4291 Z" style="stroke-width: 0.4000; stroke-linecap: round; stroke-linejoin: round; fill-rule: evenodd; fill: #ffffff; "/>
      <path d="  M0.0000,7.4291 L0.2491,6.7101 L0.9964,6.2308 L1.9929,5.5119 L3.2384,5.0326 L6.4768,4.5533 L10.7117,4.3137 L14.6975,4.5533 L17.9359,5.0326 L19.1814,5.5119 L19.9288,6.2308 L20.6761,6.7101 L20.9252,7.4291 L20.6761,8.1480 L19.9288,8.6273 L19.1814,9.3462 L17.9359,9.8255 L16.4412,10.3048 L14.6975,10.5445 L12.7046,10.7841 L10.7117,10.7841 L8.4697,10.7841 L6.4768,10.5445 L4.7331,10.3048 L3.2384,9.8255 L1.9929,9.3462 L0.9964,8.6273 L0.2491,8.1480 L0.0000,7.4291 Z" style="stroke-width: 0.4000; stroke: #ffffff; stroke-dasharray: none; stroke-linecap: round; stroke-linejoin: round; fill: none; "/>
    </g>
    <g xmlns="http://www.w3.org/2000/svg" xmlns:xlink="http://www.w3.org/1999/xlink" id="Layer1434">
      <defs>
        <linearGradient id="grad632">
          <stop offset="0%" stop-color="#000099" stop-opacity="1.0000"/>
          <stop offset="100%" stop-color="#ffffff" stop-opacity="1.0000"/>
        </linearGradient>
        <linearGradient xlink:href="#grad632" id="grad633" x1="0" y1="0" x2="0" y2="1" gradientTransform="rotate(45 .5 .5)" gradientUnits="objectBoundingBox">
  </linearGradient>
      </defs>
      <path d="  M0.0000,7.4291 L0.2491,6.7101 L0.9964,6.2308 L1.9929,5.5119 L3.2384,5.0326 L6.4768,4.5533 L10.7117,4.3137 L14.6975,4.5533 L17.9359,5.0326 L19.1814,5.5119 L19.9288,6.2308 L20.6761,6.7101 L20.9252,7.4291 L20.6761,8.1480 L19.9288,8.6273 L19.1814,9.3462 L17.9359,9.8255 L16.4412,10.3048 L14.6975,10.5445 L12.7046,10.7841 L10.7117,10.7841 L8.4697,10.7841 L6.4768,10.5445 L4.7331,10.3048 L3.2384,9.8255 L1.9929,9.3462 L0.9964,8.6273 L0.2491,8.1480 L0.0000,7.4291 Z" style="stroke-width: 0.4000; stroke-linecap: round; stroke-linejoin: round; fill-rule: evenodd; fill: url(#grad633); "/>
      <path d="  M0.0000,7.4291 L0.2491,6.7101 L0.9964,6.2308 L1.9929,5.5119 L3.2384,5.0326 L6.4768,4.5533 L10.7117,4.3137 L14.6975,4.5533 L17.9359,5.0326 L19.1814,5.5119 L19.9288,6.2308 L20.6761,6.7101 L20.9252,7.4291 L20.6761,8.1480 L19.9288,8.6273 L19.1814,9.3462 L17.9359,9.8255 L16.4412,10.3048 L14.6975,10.5445 L12.7046,10.7841 L10.7117,10.7841 L8.4697,10.7841 L6.4768,10.5445 L4.7331,10.3048 L3.2384,9.8255 L1.9929,9.3462 L0.9964,8.6273 L0.2491,8.1480 L0.0000,7.4291 Z" style="stroke-width: 0.4000; stroke: #ffffff; stroke-dasharray: none; stroke-linecap: round; stroke-linejoin: round; fill: none; "/>
    </g>
    <g xmlns="http://www.w3.org/2000/svg" xmlns:xlink="http://www.w3.org/1999/xlink" id="Layer1435">
      <defs>
        <linearGradient id="grad634">
          <stop offset="0%" stop-color="#000099" stop-opacity="1.0000"/>
          <stop offset="100%" stop-color="#ffffff" stop-opacity="1.0000"/>
        </linearGradient>
        <linearGradient xlink:href="#grad634" id="grad635" x1="0" y1="0" x2="0" y2="1" gradientTransform="rotate(45 .5 .5)" gradientUnits="objectBoundingBox">
  </linearGradient>
      </defs>
      <path d="  M0.0000,5.2722 L0.2491,4.5533 L0.9964,4.0740 L1.9929,3.3551 L3.2384,3.1154 L6.4768,2.3965 L10.7117,2.1568 L14.6975,2.3965 L17.9359,3.1154 L19.1814,3.3551 L19.9288,4.0740 L20.6761,4.5533 L20.9252,5.2722 L20.6761,5.9912 L19.9288,6.7101 L19.1814,7.1894 L17.9359,7.6687 L16.4412,8.1480 L14.6975,8.3877 L12.7046,8.6273 L10.7117,8.6273 L8.4697,8.6273 L6.4768,8.3877 L4.7331,8.1480 L3.2384,7.6687 L1.9929,7.1894 L0.9964,6.7101 L0.2491,5.9912 L0.0000,5.2722 Z" style="stroke-width: 0.4000; stroke-linecap: round; stroke-linejoin: round; fill-rule: evenodd; fill: url(#grad635); "/>
      <path d="  M0.0000,5.2722 L0.2491,4.5533 L0.9964,4.0740 L1.9929,3.3551 L3.2384,3.1154 L6.4768,2.3965 L10.7117,2.1568 L14.6975,2.3965 L17.9359,3.1154 L19.1814,3.3551 L19.9288,4.0740 L20.6761,4.5533 L20.9252,5.2722 L20.6761,5.9912 L19.9288,6.7101 L19.1814,7.1894 L17.9359,7.6687 L16.4412,8.1480 L14.6975,8.3877 L12.7046,8.6273 L10.7117,8.6273 L8.4697,8.6273 L6.4768,8.3877 L4.7331,8.1480 L3.2384,7.6687 L1.9929,7.1894 L0.9964,6.7101 L0.2491,5.9912 L0.0000,5.2722 Z" style="stroke-width: 0.4000; stroke: #ffffff; stroke-dasharray: none; stroke-linecap: round; stroke-linejoin: round; fill: none; "/>
    </g>
    <g xmlns="http://www.w3.org/2000/svg" xmlns:xlink="http://www.w3.org/1999/xlink" id="Layer1436">
      <defs>
        <linearGradient id="grad636">
          <stop offset="0%" stop-color="#c0e5ff" stop-opacity="1.0000"/>
          <stop offset="100%" stop-color="#0099ff" stop-opacity="1.0000"/>
        </linearGradient>
        <linearGradient xlink:href="#grad636" id="grad637" x1="0" y1="0" x2="0" y2="1" gradientTransform="rotate(225 .5 .5)" gradientUnits="objectBoundingBox">
  </linearGradient>
      </defs>
      <path d="  M0.0000,3.1154 L0.2491,2.3965 L0.9964,1.9172 L1.9929,1.4379 L3.2384,0.9586 L6.4768,0.2396 L10.7117,0.0000 L14.6975,0.2396 L17.9359,0.9586 L19.1814,1.4379 L19.9288,1.9172 L20.6761,2.3965 L20.9252,3.1154 L20.6761,3.8344 L19.9288,4.5533 L19.1814,5.0326 L17.9359,5.5119 L16.4412,5.9912 L14.6975,6.2308 L12.7046,6.4705 L10.7117,6.7101 L8.4697,6.4705 L6.4768,6.2308 L4.7331,5.9912 L3.2384,5.5119 L1.9929,5.0326 L0.9964,4.5533 L0.2491,3.8344 L0.0000,3.1154 Z" style="stroke-width: 0.4000; stroke-linecap: round; stroke-linejoin: round; fill-rule: evenodd; fill: url(#grad637); "/>
      <path d="  M0.0000,3.1154 L0.2491,2.3965 L0.9964,1.9172 L1.9929,1.4379 L3.2384,0.9586 L6.4768,0.2396 L10.7117,0.0000 L14.6975,0.2396 L17.9359,0.9586 L19.1814,1.4379 L19.9288,1.9172 L20.6761,2.3965 L20.9252,3.1154 L20.6761,3.8344 L19.9288,4.5533 L19.1814,5.0326 L17.9359,5.5119 L16.4412,5.9912 L14.6975,6.2308 L12.7046,6.4705 L10.7117,6.7101 L8.4697,6.4705 L6.4768,6.2308 L4.7331,5.9912 L3.2384,5.5119 L1.9929,5.0326 L0.9964,4.5533 L0.2491,3.8344 L0.0000,3.1154 Z" style="stroke-width: 0.4000; stroke: #ffffff; stroke-dasharray: none; stroke-linecap: round; stroke-linejoin: round; fill: none; "/>
    </g>
    <g xmlns="http://www.w3.org/2000/svg" xmlns:xlink="http://www.w3.org/1999/xlink" id="Layer1437">
      <defs>
        <linearGradient id="grad638">
          <stop offset="0%" stop-color="#000099" stop-opacity="1.0000"/>
          <stop offset="100%" stop-color="#ffffff" stop-opacity="1.0000"/>
        </linearGradient>
        <linearGradient xlink:href="#grad638" id="grad639" x1="0" y1="0" x2="0" y2="1" gradientTransform="rotate(225 .5 .5)" gradientUnits="objectBoundingBox">
  </linearGradient>
      </defs>
      <path d="  M6.7260,3.1154 L6.9751,2.6361 L7.7224,2.1568 L8.9679,1.9172 L10.7117,1.9172 L11.9573,1.9172 L13.2028,2.1568 L13.9501,2.6361 L14.1992,3.1154 L13.9501,3.5947 L13.2028,4.0740 L11.9573,4.3137 L10.7117,4.5533 L8.9679,4.3137 L7.7224,4.0740 L6.9751,3.5947 L6.7260,3.1154 Z" style="stroke-width: 0.7200; stroke-linecap: round; stroke-linejoin: round; fill-rule: evenodd; fill: url(#grad639); "/>
      <path d="  M6.7260,3.1154 L6.9751,2.6361 L7.7224,2.1568 L8.9679,1.9172 L10.7117,1.9172 L11.9573,1.9172 L13.2028,2.1568 L13.9501,2.6361 L14.1992,3.1154 L13.9501,3.5947 L13.2028,4.0740 L11.9573,4.3137 L10.7117,4.5533 L8.9679,4.3137 L7.7224,4.0740 L6.9751,3.5947 L6.7260,3.1154 Z" style="stroke-width: 0.7200; stroke: #ffffff; stroke-dasharray: none; stroke-linecap: round; stroke-linejoin: round; fill: none; "/>
    </g>
    <!--converted by libvisio2svg-->
  </g>
</svg>
