<svg xmlns="http://www.w3.org/2000/svg" xmlns:xlink="http://www.w3.org/1999/xlink" version="1.1" width="0.3782000000" height="0.2345000000" viewBox="0 0 27.2272 16.8851">
  <title><![CDATA[Internet cloud-Sm]]></title>
  <g transform=" scale(1.000000) ">
    <g xmlns="http://www.w3.org/2000/svg" id="Layer1223">
      <defs>
        <radialGradient id="grad394" cx="50.0000%" cy="50.0000%" r="100.0000%">
          <stop offset="0%" stop-color="#ffffff" stop-opacity="1.0000"/>
          <stop offset="100%" stop-color="#80b4ff" stop-opacity="1.0000"/>
        </radialGradient>
      </defs>
      <path d="  M22.0761,12.6008 L21.8308,13.6089 L21.3403,14.6169 L20.6044,15.1210 L19.8685,15.8770 L18.8874,16.3810 L17.9062,16.6331 L15.6986,16.8851 L13.9816,16.6331 L12.0192,16.1290 L10.3022,15.1210 L9.8116,14.6169 L9.3210,14.1129 L10.5475,15.1210 L8.8305,15.8770 L7.8493,15.8770 L5.8870,15.8770 L4.4152,15.3730 L2.9435,14.8690 L1.9623,14.1129 L0.9812,13.3569 L0.4906,12.0968 L0.0000,11.0887 L0.0000,10.0806 L0.0000,8.5685 L0.4906,7.8125 L0.9812,7.0565 L1.7170,6.3004 L1.9623,7.5605 L1.7170,7.0565 L1.7170,6.0484 L1.7170,5.2923 L2.2076,4.2843 L2.6982,3.5282 L3.4341,2.7722 L4.1699,2.2681 L5.1511,1.7641 L6.1323,1.5121 L7.3587,1.5121 L9.0757,1.7641 L10.7928,2.5202 L9.3210,1.7641 L10.3022,1.0081 L11.5286,0.5040 L13.0004,0.0000 L14.2268,0.0000 L15.6986,0.0000 L16.9250,0.2520 L17.9062,0.7560 L19.1327,1.2601 L19.8685,2.0161 L20.6044,3.0242 L21.0950,4.0323 L21.3403,5.0403 L20.8497,3.2762 L22.3214,3.5282 L23.5479,4.0323 L24.5290,4.5363 L25.5102,5.2923 L26.2461,6.0484 L26.7367,7.0565 L27.2272,7.8125 L27.2272,8.8206 L27.2272,9.8286 L26.9819,10.8367 L26.7367,11.5927 L26.2461,12.3488 L25.2649,13.1048 L24.2838,13.6089 L21.3403,14.6169 L22.0761,12.6008 Z" style="stroke-width: 0.7200; stroke-linecap: round; stroke-linejoin: round; fill-rule: evenodd; fill: url(#grad394); "/>
      <path d="  M22.0761,12.6008 L21.8308,13.6089 L21.3403,14.6169 L20.6044,15.1210 L19.8685,15.8770 L18.8874,16.3810 L17.9062,16.6331 L15.6986,16.8851 L13.9816,16.6331 L12.0192,16.1290 L10.3022,15.1210 L9.8116,14.6169 L9.3210,14.1129 L10.5475,15.1210 L8.8305,15.8770 L7.8493,15.8770 L5.8870,15.8770 L4.4152,15.3730 L2.9435,14.8690 L1.9623,14.1129 L0.9812,13.3569 L0.4906,12.0968 L0.0000,11.0887 L0.0000,10.0806 L0.0000,8.5685 L0.4906,7.8125 L0.9812,7.0565 L1.7170,6.3004 L1.9623,7.5605 L1.7170,7.0565 L1.7170,6.0484 L1.7170,5.2923 L2.2076,4.2843 L2.6982,3.5282 L3.4341,2.7722 L4.1699,2.2681 L5.1511,1.7641 L6.1323,1.5121 L7.3587,1.5121 L9.0757,1.7641 L10.7928,2.5202 L9.3210,1.7641 L10.3022,1.0081 L11.5286,0.5040 L13.0004,0.0000 L14.2268,0.0000 L15.6986,0.0000 L16.9250,0.2520 L17.9062,0.7560 L19.1327,1.2601 L19.8685,2.0161 L20.6044,3.0242 L21.0950,4.0323 L21.3403,5.0403 L20.8497,3.2762 L22.3214,3.5282 L23.5479,4.0323 L24.5290,4.5363 L25.5102,5.2923 L26.2461,6.0484 L26.7367,7.0565 L27.2272,7.8125 L27.2272,8.8206 L27.2272,9.8286 L26.9819,10.8367 L26.7367,11.5927 L26.2461,12.3488 L25.2649,13.1048 L24.2838,13.6089 L21.3403,14.6169 L22.0761,12.6008 Z" style="stroke-width: 0.7200; stroke: #ffffff; stroke-dasharray: none; stroke-linecap: round; stroke-linejoin: round; fill: none; "/>
    </g>
    <!--converted by libvisio2svg-->
  </g>
</svg>
