<svg xmlns="http://www.w3.org/2000/svg" xmlns:xlink="http://www.w3.org/1999/xlink" version="1.1" width="0.5826000000" height="0.3640000000" viewBox="0 0 41.9447 26.2097">
  <title><![CDATA[Internet cloud-Med]]></title>
  <g transform=" scale(1.000000) ">
    <g xmlns="http://www.w3.org/2000/svg" id="Layer1222">
      <defs>
        <radialGradient id="grad393" cx="50.0000%" cy="50.0000%" r="100.0000%">
          <stop offset="0%" stop-color="#ffffff" stop-opacity="1.0000"/>
          <stop offset="100%" stop-color="#80b4ff" stop-opacity="1.0000"/>
        </radialGradient>
      </defs>
      <path d="  M33.8501,19.6573 L33.3595,21.1694 L32.6236,22.4294 L31.6425,23.4375 L30.4160,24.4456 L29.1896,25.2016 L27.7178,25.7056 L26.0008,25.9577 L24.2838,26.2097 L21.3403,25.9577 L18.3968,24.9496 L17.1703,24.1935 L15.9439,23.4375 L14.9627,22.6815 L14.4721,21.6734 L16.1892,23.4375 L14.7174,23.9415 L13.4910,24.4456 L12.0192,24.6976 L9.3210,24.4456 L6.6228,23.9415 L4.6605,22.9335 L2.9435,21.9254 L1.4717,20.4133 L0.7359,18.9012 L0.2453,17.1371 L0.0000,15.3730 L0.0000,13.3569 L0.4906,11.8448 L1.4717,10.8367 L2.4529,9.8286 L3.1888,11.8448 L2.6982,10.8367 L2.4529,9.5766 L2.6982,8.0645 L3.1888,6.8044 L3.9246,5.5444 L5.1511,4.5363 L6.3776,3.5282 L7.8493,3.0242 L9.5663,2.5202 L11.2834,2.2681 L12.7551,2.5202 L13.9816,2.7722 L15.4533,3.2762 L16.4345,3.7802 L14.4721,3.0242 L15.9439,1.5121 L17.6609,0.7560 L19.8685,0.2520 L22.0761,0.0000 L24.0385,0.2520 L26.0008,0.5040 L27.7178,1.2601 L29.1896,2.2681 L30.6613,3.2762 L31.6425,4.5363 L32.3783,6.0484 L32.8689,7.8125 L32.1330,5.2923 L34.0954,5.5444 L36.0577,6.3004 L37.7747,7.0565 L39.2465,8.3165 L40.4729,9.5766 L41.2088,10.8367 L41.6994,12.3488 L41.9447,13.6089 L41.9447,15.3730 L41.6994,16.8851 L40.9635,18.1452 L40.2276,19.1532 L39.0012,20.1613 L37.2841,20.9173 L35.3218,21.9254 L32.6236,22.6815 L33.8501,19.6573 Z" style="stroke-width: 0.7200; stroke-linecap: round; stroke-linejoin: round; fill-rule: evenodd; fill: url(#grad393); "/>
      <path d="  M33.8501,19.6573 L33.3595,21.1694 L32.6236,22.4294 L31.6425,23.4375 L30.4160,24.4456 L29.1896,25.2016 L27.7178,25.7056 L26.0008,25.9577 L24.2838,26.2097 L21.3403,25.9577 L18.3968,24.9496 L17.1703,24.1935 L15.9439,23.4375 L14.9627,22.6815 L14.4721,21.6734 L16.1892,23.4375 L14.7174,23.9415 L13.4910,24.4456 L12.0192,24.6976 L9.3210,24.4456 L6.6228,23.9415 L4.6605,22.9335 L2.9435,21.9254 L1.4717,20.4133 L0.7359,18.9012 L0.2453,17.1371 L0.0000,15.3730 L0.0000,13.3569 L0.4906,11.8448 L1.4717,10.8367 L2.4529,9.8286 L3.1888,11.8448 L2.6982,10.8367 L2.4529,9.5766 L2.6982,8.0645 L3.1888,6.8044 L3.9246,5.5444 L5.1511,4.5363 L6.3776,3.5282 L7.8493,3.0242 L9.5663,2.5202 L11.2834,2.2681 L12.7551,2.5202 L13.9816,2.7722 L15.4533,3.2762 L16.4345,3.7802 L14.4721,3.0242 L15.9439,1.5121 L17.6609,0.7560 L19.8685,0.2520 L22.0761,0.0000 L24.0385,0.2520 L26.0008,0.5040 L27.7178,1.2601 L29.1896,2.2681 L30.6613,3.2762 L31.6425,4.5363 L32.3783,6.0484 L32.8689,7.8125 L32.1330,5.2923 L34.0954,5.5444 L36.0577,6.3004 L37.7747,7.0565 L39.2465,8.3165 L40.4729,9.5766 L41.2088,10.8367 L41.6994,12.3488 L41.9447,13.6089 L41.9447,15.3730 L41.6994,16.8851 L40.9635,18.1452 L40.2276,19.1532 L39.0012,20.1613 L37.2841,20.9173 L35.3218,21.9254 L32.6236,22.6815 L33.8501,19.6573 Z" style="stroke-width: 0.7200; stroke: #ffffff; stroke-dasharray: none; stroke-linecap: round; stroke-linejoin: round; fill: none; "/>
    </g>
    <!--converted by libvisio2svg-->
  </g>
</svg>
