<svg xmlns="http://www.w3.org/2000/svg" xmlns:xlink="http://www.w3.org/1999/xlink" version="1.1" width="0.3681000000" height="0.3781000000" viewBox="0 0 26.5000 27.2200">
  <title><![CDATA[Internet globe-Med]]></title>
  <g transform=" scale(1.000000) ">
    <defs xmlns="http://www.w3.org/2000/svg">
      <radialGradient id="grad372" cx="0.0000%" cy="0.0000%" r="100.0000%">
        <stop offset="0%" stop-color="#ffffff" stop-opacity="1.0000"/>
        <stop offset="100%" stop-color="#0066ff" stop-opacity="1.0000"/>
      </radialGradient>
    </defs>
    <path xmlns="http://www.w3.org/2000/svg" d="  M26.1277,13.4840 L25.8825,16.2562 L25.1466,18.7763 L23.9201,21.0445 L22.4484,23.0606 L20.4861,24.5727 L18.2785,25.8328 L15.8255,26.5888 L13.3726,26.8408 L10.6745,26.5888 L8.2215,25.8328 L6.0139,24.5727 L4.0516,23.0606 L2.5799,21.0445 L1.3534,18.7763 L0.6175,16.2562 L0.3723,13.4840 L0.6175,10.9638 L1.3534,8.4437 L2.5799,6.1755 L4.0516,4.1594 L6.0139,2.6473 L8.2215,1.3872 L10.6745,0.6312 L13.3726,0.3792 L15.8255,0.6312 L18.2785,1.3872 L20.4861,2.6473 L22.4484,4.1594 L23.9201,6.1755 L25.1466,8.4437 L25.8825,10.9638 L26.1277,13.4840 Z" style="fill-rule: evenodd; fill: url(#grad372); "/>
    <defs xmlns="http://www.w3.org/2000/svg">
      <radialGradient id="grad373" cx="50.0000%" cy="50.0000%" r="100.0000%">
        <stop offset="0%" stop-color="#ffffff" stop-opacity="1.0000"/>
        <stop offset="100%" stop-color="#0080ff" stop-opacity="1.0000"/>
      </radialGradient>
    </defs>
    <path xmlns="http://www.w3.org/2000/svg" d="  M20.1905,9.6368 L20.0240,11.4663 L19.5247,13.1294 L18.6925,14.6263 L17.6939,15.9569 L16.3624,16.9548 L14.8644,17.7864 L13.2000,18.2853 L11.5356,18.4517 L9.7048,18.2853 L8.0404,17.7864 L6.5424,16.9548 L5.2109,15.9569 L4.2122,14.6263 L3.3800,13.1294 L2.8807,11.4663 L2.7143,9.6368 L2.8807,7.9736 L3.3800,6.3104 L4.2122,4.8135 L5.2109,3.4830 L6.5424,2.4850 L8.0404,1.6534 L9.7048,1.1545 L11.5356,0.9882 L13.2000,1.1545 L14.8644,1.6534 L16.3624,2.4850 L17.6939,3.4830 L18.6925,4.8135 L19.5247,6.3104 L20.0240,7.9736 L20.1905,9.6368 Z" style="fill-rule: evenodd; fill: url(#grad373); "/>
    <g xmlns="http://www.w3.org/2000/svg" xmlns:xlink="http://www.w3.org/1999/xlink" id="Layer1213">
      <defs>
        <linearGradient id="grad374">
          <stop offset="0%" stop-color="#ffcc00" stop-opacity="1.0000"/>
          <stop offset="100%" stop-color="#cc3300" stop-opacity="1.0000"/>
        </linearGradient>
        <linearGradient xlink:href="#grad374" id="grad375" x1="0" y1="0" x2="0" y2="1" gradientTransform="rotate(45 .5 .5)" gradientUnits="objectBoundingBox">
  </linearGradient>
      </defs>
      <path d="  M7.7310,2.6473 L8.2215,2.6473 L8.4668,2.1433 L8.4668,1.8913 L7.9763,1.3872 L6.5045,2.1433 L5.0328,3.4033 L3.8063,4.4114 L2.8252,5.9235 L1.8440,7.1836 L1.1081,8.9477 L0.6175,10.7118 L0.3723,12.4759 L0.6175,12.9800 L1.1081,13.2320 L1.5987,13.4840 L2.3346,14.2400 L3.5610,16.2562 L4.2969,17.2642 L5.2781,18.0203 L4.7875,19.0283 L4.5422,20.0364 L4.5422,21.2965 L4.7875,21.5485 L5.2781,22.0525 L6.5045,23.3126 L7.2404,23.8167 L7.9763,24.0687 L7.7310,25.5808 L10.1839,26.3368 L12.6368,26.8408 L13.3726,26.3368 L15.0897,24.5727 L16.8067,22.8086 L17.5426,22.5566 L17.5426,22.3046 L17.5426,21.8005 L17.2973,21.5485 L17.0520,21.2965 L16.3161,21.0445 L14.5991,20.7925 L13.1274,20.2884 L12.1462,19.2804 L11.1650,18.2723 L10.1839,17.5163 L9.2027,17.0122 L8.4668,17.0122 L7.7310,17.0122 L6.2592,17.0122 L6.0139,16.7602 L5.7686,16.7602 L5.5234,16.7602 L5.0328,16.5082 L4.7875,16.0042 L4.5422,15.2481 L4.5422,14.4921 L4.7875,14.2400 L5.2781,13.9880 L5.0328,12.9800 L4.5422,13.2320 L3.8063,13.2320 L3.3157,12.7279 L3.0704,12.2239 L2.8252,11.4679 L2.8252,10.9638 L3.0704,10.2078 L3.5610,9.9558 L4.2969,9.7038 L4.7875,9.9558 L5.5234,10.4598 L6.0139,10.9638 L6.5045,12.4759 L6.7498,12.7279 L6.9951,12.7279 L6.9951,11.2158 L7.2404,10.7118 L7.7310,10.2078 L8.7121,9.4517 L8.9574,8.9477 L9.2027,8.4437 L9.6933,7.9396 L10.1839,7.9396 L10.6745,7.6876 L11.4103,7.1836 L12.1462,6.4275 L12.6368,5.9235 L13.3726,5.6715 L13.3726,5.1675 L12.3915,5.1675 L11.9009,4.9154 L10.6745,3.9074 L9.6933,3.4033 L9.4480,3.6554 L9.2027,4.4114 L8.7121,4.9154 L8.4668,4.4114 L7.9763,3.9074 L7.7310,3.4033 L7.7310,2.6473 Z" style="stroke-width: 0.7200; stroke-linecap: round; stroke-linejoin: round; fill-rule: evenodd; fill: url(#grad375); "/>
      <path d="  M7.7310,2.6473 L8.2215,2.6473 L8.4668,2.1433 L8.4668,1.8913 L7.9763,1.3872 L6.5045,2.1433 L5.0328,3.4033 L3.8063,4.4114 L2.8252,5.9235 L1.8440,7.1836 L1.1081,8.9477 L0.6175,10.7118 L0.3723,12.4759 L0.6175,12.9800 L1.1081,13.2320 L1.5987,13.4840 L2.3346,14.2400 L3.5610,16.2562 L4.2969,17.2642 L5.2781,18.0203 L4.7875,19.0283 L4.5422,20.0364 L4.5422,21.2965 L4.7875,21.5485 L5.2781,22.0525 L6.5045,23.3126 L7.2404,23.8167 L7.9763,24.0687 L7.7310,25.5808 L10.1839,26.3368 L12.6368,26.8408 L13.3726,26.3368 L15.0897,24.5727 L16.8067,22.8086 L17.5426,22.5566 L17.5426,22.3046 L17.5426,21.8005 L17.2973,21.5485 L17.0520,21.2965 L16.3161,21.0445 L14.5991,20.7925 L13.1274,20.2884 L12.1462,19.2804 L11.1650,18.2723 L10.1839,17.5163 L9.2027,17.0122 L8.4668,17.0122 L7.7310,17.0122 L6.2592,17.0122 L6.0139,16.7602 L5.7686,16.7602 L5.5234,16.7602 L5.0328,16.5082 L4.7875,16.0042 L4.5422,15.2481 L4.5422,14.4921 L4.7875,14.2400 L5.2781,13.9880 L5.0328,12.9800 L4.5422,13.2320 L3.8063,13.2320 L3.3157,12.7279 L3.0704,12.2239 L2.8252,11.4679 L2.8252,10.9638 L3.0704,10.2078 L3.5610,9.9558 L4.2969,9.7038 L4.7875,9.9558 L5.5234,10.4598 L6.0139,10.9638 L6.5045,12.4759 L6.7498,12.7279 L6.9951,12.7279 L6.9951,11.2158 L7.2404,10.7118 L7.7310,10.2078 L8.7121,9.4517 L8.9574,8.9477 L9.2027,8.4437 L9.6933,7.9396 L10.1839,7.9396 L10.6745,7.6876 L11.4103,7.1836 L12.1462,6.4275 L12.6368,5.9235 L13.3726,5.6715 L13.3726,5.1675 L12.3915,5.1675 L11.9009,4.9154 L10.6745,3.9074 L9.6933,3.4033 L9.4480,3.6554 L9.2027,4.4114 L8.7121,4.9154 L8.4668,4.4114 L7.9763,3.9074 L7.7310,3.4033 L7.7310,2.6473 Z" style="stroke-width: 0.7200; stroke: #ffcc00; stroke-dasharray: none; stroke-linecap: round; stroke-linejoin: round; fill: none; "/>
    </g>
    <g xmlns="http://www.w3.org/2000/svg" xmlns:xlink="http://www.w3.org/1999/xlink" id="Layer1214">
      <defs>
        <linearGradient id="grad376">
          <stop offset="0%" stop-color="#ffcc00" stop-opacity="1.0000"/>
          <stop offset="100%" stop-color="#cc3300" stop-opacity="1.0000"/>
        </linearGradient>
        <linearGradient xlink:href="#grad376" id="grad377" x1="0" y1="0" x2="0" y2="1" gradientTransform="rotate(315 .5 .5)" gradientUnits="objectBoundingBox">
  </linearGradient>
      </defs>
      <path d="  M24.9013,7.9396 L24.6560,7.9396 L24.4107,7.6876 L23.6748,8.6957 L23.1843,9.7038 L22.4484,10.9638 L21.7125,12.4759 L21.4672,14.4921 L21.4672,15.5001 L21.9578,16.7602 L22.6937,17.5163 L23.6748,18.0203 L24.4107,18.0203 L24.6560,17.7683 L25.1466,17.5163 L25.6372,17.2642 L26.1277,15.5001 L26.1277,13.4840 L26.1277,12.2239 L25.8825,10.7118 L25.6372,9.1997 L24.9013,7.9396 Z M21.7125,3.4033 L21.2219,4.6634 L20.9766,5.4195 L20.9766,5.9235 L20.9766,6.4275 L20.9766,6.6796 L20.9766,7.1836 L20.4861,7.6876 L20.2408,8.1917 L20.2408,8.6957 L20.9766,9.7038 L21.4672,9.9558 L21.7125,9.9558 L22.2031,9.9558 L22.4484,9.4517 L22.6937,8.4437 L22.6937,7.6876 L22.6937,7.4356 L23.6748,7.4356 L23.9201,7.4356 L24.4107,7.6876 L24.4107,6.9316 L23.1843,5.1675 L21.7125,3.4033 Z" style="stroke-width: 0.7200; stroke-linecap: round; stroke-linejoin: round; fill-rule: evenodd; fill: url(#grad377); "/>
      <path d="  M24.9013,7.9396 L24.6560,7.9396 L24.4107,7.6876 L23.6748,8.6957 L23.1843,9.7038 L22.4484,10.9638 L21.7125,12.4759 L21.4672,14.4921 L21.4672,15.5001 L21.9578,16.7602 L22.6937,17.5163 L23.6748,18.0203 L24.4107,18.0203 L24.6560,17.7683 L25.1466,17.5163 L25.6372,17.2642 L26.1277,15.5001 L26.1277,13.4840 L26.1277,12.2239 L25.8825,10.7118 L25.6372,9.1997 L24.9013,7.9396 Z M21.7125,3.4033 L21.2219,4.6634 L20.9766,5.4195 L20.9766,5.9235 L20.9766,6.4275 L20.9766,6.6796 L20.9766,7.1836 L20.4861,7.6876 L20.2408,8.1917 L20.2408,8.6957 L20.9766,9.7038 L21.4672,9.9558 L21.7125,9.9558 L22.2031,9.9558 L22.4484,9.4517 L22.6937,8.4437 L22.6937,7.6876 L22.6937,7.4356 L23.6748,7.4356 L23.9201,7.4356 L24.4107,7.6876 L24.4107,6.9316 L23.1843,5.1675 L21.7125,3.4033 Z" style="stroke-width: 0.7200; stroke: #ffcc00; stroke-dasharray: none; stroke-linecap: round; stroke-linejoin: round; fill: none; "/>
    </g>
    <g xmlns="http://www.w3.org/2000/svg" xmlns:xlink="http://www.w3.org/1999/xlink" id="Layer1215">
      <defs>
        <linearGradient id="grad378">
          <stop offset="0%" stop-color="#ffcc00" stop-opacity="1.0000"/>
          <stop offset="100%" stop-color="#cc3300" stop-opacity="1.0000"/>
        </linearGradient>
        <linearGradient xlink:href="#grad378" id="grad379" x1="0" y1="0" x2="0" y2="1" gradientTransform="rotate(315 .5 .5)" gradientUnits="objectBoundingBox">
  </linearGradient>
      </defs>
      <path d="  M18.7690,1.6392 L19.0143,2.8993 L19.2596,3.4033 L19.5049,3.9074 L20.9766,2.8993 L18.7690,1.6392 Z" style="stroke-width: 0.7200; stroke-linecap: round; stroke-linejoin: round; fill-rule: evenodd; fill: url(#grad379); "/>
      <path d="  M18.7690,1.6392 L19.0143,2.8993 L19.2596,3.4033 L19.5049,3.9074 L20.9766,2.8993 L18.7690,1.6392 Z" style="stroke-width: 0.7200; stroke: #ffcc00; stroke-dasharray: none; stroke-linecap: round; stroke-linejoin: round; fill: none; "/>
    </g>
    <g xmlns="http://www.w3.org/2000/svg" xmlns:xlink="http://www.w3.org/1999/xlink" id="Layer1216">
      <defs>
        <linearGradient id="grad380">
          <stop offset="0%" stop-color="#ffcc00" stop-opacity="1.0000"/>
          <stop offset="100%" stop-color="#cc3300" stop-opacity="1.0000"/>
        </linearGradient>
        <linearGradient xlink:href="#grad380" id="grad381" x1="0" y1="0" x2="0" y2="1" gradientTransform="rotate(315 .5 .5)" gradientUnits="objectBoundingBox">
  </linearGradient>
      </defs>
      <path d="  M13.3726,0.3792 L11.6556,0.3792 L9.9386,0.6312 L10.4292,1.1352 L10.9197,1.6392 L12.1462,1.8913 L11.9009,2.3953 L11.6556,3.1513 L11.9009,4.4114 L13.1274,4.1594 L14.5991,3.9074 L15.5803,3.4033 L16.0708,3.1513 L16.8067,3.1513 L16.8067,2.6473 L18.2785,2.6473 L18.0332,1.8913 L17.7879,1.1352 L15.5803,0.6312 L13.3726,0.3792 Z" style="stroke-width: 0.7200; stroke-linecap: round; stroke-linejoin: round; fill-rule: evenodd; fill: url(#grad381); "/>
      <path d="  M13.3726,0.3792 L11.6556,0.3792 L9.9386,0.6312 L10.4292,1.1352 L10.9197,1.6392 L12.1462,1.8913 L11.9009,2.3953 L11.6556,3.1513 L11.9009,4.4114 L13.1274,4.1594 L14.5991,3.9074 L15.5803,3.4033 L16.0708,3.1513 L16.8067,3.1513 L16.8067,2.6473 L18.2785,2.6473 L18.0332,1.8913 L17.7879,1.1352 L15.5803,0.6312 L13.3726,0.3792 Z" style="stroke-width: 0.7200; stroke: #ffcc00; stroke-dasharray: none; stroke-linecap: round; stroke-linejoin: round; fill: none; "/>
    </g>
    <path xmlns="http://www.w3.org/2000/svg" d="  M26.5000,13.4804 L26.2476,16.3320 L25.4905,18.9244 L24.2286,21.2575 L22.7143,23.3314 L20.6952,24.8869 L18.4238,26.1830 L15.9000,26.9608 L13.3762,27.2200 L10.6000,26.9608 L8.0762,26.1830 L5.8048,24.8869 L3.7857,23.3314 L2.2714,21.2575 L1.0095,18.9244 L0.2524,16.3320 L0.0000,13.4804 L0.2524,10.8880 L1.0095,8.2956 L2.2714,5.9625 L3.7857,3.8886 L5.8048,2.3331 L8.0762,1.0370 L10.6000,0.2592 L13.3762,0.0000 L15.9000,0.2592 L18.4238,1.0370 L20.6952,2.3331 L22.7143,3.8886 L24.2286,5.9625 L25.4905,8.2956 L26.2476,10.8880 L26.5000,13.4804 Z" style="stroke-width: 1.2000; stroke: #ffffff; stroke-dasharray: none; stroke-linecap: round; stroke-linejoin: round; fill: none; "/>
    <!--converted by libvisio2svg-->
  </g>
</svg>
