<svg xmlns="http://www.w3.org/2000/svg" xmlns:xlink="http://www.w3.org/1999/xlink" version="1.1" width="0.5521000000" height="0.5667000000" viewBox="0 0 39.7500 40.8000">
  <title><![CDATA[Internet globe]]></title>
  <g transform=" scale(1.000000) ">
    <defs xmlns="http://www.w3.org/2000/svg">
      <radialGradient id="grad362" cx="0.0000%" cy="0.0000%" r="100.0000%">
        <stop offset="0%" stop-color="#ffffff" stop-opacity="1.0000"/>
        <stop offset="100%" stop-color="#0066ff" stop-opacity="1.0000"/>
      </radialGradient>
    </defs>
    <path xmlns="http://www.w3.org/2000/svg" d="  M39.1916,20.2111 L38.8237,24.3663 L37.7199,28.1438 L35.8802,31.5435 L33.6726,34.5655 L30.7291,36.8320 L27.4177,38.7207 L23.7383,39.8539 L20.0590,40.2317 L16.0117,39.8539 L12.3323,38.7207 L9.0209,36.8320 L6.0774,34.5655 L3.8698,31.5435 L2.0301,28.1438 L0.9263,24.3663 L0.5584,20.2111 L0.9263,16.4337 L2.0301,12.6562 L3.8698,9.2565 L6.0774,6.2345 L9.0209,3.9680 L12.3323,2.0793 L16.0117,0.9461 L20.0590,0.5683 L23.7383,0.9461 L27.4177,2.0793 L30.7291,3.9680 L33.6726,6.2345 L35.8802,9.2565 L37.7199,12.6562 L38.8237,16.4337 L39.1916,20.2111 Z" style="fill-rule: evenodd; fill: url(#grad362); "/>
    <defs xmlns="http://www.w3.org/2000/svg">
      <radialGradient id="grad363" cx="50.0000%" cy="50.0000%" r="100.0000%">
        <stop offset="0%" stop-color="#ffffff" stop-opacity="1.0000"/>
        <stop offset="100%" stop-color="#0080ff" stop-opacity="1.0000"/>
      </radialGradient>
    </defs>
    <path xmlns="http://www.w3.org/2000/svg" d="  M30.2857,14.4445 L30.0361,17.1868 L29.2871,19.6797 L28.0388,21.9234 L26.5408,23.9177 L24.5435,25.4135 L22.2966,26.6600 L19.8000,27.4078 L17.3034,27.6571 L14.5571,27.4078 L12.0605,26.6600 L9.8136,25.4135 L7.8163,23.9177 L6.3184,21.9234 L5.0701,19.6797 L4.3211,17.1868 L4.0714,14.4445 L4.3211,11.9516 L5.0701,9.4586 L6.3184,7.2149 L7.8163,5.2206 L9.8136,3.7248 L12.0605,2.4783 L14.5571,1.7305 L17.3034,1.4812 L19.8000,1.7305 L22.2966,2.4783 L24.5435,3.7248 L26.5408,5.2206 L28.0388,7.2149 L29.2871,9.4586 L30.0361,11.9516 L30.2857,14.4445 Z" style="fill-rule: evenodd; fill: url(#grad363); "/>
    <g xmlns="http://www.w3.org/2000/svg" xmlns:xlink="http://www.w3.org/1999/xlink" id="Layer1209">
      <defs>
        <linearGradient id="grad364">
          <stop offset="0%" stop-color="#ffcc00" stop-opacity="1.0000"/>
          <stop offset="100%" stop-color="#cc3300" stop-opacity="1.0000"/>
        </linearGradient>
        <linearGradient xlink:href="#grad364" id="grad365" x1="0" y1="0" x2="0" y2="1" gradientTransform="rotate(45 .5 .5)" gradientUnits="objectBoundingBox">
  </linearGradient>
      </defs>
      <path d="  M11.5964,3.9680 L12.3323,3.9680 L12.7003,3.2125 L12.7003,2.8348 L11.9644,2.0793 L9.7568,3.2125 L7.5492,5.1013 L5.7095,6.6123 L4.2377,8.8787 L2.7660,10.7675 L1.6622,13.4117 L0.9263,16.0559 L0.5584,18.7001 L0.9263,19.4556 L1.6622,19.8334 L2.3981,20.2111 L3.5019,21.3444 L5.3415,24.3663 L6.4453,25.8773 L7.9171,27.0106 L7.1812,28.5215 L6.8133,30.0325 L6.8133,31.9213 L7.1812,32.2990 L7.9171,33.0545 L9.7568,34.9432 L10.8606,35.6987 L11.9644,36.0765 L11.5964,38.3430 L15.2758,39.4762 L18.9552,40.2317 L20.0590,39.4762 L22.6345,36.8320 L25.2101,34.1877 L26.3139,33.8100 L26.3139,33.4323 L26.3139,32.6768 L25.9459,32.2990 L25.5780,31.9213 L24.4742,31.5435 L21.8986,31.1658 L19.6910,30.4103 L18.2193,28.8993 L16.7475,27.3883 L15.2758,26.2551 L13.8041,25.4996 L12.7003,25.4996 L11.5964,25.4996 L9.3888,25.4996 L9.0209,25.1218 L8.6530,25.1218 L8.2850,25.1218 L7.5492,24.7441 L7.1812,23.9886 L6.8133,22.8554 L6.8133,21.7221 L7.1812,21.3444 L7.9171,20.9666 L7.5492,19.4556 L6.8133,19.8334 L5.7095,19.8334 L4.9736,19.0779 L4.6057,18.3224 L4.2377,17.1892 L4.2377,16.4337 L4.6057,15.3004 L5.3415,14.9227 L6.4453,14.5449 L7.1812,14.9227 L8.2850,15.6782 L9.0209,16.4337 L9.7568,18.7001 L10.1247,19.0779 L10.4926,19.0779 L10.4926,16.8114 L10.8606,16.0559 L11.5964,15.3004 L13.0682,14.1672 L13.4361,13.4117 L13.8041,12.6562 L14.5399,11.9007 L15.2758,11.9007 L16.0117,11.5230 L17.1155,10.7675 L18.2193,9.6342 L18.9552,8.8787 L20.0590,8.5010 L20.0590,7.7455 L18.5872,7.7455 L17.8514,7.3677 L16.0117,5.8568 L14.5399,5.1013 L14.1720,5.4790 L13.8041,6.6123 L13.0682,7.3677 L12.7003,6.6123 L11.9644,5.8568 L11.5964,5.1013 L11.5964,3.9680 Z" style="stroke-width: 0.7200; stroke-linecap: round; stroke-linejoin: round; fill-rule: evenodd; fill: url(#grad365); "/>
      <path d="  M11.5964,3.9680 L12.3323,3.9680 L12.7003,3.2125 L12.7003,2.8348 L11.9644,2.0793 L9.7568,3.2125 L7.5492,5.1013 L5.7095,6.6123 L4.2377,8.8787 L2.7660,10.7675 L1.6622,13.4117 L0.9263,16.0559 L0.5584,18.7001 L0.9263,19.4556 L1.6622,19.8334 L2.3981,20.2111 L3.5019,21.3444 L5.3415,24.3663 L6.4453,25.8773 L7.9171,27.0106 L7.1812,28.5215 L6.8133,30.0325 L6.8133,31.9213 L7.1812,32.2990 L7.9171,33.0545 L9.7568,34.9432 L10.8606,35.6987 L11.9644,36.0765 L11.5964,38.3430 L15.2758,39.4762 L18.9552,40.2317 L20.0590,39.4762 L22.6345,36.8320 L25.2101,34.1877 L26.3139,33.8100 L26.3139,33.4323 L26.3139,32.6768 L25.9459,32.2990 L25.5780,31.9213 L24.4742,31.5435 L21.8986,31.1658 L19.6910,30.4103 L18.2193,28.8993 L16.7475,27.3883 L15.2758,26.2551 L13.8041,25.4996 L12.7003,25.4996 L11.5964,25.4996 L9.3888,25.4996 L9.0209,25.1218 L8.6530,25.1218 L8.2850,25.1218 L7.5492,24.7441 L7.1812,23.9886 L6.8133,22.8554 L6.8133,21.7221 L7.1812,21.3444 L7.9171,20.9666 L7.5492,19.4556 L6.8133,19.8334 L5.7095,19.8334 L4.9736,19.0779 L4.6057,18.3224 L4.2377,17.1892 L4.2377,16.4337 L4.6057,15.3004 L5.3415,14.9227 L6.4453,14.5449 L7.1812,14.9227 L8.2850,15.6782 L9.0209,16.4337 L9.7568,18.7001 L10.1247,19.0779 L10.4926,19.0779 L10.4926,16.8114 L10.8606,16.0559 L11.5964,15.3004 L13.0682,14.1672 L13.4361,13.4117 L13.8041,12.6562 L14.5399,11.9007 L15.2758,11.9007 L16.0117,11.5230 L17.1155,10.7675 L18.2193,9.6342 L18.9552,8.8787 L20.0590,8.5010 L20.0590,7.7455 L18.5872,7.7455 L17.8514,7.3677 L16.0117,5.8568 L14.5399,5.1013 L14.1720,5.4790 L13.8041,6.6123 L13.0682,7.3677 L12.7003,6.6123 L11.9644,5.8568 L11.5964,5.1013 L11.5964,3.9680 Z" style="stroke-width: 0.7200; stroke: #ffcc00; stroke-dasharray: none; stroke-linecap: round; stroke-linejoin: round; fill: none; "/>
    </g>
    <g xmlns="http://www.w3.org/2000/svg" xmlns:xlink="http://www.w3.org/1999/xlink" id="Layer1210">
      <defs>
        <linearGradient id="grad366">
          <stop offset="0%" stop-color="#ffcc00" stop-opacity="1.0000"/>
          <stop offset="100%" stop-color="#cc3300" stop-opacity="1.0000"/>
        </linearGradient>
        <linearGradient xlink:href="#grad366" id="grad367" x1="0" y1="0" x2="0" y2="1" gradientTransform="rotate(315 .5 .5)" gradientUnits="objectBoundingBox">
  </linearGradient>
      </defs>
      <path d="  M37.3519,11.9007 L36.9840,11.9007 L36.6161,11.5230 L35.5123,13.0339 L34.7764,14.5449 L33.6726,16.4337 L32.5688,18.7001 L32.2008,21.7221 L32.2008,23.2331 L32.9367,25.1218 L34.0405,26.2551 L35.5123,27.0106 L36.6161,27.0106 L36.9840,26.6328 L37.7199,26.2551 L38.4557,25.8773 L39.1916,23.2331 L39.1916,20.2111 L39.1916,18.3224 L38.8237,16.0559 L38.4557,13.7894 L37.3519,11.9007 Z M32.5688,5.1013 L31.8329,6.9900 L31.4650,8.1232 L31.4650,8.8787 L31.4650,9.6342 L31.4650,10.0120 L31.4650,10.7675 L30.7291,11.5230 L30.3612,12.2785 L30.3612,13.0339 L31.4650,14.5449 L32.2008,14.9227 L32.5688,14.9227 L33.3047,14.9227 L33.6726,14.1672 L34.0405,12.6562 L34.0405,11.5230 L34.0405,11.1452 L35.5123,11.1452 L35.8802,11.1452 L36.6161,11.5230 L36.6161,10.3897 L34.7764,7.7455 L32.5688,5.1013 Z" style="stroke-width: 0.7200; stroke-linecap: round; stroke-linejoin: round; fill-rule: evenodd; fill: url(#grad367); "/>
      <path d="  M37.3519,11.9007 L36.9840,11.9007 L36.6161,11.5230 L35.5123,13.0339 L34.7764,14.5449 L33.6726,16.4337 L32.5688,18.7001 L32.2008,21.7221 L32.2008,23.2331 L32.9367,25.1218 L34.0405,26.2551 L35.5123,27.0106 L36.6161,27.0106 L36.9840,26.6328 L37.7199,26.2551 L38.4557,25.8773 L39.1916,23.2331 L39.1916,20.2111 L39.1916,18.3224 L38.8237,16.0559 L38.4557,13.7894 L37.3519,11.9007 Z M32.5688,5.1013 L31.8329,6.9900 L31.4650,8.1232 L31.4650,8.8787 L31.4650,9.6342 L31.4650,10.0120 L31.4650,10.7675 L30.7291,11.5230 L30.3612,12.2785 L30.3612,13.0339 L31.4650,14.5449 L32.2008,14.9227 L32.5688,14.9227 L33.3047,14.9227 L33.6726,14.1672 L34.0405,12.6562 L34.0405,11.5230 L34.0405,11.1452 L35.5123,11.1452 L35.8802,11.1452 L36.6161,11.5230 L36.6161,10.3897 L34.7764,7.7455 L32.5688,5.1013 Z" style="stroke-width: 0.7200; stroke: #ffcc00; stroke-dasharray: none; stroke-linecap: round; stroke-linejoin: round; fill: none; "/>
    </g>
    <g xmlns="http://www.w3.org/2000/svg" xmlns:xlink="http://www.w3.org/1999/xlink" id="Layer1211">
      <defs>
        <linearGradient id="grad368">
          <stop offset="0%" stop-color="#ffcc00" stop-opacity="1.0000"/>
          <stop offset="100%" stop-color="#cc3300" stop-opacity="1.0000"/>
        </linearGradient>
        <linearGradient xlink:href="#grad368" id="grad369" x1="0" y1="0" x2="0" y2="1" gradientTransform="rotate(315 .5 .5)" gradientUnits="objectBoundingBox">
  </linearGradient>
      </defs>
      <path d="  M28.1536,2.4570 L28.5215,4.3458 L28.8894,5.1013 L29.2574,5.8568 L31.4650,4.3458 L28.1536,2.4570 Z" style="stroke-width: 0.7200; stroke-linecap: round; stroke-linejoin: round; fill-rule: evenodd; fill: url(#grad369); "/>
      <path d="  M28.1536,2.4570 L28.5215,4.3458 L28.8894,5.1013 L29.2574,5.8568 L31.4650,4.3458 L28.1536,2.4570 Z" style="stroke-width: 0.7200; stroke: #ffcc00; stroke-dasharray: none; stroke-linecap: round; stroke-linejoin: round; fill: none; "/>
    </g>
    <g xmlns="http://www.w3.org/2000/svg" xmlns:xlink="http://www.w3.org/1999/xlink" id="Layer1212">
      <defs>
        <linearGradient id="grad370">
          <stop offset="0%" stop-color="#ffcc00" stop-opacity="1.0000"/>
          <stop offset="100%" stop-color="#cc3300" stop-opacity="1.0000"/>
        </linearGradient>
        <linearGradient xlink:href="#grad370" id="grad371" x1="0" y1="0" x2="0" y2="1" gradientTransform="rotate(315 .5 .5)" gradientUnits="objectBoundingBox">
  </linearGradient>
      </defs>
      <path d="  M20.0590,0.5683 L17.4834,0.5683 L14.9079,0.9461 L15.6437,1.7016 L16.3796,2.4570 L18.2193,2.8348 L17.8514,3.5903 L17.4834,4.7235 L17.8514,6.6123 L19.6910,6.2345 L21.8986,5.8568 L23.3704,5.1013 L24.1063,4.7235 L25.2101,4.7235 L25.2101,3.9680 L27.4177,3.9680 L27.0497,2.8348 L26.6818,1.7016 L23.3704,0.9461 L20.0590,0.5683 Z" style="stroke-width: 0.7200; stroke-linecap: round; stroke-linejoin: round; fill-rule: evenodd; fill: url(#grad371); "/>
      <path d="  M20.0590,0.5683 L17.4834,0.5683 L14.9079,0.9461 L15.6437,1.7016 L16.3796,2.4570 L18.2193,2.8348 L17.8514,3.5903 L17.4834,4.7235 L17.8514,6.6123 L19.6910,6.2345 L21.8986,5.8568 L23.3704,5.1013 L24.1063,4.7235 L25.2101,4.7235 L25.2101,3.9680 L27.4177,3.9680 L27.0497,2.8348 L26.6818,1.7016 L23.3704,0.9461 L20.0590,0.5683 Z" style="stroke-width: 0.7200; stroke: #ffcc00; stroke-dasharray: none; stroke-linecap: round; stroke-linejoin: round; fill: none; "/>
    </g>
    <path xmlns="http://www.w3.org/2000/svg" d="  M39.7500,20.2057 L39.3714,24.4800 L38.2357,28.3657 L36.3429,31.8629 L34.0714,34.9714 L31.0429,37.3029 L27.6357,39.2457 L23.8500,40.4114 L20.0643,40.8000 L15.9000,40.4114 L12.1143,39.2457 L8.7071,37.3029 L5.6786,34.9714 L3.4071,31.8629 L1.5143,28.3657 L0.3786,24.4800 L0.0000,20.2057 L0.3786,16.3200 L1.5143,12.4343 L3.4071,8.9371 L5.6786,5.8286 L8.7071,3.4971 L12.1143,1.5543 L15.9000,0.3886 L20.0643,0.0000 L23.8500,0.3886 L27.6357,1.5543 L31.0429,3.4971 L34.0714,5.8286 L36.3429,8.9371 L38.2357,12.4343 L39.3714,16.3200 L39.7500,20.2057 Z" style="stroke-width: 1.2000; stroke: #ffffff; stroke-dasharray: none; stroke-linecap: round; stroke-linejoin: round; fill: none; "/>
    <!--converted by libvisio2svg-->
  </g>
</svg>
