<svg xmlns="http://www.w3.org/2000/svg" xmlns:xlink="http://www.w3.org/1999/xlink" version="1.1" width="0.2468000000" height="0.2536000000" viewBox="0 0 17.7700 18.2600">
  <title><![CDATA[Internet globe-Sm]]></title>
  <g transform=" scale(1.000000) ">
    <defs xmlns="http://www.w3.org/2000/svg">
      <radialGradient id="grad382" cx="0.0000%" cy="0.0000%" r="100.0000%">
        <stop offset="0%" stop-color="#ffffff" stop-opacity="1.0000"/>
        <stop offset="100%" stop-color="#0066ff" stop-opacity="1.0000"/>
      </radialGradient>
    </defs>
    <path xmlns="http://www.w3.org/2000/svg" d="  M17.3475,9.0040 L17.1022,10.7681 L16.6116,12.5322 L15.8758,13.7923 L14.8946,15.3044 L13.6682,16.3125 L12.1964,17.0685 L10.7247,17.5725 L9.0076,17.8246 L7.2906,17.5725 L5.5736,17.0685 L4.3471,16.3125 L2.8754,15.3044 L1.8942,13.7923 L1.1584,12.5322 L0.6678,10.7681 L0.4225,9.0040 L0.6678,7.2399 L1.1584,5.7278 L1.8942,4.2157 L2.8754,2.9556 L4.3471,1.9475 L5.5736,1.1915 L7.2906,0.6875 L9.0076,0.4354 L10.7247,0.6875 L12.1964,1.1915 L13.6682,1.9475 L14.8946,2.9556 L15.8758,4.2157 L16.6116,5.7278 L17.1022,7.2399 L17.3475,9.0040 Z" style="fill-rule: evenodd; fill: url(#grad382); "/>
    <defs xmlns="http://www.w3.org/2000/svg">
      <radialGradient id="grad383" cx="50.0000%" cy="50.0000%" r="100.0000%">
        <stop offset="0%" stop-color="#ffffff" stop-opacity="1.0000"/>
        <stop offset="100%" stop-color="#0080ff" stop-opacity="1.0000"/>
      </radialGradient>
    </defs>
    <path xmlns="http://www.w3.org/2000/svg" d="  M13.3100,6.6060 L13.2018,7.7950 L12.8772,8.8760 L12.3363,9.8488 L11.6871,10.7136 L10.8216,11.3621 L9.8479,11.9026 L8.7660,12.2269 L7.6841,12.3350 L6.4940,12.2269 L5.4121,11.9026 L4.4384,11.3621 L3.5729,10.7136 L2.9237,9.8488 L2.3828,8.8760 L2.0582,7.7950 L1.9500,6.6060 L2.0582,5.5250 L2.3828,4.4440 L2.9237,3.4712 L3.5729,2.6064 L4.4384,1.9579 L5.4121,1.4174 L6.4940,1.0931 L7.6841,0.9850 L8.7660,1.0931 L9.8479,1.4174 L10.8216,1.9579 L11.6871,2.6064 L12.3363,3.4712 L12.8772,4.4440 L13.2018,5.5250 L13.3100,6.6060 Z" style="fill-rule: evenodd; fill: url(#grad383); "/>
    <g xmlns="http://www.w3.org/2000/svg" xmlns:xlink="http://www.w3.org/1999/xlink" id="Layer1217">
      <defs>
        <linearGradient id="grad384">
          <stop offset="0%" stop-color="#ffcc00" stop-opacity="1.0000"/>
          <stop offset="100%" stop-color="#cc3300" stop-opacity="1.0000"/>
        </linearGradient>
        <linearGradient xlink:href="#grad384" id="grad385" x1="0" y1="0" x2="0" y2="1" gradientTransform="rotate(45 .5 .5)" gradientUnits="objectBoundingBox">
  </linearGradient>
      </defs>
      <path d="  M5.3283,1.9475 L5.5736,1.9475 L5.8189,1.6955 L5.5736,1.1915 L4.5924,1.6955 L3.6113,2.4516 L2.1395,3.9637 L1.4036,4.9717 L1.1584,5.9798 L0.6678,7.2399 L0.6678,8.2479 L0.6678,8.7520 L0.9131,8.7520 L1.4036,9.0040 L1.8942,9.5080 L2.6301,10.7681 L3.1207,11.5242 L3.6113,12.0282 L3.3660,13.2883 L3.3660,14.0443 L3.6113,14.5483 L4.5924,15.3044 L5.0830,15.8084 L5.5736,16.0604 L5.3283,16.8165 L6.8000,17.3205 L8.5171,17.5725 L9.0076,17.3205 L10.2341,16.3125 L11.2153,15.0524 L11.7058,14.8004 L11.7058,14.5483 L11.4605,14.0443 L10.7247,14.0443 L9.7435,13.7923 L8.7624,13.2883 L7.5359,12.2802 L6.8000,11.7762 L6.3095,11.2721 L5.3283,11.2721 L4.3471,11.5242 L4.1018,11.2721 L3.8565,11.2721 L3.6113,11.0201 L3.1207,10.0121 L3.3660,9.7600 L3.6113,9.5080 L3.6113,8.7520 L3.1207,8.7520 L2.8754,8.7520 L2.3848,8.5000 L2.1395,8.2479 L2.1395,7.2399 L2.1395,6.9879 L2.6301,6.7358 L3.1207,6.7358 L3.3660,6.7358 L4.1018,7.4919 L4.3471,8.2479 L4.5924,8.5000 L4.8377,8.5000 L4.8377,7.4919 L5.3283,6.7358 L5.8189,6.4838 L6.0642,5.9798 L6.3095,5.7278 L6.8000,5.4758 L7.5359,4.9717 L8.2718,4.4677 L9.0076,3.9637 L9.0076,3.4596 L8.2718,3.7117 L8.0265,3.4596 L7.2906,2.7036 L6.5547,2.4516 L6.3095,2.7036 L6.3095,2.9556 L5.8189,3.4596 L5.5736,2.7036 L5.3283,2.4516 L5.3283,1.9475 Z" style="stroke-width: 0.5000; stroke-linecap: round; stroke-linejoin: round; fill-rule: evenodd; fill: url(#grad385); "/>
      <path d="  M5.3283,1.9475 L5.5736,1.9475 L5.8189,1.6955 L5.5736,1.1915 L4.5924,1.6955 L3.6113,2.4516 L2.1395,3.9637 L1.4036,4.9717 L1.1584,5.9798 L0.6678,7.2399 L0.6678,8.2479 L0.6678,8.7520 L0.9131,8.7520 L1.4036,9.0040 L1.8942,9.5080 L2.6301,10.7681 L3.1207,11.5242 L3.6113,12.0282 L3.3660,13.2883 L3.3660,14.0443 L3.6113,14.5483 L4.5924,15.3044 L5.0830,15.8084 L5.5736,16.0604 L5.3283,16.8165 L6.8000,17.3205 L8.5171,17.5725 L9.0076,17.3205 L10.2341,16.3125 L11.2153,15.0524 L11.7058,14.8004 L11.7058,14.5483 L11.4605,14.0443 L10.7247,14.0443 L9.7435,13.7923 L8.7624,13.2883 L7.5359,12.2802 L6.8000,11.7762 L6.3095,11.2721 L5.3283,11.2721 L4.3471,11.5242 L4.1018,11.2721 L3.8565,11.2721 L3.6113,11.0201 L3.1207,10.0121 L3.3660,9.7600 L3.6113,9.5080 L3.6113,8.7520 L3.1207,8.7520 L2.8754,8.7520 L2.3848,8.5000 L2.1395,8.2479 L2.1395,7.2399 L2.1395,6.9879 L2.6301,6.7358 L3.1207,6.7358 L3.3660,6.7358 L4.1018,7.4919 L4.3471,8.2479 L4.5924,8.5000 L4.8377,8.5000 L4.8377,7.4919 L5.3283,6.7358 L5.8189,6.4838 L6.0642,5.9798 L6.3095,5.7278 L6.8000,5.4758 L7.5359,4.9717 L8.2718,4.4677 L9.0076,3.9637 L9.0076,3.4596 L8.2718,3.7117 L8.0265,3.4596 L7.2906,2.7036 L6.5547,2.4516 L6.3095,2.7036 L6.3095,2.9556 L5.8189,3.4596 L5.5736,2.7036 L5.3283,2.4516 L5.3283,1.9475 Z" style="stroke-width: 0.5000; stroke: #ffcc00; stroke-dasharray: none; stroke-linecap: round; stroke-linejoin: round; fill: none; "/>
    </g>
    <g xmlns="http://www.w3.org/2000/svg" xmlns:xlink="http://www.w3.org/1999/xlink" id="Layer1218">
      <defs>
        <linearGradient id="grad386">
          <stop offset="0%" stop-color="#ffcc00" stop-opacity="1.0000"/>
          <stop offset="100%" stop-color="#cc3300" stop-opacity="1.0000"/>
        </linearGradient>
        <linearGradient xlink:href="#grad386" id="grad387" x1="0" y1="0" x2="0" y2="1" gradientTransform="rotate(315 .5 .5)" gradientUnits="objectBoundingBox">
  </linearGradient>
      </defs>
      <path d="  M16.6116,5.4758 L16.1211,5.2237 L15.6305,5.9798 L14.8946,7.4919 L14.4040,8.5000 L14.1587,9.7600 L14.4040,10.5161 L14.6493,11.0201 L15.1399,11.7762 L15.6305,12.0282 L16.1211,12.0282 L16.3664,11.7762 L16.8569,11.5242 L17.3475,10.2641 L17.3475,9.0040 L17.1022,7.2399 L16.6116,5.4758 Z M14.4040,2.4516 L13.9135,3.4596 L13.9135,3.7117 L13.9135,4.2157 L13.9135,4.4677 L13.9135,4.9717 L13.6682,5.2237 L13.4229,5.4758 L13.4229,5.9798 L13.9135,6.4838 L14.4040,6.7358 L14.8946,6.4838 L14.8946,5.7278 L15.1399,4.9717 L15.6305,4.9717 L16.1211,5.2237 L16.1211,4.7197 L15.3852,3.7117 L14.4040,2.4516 Z" style="stroke-width: 0.5000; stroke-linecap: round; stroke-linejoin: round; fill-rule: evenodd; fill: url(#grad387); "/>
      <path d="  M16.6116,5.4758 L16.1211,5.2237 L15.6305,5.9798 L14.8946,7.4919 L14.4040,8.5000 L14.1587,9.7600 L14.4040,10.5161 L14.6493,11.0201 L15.1399,11.7762 L15.6305,12.0282 L16.1211,12.0282 L16.3664,11.7762 L16.8569,11.5242 L17.3475,10.2641 L17.3475,9.0040 L17.1022,7.2399 L16.6116,5.4758 Z M14.4040,2.4516 L13.9135,3.4596 L13.9135,3.7117 L13.9135,4.2157 L13.9135,4.4677 L13.9135,4.9717 L13.6682,5.2237 L13.4229,5.4758 L13.4229,5.9798 L13.9135,6.4838 L14.4040,6.7358 L14.8946,6.4838 L14.8946,5.7278 L15.1399,4.9717 L15.6305,4.9717 L16.1211,5.2237 L16.1211,4.7197 L15.3852,3.7117 L14.4040,2.4516 Z" style="stroke-width: 0.5000; stroke: #ffcc00; stroke-dasharray: none; stroke-linecap: round; stroke-linejoin: round; fill: none; "/>
    </g>
    <g xmlns="http://www.w3.org/2000/svg" xmlns:xlink="http://www.w3.org/1999/xlink" id="Layer1219">
      <defs>
        <linearGradient id="grad388">
          <stop offset="0%" stop-color="#ffcc00" stop-opacity="1.0000"/>
          <stop offset="100%" stop-color="#cc3300" stop-opacity="1.0000"/>
        </linearGradient>
        <linearGradient xlink:href="#grad388" id="grad389" x1="0" y1="0" x2="0" y2="1" gradientTransform="rotate(315 .5 .5)" gradientUnits="objectBoundingBox">
  </linearGradient>
      </defs>
      <path d="  M12.4417,1.1915 L12.6870,2.1996 L12.6870,2.4516 L12.9323,2.7036 L13.9135,2.1996 L12.4417,1.1915 Z" style="stroke-width: 0.5000; stroke-linecap: round; stroke-linejoin: round; fill-rule: evenodd; fill: url(#grad389); "/>
      <path d="  M12.4417,1.1915 L12.6870,2.1996 L12.6870,2.4516 L12.9323,2.7036 L13.9135,2.1996 L12.4417,1.1915 Z" style="stroke-width: 0.5000; stroke: #ffcc00; stroke-dasharray: none; stroke-linecap: round; stroke-linejoin: round; fill: none; "/>
    </g>
    <g xmlns="http://www.w3.org/2000/svg" xmlns:xlink="http://www.w3.org/1999/xlink" id="Layer1220">
      <defs>
        <linearGradient id="grad390">
          <stop offset="0%" stop-color="#ffcc00" stop-opacity="1.0000"/>
          <stop offset="100%" stop-color="#cc3300" stop-opacity="1.0000"/>
        </linearGradient>
        <linearGradient xlink:href="#grad390" id="grad391" x1="0" y1="0" x2="0" y2="1" gradientTransform="rotate(315 .5 .5)" gradientUnits="objectBoundingBox">
  </linearGradient>
      </defs>
      <path d="  M9.0076,0.4354 L6.8000,0.6875 L7.5359,1.1915 L8.2718,1.4435 L8.0265,2.4516 L8.0265,3.2076 L9.7435,2.7036 L10.4794,2.4516 L11.2153,2.4516 L11.2153,1.9475 L12.1964,1.9475 L11.9511,0.9395 L10.4794,0.6875 L9.0076,0.4354 Z" style="stroke-width: 0.5000; stroke-linecap: round; stroke-linejoin: round; fill-rule: evenodd; fill: url(#grad391); "/>
      <path d="  M9.0076,0.4354 L6.8000,0.6875 L7.5359,1.1915 L8.2718,1.4435 L8.0265,2.4516 L8.0265,3.2076 L9.7435,2.7036 L10.4794,2.4516 L11.2153,2.4516 L11.2153,1.9475 L12.1964,1.9475 L11.9511,0.9395 L10.4794,0.6875 L9.0076,0.4354 Z" style="stroke-width: 0.5000; stroke: #ffcc00; stroke-dasharray: none; stroke-linecap: round; stroke-linejoin: round; fill: none; "/>
    </g>
    <path xmlns="http://www.w3.org/2000/svg" d="  M17.7700,8.9977 L17.5125,10.8501 L16.9974,12.7026 L16.2248,14.0258 L15.1946,15.6136 L13.9070,16.6722 L12.3617,17.4661 L10.8165,17.9954 L9.0138,18.2600 L7.2110,17.9954 L5.4083,17.4661 L4.1206,16.6722 L2.5754,15.6136 L1.5452,14.0258 L0.7726,12.7026 L0.2575,10.8501 L0.0000,8.9977 L0.2575,7.1452 L0.7726,5.5574 L1.5452,3.9696 L2.5754,2.6464 L4.1206,1.5878 L5.4083,0.7939 L7.2110,0.2646 L9.0138,0.0000 L10.8165,0.2646 L12.3617,0.7939 L13.9070,1.5878 L15.1946,2.6464 L16.2248,3.9696 L16.9974,5.5574 L17.5125,7.1452 L17.7700,8.9977 Z" style="stroke-width: 1.2000; stroke: #ffffff; stroke-dasharray: none; stroke-linecap: round; stroke-linejoin: round; fill: none; "/>
    <!--converted by libvisio2svg-->
  </g>
</svg>
