<svg xmlns="http://www.w3.org/2000/svg" xmlns:xlink="http://www.w3.org/1999/xlink" version="1.1" width="0.8738000000" height="0.5461000000" viewBox="0 0 62.9100 39.3200">
  <title><![CDATA[Internet cloud]]></title>
  <g transform=" scale(1.000000) ">
    <g xmlns="http://www.w3.org/2000/svg" id="Layer1221">
      <defs>
        <radialGradient id="grad392" cx="50.0000%" cy="50.0000%" r="100.0000%">
          <stop offset="0%" stop-color="#ffffff" stop-opacity="1.0000"/>
          <stop offset="100%" stop-color="#80b4ff" stop-opacity="1.0000"/>
        </radialGradient>
      </defs>
      <path d="  M50.7695,29.4900 L50.0337,31.7585 L48.9300,33.6488 L47.4584,35.1612 L45.6189,36.6735 L43.7795,37.8077 L41.5721,38.5638 L38.9968,38.9419 L36.4216,39.3200 L32.0068,38.9419 L27.5921,37.4296 L25.7526,36.2954 L23.9132,35.1612 L22.4416,34.0269 L21.7058,32.5146 L24.2811,35.1612 L22.0737,35.9173 L20.2342,36.6735 L18.0268,37.0515 L13.9800,36.6735 L9.9332,35.9173 L6.9900,34.4050 L4.4147,32.8927 L2.2074,30.6242 L1.1037,28.3558 L0.3679,25.7092 L0.0000,23.0627 L0.0000,20.0381 L0.7358,17.7696 L2.2074,16.2573 L3.6789,14.7450 L4.7826,17.7696 L4.0468,16.2573 L3.6789,14.3669 L4.0468,12.0985 L4.7826,10.2081 L5.8863,8.3177 L7.7258,6.8054 L9.5653,5.2931 L11.7726,4.5369 L14.3479,3.7808 L16.9232,3.4027 L19.1305,3.7808 L20.9700,4.1588 L23.1774,4.9150 L24.6489,5.6712 L21.7058,4.5369 L23.9132,2.2685 L26.4884,1.1342 L29.7995,0.3781 L33.1105,0.0000 L36.0537,0.3781 L38.9968,0.7562 L41.5721,1.8904 L43.7795,3.4027 L45.9868,4.9150 L47.4584,6.8054 L48.5621,9.0738 L49.2979,11.7204 L48.1942,7.9396 L51.1374,8.3177 L54.0805,9.4519 L56.6558,10.5862 L58.8632,12.4765 L60.7026,14.3669 L61.8063,16.2573 L62.5421,18.5258 L62.9100,20.4162 L62.9100,23.0627 L62.5421,25.3312 L61.4384,27.2215 L60.3347,28.7338 L58.4953,30.2462 L55.9200,31.3804 L52.9768,32.8927 L48.9300,34.0269 L50.7695,29.4900 Z" style="stroke-width: 1.2000; stroke-linecap: round; stroke-linejoin: round; fill-rule: evenodd; fill: url(#grad392); "/>
      <path d="  M50.7695,29.4900 L50.0337,31.7585 L48.9300,33.6488 L47.4584,35.1612 L45.6189,36.6735 L43.7795,37.8077 L41.5721,38.5638 L38.9968,38.9419 L36.4216,39.3200 L32.0068,38.9419 L27.5921,37.4296 L25.7526,36.2954 L23.9132,35.1612 L22.4416,34.0269 L21.7058,32.5146 L24.2811,35.1612 L22.0737,35.9173 L20.2342,36.6735 L18.0268,37.0515 L13.9800,36.6735 L9.9332,35.9173 L6.9900,34.4050 L4.4147,32.8927 L2.2074,30.6242 L1.1037,28.3558 L0.3679,25.7092 L0.0000,23.0627 L0.0000,20.0381 L0.7358,17.7696 L2.2074,16.2573 L3.6789,14.7450 L4.7826,17.7696 L4.0468,16.2573 L3.6789,14.3669 L4.0468,12.0985 L4.7826,10.2081 L5.8863,8.3177 L7.7258,6.8054 L9.5653,5.2931 L11.7726,4.5369 L14.3479,3.7808 L16.9232,3.4027 L19.1305,3.7808 L20.9700,4.1588 L23.1774,4.9150 L24.6489,5.6712 L21.7058,4.5369 L23.9132,2.2685 L26.4884,1.1342 L29.7995,0.3781 L33.1105,0.0000 L36.0537,0.3781 L38.9968,0.7562 L41.5721,1.8904 L43.7795,3.4027 L45.9868,4.9150 L47.4584,6.8054 L48.5621,9.0738 L49.2979,11.7204 L48.1942,7.9396 L51.1374,8.3177 L54.0805,9.4519 L56.6558,10.5862 L58.8632,12.4765 L60.7026,14.3669 L61.8063,16.2573 L62.5421,18.5258 L62.9100,20.4162 L62.9100,23.0627 L62.5421,25.3312 L61.4384,27.2215 L60.3347,28.7338 L58.4953,30.2462 L55.9200,31.3804 L52.9768,32.8927 L48.9300,34.0269 L50.7695,29.4900 Z" style="stroke-width: 1.2000; stroke: #ffffff; stroke-dasharray: none; stroke-linecap: round; stroke-linejoin: round; fill: none; "/>
    </g>
    <!--converted by libvisio2svg-->
  </g>
</svg>
