<svg xmlns="http://www.w3.org/2000/svg" xmlns:xlink="http://www.w3.org/1999/xlink" version="1.1" width="0.4827000000" height="0.6723000000" viewBox="0 0 34.7512 48.4087">
  <title><![CDATA[Mainframe, host(mid-size)]]></title>
  <g transform=" scale(1.000000) ">
    <g xmlns="http://www.w3.org/2000/svg" id="Layer1378">
      <path d="  M18.1850,48.4087 L34.6262,40.5004 L34.6262,8.8669 L16.4412,0.0000 L0.3118,7.7584 L0.0000,7.6084 L0.0000,7.9084 L0.0000,39.2418 L0.0000,39.5418 L1.2825,40.1671 L1.9929,40.6797 L1.9929,40.5135 L15.9430,47.3156 L15.9430,47.4502 L18.1850,48.4087 Z" style="stroke-width: 1.6800; stroke-linecap: round; stroke-linejoin: round; fill-rule: evenodd; fill: #ffffff; "/>
      <path d="  M18.1850,48.4087 L34.6262,40.5004 L34.6262,8.8669 L16.4412,0.0000 L0.3118,7.7584 L0.0000,7.6084 L0.0000,7.9084 L0.0000,39.2418 L0.0000,39.5418 L1.2825,40.1671 L1.9929,40.6797 L1.9929,40.5135 L15.9430,47.3156 L15.9430,47.4502 L18.1850,48.4087 Z" style="stroke-width: 1.6800; stroke: #ffffff; stroke-dasharray: none; stroke-linecap: round; stroke-linejoin: round; fill: none; "/>
    </g>
    <path xmlns="http://www.w3.org/2000/svg" d="  M0.1250,7.9084 L16.5662,0.0000 L34.7512,8.8669 L34.7512,40.5004 L18.3100,48.4087 L0.1250,39.5418 L0.1250,7.9084 Z" style="fill-rule: evenodd; fill: #ffffff; "/>
    <g xmlns="http://www.w3.org/2000/svg" xmlns:xlink="http://www.w3.org/1999/xlink" id="Layer1379">
      <defs>
        <linearGradient id="grad558">
          <stop offset="0%" stop-color="#c0e5ff" stop-opacity="1.0000"/>
          <stop offset="100%" stop-color="#0099ff" stop-opacity="1.0000"/>
        </linearGradient>
        <linearGradient xlink:href="#grad558" id="grad559" x1="0" y1="0" x2="0" y2="1" gradientTransform="rotate(225 .5 .5)" gradientUnits="objectBoundingBox">
  </linearGradient>
      </defs>
      <path d="  M16.5662,0.0000 L34.7512,8.8669 L18.3100,16.7753 L0.1250,7.9084 L16.5662,0.0000 Z" style="stroke-width: 1.2000; stroke-linecap: round; stroke-linejoin: round; fill-rule: evenodd; fill: url(#grad559); "/>
      <path d="  M16.5662,0.0000 L34.7512,8.8669 L18.3100,16.7753 L0.1250,7.9084 L16.5662,0.0000 Z" style="stroke-width: 1.2000; stroke: #ffffff; stroke-dasharray: none; stroke-linecap: round; stroke-linejoin: round; fill: none; "/>
    </g>
    <g xmlns="http://www.w3.org/2000/svg" xmlns:xlink="http://www.w3.org/1999/xlink" id="Layer1380">
      <defs>
        <linearGradient id="grad560">
          <stop offset="0%" stop-color="#000099" stop-opacity="1.0000"/>
          <stop offset="100%" stop-color="#99c0ff" stop-opacity="1.0000"/>
        </linearGradient>
        <linearGradient xlink:href="#grad560" id="grad561" x1="0" y1="0" x2="0" y2="1" gradientTransform="rotate(135 .5 .5)" gradientUnits="objectBoundingBox">
  </linearGradient>
      </defs>
      <path d="  M18.3100,16.7753 L18.3100,48.4087 L34.7512,40.5004 L34.7512,8.8669 L18.3100,16.7753 Z" style="stroke-width: 1.2000; stroke-linecap: round; stroke-linejoin: round; fill-rule: evenodd; fill: url(#grad561); "/>
      <path d="  M18.3100,16.7753 L18.3100,48.4087 L34.7512,40.5004 L34.7512,8.8669 L18.3100,16.7753 Z" style="stroke-width: 1.2000; stroke: #ffffff; stroke-dasharray: none; stroke-linecap: round; stroke-linejoin: round; fill: none; "/>
    </g>
    <g xmlns="http://www.w3.org/2000/svg" id="Layer1381">
      <defs>
        <radialGradient id="grad562" cx="0.0000%" cy="0.0000%" r="100.0000%">
          <stop offset="0%" stop-color="#99ccff" stop-opacity="1.0000"/>
          <stop offset="100%" stop-color="#0066ff" stop-opacity="1.0000"/>
        </radialGradient>
      </defs>
      <path d="  M18.3100,16.7753 L18.3100,48.4087 L0.1250,39.5418 L0.1250,7.9084 L18.3100,16.7753 Z" style="stroke-width: 1.2000; stroke-linecap: round; stroke-linejoin: round; fill-rule: evenodd; fill: url(#grad562); "/>
      <path d="  M18.3100,16.7753 L18.3100,48.4087 L0.1250,39.5418 L0.1250,7.9084 L18.3100,16.7753 Z" style="stroke-width: 1.2000; stroke: #ffffff; stroke-dasharray: none; stroke-linecap: round; stroke-linejoin: round; fill: none; "/>
    </g>
    <path xmlns="http://www.w3.org/2000/svg" d="  M18.3100,16.7753 L34.7512,8.8669" style="stroke-width: 0.4888; stroke: #ffffff; stroke-dasharray: none; stroke-linecap: round; stroke-linejoin: round; fill: none; "/>
    <path xmlns="http://www.w3.org/2000/svg" d="  M8.9456,44.0554 L8.9456,12.4220" style="stroke-width: 0.7200; stroke: #ffffff; stroke-dasharray: none; stroke-linecap: round; stroke-linejoin: round; fill: none; "/>
    <g xmlns="http://www.w3.org/2000/svg" id="Layer1382">
      <path d="  M0.1250,7.6084 L2.1179,8.5669 L2.1179,40.6797 L0.1250,39.2418 L0.1250,7.6084 Z" style="stroke-width: 0.4000; stroke-linecap: round; stroke-linejoin: round; fill-rule: evenodd; fill: #0066ff; "/>
      <path d="  M0.1250,7.6084 L2.1179,8.5669 L2.1179,40.6797 L0.1250,39.2418 L0.1250,7.6084 Z" style="stroke-width: 0.4000; stroke: #ffffff; stroke-dasharray: none; stroke-linecap: round; stroke-linejoin: round; fill: none; "/>
    </g>
    <g xmlns="http://www.w3.org/2000/svg" id="Layer1383">
      <path d="  M16.0680,15.8167 L18.3100,16.7753 L18.3100,48.4087 L16.0680,47.4502 L16.0680,15.8167 Z" style="stroke-width: 0.7200; stroke-linecap: round; stroke-linejoin: round; fill-rule: evenodd; fill: #0066ff; "/>
      <path d="  M16.0680,15.8167 L18.3100,16.7753 L18.3100,48.4087 L16.0680,47.4502 L16.0680,15.8167 Z" style="stroke-width: 0.7200; stroke: #ffffff; stroke-dasharray: none; stroke-linecap: round; stroke-linejoin: round; fill: none; "/>
    </g>
    <path xmlns="http://www.w3.org/2000/svg" d="  M0.1250,7.9084 L18.3100,16.7753" style="stroke-width: 0.4888; stroke: #ffffff; stroke-dasharray: none; stroke-linecap: round; stroke-linejoin: round; fill: none; "/>
    <path xmlns="http://www.w3.org/2000/svg" d="  M18.3100,48.4087 L18.3100,16.7753" style="stroke-width: 0.4888; stroke: #ffffff; stroke-dasharray: none; stroke-linecap: round; stroke-linejoin: round; fill: none; "/>
    <path xmlns="http://www.w3.org/2000/svg" d="  M15.8180,47.5752 L15.8180,15.9417" style="stroke-width: 0.4888; stroke: #ffffff; stroke-dasharray: none; stroke-linecap: round; stroke-linejoin: round; fill: none; "/>
    <path xmlns="http://www.w3.org/2000/svg" d="  M2.5179,41.1047 L2.5179,8.9919" style="stroke-width: 0.4888; stroke: #ffffff; stroke-dasharray: none; stroke-linecap: round; stroke-linejoin: round; fill: none; "/>
    <path xmlns="http://www.w3.org/2000/svg" d="  M0.1250,7.9084 L16.5662,0.0000 L34.7512,8.8669 L34.7512,40.5004 L18.3100,48.4087 L0.1250,39.5418 L0.1250,7.9084 Z" style="stroke-width: 0.4888; stroke: #ffffff; stroke-dasharray: none; stroke-linecap: round; stroke-linejoin: round; fill: none; "/>
    <!--converted by libvisio2svg-->
  </g>
</svg>
