<svg xmlns="http://www.w3.org/2000/svg" xmlns:xlink="http://www.w3.org/1999/xlink" version="1.1" width="0.4332000000" height="0.4046000000" viewBox="0 0 31.1881 29.1335">
  <title><![CDATA[Meeting]]></title>
  <g transform=" scale(1.000000) ">
    <path xmlns="http://www.w3.org/2000/svg" d="  M18.0693,5.7271 L22.5248,3.2371 L30.6931,7.2211 L30.6931,16.1853 L26.4851,18.4263 L18.0693,14.6912 L18.0693,5.7271 Z" style="fill-rule: evenodd; fill: #ffffff; "/>
    <path xmlns="http://www.w3.org/2000/svg" d="  M22.5248,3.2371 L30.6931,7.2211 L26.4851,9.7112 L18.0693,5.7271 L22.5248,3.2371 Z" style="fill-rule: evenodd; fill: #99ccff; "/>
    <path xmlns="http://www.w3.org/2000/svg" d="  M26.4851,9.7112 L26.4851,18.4263 L30.6931,16.1853 L30.6931,7.2211 L26.4851,9.7112 Z" style="fill-rule: evenodd; fill: #0066ff; "/>
    <path xmlns="http://www.w3.org/2000/svg" d="  M26.4851,9.7112 L26.4851,18.4263 L18.0693,14.6912 L18.0693,5.7271 L26.4851,9.7112 Z" style="fill-rule: evenodd; fill: #0099ff; "/>
    <path xmlns="http://www.w3.org/2000/svg" d="  M26.4851,18.4263 L26.4851,9.7112" style="stroke-width: 0.7448; stroke: #ffffff; stroke-dasharray: none; stroke-linecap: round; stroke-linejoin: round; fill: none; "/>
    <path xmlns="http://www.w3.org/2000/svg" d="  M18.0693,5.7271 L26.4851,9.7112" style="stroke-width: 0.7448; stroke: #ffffff; stroke-dasharray: none; stroke-linecap: round; stroke-linejoin: round; fill: none; "/>
    <path xmlns="http://www.w3.org/2000/svg" d="  M26.4851,9.7112 L30.6931,7.2211" style="stroke-width: 0.7448; stroke: #ffffff; stroke-dasharray: none; stroke-linecap: round; stroke-linejoin: round; fill: none; "/>
    <path xmlns="http://www.w3.org/2000/svg" d="  M22.5248,3.2371 L30.6931,7.2211 L30.6931,16.1853 L26.4851,18.4263 L18.0693,14.6912 L18.0693,5.7271 L22.5248,3.2371 Z" style="stroke-width: 0.7448; stroke: #ffffff; stroke-dasharray: none; stroke-linecap: round; stroke-linejoin: round; fill: none; "/>
    <g xmlns="http://www.w3.org/2000/svg" id="Layer1520">
      <path d="  M20.7921,3.2371 L21.0396,1.9920 L21.7822,0.9960 L22.7723,0.2490 L24.2574,0.0000 L25.0000,0.0000 L25.4950,0.2490 L26.7327,0.9960 L27.2277,1.9920 L27.4752,3.2371 L27.2277,4.4821 L26.7327,5.7271 L25.4950,6.4741 L25.0000,6.7231 L24.2574,6.7231 L22.7723,6.4741 L21.7822,5.7271 L21.0396,4.4821 L20.7921,3.2371 Z" style="stroke-width: 0.7448; stroke-linecap: round; stroke-linejoin: round; fill-rule: evenodd; fill: #0099ff; "/>
      <path d="  M20.7921,3.2371 L21.0396,1.9920 L21.7822,0.9960 L22.7723,0.2490 L24.2574,0.0000 L25.0000,0.0000 L25.4950,0.2490 L26.7327,0.9960 L27.2277,1.9920 L27.4752,3.2371 L27.2277,4.4821 L26.7327,5.7271 L25.4950,6.4741 L25.0000,6.7231 L24.2574,6.7231 L22.7723,6.4741 L21.7822,5.7271 L21.0396,4.4821 L20.7921,3.2371 Z" style="stroke-width: 0.7448; stroke: #ffffff; stroke-dasharray: none; stroke-linecap: round; stroke-linejoin: round; fill: none; "/>
    </g>
    <path xmlns="http://www.w3.org/2000/svg" d="  M13.3663,5.7271 L8.6634,3.2371 L0.7426,7.2211 L0.7426,16.1853 L4.9505,18.4263 L13.3663,14.6912 L13.3663,5.7271 Z" style="fill-rule: evenodd; fill: #ffffff; "/>
    <path xmlns="http://www.w3.org/2000/svg" d="  M8.6634,3.2371 L0.7426,7.2211 L4.9505,9.7112 L13.3663,5.7271 L8.6634,3.2371 Z" style="fill-rule: evenodd; fill: #99ccff; "/>
    <path xmlns="http://www.w3.org/2000/svg" d="  M4.9505,9.7112 L4.9505,18.4263 L0.7426,16.1853 L0.7426,7.2211 L4.9505,9.7112 Z" style="fill-rule: evenodd; fill: #0066ff; "/>
    <path xmlns="http://www.w3.org/2000/svg" d="  M4.9505,9.7112 L4.9505,18.4263 L13.3663,14.6912 L13.3663,5.7271 L4.9505,9.7112 Z" style="fill-rule: evenodd; fill: #0099ff; "/>
    <path xmlns="http://www.w3.org/2000/svg" d="  M4.9505,18.4263 L4.9505,9.7112" style="stroke-width: 0.7448; stroke: #ffffff; stroke-dasharray: none; stroke-linecap: round; stroke-linejoin: round; fill: none; "/>
    <path xmlns="http://www.w3.org/2000/svg" d="  M13.3663,5.7271 L4.9505,9.7112" style="stroke-width: 0.7448; stroke: #ffffff; stroke-dasharray: none; stroke-linecap: round; stroke-linejoin: round; fill: none; "/>
    <path xmlns="http://www.w3.org/2000/svg" d="  M4.9505,9.7112 L0.7426,7.2211" style="stroke-width: 0.7448; stroke: #ffffff; stroke-dasharray: none; stroke-linecap: round; stroke-linejoin: round; fill: none; "/>
    <path xmlns="http://www.w3.org/2000/svg" d="  M8.6634,3.2371 L0.7426,7.2211 L0.7426,16.1853 L4.9505,18.4263 L13.3663,14.6912 L13.3663,5.7271 L8.6634,3.2371 Z" style="stroke-width: 0.7448; stroke: #ffffff; stroke-dasharray: none; stroke-linecap: round; stroke-linejoin: round; fill: none; "/>
    <g xmlns="http://www.w3.org/2000/svg" id="Layer1521">
      <path d="  M10.6436,3.2371 L10.3960,1.9920 L9.6535,0.9960 L8.4158,0.2490 L7.1782,0.0000 L6.4356,0.0000 L5.6931,0.2490 L4.7030,0.9960 L3.9604,1.9920 L3.7129,3.2371 L3.9604,4.4821 L4.7030,5.7271 L5.6931,6.4741 L6.4356,6.7231 L7.1782,6.7231 L8.4158,6.4741 L9.6535,5.7271 L10.3960,4.4821 L10.6436,3.2371 Z" style="stroke-width: 0.7448; stroke-linecap: round; stroke-linejoin: round; fill-rule: evenodd; fill: #0099ff; "/>
      <path d="  M10.6436,3.2371 L10.3960,1.9920 L9.6535,0.9960 L8.4158,0.2490 L7.1782,0.0000 L6.4356,0.0000 L5.6931,0.2490 L4.7030,0.9960 L3.9604,1.9920 L3.7129,3.2371 L3.9604,4.4821 L4.7030,5.7271 L5.6931,6.4741 L6.4356,6.7231 L7.1782,6.7231 L8.4158,6.4741 L9.6535,5.7271 L10.3960,4.4821 L10.6436,3.2371 Z" style="stroke-width: 0.7448; stroke: #ffffff; stroke-dasharray: none; stroke-linecap: round; stroke-linejoin: round; fill: none; "/>
    </g>
    <path xmlns="http://www.w3.org/2000/svg" d="  M0.0000,17.6793 L15.8416,9.7112 L31.1881,17.4303 L31.1881,20.6673 L15.3465,29.1335 L0.0000,21.1653 L0.0000,17.6793 Z" style="fill-rule: evenodd; fill: #ffffff; "/>
    <path xmlns="http://www.w3.org/2000/svg" d="  M0.0000,17.6793 L15.3465,25.8964 L15.3465,29.1335 L0.0000,21.1653 L0.0000,17.6793 Z" style="fill-rule: evenodd; fill: #0099ff; "/>
    <path xmlns="http://www.w3.org/2000/svg" d="  M15.3465,25.8964 L31.1881,17.4303 L15.8416,9.7112 L0.0000,17.6793 L15.3465,25.8964 Z" style="fill-rule: evenodd; fill: #99ccff; "/>
    <path xmlns="http://www.w3.org/2000/svg" d="  M15.3465,25.8964 L31.1881,17.4303 L31.1881,20.6673 L15.3465,29.1335 L15.3465,25.8964 Z" style="fill-rule: evenodd; fill: #0066ff; "/>
    <path xmlns="http://www.w3.org/2000/svg" d="  M15.3465,29.1335 L0.0000,21.1653 L0.0000,17.6793 L15.8416,9.7112 L31.1881,17.4303 L31.1881,20.6673 L15.3465,29.1335 Z" style="stroke-width: 0.7448; stroke: #ffffff; stroke-dasharray: none; stroke-linecap: round; stroke-linejoin: round; fill: none; "/>
    <path xmlns="http://www.w3.org/2000/svg" d="  M0.0000,17.6793 L15.3465,25.8964 L15.3465,29.1335 L15.3465,25.8964 L31.1881,17.4303" style="stroke-width: 0.7448; stroke: #ffffff; stroke-dasharray: none; stroke-linecap: round; stroke-linejoin: round; fill: none; "/>
    <!--converted by libvisio2svg-->
  </g>
</svg>
