<svg xmlns="http://www.w3.org/2000/svg" xmlns:xlink="http://www.w3.org/1999/xlink" version="1.1" width="0.3800000000" height="0.3042000000" viewBox="0 0 27.3636 21.9019">
  <title><![CDATA[Modem]]></title>
  <g transform=" scale(1.000000) ">
    <path xmlns="http://www.w3.org/2000/svg" d="  M0.0000,8.3076 L15.4231,0.0000 L27.3636,6.5454 L27.3636,13.5943 L12.4380,21.9019 L0.0000,15.3565 L0.0000,8.3076 Z" style="fill-rule: evenodd; fill: #ffffff; "/>
    <g xmlns="http://www.w3.org/2000/svg" id="Layer1405">
      <defs>
        <radialGradient id="grad594" cx="0.0000%" cy="0.0000%" r="100.0000%">
          <stop offset="0%" stop-color="#99ccff" stop-opacity="1.0000"/>
          <stop offset="100%" stop-color="#0066ff" stop-opacity="1.0000"/>
        </radialGradient>
      </defs>
      <path d="  M12.4380,15.1047 L12.4380,21.9019 L0.0000,15.3565 L0.0000,8.3076 L12.4380,15.1047 Z" style="stroke-width: 1.2000; stroke-linecap: round; stroke-linejoin: round; fill-rule: evenodd; fill: url(#grad594); "/>
      <path d="  M12.4380,15.1047 L12.4380,21.9019 L0.0000,15.3565 L0.0000,8.3076 L12.4380,15.1047 Z" style="stroke-width: 1.2000; stroke: #ffffff; stroke-dasharray: none; stroke-linecap: round; stroke-linejoin: round; fill: none; "/>
    </g>
    <g xmlns="http://www.w3.org/2000/svg" xmlns:xlink="http://www.w3.org/1999/xlink" id="Layer1406">
      <defs>
        <linearGradient id="grad595">
          <stop offset="0%" stop-color="#c0e5ff" stop-opacity="1.0000"/>
          <stop offset="100%" stop-color="#0099ff" stop-opacity="1.0000"/>
        </linearGradient>
        <linearGradient xlink:href="#grad595" id="grad596" x1="0" y1="0" x2="0" y2="1" gradientTransform="rotate(225 .5 .5)" gradientUnits="objectBoundingBox">
  </linearGradient>
      </defs>
      <path d="  M15.4231,0.0000 L27.3636,6.5454 L12.4380,15.1047 L0.0000,8.3076 L15.4231,0.0000 Z" style="stroke-width: 1.2000; stroke-linecap: round; stroke-linejoin: round; fill-rule: evenodd; fill: url(#grad596); "/>
      <path d="  M15.4231,0.0000 L27.3636,6.5454 L12.4380,15.1047 L0.0000,8.3076 L15.4231,0.0000 Z" style="stroke-width: 1.2000; stroke: #ffffff; stroke-dasharray: none; stroke-linecap: round; stroke-linejoin: round; fill: none; "/>
    </g>
    <g xmlns="http://www.w3.org/2000/svg" xmlns:xlink="http://www.w3.org/1999/xlink" id="Layer1407">
      <defs>
        <linearGradient id="grad597">
          <stop offset="0%" stop-color="#000099" stop-opacity="1.0000"/>
          <stop offset="100%" stop-color="#99c0ff" stop-opacity="1.0000"/>
        </linearGradient>
        <linearGradient xlink:href="#grad597" id="grad598" x1="0" y1="0" x2="0" y2="1" gradientTransform="rotate(135 .5 .5)" gradientUnits="objectBoundingBox">
  </linearGradient>
      </defs>
      <path d="  M12.4380,15.1047 L12.4380,21.9019 L27.3636,13.5943 L27.3636,6.5454 L12.4380,15.1047 Z" style="stroke-width: 1.2000; stroke-linecap: round; stroke-linejoin: round; fill-rule: evenodd; fill: url(#grad598); "/>
      <path d="  M12.4380,15.1047 L12.4380,21.9019 L27.3636,13.5943 L27.3636,6.5454 L12.4380,15.1047 Z" style="stroke-width: 1.2000; stroke: #ffffff; stroke-dasharray: none; stroke-linecap: round; stroke-linejoin: round; fill: none; "/>
    </g>
    <path xmlns="http://www.w3.org/2000/svg" d="  M0.0000,8.3076 L0.0000,15.3565 L12.4380,21.9019 L27.3636,13.5943 L27.3636,6.5454 L15.4231,0.0000 L0.0000,8.3076 Z" style="stroke-width: 0.5005; stroke: #ffffff; stroke-dasharray: none; stroke-linecap: round; stroke-linejoin: round; fill: none; "/>
    <path xmlns="http://www.w3.org/2000/svg" d="  M0.0000,8.3076 L12.4380,15.1047 L12.4380,21.9019 L12.4380,15.1047 L27.3636,6.5454" style="stroke-width: 0.5005; stroke: #ffffff; stroke-dasharray: none; stroke-linecap: round; stroke-linejoin: round; fill: none; "/>
    <path xmlns="http://www.w3.org/2000/svg" d="  M9.4529,16.3635 L10.6967,16.8669 L10.6967,18.3774 L9.4529,17.6222 L9.4529,16.3635 Z" style="fill-rule: evenodd; fill: #ffffff; "/>
    <path xmlns="http://www.w3.org/2000/svg" d="  M6.9653,15.1047 L8.4578,15.6082 L8.2091,17.1187 L6.9653,16.3635 L6.9653,15.1047 Z" style="fill-rule: evenodd; fill: #ffffff; "/>
    <path xmlns="http://www.w3.org/2000/svg" d="  M4.9752,13.8460 L6.2190,14.6012 L6.2190,15.8600 L4.9752,15.1047 L4.9752,13.8460 Z" style="fill-rule: evenodd; fill: #ffffff; "/>
    <!--converted by libvisio2svg-->
  </g>
</svg>
