<svg xmlns="http://www.w3.org/2000/svg" xmlns:xlink="http://www.w3.org/1999/xlink" version="1.1" width="0.3790000000" height="0.3718000000" viewBox="0 0 27.2874 26.7713">
  <title><![CDATA[Mtg, Wrkspc. site]]></title>
  <g transform=" scale(1.000000) ">
    <path xmlns="http://www.w3.org/2000/svg" d="  M22.2101,17.8713 L22.2101,0.9509 Q22.2101,0.0509 21.3101,0.0509 L0.9062,0.0509 Q0.0062,0.0509 0.0062,0.9509 L0.0062,17.8713 Q0.0062,18.7713 0.9062,18.7713 L21.3101,18.7713 Q22.2101,18.7713 22.2101,17.8713 Z" style="stroke-width: 3.1200; stroke: #ffffff; stroke-dasharray: none; stroke-linecap: round; stroke-linejoin: round; fill: none; "/>
    <g xmlns="http://www.w3.org/2000/svg" xmlns:xlink="http://www.w3.org/1999/xlink" id="Layer1263">
      <defs>
        <linearGradient id="grad482">
          <stop offset="0%" stop-color="#ffff00" stop-opacity="1.0000"/>
          <stop offset="100%" stop-color="#ff6600" stop-opacity="1.0000"/>
        </linearGradient>
        <linearGradient xlink:href="#grad482" id="grad483" x1="0" y1="0" x2="0" y2="1" gradientTransform="rotate(45 .5 .5)" gradientUnits="objectBoundingBox">
  </linearGradient>
      </defs>
      <path d="  M22.2810,17.8713 L22.2810,0.9509 Q22.2810,0.0509 21.3810,0.0509 L0.9771,0.0509 Q0.0771,0.0509 0.0771,0.9509 L0.0771,17.8713 Q0.0771,18.7713 0.9771,18.7713 L21.3810,18.7713 Q22.2810,18.7713 22.2810,17.8713 Z" style="stroke-width: 0.7200; stroke-linecap: round; stroke-linejoin: round; fill-rule: evenodd; fill: url(#grad483); "/>
      <path d="  M22.2810,17.8713 L22.2810,0.9509 Q22.2810,0.0509 21.3810,0.0509 L0.9771,0.0509 Q0.0771,0.0509 0.0771,0.9509 L0.0771,17.8713 Q0.0771,18.7713 0.9771,18.7713 L21.3810,18.7713 Q22.2810,18.7713 22.2810,17.8713 Z" style="stroke-width: 0.7200; stroke: #3366cc; stroke-dasharray: none; stroke-linecap: round; stroke-linejoin: round; fill: none; "/>
    </g>
    <defs xmlns="http://www.w3.org/2000/svg">
      <radialGradient id="grad484" cx="0.0000%" cy="0.0000%" r="100.0000%">
        <stop offset="0%" stop-color="#99ccff" stop-opacity="1.0000"/>
        <stop offset="100%" stop-color="#0066ff" stop-opacity="1.0000"/>
      </radialGradient>
    </defs>
    <path xmlns="http://www.w3.org/2000/svg" d="  M7.7331,10.4963 L13.1923,10.4963 L13.1923,5.3131 L7.7331,5.3131 L7.7331,10.4963 Z" style="fill-rule: evenodd; fill: url(#grad484); "/>
    <path xmlns="http://www.w3.org/2000/svg" d="  M0.4206,18.4198 L5.8095,18.4198 L5.8095,3.2323 L0.4206,3.2323 L0.4206,18.4198 Z" style="fill-rule: evenodd; fill: #80b4ff; "/>
    <path xmlns="http://www.w3.org/2000/svg" d="  M0.0000,0.9880 L0.0771,3.3963 L22.2810,3.3191 L22.3581,0.9880 A0.9868,0.9880 0.0000 0,0 21.3713,0.0000 L0.9868,0.0000 A0.9868,0.9880 0.0000 0,0 0.0000,0.9880 Z" style="fill-rule: evenodd; fill: #0066ff; "/>
    <path xmlns="http://www.w3.org/2000/svg" d="  M22.2101,17.8713 L22.2101,0.9509 Q22.2101,0.0509 21.3101,0.0509 L0.9062,0.0509 Q0.0062,0.0509 0.0062,0.9509 L0.0062,17.8713 Q0.0062,18.7713 0.9062,18.7713 L21.3101,18.7713 Q22.2101,18.7713 22.2101,17.8713 Z" style="stroke-width: 0.7200; stroke: #0099ff; stroke-dasharray: none; stroke-linecap: round; stroke-linejoin: round; fill: none; "/>
    <path xmlns="http://www.w3.org/2000/svg" d="  M19.3828,2.6239 L21.2331,2.6239 L21.2331,0.7713 L19.3828,0.7713 L19.3828,2.6239 Z" style="fill-rule: evenodd; fill: #ff3300; "/>
    <path xmlns="http://www.w3.org/2000/svg" d="  M16.6073,2.6239 L18.4576,2.6239 L18.4576,0.7713 L16.6073,0.7713 L16.6073,2.6239 Z" style="fill-rule: evenodd; fill: #ffffff; "/>
    <path xmlns="http://www.w3.org/2000/svg" d="  M13.8318,2.6239 L15.6822,2.6239 L15.6822,0.7713 L13.8318,0.7713 L13.8318,2.6239 Z" style="fill-rule: evenodd; fill: #ffffff; "/>
    <path xmlns="http://www.w3.org/2000/svg" d="  M7.7953,14.1796 L20.2331,14.1796" style="stroke-width: 0.5000; stroke: #3366cc; stroke-opacity: 0.9490; stroke-dasharray: none; stroke-linecap: round; stroke-linejoin: round; fill: none; "/>
    <path xmlns="http://www.w3.org/2000/svg" d="  M7.7953,12.3270 L20.2331,12.3270" style="stroke-width: 0.5000; stroke: #3366cc; stroke-opacity: 0.9490; stroke-dasharray: none; stroke-linecap: round; stroke-linejoin: round; fill: none; "/>
    <path xmlns="http://www.w3.org/2000/svg" d="  M7.7331,16.2156 L20.1710,16.2156" style="stroke-width: 0.5000; stroke: #3366cc; stroke-opacity: 0.9490; stroke-dasharray: none; stroke-linecap: round; stroke-linejoin: round; fill: none; "/>
    <path xmlns="http://www.w3.org/2000/svg" d="  M14.5111,8.2489 L20.1081,8.2489" style="stroke-width: 0.5000; stroke: #3366cc; stroke-opacity: 0.9490; stroke-dasharray: none; stroke-linecap: round; stroke-linejoin: round; fill: none; "/>
    <path xmlns="http://www.w3.org/2000/svg" d="  M14.5111,6.3963 L20.1081,6.3963" style="stroke-width: 0.5000; stroke: #3366cc; stroke-opacity: 0.9490; stroke-dasharray: none; stroke-linecap: round; stroke-linejoin: round; fill: none; "/>
    <path xmlns="http://www.w3.org/2000/svg" d="  M14.4831,10.2849 L20.0802,10.2849" style="stroke-width: 0.5000; stroke: #3366cc; stroke-opacity: 0.9490; stroke-dasharray: none; stroke-linecap: round; stroke-linejoin: round; fill: none; "/>
    <g xmlns="http://www.w3.org/2000/svg" id="Layer1264">
      <path d="  M18.6240,11.3331 L21.5943,9.5900 L27.0399,12.3291 L27.0399,18.0562 L24.0696,19.7992 L18.6240,17.0602 L18.6240,11.3331 Z" style="stroke-width: 0.7200; stroke-linecap: round; stroke-linejoin: round; fill-rule: evenodd; fill: #ffffff; "/>
      <path d="  M18.6240,11.3331 L21.5943,9.5900 L27.0399,12.3291 L27.0399,18.0562 L24.0696,19.7992 L18.6240,17.0602 L18.6240,11.3331 Z" style="stroke-width: 0.7200; stroke: #ffffff; stroke-dasharray: none; stroke-linecap: round; stroke-linejoin: round; fill: none; "/>
    </g>
    <g xmlns="http://www.w3.org/2000/svg" id="Layer1265">
      <path d="  M21.5943,9.5900 L27.0399,12.3291 L24.0696,14.0721 L18.6240,11.3331 L21.5943,9.5900 Z" style="stroke-width: 0.7200; stroke-linecap: round; stroke-linejoin: round; fill-rule: evenodd; fill: #99ccff; "/>
      <path d="  M21.5943,9.5900 L27.0399,12.3291 L24.0696,14.0721 L18.6240,11.3331 L21.5943,9.5900 Z" style="stroke-width: 0.7200; stroke: #ffffff; stroke-dasharray: none; stroke-linecap: round; stroke-linejoin: round; fill: none; "/>
    </g>
    <g xmlns="http://www.w3.org/2000/svg" xmlns:xlink="http://www.w3.org/1999/xlink" id="Layer1266">
      <defs>
        <linearGradient id="grad485">
          <stop offset="0%" stop-color="#000099" stop-opacity="1.0000"/>
          <stop offset="100%" stop-color="#99c0ff" stop-opacity="1.0000"/>
        </linearGradient>
        <linearGradient xlink:href="#grad485" id="grad486" x1="0" y1="0" x2="0" y2="1" gradientTransform="rotate(135 .5 .5)" gradientUnits="objectBoundingBox">
  </linearGradient>
      </defs>
      <path d="  M24.0696,14.0721 L24.0696,19.7992 L27.0399,18.0562 L27.0399,12.3291 L24.0696,14.0721 Z" style="stroke-width: 0.7200; stroke-linecap: round; stroke-linejoin: round; fill-rule: evenodd; fill: url(#grad486); "/>
      <path d="  M24.0696,14.0721 L24.0696,19.7992 L27.0399,18.0562 L27.0399,12.3291 L24.0696,14.0721 Z" style="stroke-width: 0.7200; stroke: #ffffff; stroke-dasharray: none; stroke-linecap: round; stroke-linejoin: round; fill: none; "/>
    </g>
    <g xmlns="http://www.w3.org/2000/svg" id="Layer1267">
      <defs>
        <radialGradient id="grad487" cx="0.0000%" cy="0.0000%" r="100.0000%">
          <stop offset="0%" stop-color="#99ccff" stop-opacity="1.0000"/>
          <stop offset="100%" stop-color="#0066ff" stop-opacity="1.0000"/>
        </radialGradient>
      </defs>
      <path d="  M24.0696,14.0721 L24.0696,19.7992 L18.6240,17.0602 L18.6240,11.3331 L24.0696,14.0721 Z" style="stroke-width: 0.7200; stroke-linecap: round; stroke-linejoin: round; fill-rule: evenodd; fill: url(#grad487); "/>
      <path d="  M24.0696,14.0721 L24.0696,19.7992 L18.6240,17.0602 L18.6240,11.3331 L24.0696,14.0721 Z" style="stroke-width: 0.7200; stroke: #ffffff; stroke-dasharray: none; stroke-linecap: round; stroke-linejoin: round; fill: none; "/>
    </g>
    <path xmlns="http://www.w3.org/2000/svg" d="  M24.0696,19.7992 L24.0696,14.0721" style="stroke-width: 0.7200; stroke: #ffffff; stroke-dasharray: none; stroke-linecap: round; stroke-linejoin: round; fill: none; "/>
    <path xmlns="http://www.w3.org/2000/svg" d="  M18.6240,11.3331 L24.0696,14.0721" style="stroke-width: 0.7200; stroke: #ffffff; stroke-dasharray: none; stroke-linecap: round; stroke-linejoin: round; fill: none; "/>
    <path xmlns="http://www.w3.org/2000/svg" d="  M24.0696,14.0721 L27.0399,12.3291" style="stroke-width: 0.7200; stroke: #ffffff; stroke-dasharray: none; stroke-linecap: round; stroke-linejoin: round; fill: none; "/>
    <path xmlns="http://www.w3.org/2000/svg" d="  M21.5943,9.5900 L27.0399,12.3291 L27.0399,18.0562 L24.0696,19.7992 L18.6240,17.0602 L18.6240,11.3331 L21.5943,9.5900 Z" style="stroke-width: 0.7200; stroke: #ffffff; stroke-dasharray: none; stroke-linecap: round; stroke-linejoin: round; fill: none; "/>
    <g xmlns="http://www.w3.org/2000/svg" id="Layer1268">
      <defs>
        <radialGradient id="grad488" cx="0.0000%" cy="0.0000%" r="100.0000%">
          <stop offset="0%" stop-color="#ffffff" stop-opacity="1.0000"/>
          <stop offset="100%" stop-color="#0066ff" stop-opacity="1.0000"/>
        </radialGradient>
      </defs>
      <path d="  M20.3567,9.5900 L20.6042,8.8430 L21.0993,8.0960 L21.8419,7.5980 L22.5844,7.3490 L23.5745,7.5980 L24.3171,8.0960 L24.8122,8.8430 L25.0597,9.5900 L24.8122,10.5861 L24.3171,11.3331 L23.5745,11.8311 L22.5844,11.8311 L21.8419,11.8311 L21.0993,11.3331 L20.6042,10.5861 L20.3567,9.5900 Z" style="stroke-width: 0.7200; stroke-linecap: round; stroke-linejoin: round; fill-rule: evenodd; fill: url(#grad488); "/>
      <path d="  M20.3567,9.5900 L20.6042,8.8430 L21.0993,8.0960 L21.8419,7.5980 L22.5844,7.3490 L23.5745,7.5980 L24.3171,8.0960 L24.8122,8.8430 L25.0597,9.5900 L24.8122,10.5861 L24.3171,11.3331 L23.5745,11.8311 L22.5844,11.8311 L21.8419,11.8311 L21.0993,11.3331 L20.6042,10.5861 L20.3567,9.5900 Z" style="stroke-width: 0.7200; stroke: #ffffff; stroke-dasharray: none; stroke-linecap: round; stroke-linejoin: round; fill: none; "/>
    </g>
    <g xmlns="http://www.w3.org/2000/svg" id="Layer1269">
      <path d="  M15.4062,11.3331 L12.4359,9.5900 L7.2379,12.3291 L7.2379,18.0562 L9.9607,19.7992 L15.4062,17.0602 L15.4062,11.3331 Z" style="stroke-width: 0.7200; stroke-linecap: round; stroke-linejoin: round; fill-rule: evenodd; fill: #ffffff; "/>
      <path d="  M15.4062,11.3331 L12.4359,9.5900 L7.2379,12.3291 L7.2379,18.0562 L9.9607,19.7992 L15.4062,17.0602 L15.4062,11.3331 Z" style="stroke-width: 0.7200; stroke: #ffffff; stroke-dasharray: none; stroke-linecap: round; stroke-linejoin: round; fill: none; "/>
    </g>
    <g xmlns="http://www.w3.org/2000/svg" id="Layer1270">
      <path d="  M12.4359,9.5900 L7.2379,12.3291 L9.9607,14.0721 L15.4062,11.3331 L12.4359,9.5900 Z" style="stroke-width: 0.7200; stroke-linecap: round; stroke-linejoin: round; fill-rule: evenodd; fill: #99ccff; "/>
      <path d="  M12.4359,9.5900 L7.2379,12.3291 L9.9607,14.0721 L15.4062,11.3331 L12.4359,9.5900 Z" style="stroke-width: 0.7200; stroke: #ffffff; stroke-dasharray: none; stroke-linecap: round; stroke-linejoin: round; fill: none; "/>
    </g>
    <g xmlns="http://www.w3.org/2000/svg" id="Layer1271">
      <defs>
        <radialGradient id="grad489" cx="0.0000%" cy="0.0000%" r="100.0000%">
          <stop offset="0%" stop-color="#99ccff" stop-opacity="1.0000"/>
          <stop offset="100%" stop-color="#0066ff" stop-opacity="1.0000"/>
        </radialGradient>
      </defs>
      <path d="  M9.9607,14.0721 L9.9607,19.7992 L7.2379,18.0562 L7.2379,12.3291 L9.9607,14.0721 Z" style="stroke-width: 0.7200; stroke-linecap: round; stroke-linejoin: round; fill-rule: evenodd; fill: url(#grad489); "/>
      <path d="  M9.9607,14.0721 L9.9607,19.7992 L7.2379,18.0562 L7.2379,12.3291 L9.9607,14.0721 Z" style="stroke-width: 0.7200; stroke: #ffffff; stroke-dasharray: none; stroke-linecap: round; stroke-linejoin: round; fill: none; "/>
    </g>
    <g xmlns="http://www.w3.org/2000/svg" xmlns:xlink="http://www.w3.org/1999/xlink" id="Layer1272">
      <defs>
        <linearGradient id="grad490">
          <stop offset="0%" stop-color="#000099" stop-opacity="1.0000"/>
          <stop offset="100%" stop-color="#99c0ff" stop-opacity="1.0000"/>
        </linearGradient>
        <linearGradient xlink:href="#grad490" id="grad491" x1="0" y1="0" x2="0" y2="1" gradientTransform="rotate(135 .5 .5)" gradientUnits="objectBoundingBox">
  </linearGradient>
      </defs>
      <path d="  M9.9607,14.0721 L9.9607,19.7992 L15.4062,17.0602 L15.4062,11.3331 L9.9607,14.0721 Z" style="stroke-width: 0.7200; stroke-linecap: round; stroke-linejoin: round; fill-rule: evenodd; fill: url(#grad491); "/>
      <path d="  M9.9607,14.0721 L9.9607,19.7992 L15.4062,17.0602 L15.4062,11.3331 L9.9607,14.0721 Z" style="stroke-width: 0.7200; stroke: #ffffff; stroke-dasharray: none; stroke-linecap: round; stroke-linejoin: round; fill: none; "/>
    </g>
    <path xmlns="http://www.w3.org/2000/svg" d="  M9.9607,19.7992 L9.9607,14.0721" style="stroke-width: 0.7200; stroke: #ffffff; stroke-dasharray: none; stroke-linecap: round; stroke-linejoin: round; fill: none; "/>
    <path xmlns="http://www.w3.org/2000/svg" d="  M15.4062,11.3331 L9.9607,14.0721" style="stroke-width: 0.7200; stroke: #ffffff; stroke-dasharray: none; stroke-linecap: round; stroke-linejoin: round; fill: none; "/>
    <path xmlns="http://www.w3.org/2000/svg" d="  M9.9607,14.0721 L7.2379,12.3291" style="stroke-width: 0.7200; stroke: #ffffff; stroke-dasharray: none; stroke-linecap: round; stroke-linejoin: round; fill: none; "/>
    <path xmlns="http://www.w3.org/2000/svg" d="  M12.4359,9.5900 L7.2379,12.3291 L7.2379,18.0562 L9.9607,19.7992 L15.4062,17.0602 L15.4062,11.3331 L12.4359,9.5900 Z" style="stroke-width: 0.7200; stroke: #ffffff; stroke-dasharray: none; stroke-linecap: round; stroke-linejoin: round; fill: none; "/>
    <g xmlns="http://www.w3.org/2000/svg" id="Layer1273">
      <defs>
        <radialGradient id="grad492" cx="0.0000%" cy="0.0000%" r="100.0000%">
          <stop offset="0%" stop-color="#ffffff" stop-opacity="1.0000"/>
          <stop offset="100%" stop-color="#0066ff" stop-opacity="1.0000"/>
        </radialGradient>
      </defs>
      <path d="  M13.6736,9.5900 L13.4260,8.8430 L12.9310,8.0960 L12.1884,7.5980 L11.4458,7.3490 L10.4557,7.5980 L9.7132,8.0960 L9.2181,8.8430 L9.2181,9.5900 L9.2181,10.5861 L9.7132,11.3331 L10.4557,11.8311 L11.4458,11.8311 L12.1884,11.8311 L12.9310,11.3331 L13.4260,10.5861 L13.6736,9.5900 Z" style="stroke-width: 0.7200; stroke-linecap: round; stroke-linejoin: round; fill-rule: evenodd; fill: url(#grad492); "/>
      <path d="  M13.6736,9.5900 L13.4260,8.8430 L12.9310,8.0960 L12.1884,7.5980 L11.4458,7.3490 L10.4557,7.5980 L9.7132,8.0960 L9.2181,8.8430 L9.2181,9.5900 L9.2181,10.5861 L9.7132,11.3331 L10.4557,11.8311 L11.4458,11.8311 L12.1884,11.8311 L12.9310,11.3331 L13.4260,10.5861 L13.6736,9.5900 Z" style="stroke-width: 0.7200; stroke: #ffffff; stroke-dasharray: none; stroke-linecap: round; stroke-linejoin: round; fill: none; "/>
    </g>
    <g xmlns="http://www.w3.org/2000/svg" id="Layer1274">
      <path d="  M6.7429,19.3012 L17.1389,13.8231 L27.2874,19.0522 L27.2874,21.0442 L16.8914,26.7713 L6.7429,21.5422 L6.7429,19.3012 Z" style="stroke-width: 0.7200; stroke-linecap: round; stroke-linejoin: round; fill-rule: evenodd; fill: #ffffff; "/>
      <path d="  M6.7429,19.3012 L17.1389,13.8231 L27.2874,19.0522 L27.2874,21.0442 L16.8914,26.7713 L6.7429,21.5422 L6.7429,19.3012 Z" style="stroke-width: 0.7200; stroke: #ffffff; stroke-dasharray: none; stroke-linecap: round; stroke-linejoin: round; fill: none; "/>
    </g>
    <g xmlns="http://www.w3.org/2000/svg" id="Layer1275">
      <defs>
        <radialGradient id="grad493" cx="0.0000%" cy="0.0000%" r="100.0000%">
          <stop offset="0%" stop-color="#99ccff" stop-opacity="1.0000"/>
          <stop offset="100%" stop-color="#0066ff" stop-opacity="1.0000"/>
        </radialGradient>
      </defs>
      <path d="  M6.7429,19.3012 L16.8914,24.5303 L16.8914,26.7713 L6.7429,21.5422 L6.7429,19.3012 Z" style="stroke-width: 0.7200; stroke-linecap: round; stroke-linejoin: round; fill-rule: evenodd; fill: url(#grad493); "/>
      <path d="  M6.7429,19.3012 L16.8914,24.5303 L16.8914,26.7713 L6.7429,21.5422 L6.7429,19.3012 Z" style="stroke-width: 0.7200; stroke: #ffffff; stroke-dasharray: none; stroke-linecap: round; stroke-linejoin: round; fill: none; "/>
    </g>
    <g xmlns="http://www.w3.org/2000/svg" xmlns:xlink="http://www.w3.org/1999/xlink" id="Layer1276">
      <defs>
        <linearGradient id="grad494">
          <stop offset="0%" stop-color="#c0e5ff" stop-opacity="1.0000"/>
          <stop offset="100%" stop-color="#0099ff" stop-opacity="1.0000"/>
        </linearGradient>
        <linearGradient xlink:href="#grad494" id="grad495" x1="0" y1="0" x2="0" y2="1" gradientTransform="rotate(225 .5 .5)" gradientUnits="objectBoundingBox">
  </linearGradient>
      </defs>
      <path d="  M16.8914,24.5303 L27.2874,19.0522 L17.1389,13.8231 L6.7429,19.3012 L16.8914,24.5303 Z" style="stroke-width: 0.4000; stroke-linecap: round; stroke-linejoin: round; fill-rule: evenodd; fill: url(#grad495); "/>
      <path d="  M16.8914,24.5303 L27.2874,19.0522 L17.1389,13.8231 L6.7429,19.3012 L16.8914,24.5303 Z" style="stroke-width: 0.4000; stroke: #ffffff; stroke-dasharray: none; stroke-linecap: round; stroke-linejoin: round; fill: none; "/>
    </g>
    <g xmlns="http://www.w3.org/2000/svg" xmlns:xlink="http://www.w3.org/1999/xlink" id="Layer1277">
      <defs>
        <linearGradient id="grad496">
          <stop offset="0%" stop-color="#000099" stop-opacity="1.0000"/>
          <stop offset="100%" stop-color="#99c0ff" stop-opacity="1.0000"/>
        </linearGradient>
        <linearGradient xlink:href="#grad496" id="grad497" x1="0" y1="0" x2="0" y2="1" gradientTransform="rotate(135 .5 .5)" gradientUnits="objectBoundingBox">
  </linearGradient>
      </defs>
      <path d="  M16.8914,24.5303 L27.2874,19.0522 L27.2874,21.0442 L16.8914,26.7713 L16.8914,24.5303 Z" style="stroke-width: 0.7200; stroke-linecap: round; stroke-linejoin: round; fill-rule: evenodd; fill: url(#grad497); "/>
      <path d="  M16.8914,24.5303 L27.2874,19.0522 L27.2874,21.0442 L16.8914,26.7713 L16.8914,24.5303 Z" style="stroke-width: 0.7200; stroke: #ffffff; stroke-dasharray: none; stroke-linecap: round; stroke-linejoin: round; fill: none; "/>
    </g>
    <path xmlns="http://www.w3.org/2000/svg" d="  M16.8914,26.7713 L6.7429,21.5422 L6.7429,19.3012 L17.1389,13.8231 L27.2874,19.0522 L27.2874,21.0442 L16.8914,26.7713 Z" style="stroke-width: 0.7200; stroke: #ffffff; stroke-dasharray: none; stroke-linecap: round; stroke-linejoin: round; fill: none; "/>
    <path xmlns="http://www.w3.org/2000/svg" d="  M6.7429,19.3012 L16.8914,24.5303 L16.8914,26.7713 L16.8914,24.5303 L27.2874,19.0522" style="stroke-width: 0.7200; stroke: #ffffff; stroke-dasharray: none; stroke-linecap: round; stroke-linejoin: round; fill: none; "/>
    <!--converted by libvisio2svg-->
  </g>
</svg>
