<svg xmlns="http://www.w3.org/2000/svg" xmlns:xlink="http://www.w3.org/1999/xlink" version="1.1" width="0.2690000000" height="0.2988000000" viewBox="0 0 19.3678 21.5101">
  <title><![CDATA[Not Secure-Sm]]></title>
  <g transform=" scale(1.000000) ">
    <g xmlns="http://www.w3.org/2000/svg" id="Layer1510">
      <path d="  M11.0323,11.5054 L11.0323,21.5101 L9.0710,21.5101 L9.0710,11.5054 L11.0323,11.5054 Z" style="stroke-width: 0.7200; stroke-linecap: round; stroke-linejoin: round; fill-rule: evenodd; fill: #ffffff; "/>
      <path d="  M11.0323,11.5054 L11.0323,21.5101 L9.0710,21.5101 L9.0710,11.5054 L11.0323,11.5054 Z" style="stroke-width: 0.7200; stroke: #ffffff; stroke-dasharray: none; stroke-linecap: round; stroke-linejoin: round; fill: none; "/>
    </g>
    <g xmlns="http://www.w3.org/2000/svg" id="Layer1511">
      <path d="  M9.0710,11.5054 L9.0710,21.5101 L0.0000,17.0080 L0.0000,7.0033 L9.0710,11.5054 Z" style="stroke-width: 0.7200; stroke-linecap: round; stroke-linejoin: round; fill-rule: evenodd; fill: #ffffff; "/>
      <path d="  M9.0710,11.5054 L9.0710,21.5101 L0.0000,17.0080 L0.0000,7.0033 L9.0710,11.5054 Z" style="stroke-width: 0.7200; stroke: #ffffff; stroke-dasharray: none; stroke-linecap: round; stroke-linejoin: round; fill: none; "/>
    </g>
    <g xmlns="http://www.w3.org/2000/svg" id="Layer1512">
      <path d="  M0.0000,5.5026 L2.6968,4.0019 L4.9032,4.0019 L13.9742,9.0042 L13.9742,10.0047 L11.0323,11.5054 L9.0710,11.5054 L0.0000,7.0033 L0.0000,5.5026 Z" style="stroke-width: 0.7200; stroke-linecap: round; stroke-linejoin: round; fill-rule: evenodd; fill: #ffffff; "/>
      <path d="  M0.0000,5.5026 L2.6968,4.0019 L4.9032,4.0019 L13.9742,9.0042 L13.9742,10.0047 L11.0323,11.5054 L9.0710,11.5054 L0.0000,7.0033 L0.0000,5.5026 Z" style="stroke-width: 0.7200; stroke: #ffffff; stroke-dasharray: none; stroke-linecap: round; stroke-linejoin: round; fill: none; "/>
    </g>
    <g xmlns="http://www.w3.org/2000/svg" id="Layer1513">
      <path d="  M2.6968,4.0019 L0.0000,5.5026 L0.0000,17.0080 L9.0710,21.5101 L11.0323,21.5101 L13.9742,20.2595 L13.9742,9.0042 L4.9032,4.0019 L2.6968,4.0019 Z" style="stroke-width: 1.6800; stroke-linecap: round; stroke-linejoin: round; fill-rule: evenodd; fill: #ffffff; "/>
      <path d="  M2.6968,4.0019 L0.0000,5.5026 L0.0000,17.0080 L9.0710,21.5101 L11.0323,21.5101 L13.9742,20.2595 L13.9742,9.0042 L4.9032,4.0019 L2.6968,4.0019 Z" style="stroke-width: 1.6800; stroke: #ffffff; stroke-dasharray: none; stroke-linecap: round; stroke-linejoin: round; fill: none; "/>
    </g>
    <g xmlns="http://www.w3.org/2000/svg" id="Layer1514">
      <path d="  M17.6517,5.2525 L17.6517,3.0014 L17.4065,2.2511 L16.9162,2.0009 L16.6710,2.0009 L16.4259,2.0009 L14.9549,2.2511 L13.7291,3.2515 L12.7484,4.2520 L12.0129,5.5026 L11.7678,7.0033 L11.7678,6.5031 L11.7678,9.2544 L11.5226,9.7546 L11.2775,10.0047 L10.7871,10.0047 L10.2968,9.7546 L10.0516,9.2544 L9.8065,7.0033 L9.8065,6.0028 L10.0516,5.0024 L11.0323,3.2515 L12.5033,1.7508 L14.2194,0.7504 L15.2001,0.2501 L16.1807,0.0000 L17.1613,0.0000 L18.1420,0.5002 L18.6323,0.7504 L19.1226,1.5007 L19.2984,2.3536 L19.3678,3.0014 L19.3678,5.2525 L19.1226,5.7527 L18.3872,6.0028 L17.8968,5.7527 L17.6517,5.2525 Z" style="stroke-width: 2.0000; stroke-linecap: round; stroke-linejoin: round; fill-rule: evenodd; fill: #ffffff; "/>
      <path d="  M17.6517,5.2525 L17.6517,3.0014 L17.4065,2.2511 L16.9162,2.0009 L16.6710,2.0009 L16.4259,2.0009 L14.9549,2.2511 L13.7291,3.2515 L12.7484,4.2520 L12.0129,5.5026 L11.7678,7.0033 L11.7678,6.5031 L11.7678,9.2544 L11.5226,9.7546 L11.2775,10.0047 L10.7871,10.0047 L10.2968,9.7546 L10.0516,9.2544 L9.8065,7.0033 L9.8065,6.0028 L10.0516,5.0024 L11.0323,3.2515 L12.5033,1.7508 L14.2194,0.7504 L15.2001,0.2501 L16.1807,0.0000 L17.1613,0.0000 L18.1420,0.5002 L18.6323,0.7504 L19.1226,1.5007 L19.2984,2.3536 L19.3678,3.0014 L19.3678,5.2525 L19.1226,5.7527 L18.3872,6.0028 L17.8968,5.7527 L17.6517,5.2525 Z" style="stroke-width: 2.0000; stroke: #ffffff; stroke-dasharray: none; stroke-linecap: round; stroke-linejoin: round; fill: none; "/>
    </g>
    <g xmlns="http://www.w3.org/2000/svg" xmlns:xlink="http://www.w3.org/1999/xlink" id="Layer1515">
      <defs>
        <linearGradient id="grad705">
          <stop offset="0%" stop-color="#000099" stop-opacity="1.0000"/>
          <stop offset="100%" stop-color="#99c0ff" stop-opacity="1.0000"/>
        </linearGradient>
        <linearGradient xlink:href="#grad705" id="grad706" x1="0" y1="0" x2="0" y2="1" gradientTransform="rotate(135 .5 .5)" gradientUnits="objectBoundingBox">
  </linearGradient>
      </defs>
      <path d="  M13.9742,10.0047 L13.9742,20.2595 L11.0323,21.5101 L11.0323,11.5054 L13.9742,10.0047 Z" style="stroke-width: 0.7200; stroke-linecap: round; stroke-linejoin: round; fill-rule: evenodd; fill: url(#grad706); "/>
      <path d="  M13.9742,10.0047 L13.9742,20.2595 L11.0323,21.5101 L11.0323,11.5054 L13.9742,10.0047 Z" style="stroke-width: 0.7200; stroke: #ffffff; stroke-dasharray: none; stroke-linecap: round; stroke-linejoin: round; fill: none; "/>
    </g>
    <g xmlns="http://www.w3.org/2000/svg" id="Layer1516">
      <defs>
        <radialGradient id="grad707" cx="0.0000%" cy="0.0000%" r="100.0000%">
          <stop offset="0%" stop-color="#99ccff" stop-opacity="1.0000"/>
          <stop offset="100%" stop-color="#0066ff" stop-opacity="1.0000"/>
        </radialGradient>
      </defs>
      <path d="  M9.0710,11.5054 L9.0710,21.5101 L0.0000,17.0080 L0.0000,7.0033 L9.0710,11.5054 Z" style="stroke-width: 0.7200; stroke-linecap: round; stroke-linejoin: round; fill-rule: evenodd; fill: url(#grad707); "/>
      <path d="  M9.0710,11.5054 L9.0710,21.5101 L0.0000,17.0080 L0.0000,7.0033 L9.0710,11.5054 Z" style="stroke-width: 0.7200; stroke: #ffffff; stroke-dasharray: none; stroke-linecap: round; stroke-linejoin: round; fill: none; "/>
    </g>
    <path xmlns="http://www.w3.org/2000/svg" d="  M2.6968,4.0019 L0.0000,5.5026 L0.0000,17.0080 L9.0710,21.5101 L11.0323,21.5101 L13.9742,20.2595 L13.9742,9.0042 L4.9032,4.0019 L2.6968,4.0019 Z" style="stroke-width: 0.7200; stroke: #ffffff; stroke-dasharray: none; stroke-linecap: round; stroke-linejoin: round; fill: none; "/>
    <path xmlns="http://www.w3.org/2000/svg" d="  M9.0710,11.5054 L9.0710,21.5101" style="stroke-width: 0.4000; stroke: #ffffff; stroke-dasharray: none; stroke-linecap: round; stroke-linejoin: round; fill: none; "/>
    <path xmlns="http://www.w3.org/2000/svg" d="  M11.0323,11.5054 L11.0323,21.5101" style="stroke-width: 0.4000; stroke: #ffffff; stroke-dasharray: none; stroke-linecap: round; stroke-linejoin: round; fill: none; "/>
    <path xmlns="http://www.w3.org/2000/svg" d="  M9.0710,11.5054 L11.0323,11.5054" style="stroke-width: 0.7200; stroke: #ffffff; stroke-dasharray: none; stroke-linecap: round; stroke-linejoin: round; fill: none; "/>
    <path xmlns="http://www.w3.org/2000/svg" d="  M1.2258,7.7536 L9.0710,11.5054" style="stroke-width: 0.7200; stroke: #ffffff; stroke-dasharray: none; stroke-linecap: round; stroke-linejoin: round; fill: none; "/>
    <path xmlns="http://www.w3.org/2000/svg" d="  M11.0323,11.5054 L13.9742,10.0047" style="stroke-width: 0.7200; stroke: #ffffff; stroke-dasharray: none; stroke-linecap: round; stroke-linejoin: round; fill: none; "/>
    <g xmlns="http://www.w3.org/2000/svg" xmlns:xlink="http://www.w3.org/1999/xlink" id="Layer1517">
      <defs>
        <linearGradient id="grad708">
          <stop offset="0%" stop-color="#c0e5ff" stop-opacity="1.0000"/>
          <stop offset="100%" stop-color="#0099ff" stop-opacity="1.0000"/>
        </linearGradient>
        <linearGradient xlink:href="#grad708" id="grad709" x1="0" y1="0" x2="0" y2="1" gradientTransform="rotate(225 .5 .5)" gradientUnits="objectBoundingBox">
  </linearGradient>
      </defs>
      <path d="  M11.0323,11.5054 L11.0323,21.5101 L9.0710,21.5101 L9.0710,11.5054 L11.0323,11.5054 Z" style="stroke-width: 0.4000; stroke-linecap: round; stroke-linejoin: round; fill-rule: evenodd; fill: url(#grad709); "/>
      <path d="  M11.0323,11.5054 L11.0323,21.5101 L9.0710,21.5101 L9.0710,11.5054 L11.0323,11.5054 Z" style="stroke-width: 0.4000; stroke: #ffffff; stroke-dasharray: none; stroke-linecap: round; stroke-linejoin: round; fill: none; "/>
    </g>
    <g xmlns="http://www.w3.org/2000/svg" xmlns:xlink="http://www.w3.org/1999/xlink" id="Layer1518">
      <defs>
        <linearGradient id="grad710">
          <stop offset="0%" stop-color="#c0e5ff" stop-opacity="1.0000"/>
          <stop offset="100%" stop-color="#0099ff" stop-opacity="1.0000"/>
        </linearGradient>
        <linearGradient xlink:href="#grad710" id="grad711" x1="0" y1="0" x2="0" y2="1" gradientTransform="rotate(225 .5 .5)" gradientUnits="objectBoundingBox">
  </linearGradient>
      </defs>
      <path d="  M0.0000,5.5026 L2.6968,4.0019 L4.9032,4.0019 L13.9742,9.0042 L13.9742,10.0047 L11.0323,11.5054 L9.0710,11.5054 L0.0000,7.0033 L0.0000,5.5026 Z" style="stroke-width: 0.7200; stroke-linecap: round; stroke-linejoin: round; fill-rule: evenodd; fill: url(#grad711); "/>
      <path d="  M0.0000,5.5026 L2.6968,4.0019 L4.9032,4.0019 L13.9742,9.0042 L13.9742,10.0047 L11.0323,11.5054 L9.0710,11.5054 L0.0000,7.0033 L0.0000,5.5026 Z" style="stroke-width: 0.7200; stroke: #ffffff; stroke-dasharray: none; stroke-linecap: round; stroke-linejoin: round; fill: none; "/>
    </g>
    <g xmlns="http://www.w3.org/2000/svg" id="Layer1519">
      <defs>
        <radialGradient id="grad712" cx="0.0000%" cy="0.0000%" r="100.0000%">
          <stop offset="0%" stop-color="#99ccff" stop-opacity="1.0000"/>
          <stop offset="100%" stop-color="#0066ff" stop-opacity="1.0000"/>
        </radialGradient>
      </defs>
      <path d="  M17.6517,5.2525 L17.6517,3.0014 L17.4065,2.2511 L16.9162,2.0009 L16.6710,2.0009 L16.4259,2.0009 L14.9549,2.2511 L13.7291,3.2515 L12.7484,4.2520 L12.0129,5.5026 L11.6984,6.7536 L11.6984,7.8536 L11.7678,9.2544 L11.5226,9.7546 L11.2775,10.0047 L10.7871,10.0047 L10.3984,10.0536 L10.0984,9.7536 L9.7984,9.5536 L9.7984,9.0536 L9.8065,7.0033 L9.8065,6.0028 L10.0516,5.0024 L11.0323,3.2515 L12.5033,1.7508 L14.2194,0.7504 L15.2001,0.2501 L16.1807,0.0000 L17.1613,0.0000 L18.0984,0.4536 L18.1420,0.5002 L18.6323,0.7504 L19.1226,1.5007 L19.2984,2.3536 L19.3678,3.0014 L19.3678,5.2525 L19.1226,5.7527 L18.3872,6.0028 L17.8968,5.7527 L17.6517,5.2525 Z" style="stroke-width: 0.4000; stroke-linecap: round; stroke-linejoin: round; fill-rule: evenodd; fill: url(#grad712); "/>
      <path d="  M17.6517,5.2525 L17.6517,3.0014 L17.4065,2.2511 L16.9162,2.0009 L16.6710,2.0009 L16.4259,2.0009 L14.9549,2.2511 L13.7291,3.2515 L12.7484,4.2520 L12.0129,5.5026 L11.6984,6.7536 L11.6984,7.8536 L11.7678,9.2544 L11.5226,9.7546 L11.2775,10.0047 L10.7871,10.0047 L10.3984,10.0536 L10.0984,9.7536 L9.7984,9.5536 L9.7984,9.0536 L9.8065,7.0033 L9.8065,6.0028 L10.0516,5.0024 L11.0323,3.2515 L12.5033,1.7508 L14.2194,0.7504 L15.2001,0.2501 L16.1807,0.0000 L17.1613,0.0000 L18.0984,0.4536 L18.1420,0.5002 L18.6323,0.7504 L19.1226,1.5007 L19.2984,2.3536 L19.3678,3.0014 L19.3678,5.2525 L19.1226,5.7527 L18.3872,6.0028 L17.8968,5.7527 L17.6517,5.2525 Z" style="stroke-width: 0.4000; stroke: #ffffff; stroke-dasharray: none; stroke-linecap: round; stroke-linejoin: round; fill: none; "/>
    </g>
    <!--converted by libvisio2svg-->
  </g>
</svg>
