<svg xmlns="http://www.w3.org/2000/svg" xmlns:xlink="http://www.w3.org/1999/xlink" version="1.1" width="0.2418000000" height="0.1923000000" viewBox="0 0 17.4132 13.8460">
  <title><![CDATA[Phone, telephony-Sm]]></title>
  <g transform=" scale(1.000000) ">
    <path xmlns="http://www.w3.org/2000/svg" d="  M10.1992,2.2657 L11.1942,2.5175 L12.9355,0.0000 L17.4132,2.2657 L17.4132,8.5593 L7.2140,13.8460 L0.0000,10.3216 L0.0000,8.3076 L0.9950,7.5524 L0.9950,7.0489 L0.7463,6.7971 L0.7463,6.0419 L0.9950,5.2867 L1.7413,4.7832 L2.4876,4.0279 L7.2140,0.7552 L8.2091,0.5035 L9.2041,0.7552 L9.9504,1.5105 L10.1992,2.0140 L10.1992,2.2657 Z" style="stroke-width: 2.0000; stroke: #ffffff; stroke-dasharray: none; stroke-linecap: round; stroke-linejoin: round; fill: none; "/>
    <path xmlns="http://www.w3.org/2000/svg" d="  M8.4578,1.5105 L11.1942,2.5175 L12.9355,0.0000 L17.4132,2.2657 L17.4132,8.5593 L7.2140,13.8460 L0.0000,10.3216 L0.0000,8.3076 L8.4578,1.5105 Z" style="fill-rule: evenodd; fill: #ffffff; "/>
    <g xmlns="http://www.w3.org/2000/svg" xmlns:xlink="http://www.w3.org/1999/xlink" id="Layer1563">
      <defs>
        <linearGradient id="grad745">
          <stop offset="0%" stop-color="#000099" stop-opacity="1.0000"/>
          <stop offset="100%" stop-color="#99c0ff" stop-opacity="1.0000"/>
        </linearGradient>
        <linearGradient xlink:href="#grad745" id="grad746" x1="0" y1="0" x2="0" y2="1" gradientTransform="rotate(135 .5 .5)" gradientUnits="objectBoundingBox">
  </linearGradient>
      </defs>
      <path d="  M7.2140,12.0838 L7.2140,13.8460 L17.4132,8.5593 L17.4132,2.2657 L16.1694,4.7832 L7.2140,12.0838 Z" style="stroke-width: 0.7200; stroke-linecap: round; stroke-linejoin: round; fill-rule: evenodd; fill: url(#grad746); "/>
      <path d="  M7.2140,12.0838 L7.2140,13.8460 L17.4132,8.5593 L17.4132,2.2657 L16.1694,4.7832 L7.2140,12.0838 Z" style="stroke-width: 0.7200; stroke: #ffffff; stroke-dasharray: none; stroke-linecap: round; stroke-linejoin: round; fill: none; "/>
    </g>
    <g xmlns="http://www.w3.org/2000/svg" id="Layer1564">
      <path d="  M0.0000,8.3076 L7.2140,12.0838 L7.2140,13.8460 L0.0000,10.3216 L0.0000,8.3076 Z" style="stroke-width: 0.4000; stroke-linecap: round; stroke-linejoin: round; fill-rule: evenodd; fill: #0099ff; "/>
      <path d="  M0.0000,8.3076 L7.2140,12.0838 L7.2140,13.8460 L0.0000,10.3216 L0.0000,8.3076 Z" style="stroke-width: 0.4000; stroke: #ffffff; stroke-dasharray: none; stroke-linecap: round; stroke-linejoin: round; fill: none; "/>
    </g>
    <g xmlns="http://www.w3.org/2000/svg" xmlns:xlink="http://www.w3.org/1999/xlink" id="Layer1565">
      <defs>
        <linearGradient id="grad747">
          <stop offset="0%" stop-color="#c0e5ff" stop-opacity="1.0000"/>
          <stop offset="100%" stop-color="#0099ff" stop-opacity="1.0000"/>
        </linearGradient>
        <linearGradient xlink:href="#grad747" id="grad748" x1="0" y1="0" x2="0" y2="1" gradientTransform="rotate(225 .5 .5)" gradientUnits="objectBoundingBox">
  </linearGradient>
      </defs>
      <path d="  M7.2140,12.0838 L16.1694,4.7832 L17.4132,2.2657 L12.9355,0.0000 L11.1942,2.5175 L8.4578,1.5105 L0.0000,8.3076 L7.2140,12.0838 Z" style="stroke-width: 0.4000; stroke-linecap: round; stroke-linejoin: round; fill-rule: evenodd; fill: url(#grad748); "/>
      <path d="  M7.2140,12.0838 L16.1694,4.7832 L17.4132,2.2657 L12.9355,0.0000 L11.1942,2.5175 L8.4578,1.5105 L0.0000,8.3076 L7.2140,12.0838 Z" style="stroke-width: 0.4000; stroke: #ffffff; stroke-dasharray: none; stroke-linecap: round; stroke-linejoin: round; fill: none; "/>
    </g>
    <path xmlns="http://www.w3.org/2000/svg" d="  M7.2140,13.8460 L7.2140,12.0838" style="stroke-width: 0.2503; stroke: #ffffff; stroke-dasharray: none; stroke-linecap: round; stroke-linejoin: round; fill: none; "/>
    <path xmlns="http://www.w3.org/2000/svg" d="  M0.0000,8.3076 L7.2140,12.0838" style="stroke-width: 0.2503; stroke: #ffffff; stroke-dasharray: none; stroke-linecap: round; stroke-linejoin: round; fill: none; "/>
    <path xmlns="http://www.w3.org/2000/svg" d="  M17.4132,2.2657 L16.1694,4.7832 L7.2140,12.0838" style="stroke-width: 0.2503; stroke: #ffffff; stroke-dasharray: none; stroke-linecap: round; stroke-linejoin: round; fill: none; "/>
    <path xmlns="http://www.w3.org/2000/svg" d="  M8.4578,1.5105 L11.1942,2.5175 L12.9355,0.0000 L17.4132,2.2657 L17.4132,8.5593 L7.2140,13.8460 L0.0000,10.3216 L0.0000,8.3076 L8.4578,1.5105 Z" style="stroke-width: 0.2503; stroke: #ffffff; stroke-dasharray: none; stroke-linecap: round; stroke-linejoin: round; fill: none; "/>
    <g xmlns="http://www.w3.org/2000/svg" id="Layer1566">
      <path d="  M11.6917,3.7762 L5.9702,8.3076 L8.4578,9.5663 L14.1793,4.7832 L11.6917,3.7762 Z" style="stroke-width: 0.4000; stroke-linecap: round; stroke-linejoin: round; fill-rule: evenodd; fill: #ffffff; "/>
      <path d="  M11.6917,3.7762 L5.9702,8.3076 L8.4578,9.5663 L14.1793,4.7832 L11.6917,3.7762 Z" style="stroke-width: 0.4000; stroke: #0066ff; stroke-dasharray: none; stroke-linecap: round; stroke-linejoin: round; fill: none; "/>
    </g>
    <g xmlns="http://www.w3.org/2000/svg" id="Layer1567">
      <path d="  M12.6868,2.7692 L13.4330,1.5105 L16.1694,2.5175 L15.1743,4.0279 L12.6868,2.7692 Z" style="stroke-width: 0.4000; stroke-linecap: round; stroke-linejoin: round; fill-rule: evenodd; fill: #ffffff; "/>
      <path d="  M12.6868,2.7692 L13.4330,1.5105 L16.1694,2.5175 L15.1743,4.0279 L12.6868,2.7692 Z" style="stroke-width: 0.4000; stroke: #0066ff; stroke-dasharray: none; stroke-linecap: round; stroke-linejoin: round; fill: none; "/>
    </g>
    <path xmlns="http://www.w3.org/2000/svg" d="  M6.9653,3.2727 L7.7116,3.7762 L7.9603,4.0279 L8.4578,4.0279 L9.2041,4.0279 L9.7016,3.7762 L10.1992,3.2727 L10.1992,2.7692 L10.1992,2.0140 L9.9504,1.5105 L9.2041,0.7552 L8.2091,0.5035 L7.2140,0.7552 L2.4876,4.0279 L1.7413,4.7832 L0.9950,5.2867 L0.7463,6.0419 L0.7463,6.7971 L0.9950,7.3006 L1.2438,7.8041 L1.9901,8.0559 L2.7364,8.0559 L3.4826,8.0559 L3.9802,7.8041 L4.4777,7.3006 L4.4777,6.7971 L4.7264,6.2936 L4.4777,5.5384 L4.2289,5.2867 L6.9653,3.2727 Z" style="fill-rule: evenodd; fill: #ffffff; "/>
    <g xmlns="http://www.w3.org/2000/svg" id="Layer1568">
      <path d="  M6.9653,3.2727 L7.7116,3.7762 L7.9603,4.0279 L8.4578,4.0279 L9.2041,4.0279 L9.7016,3.7762 L10.1992,3.2727 L10.1992,2.7692 L10.1992,2.0140 L9.9504,1.5105 L9.2041,0.7552 L8.2091,0.5035 L7.2140,0.7552 L2.4876,4.0279 L1.7413,4.7832 L0.9950,5.2867 L0.7463,6.0419 L0.7463,6.7971 L0.9950,7.3006 L1.2438,7.8041 L1.9901,8.0559 L2.7364,8.0559 L3.4826,8.0559 L3.9802,7.8041 L4.4777,7.3006 L4.4777,6.7971 L4.7264,6.2936 L4.4777,5.5384 L4.2289,5.2867 L6.9653,3.2727 Z" style="stroke-width: 0.4000; stroke-linecap: round; stroke-linejoin: round; fill-rule: evenodd; fill: #0066ff; "/>
      <path d="  M6.9653,3.2727 L7.7116,3.7762 L7.9603,4.0279 L8.4578,4.0279 L9.2041,4.0279 L9.7016,3.7762 L10.1992,3.2727 L10.1992,2.7692 L10.1992,2.0140 L9.9504,1.5105 L9.2041,0.7552 L8.2091,0.5035 L7.2140,0.7552 L2.4876,4.0279 L1.7413,4.7832 L0.9950,5.2867 L0.7463,6.0419 L0.7463,6.7971 L0.9950,7.3006 L1.2438,7.8041 L1.9901,8.0559 L2.7364,8.0559 L3.4826,8.0559 L3.9802,7.8041 L4.4777,7.3006 L4.4777,6.7971 L4.7264,6.2936 L4.4777,5.5384 L4.2289,5.2867 L6.9653,3.2727 Z" style="stroke-width: 0.4000; stroke: #ffffff; stroke-dasharray: none; stroke-linecap: round; stroke-linejoin: round; fill: none; "/>
    </g>
    <path xmlns="http://www.w3.org/2000/svg" d="  M6.9653,3.2727 L8.2091,2.2657" style="stroke-width: 0.2503; stroke: #ffffff; stroke-dasharray: none; stroke-linecap: round; stroke-linejoin: round; fill: none; "/>
    <!--converted by libvisio2svg-->
  </g>
</svg>
