<svg xmlns="http://www.w3.org/2000/svg" xmlns:xlink="http://www.w3.org/1999/xlink" version="1.1" width="0.2917000000" height="0.4638000000" viewBox="0 0 21.0000 33.3900">
  <title><![CDATA[Secure]]></title>
  <g transform=" scale(1.000000) ">
    <g xmlns="http://www.w3.org/2000/svg" id="Layer1480">
      <path d="  M16.9474,17.6329 L16.9474,33.3900 L13.2632,33.3900 L13.2632,17.6329 L16.9474,17.6329 Z" style="stroke-width: 0.7200; stroke-linecap: round; stroke-linejoin: round; fill-rule: evenodd; fill: #ffffff; "/>
      <path d="  M16.9474,17.6329 L16.9474,33.3900 L13.2632,33.3900 L13.2632,17.6329 L16.9474,17.6329 Z" style="stroke-width: 0.7200; stroke: #ffffff; stroke-dasharray: none; stroke-linecap: round; stroke-linejoin: round; fill: none; "/>
    </g>
    <g xmlns="http://www.w3.org/2000/svg" id="Layer1481">
      <path d="  M13.2632,17.6329 L13.2632,33.3900 L0.0000,26.2618 L0.0000,10.5047 L13.2632,17.6329 Z" style="stroke-width: 0.7200; stroke-linecap: round; stroke-linejoin: round; fill-rule: evenodd; fill: #ffffff; "/>
      <path d="  M13.2632,17.6329 L13.2632,33.3900 L0.0000,26.2618 L0.0000,10.5047 L13.2632,17.6329 Z" style="stroke-width: 0.7200; stroke: #ffffff; stroke-dasharray: none; stroke-linecap: round; stroke-linejoin: round; fill: none; "/>
    </g>
    <g xmlns="http://www.w3.org/2000/svg" id="Layer1482">
      <path d="  M0.0000,8.6289 L4.0526,6.3779 L7.0000,6.3779 L21.0000,13.1309 L21.0000,15.3819 L16.9474,17.6329 L13.2632,17.6329 L0.0000,10.5047 L0.0000,8.6289 Z" style="stroke-width: 0.7200; stroke-linecap: round; stroke-linejoin: round; fill-rule: evenodd; fill: #ffffff; "/>
      <path d="  M0.0000,8.6289 L4.0526,6.3779 L7.0000,6.3779 L21.0000,13.1309 L21.0000,15.3819 L16.9474,17.6329 L13.2632,17.6329 L0.0000,10.5047 L0.0000,8.6289 Z" style="stroke-width: 0.7200; stroke: #ffffff; stroke-dasharray: none; stroke-linecap: round; stroke-linejoin: round; fill: none; "/>
    </g>
    <g xmlns="http://www.w3.org/2000/svg" id="Layer1483">
      <path d="  M4.0526,6.3779 L0.0000,8.6289 L0.0000,26.2618 L13.2632,33.3900 L16.9474,33.3900 L21.0000,31.1390 L21.0000,13.1309 L7.0000,6.3779 L4.0526,6.3779 Z" style="stroke-width: 1.6800; stroke-linecap: round; stroke-linejoin: round; fill-rule: evenodd; fill: #ffffff; "/>
      <path d="  M4.0526,6.3779 L0.0000,8.6289 L0.0000,26.2618 L13.2632,33.3900 L16.9474,33.3900 L21.0000,31.1390 L21.0000,13.1309 L7.0000,6.3779 L4.0526,6.3779 Z" style="stroke-width: 1.6800; stroke: #ffffff; stroke-dasharray: none; stroke-linecap: round; stroke-linejoin: round; fill: none; "/>
    </g>
    <g xmlns="http://www.w3.org/2000/svg" id="Layer1484">
      <path d="  M6.2632,7.8785 L6.2632,4.5020 L6.2632,3.7517 L6.6316,3.3765 L7.0000,3.0013 L7.7368,3.0013 L8.8421,3.3765 L9.9474,3.7517 L11.7895,4.8772 L13.6316,6.7530 L14.7368,8.6289 L15.1053,10.1296 L14.7368,13.8812 L14.7368,14.2564 L15.1053,15.0067 L15.8421,15.3819 L16.2105,15.3819 L17.3158,15.0067 L17.6842,14.2564 L17.6842,10.1296 L17.3158,7.5034 L16.5789,6.3779 L15.8421,4.8772 L13.6316,2.6262 L11.4211,1.1255 L9.5789,0.3752 L7.7368,0.0000 L6.6316,0.0000 L5.5263,0.7503 L4.4211,1.5007 L4.0526,2.2510 L3.3158,3.3765 L3.3158,4.5020 L3.3158,7.8785 L3.3158,8.6289 L3.6842,9.0040 L4.4211,9.3792 L5.8947,9.0040 L6.2632,8.6289 L6.2632,7.8785 Z" style="stroke-width: 1.6800; stroke-linecap: round; stroke-linejoin: round; fill-rule: evenodd; fill: #ffffff; "/>
      <path d="  M6.2632,7.8785 L6.2632,4.5020 L6.2632,3.7517 L6.6316,3.3765 L7.0000,3.0013 L7.7368,3.0013 L8.8421,3.3765 L9.9474,3.7517 L11.7895,4.8772 L13.6316,6.7530 L14.7368,8.6289 L15.1053,10.1296 L14.7368,13.8812 L14.7368,14.2564 L15.1053,15.0067 L15.8421,15.3819 L16.2105,15.3819 L17.3158,15.0067 L17.6842,14.2564 L17.6842,10.1296 L17.3158,7.5034 L16.5789,6.3779 L15.8421,4.8772 L13.6316,2.6262 L11.4211,1.1255 L9.5789,0.3752 L7.7368,0.0000 L6.6316,0.0000 L5.5263,0.7503 L4.4211,1.5007 L4.0526,2.2510 L3.3158,3.3765 L3.3158,4.5020 L3.3158,7.8785 L3.3158,8.6289 L3.6842,9.0040 L4.4211,9.3792 L5.8947,9.0040 L6.2632,8.6289 L6.2632,7.8785 Z" style="stroke-width: 1.6800; stroke: #ffffff; stroke-dasharray: none; stroke-linecap: round; stroke-linejoin: round; fill: none; "/>
    </g>
    <g xmlns="http://www.w3.org/2000/svg" xmlns:xlink="http://www.w3.org/1999/xlink" id="Layer1485">
      <defs>
        <linearGradient id="grad680">
          <stop offset="0%" stop-color="#000099" stop-opacity="1.0000"/>
          <stop offset="100%" stop-color="#99c0ff" stop-opacity="1.0000"/>
        </linearGradient>
        <linearGradient xlink:href="#grad680" id="grad681" x1="0" y1="0" x2="0" y2="1" gradientTransform="rotate(135 .5 .5)" gradientUnits="objectBoundingBox">
  </linearGradient>
      </defs>
      <path d="  M21.0000,15.3819 L21.0000,31.1390 L16.9474,33.3900 L16.9474,17.6329 L21.0000,15.3819 Z" style="stroke-width: 0.7200; stroke-linecap: round; stroke-linejoin: round; fill-rule: evenodd; fill: url(#grad681); "/>
      <path d="  M21.0000,15.3819 L21.0000,31.1390 L16.9474,33.3900 L16.9474,17.6329 L21.0000,15.3819 Z" style="stroke-width: 0.7200; stroke: #ffffff; stroke-dasharray: none; stroke-linecap: round; stroke-linejoin: round; fill: none; "/>
    </g>
    <g xmlns="http://www.w3.org/2000/svg" xmlns:xlink="http://www.w3.org/1999/xlink" id="Layer1486">
      <defs>
        <linearGradient id="grad682">
          <stop offset="0%" stop-color="#c0e5ff" stop-opacity="1.0000"/>
          <stop offset="100%" stop-color="#0099ff" stop-opacity="1.0000"/>
        </linearGradient>
        <linearGradient xlink:href="#grad682" id="grad683" x1="0" y1="0" x2="0" y2="1" gradientTransform="rotate(225 .5 .5)" gradientUnits="objectBoundingBox">
  </linearGradient>
      </defs>
      <path d="  M16.9474,17.6329 L16.9474,33.3900 L13.2632,33.3900 L13.2632,17.6329 L16.9474,17.6329 Z" style="stroke-width: 0.7200; stroke-linecap: round; stroke-linejoin: round; fill-rule: evenodd; fill: url(#grad683); "/>
      <path d="  M16.9474,17.6329 L16.9474,33.3900 L13.2632,33.3900 L13.2632,17.6329 L16.9474,17.6329 Z" style="stroke-width: 0.7200; stroke: #ffffff; stroke-dasharray: none; stroke-linecap: round; stroke-linejoin: round; fill: none; "/>
    </g>
    <g xmlns="http://www.w3.org/2000/svg" id="Layer1487">
      <defs>
        <radialGradient id="grad684" cx="0.0000%" cy="0.0000%" r="100.0000%">
          <stop offset="0%" stop-color="#99ccff" stop-opacity="1.0000"/>
          <stop offset="100%" stop-color="#0066ff" stop-opacity="1.0000"/>
        </radialGradient>
      </defs>
      <path d="  M13.2632,17.6329 L13.2632,33.3900 L0.0000,26.2618 L0.0000,10.5047 L13.2632,17.6329 Z" style="stroke-width: 0.7200; stroke-linecap: round; stroke-linejoin: round; fill-rule: evenodd; fill: url(#grad684); "/>
      <path d="  M13.2632,17.6329 L13.2632,33.3900 L0.0000,26.2618 L0.0000,10.5047 L13.2632,17.6329 Z" style="stroke-width: 0.7200; stroke: #ffffff; stroke-dasharray: none; stroke-linecap: round; stroke-linejoin: round; fill: none; "/>
    </g>
    <g xmlns="http://www.w3.org/2000/svg" xmlns:xlink="http://www.w3.org/1999/xlink" id="Layer1488">
      <defs>
        <linearGradient id="grad685">
          <stop offset="0%" stop-color="#c0e5ff" stop-opacity="1.0000"/>
          <stop offset="100%" stop-color="#0099ff" stop-opacity="1.0000"/>
        </linearGradient>
        <linearGradient xlink:href="#grad685" id="grad686" x1="0" y1="0" x2="0" y2="1" gradientTransform="rotate(225 .5 .5)" gradientUnits="objectBoundingBox">
  </linearGradient>
      </defs>
      <path d="  M0.0000,8.6289 L4.0526,6.3779 L7.0000,6.3779 L21.0000,13.1309 L21.0000,15.3819 L16.9474,17.6329 L13.2632,17.6329 L0.0000,10.5047 L0.0000,8.6289 Z" style="stroke-width: 0.7200; stroke-linecap: round; stroke-linejoin: round; fill-rule: evenodd; fill: url(#grad686); "/>
      <path d="  M0.0000,8.6289 L4.0526,6.3779 L7.0000,6.3779 L21.0000,13.1309 L21.0000,15.3819 L16.9474,17.6329 L13.2632,17.6329 L0.0000,10.5047 L0.0000,8.6289 Z" style="stroke-width: 0.7200; stroke: #ffffff; stroke-dasharray: none; stroke-linecap: round; stroke-linejoin: round; fill: none; "/>
    </g>
    <path xmlns="http://www.w3.org/2000/svg" d="  M4.0526,6.3779 L0.0000,8.6289 L0.0000,26.2618 L13.2632,33.3900 L16.9474,33.3900 L21.0000,31.1390 L21.0000,13.1309 L7.0000,6.3779 L4.0526,6.3779 Z" style="stroke-width: 0.7200; stroke: #ffffff; stroke-dasharray: none; stroke-linecap: round; stroke-linejoin: round; fill: none; "/>
    <path xmlns="http://www.w3.org/2000/svg" d="  M13.2632,17.6329 L13.2632,33.3900" style="stroke-width: 0.7200; stroke: #ffffff; stroke-dasharray: none; stroke-linecap: round; stroke-linejoin: round; fill: none; "/>
    <path xmlns="http://www.w3.org/2000/svg" d="  M16.9474,17.6329 L16.9474,33.3900" style="stroke-width: 0.7200; stroke: #ffffff; stroke-dasharray: none; stroke-linecap: round; stroke-linejoin: round; fill: none; "/>
    <path xmlns="http://www.w3.org/2000/svg" d="  M13.2632,17.6329 L16.9474,17.6329" style="stroke-width: 0.7200; stroke: #ffffff; stroke-dasharray: none; stroke-linecap: round; stroke-linejoin: round; fill: none; "/>
    <path xmlns="http://www.w3.org/2000/svg" d="  M2.2105,11.6302 L13.2632,17.6329" style="stroke-width: 0.7200; stroke: #ffffff; stroke-dasharray: none; stroke-linecap: round; stroke-linejoin: round; fill: none; "/>
    <path xmlns="http://www.w3.org/2000/svg" d="  M16.9474,17.6329 L21.0000,15.3819" style="stroke-width: 0.7200; stroke: #ffffff; stroke-dasharray: none; stroke-linecap: round; stroke-linejoin: round; fill: none; "/>
    <g xmlns="http://www.w3.org/2000/svg" id="Layer1489">
      <defs>
        <radialGradient id="grad687" cx="0.0000%" cy="0.0000%" r="100.0000%">
          <stop offset="0%" stop-color="#99ccff" stop-opacity="1.0000"/>
          <stop offset="100%" stop-color="#0066ff" stop-opacity="1.0000"/>
        </radialGradient>
      </defs>
      <path d="  M6.2632,7.8785 L6.2632,4.5020 L6.2632,3.7517 L6.6316,3.3765 L7.0000,3.0013 L7.7368,3.0013 L8.8421,3.3765 L9.9474,3.7517 L11.7895,4.8772 L13.6316,6.7530 L14.7368,8.6289 L14.8774,9.8405 L14.8774,11.1905 L14.7368,13.8812 L14.7368,14.2564 L15.1053,15.0067 L15.8421,15.3819 L16.2105,15.3819 L17.3158,15.0067 L17.6842,14.2564 L17.6842,10.1296 L17.3158,7.5034 L16.5304,6.0906 L15.8421,4.8772 L13.6316,2.6262 L11.4211,1.1255 L9.5789,0.3752 L7.7368,0.0000 L6.6122,0.3907 L5.5263,0.7503 L4.4211,1.5007 L4.0526,2.2510 L3.3158,3.3765 L3.3158,4.5020 L3.3158,7.8785 L3.4030,9.3902 L3.7715,9.7653 L4.5083,10.1405 L5.9820,9.7653 L6.3504,9.3902 L6.2632,7.8785 Z" style="stroke-width: 0.7200; stroke-linecap: round; stroke-linejoin: round; fill-rule: evenodd; fill: url(#grad687); "/>
      <path d="  M6.2632,7.8785 L6.2632,4.5020 L6.2632,3.7517 L6.6316,3.3765 L7.0000,3.0013 L7.7368,3.0013 L8.8421,3.3765 L9.9474,3.7517 L11.7895,4.8772 L13.6316,6.7530 L14.7368,8.6289 L14.8774,9.8405 L14.8774,11.1905 L14.7368,13.8812 L14.7368,14.2564 L15.1053,15.0067 L15.8421,15.3819 L16.2105,15.3819 L17.3158,15.0067 L17.6842,14.2564 L17.6842,10.1296 L17.3158,7.5034 L16.5304,6.0906 L15.8421,4.8772 L13.6316,2.6262 L11.4211,1.1255 L9.5789,0.3752 L7.7368,0.0000 L6.6122,0.3907 L5.5263,0.7503 L4.4211,1.5007 L4.0526,2.2510 L3.3158,3.3765 L3.3158,4.5020 L3.3158,7.8785 L3.4030,9.3902 L3.7715,9.7653 L4.5083,10.1405 L5.9820,9.7653 L6.3504,9.3902 L6.2632,7.8785 Z" style="stroke-width: 0.7200; stroke: #ffffff; stroke-dasharray: none; stroke-linecap: round; stroke-linejoin: round; fill: none; "/>
    </g>
    <!--converted by libvisio2svg-->
  </g>
</svg>
