<svg xmlns="http://www.w3.org/2000/svg" xmlns:xlink="http://www.w3.org/1999/xlink" version="1.1" width="0.3833000000" height="0.5415000000" viewBox="0 0 27.6000 38.9900">
  <title><![CDATA[Security (gen.)]]></title>
  <g transform=" scale(1.000000) ">
    <g xmlns="http://www.w3.org/2000/svg" id="Layer1452">
      <path d="  M23.5474,17.6329 L23.5474,33.3900 L19.8632,33.3900 L19.8632,17.6329 L23.5474,17.6329 Z" style="stroke-width: 0.7200; stroke-linecap: round; stroke-linejoin: round; fill-rule: evenodd; fill: #ffffff; "/>
      <path d="  M23.5474,17.6329 L23.5474,33.3900 L19.8632,33.3900 L19.8632,17.6329 L23.5474,17.6329 Z" style="stroke-width: 0.7200; stroke: #ffffff; stroke-dasharray: none; stroke-linecap: round; stroke-linejoin: round; fill: none; "/>
    </g>
    <g xmlns="http://www.w3.org/2000/svg" id="Layer1453">
      <path d="  M19.8632,17.6329 L19.8632,33.3900 L6.6000,26.2618 L6.6000,10.5047 L19.8632,17.6329 Z" style="stroke-width: 0.7200; stroke-linecap: round; stroke-linejoin: round; fill-rule: evenodd; fill: #ffffff; "/>
      <path d="  M19.8632,17.6329 L19.8632,33.3900 L6.6000,26.2618 L6.6000,10.5047 L19.8632,17.6329 Z" style="stroke-width: 0.7200; stroke: #ffffff; stroke-dasharray: none; stroke-linecap: round; stroke-linejoin: round; fill: none; "/>
    </g>
    <g xmlns="http://www.w3.org/2000/svg" id="Layer1454">
      <path d="  M6.6000,8.6289 L10.6526,6.3779 L13.6000,6.3779 L27.6000,13.1309 L27.6000,15.3819 L23.5474,17.6329 L19.8632,17.6329 L6.6000,10.5047 L6.6000,8.6289 Z" style="stroke-width: 0.7200; stroke-linecap: round; stroke-linejoin: round; fill-rule: evenodd; fill: #ffffff; "/>
      <path d="  M6.6000,8.6289 L10.6526,6.3779 L13.6000,6.3779 L27.6000,13.1309 L27.6000,15.3819 L23.5474,17.6329 L19.8632,17.6329 L6.6000,10.5047 L6.6000,8.6289 Z" style="stroke-width: 0.7200; stroke: #ffffff; stroke-dasharray: none; stroke-linecap: round; stroke-linejoin: round; fill: none; "/>
    </g>
    <g xmlns="http://www.w3.org/2000/svg" id="Layer1455">
      <path d="  M10.6526,6.3779 L6.6000,8.6289 L6.6000,26.2618 L19.8632,33.3900 L23.5474,33.3900 L27.6000,31.1390 L27.6000,13.1309 L13.6000,6.3779 L10.6526,6.3779 Z" style="stroke-width: 1.6800; stroke-linecap: round; stroke-linejoin: round; fill-rule: evenodd; fill: #ffffff; "/>
      <path d="  M10.6526,6.3779 L6.6000,8.6289 L6.6000,26.2618 L19.8632,33.3900 L23.5474,33.3900 L27.6000,31.1390 L27.6000,13.1309 L13.6000,6.3779 L10.6526,6.3779 Z" style="stroke-width: 1.6800; stroke: #ffffff; stroke-dasharray: none; stroke-linecap: round; stroke-linejoin: round; fill: none; "/>
    </g>
    <g xmlns="http://www.w3.org/2000/svg" id="Layer1456">
      <path d="  M12.8632,7.8785 L12.8632,4.5020 L12.8632,3.7517 L13.2316,3.3765 L13.6000,3.0013 L14.3368,3.0013 L15.4421,3.3765 L16.5474,3.7517 L18.3895,4.8772 L20.2316,6.7530 L21.3368,8.6289 L21.7053,10.1296 L21.3368,13.8812 L21.3368,14.2564 L21.7053,15.0067 L22.4421,15.3819 L22.8105,15.3819 L23.9158,15.0067 L24.2842,14.2564 L24.2842,10.1296 L23.9158,7.5034 L23.1789,6.3779 L22.4421,4.8772 L20.2316,2.6262 L18.0211,1.1255 L16.1789,0.3752 L14.3368,0.0000 L13.2316,0.0000 L12.1263,0.7503 L11.0211,1.5007 L10.6526,2.2510 L9.9158,3.3765 L9.9158,4.5020 L9.9158,7.8785 L9.9158,8.6289 L10.2842,9.0040 L11.0211,9.3792 L12.4947,9.0040 L12.8632,8.6289 L12.8632,7.8785 Z" style="stroke-width: 1.6800; stroke-linecap: round; stroke-linejoin: round; fill-rule: evenodd; fill: #ffffff; "/>
      <path d="  M12.8632,7.8785 L12.8632,4.5020 L12.8632,3.7517 L13.2316,3.3765 L13.6000,3.0013 L14.3368,3.0013 L15.4421,3.3765 L16.5474,3.7517 L18.3895,4.8772 L20.2316,6.7530 L21.3368,8.6289 L21.7053,10.1296 L21.3368,13.8812 L21.3368,14.2564 L21.7053,15.0067 L22.4421,15.3819 L22.8105,15.3819 L23.9158,15.0067 L24.2842,14.2564 L24.2842,10.1296 L23.9158,7.5034 L23.1789,6.3779 L22.4421,4.8772 L20.2316,2.6262 L18.0211,1.1255 L16.1789,0.3752 L14.3368,0.0000 L13.2316,0.0000 L12.1263,0.7503 L11.0211,1.5007 L10.6526,2.2510 L9.9158,3.3765 L9.9158,4.5020 L9.9158,7.8785 L9.9158,8.6289 L10.2842,9.0040 L11.0211,9.3792 L12.4947,9.0040 L12.8632,8.6289 L12.8632,7.8785 Z" style="stroke-width: 1.6800; stroke: #ffffff; stroke-dasharray: none; stroke-linecap: round; stroke-linejoin: round; fill: none; "/>
    </g>
    <g xmlns="http://www.w3.org/2000/svg" xmlns:xlink="http://www.w3.org/1999/xlink" id="Layer1457">
      <defs>
        <linearGradient id="grad654">
          <stop offset="0%" stop-color="#000099" stop-opacity="1.0000"/>
          <stop offset="100%" stop-color="#99c0ff" stop-opacity="1.0000"/>
        </linearGradient>
        <linearGradient xlink:href="#grad654" id="grad655" x1="0" y1="0" x2="0" y2="1" gradientTransform="rotate(135 .5 .5)" gradientUnits="objectBoundingBox">
  </linearGradient>
      </defs>
      <path d="  M27.6000,15.3819 L27.6000,31.1390 L23.5474,33.3900 L23.5474,17.6329 L27.6000,15.3819 Z" style="stroke-width: 0.7200; stroke-linecap: round; stroke-linejoin: round; fill-rule: evenodd; fill: url(#grad655); "/>
      <path d="  M27.6000,15.3819 L27.6000,31.1390 L23.5474,33.3900 L23.5474,17.6329 L27.6000,15.3819 Z" style="stroke-width: 0.7200; stroke: #ffffff; stroke-dasharray: none; stroke-linecap: round; stroke-linejoin: round; fill: none; "/>
    </g>
    <g xmlns="http://www.w3.org/2000/svg" xmlns:xlink="http://www.w3.org/1999/xlink" id="Layer1458">
      <defs>
        <linearGradient id="grad656">
          <stop offset="0%" stop-color="#c0e5ff" stop-opacity="1.0000"/>
          <stop offset="100%" stop-color="#0099ff" stop-opacity="1.0000"/>
        </linearGradient>
        <linearGradient xlink:href="#grad656" id="grad657" x1="0" y1="0" x2="0" y2="1" gradientTransform="rotate(225 .5 .5)" gradientUnits="objectBoundingBox">
  </linearGradient>
      </defs>
      <path d="  M23.5474,17.6329 L23.5474,33.3900 L19.8632,33.3900 L19.8632,17.6329 L23.5474,17.6329 Z" style="stroke-width: 0.7200; stroke-linecap: round; stroke-linejoin: round; fill-rule: evenodd; fill: url(#grad657); "/>
      <path d="  M23.5474,17.6329 L23.5474,33.3900 L19.8632,33.3900 L19.8632,17.6329 L23.5474,17.6329 Z" style="stroke-width: 0.7200; stroke: #ffffff; stroke-dasharray: none; stroke-linecap: round; stroke-linejoin: round; fill: none; "/>
    </g>
    <g xmlns="http://www.w3.org/2000/svg" id="Layer1459">
      <defs>
        <radialGradient id="grad658" cx="0.0000%" cy="0.0000%" r="100.0000%">
          <stop offset="0%" stop-color="#99ccff" stop-opacity="1.0000"/>
          <stop offset="100%" stop-color="#0066ff" stop-opacity="1.0000"/>
        </radialGradient>
      </defs>
      <path d="  M19.8632,17.6329 L19.8632,33.3900 L6.6000,26.2618 L6.6000,10.5047 L19.8632,17.6329 Z" style="stroke-width: 0.7200; stroke-linecap: round; stroke-linejoin: round; fill-rule: evenodd; fill: url(#grad658); "/>
      <path d="  M19.8632,17.6329 L19.8632,33.3900 L6.6000,26.2618 L6.6000,10.5047 L19.8632,17.6329 Z" style="stroke-width: 0.7200; stroke: #ffffff; stroke-dasharray: none; stroke-linecap: round; stroke-linejoin: round; fill: none; "/>
    </g>
    <g xmlns="http://www.w3.org/2000/svg" xmlns:xlink="http://www.w3.org/1999/xlink" id="Layer1460">
      <defs>
        <linearGradient id="grad659">
          <stop offset="0%" stop-color="#c0e5ff" stop-opacity="1.0000"/>
          <stop offset="100%" stop-color="#0099ff" stop-opacity="1.0000"/>
        </linearGradient>
        <linearGradient xlink:href="#grad659" id="grad660" x1="0" y1="0" x2="0" y2="1" gradientTransform="rotate(225 .5 .5)" gradientUnits="objectBoundingBox">
  </linearGradient>
      </defs>
      <path d="  M6.6000,8.6289 L10.6526,6.3779 L13.6000,6.3779 L27.6000,13.1309 L27.6000,15.3819 L23.5474,17.6329 L19.8632,17.6329 L6.6000,10.5047 L6.6000,8.6289 Z" style="stroke-width: 0.7200; stroke-linecap: round; stroke-linejoin: round; fill-rule: evenodd; fill: url(#grad660); "/>
      <path d="  M6.6000,8.6289 L10.6526,6.3779 L13.6000,6.3779 L27.6000,13.1309 L27.6000,15.3819 L23.5474,17.6329 L19.8632,17.6329 L6.6000,10.5047 L6.6000,8.6289 Z" style="stroke-width: 0.7200; stroke: #ffffff; stroke-dasharray: none; stroke-linecap: round; stroke-linejoin: round; fill: none; "/>
    </g>
    <path xmlns="http://www.w3.org/2000/svg" d="  M10.6526,6.3779 L6.6000,8.6289 L6.6000,26.2618 L19.8632,33.3900 L23.5474,33.3900 L27.6000,31.1390 L27.6000,13.1309 L13.6000,6.3779 L10.6526,6.3779 Z" style="stroke-width: 0.7200; stroke: #ffffff; stroke-dasharray: none; stroke-linecap: round; stroke-linejoin: round; fill: none; "/>
    <path xmlns="http://www.w3.org/2000/svg" d="  M19.8632,17.6329 L19.8632,33.3900" style="stroke-width: 0.7200; stroke: #ffffff; stroke-dasharray: none; stroke-linecap: round; stroke-linejoin: round; fill: none; "/>
    <path xmlns="http://www.w3.org/2000/svg" d="  M23.5474,17.6329 L23.5474,33.3900" style="stroke-width: 0.7200; stroke: #ffffff; stroke-dasharray: none; stroke-linecap: round; stroke-linejoin: round; fill: none; "/>
    <path xmlns="http://www.w3.org/2000/svg" d="  M19.8632,17.6329 L23.5474,17.6329" style="stroke-width: 0.7200; stroke: #ffffff; stroke-dasharray: none; stroke-linecap: round; stroke-linejoin: round; fill: none; "/>
    <path xmlns="http://www.w3.org/2000/svg" d="  M8.8105,11.6302 L19.8632,17.6329" style="stroke-width: 0.7200; stroke: #ffffff; stroke-dasharray: none; stroke-linecap: round; stroke-linejoin: round; fill: none; "/>
    <path xmlns="http://www.w3.org/2000/svg" d="  M23.5474,17.6329 L27.6000,15.3819" style="stroke-width: 0.7200; stroke: #ffffff; stroke-dasharray: none; stroke-linecap: round; stroke-linejoin: round; fill: none; "/>
    <g xmlns="http://www.w3.org/2000/svg" id="Layer1461">
      <defs>
        <radialGradient id="grad661" cx="0.0000%" cy="0.0000%" r="100.0000%">
          <stop offset="0%" stop-color="#99ccff" stop-opacity="1.0000"/>
          <stop offset="100%" stop-color="#0066ff" stop-opacity="1.0000"/>
        </radialGradient>
      </defs>
      <path d="  M12.8632,7.8785 L12.8632,4.5020 L12.8632,3.7517 L13.2316,3.3765 L13.6000,3.0013 L14.3368,3.0013 L15.4421,3.3765 L16.5474,3.7517 L18.3895,4.8772 L20.2316,6.7530 L21.3368,8.6289 L21.4774,9.8405 L21.4774,11.1905 L21.3368,13.8812 L21.3368,14.2564 L21.7053,15.0067 L22.4421,15.3819 L22.8105,15.3819 L23.9158,15.0067 L24.2842,14.2564 L24.2842,10.1296 L23.9158,7.5034 L23.1304,6.0906 L22.4421,4.8772 L20.2316,2.6262 L18.0211,1.1255 L16.1789,0.3752 L14.3368,0.0000 L13.2122,0.3907 L12.1263,0.7503 L11.0211,1.5007 L10.6526,2.2510 L9.9158,3.3765 L9.9158,4.5020 L9.9158,7.8785 L10.0030,9.3902 L10.3715,9.7653 L11.1083,10.1405 L12.5820,9.7653 L12.9504,9.3902 L12.8632,7.8785 Z" style="stroke-width: 0.7200; stroke-linecap: round; stroke-linejoin: round; fill-rule: evenodd; fill: url(#grad661); "/>
      <path d="  M12.8632,7.8785 L12.8632,4.5020 L12.8632,3.7517 L13.2316,3.3765 L13.6000,3.0013 L14.3368,3.0013 L15.4421,3.3765 L16.5474,3.7517 L18.3895,4.8772 L20.2316,6.7530 L21.3368,8.6289 L21.4774,9.8405 L21.4774,11.1905 L21.3368,13.8812 L21.3368,14.2564 L21.7053,15.0067 L22.4421,15.3819 L22.8105,15.3819 L23.9158,15.0067 L24.2842,14.2564 L24.2842,10.1296 L23.9158,7.5034 L23.1304,6.0906 L22.4421,4.8772 L20.2316,2.6262 L18.0211,1.1255 L16.1789,0.3752 L14.3368,0.0000 L13.2122,0.3907 L12.1263,0.7503 L11.0211,1.5007 L10.6526,2.2510 L9.9158,3.3765 L9.9158,4.5020 L9.9158,7.8785 L10.0030,9.3902 L10.3715,9.7653 L11.1083,10.1405 L12.5820,9.7653 L12.9504,9.3902 L12.8632,7.8785 Z" style="stroke-width: 0.7200; stroke: #ffffff; stroke-dasharray: none; stroke-linecap: round; stroke-linejoin: round; fill: none; "/>
    </g>
    <path xmlns="http://www.w3.org/2000/svg" d="  M11.1801,27.3835 L22.7524,33.1867 L24.9100,36.3885 L24.9100,36.9889 L23.5370,37.9894 L21.1833,38.9900 L19.8103,36.9889 L18.0450,37.3891 L16.8682,35.1879 L15.1029,35.9883 L13.5338,33.9872 L9.8071,31.7860 L9.4148,32.3863 L9.0225,32.7865 L8.4341,32.9866 L7.8457,33.1867 L7.2572,33.3869 L6.4727,33.1867 L5.8843,32.9866 L5.0997,32.5864 L3.9228,31.9861 L2.9421,31.1856 L2.1576,30.3852 L1.3730,29.3846 L0.7846,28.1839 L0.3923,27.1834 L0.1961,26.1828 L0.0000,24.9821 L0.1961,24.1817 L0.3923,23.5813 L0.9807,22.9810 L1.3730,22.5808 L2.7460,21.5802 L3.5306,21.1800 L4.5113,21.1800 L5.4920,21.3801 L6.4727,21.9804 L7.0611,22.3807 L7.8457,22.7809 L9.0225,23.9816 L10.0032,25.3824 L10.7878,27.1834 L11.1801,27.3835 Z" style="stroke-width: 1.6800; stroke: #ffffff; stroke-dasharray: none; stroke-linecap: round; stroke-linejoin: round; fill: none; "/>
    <g xmlns="http://www.w3.org/2000/svg" xmlns:xlink="http://www.w3.org/1999/xlink" id="Layer1462">
      <defs>
        <linearGradient id="grad662">
          <stop offset="0%" stop-color="#c0e5ff" stop-opacity="1.0000"/>
          <stop offset="100%" stop-color="#0099ff" stop-opacity="1.0000"/>
        </linearGradient>
        <linearGradient xlink:href="#grad662" id="grad663" x1="0" y1="0" x2="0" y2="1" gradientTransform="rotate(225 .5 .5)" gradientUnits="objectBoundingBox">
  </linearGradient>
      </defs>
      <path d="  M11.1801,27.3835 L22.7524,33.1867 L24.9100,36.3885 L24.9100,36.9889 L23.5370,37.9894 L23.5370,37.3891 L21.5756,34.1873 L9.8071,28.3840 L9.4148,28.1839 L8.8264,26.3829 L7.8457,24.7820 L6.4727,23.5813 L5.0997,22.5808 L3.9228,22.1806 L2.7460,21.9804 L2.1576,22.1806 L1.3730,22.5808 L2.7460,21.5802 L3.5306,21.1800 L4.5113,21.1800 L5.4920,21.3801 L6.4727,21.9804 L7.0611,22.3807 L7.8457,22.7809 L9.0225,23.9816 L10.0032,25.3824 L10.7878,27.1834 L11.1801,27.3835 Z" style="stroke-width: 0.4000; stroke-linecap: round; stroke-linejoin: round; fill-rule: evenodd; fill: url(#grad663); "/>
      <path d="  M11.1801,27.3835 L22.7524,33.1867 L24.9100,36.3885 L24.9100,36.9889 L23.5370,37.9894 L23.5370,37.3891 L21.5756,34.1873 L9.8071,28.3840 L9.4148,28.1839 L8.8264,26.3829 L7.8457,24.7820 L6.4727,23.5813 L5.0997,22.5808 L3.9228,22.1806 L2.7460,21.9804 L2.1576,22.1806 L1.3730,22.5808 L2.7460,21.5802 L3.5306,21.1800 L4.5113,21.1800 L5.4920,21.3801 L6.4727,21.9804 L7.0611,22.3807 L7.8457,22.7809 L9.0225,23.9816 L10.0032,25.3824 L10.7878,27.1834 L11.1801,27.3835 Z" style="stroke-width: 0.4000; stroke: #ffffff; stroke-dasharray: none; stroke-linecap: round; stroke-linejoin: round; fill: none; "/>
    </g>
    <g xmlns="http://www.w3.org/2000/svg" xmlns:xlink="http://www.w3.org/1999/xlink" id="Layer1463">
      <defs>
        <linearGradient id="grad664">
          <stop offset="0%" stop-color="#000099" stop-opacity="1.0000"/>
          <stop offset="100%" stop-color="#99c0ff" stop-opacity="1.0000"/>
        </linearGradient>
        <linearGradient xlink:href="#grad664" id="grad665" x1="0" y1="0" x2="0" y2="1" gradientTransform="rotate(135 .5 .5)" gradientUnits="objectBoundingBox">
  </linearGradient>
      </defs>
      <path d="  M21.5756,34.1873 L22.7524,33.1867 L24.9100,36.3885 L24.9100,36.9889 L23.5370,37.9894 L23.5370,37.3891 L21.5756,34.1873 Z" style="stroke-width: 0.7200; stroke-linecap: round; stroke-linejoin: round; fill-rule: evenodd; fill: url(#grad665); "/>
      <path d="  M21.5756,34.1873 L22.7524,33.1867 L24.9100,36.3885 L24.9100,36.9889 L23.5370,37.9894 L23.5370,37.3891 L21.5756,34.1873 Z" style="stroke-width: 0.7200; stroke: #ffffff; stroke-dasharray: none; stroke-linecap: round; stroke-linejoin: round; fill: none; "/>
    </g>
    <g xmlns="http://www.w3.org/2000/svg" id="Layer1464">
      <path d="  M4.7074,27.3835 L4.7074,27.7837 L4.7074,28.1839 L4.3151,28.5842 L3.9228,28.5842 L3.3344,28.3840 L2.3537,27.3835 L1.9614,26.9833 L1.7653,26.5830 L1.7653,25.9827 L1.7653,25.5825 L2.1576,25.3824 L2.5498,25.1822 L3.1383,25.3824 L3.1383,25.9827 L3.5306,26.5830 L4.1190,26.9833 L4.7074,27.3835 Z" style="stroke-width: 0.7200; stroke-linecap: round; stroke-linejoin: round; fill-rule: evenodd; fill: #0066ff; "/>
      <path d="  M4.7074,27.3835 L4.7074,27.7837 L4.7074,28.1839 L4.3151,28.5842 L3.9228,28.5842 L3.3344,28.3840 L2.3537,27.3835 L1.9614,26.9833 L1.7653,26.5830 L1.7653,25.9827 L1.7653,25.5825 L2.1576,25.3824 L2.5498,25.1822 L3.1383,25.3824 L3.1383,25.9827 L3.5306,26.5830 L4.1190,26.9833 L4.7074,27.3835 Z" style="stroke-width: 0.7200; stroke: #ffffff; stroke-dasharray: none; stroke-linecap: round; stroke-linejoin: round; fill: none; "/>
    </g>
    <path xmlns="http://www.w3.org/2000/svg" d="  M10.7878,27.1834 L9.4148,28.1839" style="stroke-width: 0.7200; stroke: #ffffff; stroke-dasharray: none; stroke-linecap: round; stroke-linejoin: round; fill: none; "/>
    <path xmlns="http://www.w3.org/2000/svg" d="  M22.7524,33.1867 L21.5756,34.1873" style="stroke-width: 0.7200; stroke: #ffffff; stroke-dasharray: none; stroke-linecap: round; stroke-linejoin: round; fill: none; "/>
    <g xmlns="http://www.w3.org/2000/svg" id="Layer1465">
      <defs>
        <radialGradient id="grad666" cx="0.0000%" cy="0.0000%" r="100.0000%">
          <stop offset="0%" stop-color="#99ccff" stop-opacity="1.0000"/>
          <stop offset="100%" stop-color="#0066ff" stop-opacity="1.0000"/>
        </radialGradient>
      </defs>
      <path d="  M1.7653,25.9827 L2.1576,27.3835 L2.7460,27.9838 L3.3344,28.3840 L3.9228,28.5842 L4.3151,28.5842 L4.7074,28.1839 L4.8405,27.8878 L4.7074,26.9833 L4.3151,26.3829 L3.9228,25.7826 L3.3344,25.3824 L2.7460,25.1822 L2.1576,25.3824 L1.7653,25.9827 Z M9.8071,28.3840 L21.5756,34.1873 L23.5370,37.3891 L23.5370,37.9894 L21.1833,38.9900 L19.8103,36.9889 L18.0450,37.3891 L16.8682,35.1879 L15.1029,35.9883 L13.5338,33.9872 L9.6408,32.0481 L9.4148,32.3863 L9.0225,32.7865 L8.4341,32.9866 L7.8457,33.1867 L7.2572,33.3869 L6.4727,33.1867 L5.8843,32.9866 L5.0997,32.5864 L3.9228,31.9861 L2.9421,31.1856 L2.1576,30.3852 L1.3730,29.3846 L0.7846,28.1839 L0.3923,27.1834 L0.1961,26.1828 L0.0000,24.9821 L0.1961,24.1817 L0.3923,23.5813 L0.9807,22.9810 L1.3730,22.5808 L2.1576,22.1806 L2.9421,22.1806 L3.9228,22.1806 L5.0997,22.5808 L6.4727,23.5813 L7.8457,24.7820 L8.8264,26.3829 L9.4148,28.1839 L9.8071,28.3840 Z" style="stroke-width: 0.7200; stroke-linecap: round; stroke-linejoin: round; fill-rule: evenodd; fill: url(#grad666); "/>
      <path d="  M1.7653,25.9827 L2.1576,27.3835 L2.7460,27.9838 L3.3344,28.3840 L3.9228,28.5842 L4.3151,28.5842 L4.7074,28.1839 L4.8405,27.8878 L4.7074,26.9833 L4.3151,26.3829 L3.9228,25.7826 L3.3344,25.3824 L2.7460,25.1822 L2.1576,25.3824 L1.7653,25.9827 Z M9.8071,28.3840 L21.5756,34.1873 L23.5370,37.3891 L23.5370,37.9894 L21.1833,38.9900 L19.8103,36.9889 L18.0450,37.3891 L16.8682,35.1879 L15.1029,35.9883 L13.5338,33.9872 L9.6408,32.0481 L9.4148,32.3863 L9.0225,32.7865 L8.4341,32.9866 L7.8457,33.1867 L7.2572,33.3869 L6.4727,33.1867 L5.8843,32.9866 L5.0997,32.5864 L3.9228,31.9861 L2.9421,31.1856 L2.1576,30.3852 L1.3730,29.3846 L0.7846,28.1839 L0.3923,27.1834 L0.1961,26.1828 L0.0000,24.9821 L0.1961,24.1817 L0.3923,23.5813 L0.9807,22.9810 L1.3730,22.5808 L2.1576,22.1806 L2.9421,22.1806 L3.9228,22.1806 L5.0997,22.5808 L6.4727,23.5813 L7.8457,24.7820 L8.8264,26.3829 L9.4148,28.1839 L9.8071,28.3840 Z" style="stroke-width: 0.7200; stroke: #ffffff; stroke-dasharray: none; stroke-linecap: round; stroke-linejoin: round; fill: none; "/>
    </g>
    <path xmlns="http://www.w3.org/2000/svg" d="  M10.1994,30.5853 L23.5370,37.3891" style="stroke-width: 0.7200; stroke: #ffffff; stroke-dasharray: none; stroke-linecap: round; stroke-linejoin: round; fill: none; "/>
    <path xmlns="http://www.w3.org/2000/svg" d="  M7.4534,27.3835 L7.4534,30.7854" style="stroke-width: 0.7200; stroke: #ffffff; stroke-dasharray: none; stroke-linecap: round; stroke-linejoin: round; fill: none; "/>
    <!--converted by libvisio2svg-->
  </g>
</svg>
