<svg xmlns="http://www.w3.org/2000/svg" xmlns:xlink="http://www.w3.org/1999/xlink" version="1.1" width="0.1941000000" height="0.3092000000" viewBox="0 0 13.9742 22.2605">
  <title><![CDATA[Secure-Sm]]></title>
  <g transform=" scale(1.000000) ">
    <g xmlns="http://www.w3.org/2000/svg" id="Layer1490">
      <path d="  M11.2775,11.7555 L11.2775,22.2605 L8.8258,22.2605 L8.8258,11.7555 L11.2775,11.7555 Z" style="stroke-width: 0.7200; stroke-linecap: round; stroke-linejoin: round; fill-rule: evenodd; fill: #ffffff; "/>
      <path d="  M11.2775,11.7555 L11.2775,22.2605 L8.8258,22.2605 L8.8258,11.7555 L11.2775,11.7555 Z" style="stroke-width: 0.7200; stroke: #ffffff; stroke-dasharray: none; stroke-linecap: round; stroke-linejoin: round; fill: none; "/>
    </g>
    <g xmlns="http://www.w3.org/2000/svg" id="Layer1491">
      <path d="  M8.8258,11.7555 L8.8258,22.2605 L0.0000,17.5082 L0.0000,7.0033 L8.8258,11.7555 Z" style="stroke-width: 0.7200; stroke-linecap: round; stroke-linejoin: round; fill-rule: evenodd; fill: #ffffff; "/>
      <path d="  M8.8258,11.7555 L8.8258,22.2605 L0.0000,17.5082 L0.0000,7.0033 L8.8258,11.7555 Z" style="stroke-width: 0.7200; stroke: #ffffff; stroke-dasharray: none; stroke-linecap: round; stroke-linejoin: round; fill: none; "/>
    </g>
    <g xmlns="http://www.w3.org/2000/svg" id="Layer1492">
      <path d="  M0.0000,5.7527 L2.6968,4.2520 L4.6581,4.2520 L13.9742,8.7541 L13.9742,10.2548 L11.2775,11.7555 L8.8258,11.7555 L0.0000,7.0033 L0.0000,5.7527 Z" style="stroke-width: 0.7200; stroke-linecap: round; stroke-linejoin: round; fill-rule: evenodd; fill: #ffffff; "/>
      <path d="  M0.0000,5.7527 L2.6968,4.2520 L4.6581,4.2520 L13.9742,8.7541 L13.9742,10.2548 L11.2775,11.7555 L8.8258,11.7555 L0.0000,7.0033 L0.0000,5.7527 Z" style="stroke-width: 0.7200; stroke: #ffffff; stroke-dasharray: none; stroke-linecap: round; stroke-linejoin: round; fill: none; "/>
    </g>
    <g xmlns="http://www.w3.org/2000/svg" id="Layer1493">
      <path d="  M2.6968,4.2520 L0.0000,5.7527 L0.0000,17.5082 L8.8258,22.2605 L11.2775,22.2605 L13.9742,20.7598 L13.9742,8.7541 L4.6581,4.2520 L2.6968,4.2520 Z" style="stroke-width: 1.6800; stroke-linecap: round; stroke-linejoin: round; fill-rule: evenodd; fill: #ffffff; "/>
      <path d="  M2.6968,4.2520 L0.0000,5.7527 L0.0000,17.5082 L8.8258,22.2605 L11.2775,22.2605 L13.9742,20.7598 L13.9742,8.7541 L4.6581,4.2520 L2.6968,4.2520 Z" style="stroke-width: 1.6800; stroke: #ffffff; stroke-dasharray: none; stroke-linecap: round; stroke-linejoin: round; fill: none; "/>
    </g>
    <g xmlns="http://www.w3.org/2000/svg" id="Layer1494">
      <path d="  M4.1678,5.2525 L4.1678,3.0014 L4.1678,2.5012 L4.4129,2.2511 L4.6581,2.0009 L5.1484,2.0009 L5.8839,2.2511 L6.6194,2.5012 L7.8452,3.2515 L9.0710,4.5021 L9.8065,5.7527 L10.0516,6.7532 L9.8065,9.2544 L9.8065,9.5045 L10.0516,10.0047 L10.5420,10.2548 L10.7871,10.2548 L11.5226,10.0047 L11.7678,9.5045 L11.7678,6.7532 L11.5226,5.0024 L11.0323,4.2520 L10.5420,3.2515 L9.0710,1.7508 L7.6000,0.7504 L6.3742,0.2501 L5.1484,0.0000 L4.4129,0.0000 L3.6774,0.5002 L2.9419,1.0005 L2.6968,1.5007 L2.2065,2.2511 L2.2065,3.0014 L2.2065,5.2525 L2.2065,5.7527 L2.4516,6.0028 L2.9419,6.2529 L3.9226,6.0028 L4.1678,5.7527 L4.1678,5.2525 Z" style="stroke-width: 2.0000; stroke-linecap: round; stroke-linejoin: round; fill-rule: evenodd; fill: #ffffff; "/>
      <path d="  M4.1678,5.2525 L4.1678,3.0014 L4.1678,2.5012 L4.4129,2.2511 L4.6581,2.0009 L5.1484,2.0009 L5.8839,2.2511 L6.6194,2.5012 L7.8452,3.2515 L9.0710,4.5021 L9.8065,5.7527 L10.0516,6.7532 L9.8065,9.2544 L9.8065,9.5045 L10.0516,10.0047 L10.5420,10.2548 L10.7871,10.2548 L11.5226,10.0047 L11.7678,9.5045 L11.7678,6.7532 L11.5226,5.0024 L11.0323,4.2520 L10.5420,3.2515 L9.0710,1.7508 L7.6000,0.7504 L6.3742,0.2501 L5.1484,0.0000 L4.4129,0.0000 L3.6774,0.5002 L2.9419,1.0005 L2.6968,1.5007 L2.2065,2.2511 L2.2065,3.0014 L2.2065,5.2525 L2.2065,5.7527 L2.4516,6.0028 L2.9419,6.2529 L3.9226,6.0028 L4.1678,5.7527 L4.1678,5.2525 Z" style="stroke-width: 2.0000; stroke: #ffffff; stroke-dasharray: none; stroke-linecap: round; stroke-linejoin: round; fill: none; "/>
    </g>
    <g xmlns="http://www.w3.org/2000/svg" xmlns:xlink="http://www.w3.org/1999/xlink" id="Layer1495">
      <defs>
        <linearGradient id="grad688">
          <stop offset="0%" stop-color="#000099" stop-opacity="1.0000"/>
          <stop offset="100%" stop-color="#99c0ff" stop-opacity="1.0000"/>
        </linearGradient>
        <linearGradient xlink:href="#grad688" id="grad689" x1="0" y1="0" x2="0" y2="1" gradientTransform="rotate(135 .5 .5)" gradientUnits="objectBoundingBox">
  </linearGradient>
      </defs>
      <path d="  M13.9742,10.2548 L13.9742,20.7598 L11.2775,22.2605 L11.2775,11.7555 L13.9742,10.2548 Z" style="stroke-width: 0.7200; stroke-linecap: round; stroke-linejoin: round; fill-rule: evenodd; fill: url(#grad689); "/>
      <path d="  M13.9742,10.2548 L13.9742,20.7598 L11.2775,22.2605 L11.2775,11.7555 L13.9742,10.2548 Z" style="stroke-width: 0.7200; stroke: #ffffff; stroke-dasharray: none; stroke-linecap: round; stroke-linejoin: round; fill: none; "/>
    </g>
    <g xmlns="http://www.w3.org/2000/svg" id="Layer1496">
      <defs>
        <radialGradient id="grad690" cx="0.0000%" cy="0.0000%" r="100.0000%">
          <stop offset="0%" stop-color="#99ccff" stop-opacity="1.0000"/>
          <stop offset="100%" stop-color="#0066ff" stop-opacity="1.0000"/>
        </radialGradient>
      </defs>
      <path d="  M8.8258,11.7555 L8.8258,22.2605 L0.0000,17.5082 L0.0000,7.0033 L8.8258,11.7555 Z" style="stroke-width: 0.7200; stroke-linecap: round; stroke-linejoin: round; fill-rule: evenodd; fill: url(#grad690); "/>
      <path d="  M8.8258,11.7555 L8.8258,22.2605 L0.0000,17.5082 L0.0000,7.0033 L8.8258,11.7555 Z" style="stroke-width: 0.7200; stroke: #ffffff; stroke-dasharray: none; stroke-linecap: round; stroke-linejoin: round; fill: none; "/>
    </g>
    <g xmlns="http://www.w3.org/2000/svg" xmlns:xlink="http://www.w3.org/1999/xlink" id="Layer1497">
      <defs>
        <linearGradient id="grad691">
          <stop offset="0%" stop-color="#c0e5ff" stop-opacity="1.0000"/>
          <stop offset="100%" stop-color="#0099ff" stop-opacity="1.0000"/>
        </linearGradient>
        <linearGradient xlink:href="#grad691" id="grad692" x1="0" y1="0" x2="0" y2="1" gradientTransform="rotate(225 .5 .5)" gradientUnits="objectBoundingBox">
  </linearGradient>
      </defs>
      <path d="  M0.0000,5.7527 L2.6968,4.2520 L4.6581,4.2520 L13.9742,8.7541 L13.9742,10.2548 L11.2775,11.7555 L8.8258,11.7555 L0.0000,7.0033 L0.0000,5.7527 Z" style="stroke-width: 0.7200; stroke-linecap: round; stroke-linejoin: round; fill-rule: evenodd; fill: url(#grad692); "/>
      <path d="  M0.0000,5.7527 L2.6968,4.2520 L4.6581,4.2520 L13.9742,8.7541 L13.9742,10.2548 L11.2775,11.7555 L8.8258,11.7555 L0.0000,7.0033 L0.0000,5.7527 Z" style="stroke-width: 0.7200; stroke: #ffffff; stroke-dasharray: none; stroke-linecap: round; stroke-linejoin: round; fill: none; "/>
    </g>
    <path xmlns="http://www.w3.org/2000/svg" d="  M2.6968,4.2520 L0.0000,5.7527 L0.0000,17.5082 L8.8258,22.2605 L11.2775,22.2605 L13.9742,20.7598 L13.9742,8.7541 L4.6581,4.2520 L2.6968,4.2520 Z" style="stroke-width: 0.7200; stroke: #ffffff; stroke-dasharray: none; stroke-linecap: round; stroke-linejoin: round; fill: none; "/>
    <path xmlns="http://www.w3.org/2000/svg" d="  M8.8258,11.7555 L11.2775,11.7555" style="stroke-width: 0.7200; stroke: #ffffff; stroke-dasharray: none; stroke-linecap: round; stroke-linejoin: round; fill: none; "/>
    <path xmlns="http://www.w3.org/2000/svg" d="  M1.4710,7.7536 L8.8258,11.7555" style="stroke-width: 0.7200; stroke: #ffffff; stroke-dasharray: none; stroke-linecap: round; stroke-linejoin: round; fill: none; "/>
    <path xmlns="http://www.w3.org/2000/svg" d="  M11.2775,11.7555 L13.9742,10.2548" style="stroke-width: 0.7200; stroke: #ffffff; stroke-dasharray: none; stroke-linecap: round; stroke-linejoin: round; fill: none; "/>
    <g xmlns="http://www.w3.org/2000/svg" id="Layer1498">
      <defs>
        <radialGradient id="grad693" cx="0.0000%" cy="0.0000%" r="100.0000%">
          <stop offset="0%" stop-color="#99ccff" stop-opacity="1.0000"/>
          <stop offset="100%" stop-color="#0066ff" stop-opacity="1.0000"/>
        </radialGradient>
      </defs>
      <path d="  M4.1678,5.2525 L4.1678,3.0014 L4.1678,2.5012 L4.4129,2.2511 L4.6581,2.0009 L5.1484,2.0009 L5.8839,2.2511 L6.6194,2.5012 L7.8452,3.2515 L9.0710,4.5021 L9.8065,5.7527 L9.9000,6.5605 L9.9000,7.4605 L9.8065,9.2544 L9.8065,9.5045 L10.0516,10.0047 L10.5420,10.2548 L10.7871,10.2548 L11.5226,10.0047 L11.7678,9.5045 L11.7678,6.7532 L11.5226,5.0024 L11.0000,4.0605 L10.5420,3.2515 L9.0710,1.7508 L7.6000,0.7504 L6.3742,0.2501 L5.1484,0.0000 L4.4000,0.2605 L3.6774,0.5002 L2.9419,1.0005 L2.6968,1.5007 L2.2065,2.2511 L2.2065,3.0014 L2.2065,5.2525 L2.2645,6.2602 L2.5097,6.5104 L3.0000,6.7605 L3.9806,6.5104 L4.2258,6.2602 L4.1678,5.2525 Z" style="stroke-width: 0.4000; stroke-linecap: round; stroke-linejoin: round; fill-rule: evenodd; fill: url(#grad693); "/>
      <path d="  M4.1678,5.2525 L4.1678,3.0014 L4.1678,2.5012 L4.4129,2.2511 L4.6581,2.0009 L5.1484,2.0009 L5.8839,2.2511 L6.6194,2.5012 L7.8452,3.2515 L9.0710,4.5021 L9.8065,5.7527 L9.9000,6.5605 L9.9000,7.4605 L9.8065,9.2544 L9.8065,9.5045 L10.0516,10.0047 L10.5420,10.2548 L10.7871,10.2548 L11.5226,10.0047 L11.7678,9.5045 L11.7678,6.7532 L11.5226,5.0024 L11.0000,4.0605 L10.5420,3.2515 L9.0710,1.7508 L7.6000,0.7504 L6.3742,0.2501 L5.1484,0.0000 L4.4000,0.2605 L3.6774,0.5002 L2.9419,1.0005 L2.6968,1.5007 L2.2065,2.2511 L2.2065,3.0014 L2.2065,5.2525 L2.2645,6.2602 L2.5097,6.5104 L3.0000,6.7605 L3.9806,6.5104 L4.2258,6.2602 L4.1678,5.2525 Z" style="stroke-width: 0.4000; stroke: #ffffff; stroke-dasharray: none; stroke-linecap: round; stroke-linejoin: round; fill: none; "/>
    </g>
    <g xmlns="http://www.w3.org/2000/svg" xmlns:xlink="http://www.w3.org/1999/xlink" id="Layer1499">
      <defs>
        <linearGradient id="grad694">
          <stop offset="0%" stop-color="#c0e5ff" stop-opacity="1.0000"/>
          <stop offset="100%" stop-color="#0099ff" stop-opacity="1.0000"/>
        </linearGradient>
        <linearGradient xlink:href="#grad694" id="grad695" x1="0" y1="0" x2="0" y2="1" gradientTransform="rotate(225 .5 .5)" gradientUnits="objectBoundingBox">
  </linearGradient>
      </defs>
      <path d="  M11.2775,11.7555 L11.2775,22.2605 L8.8258,22.2605 L8.8258,11.7555 L11.2775,11.7555 Z" style="stroke-width: 0.4000; stroke-linecap: round; stroke-linejoin: round; fill-rule: evenodd; fill: url(#grad695); "/>
      <path d="  M11.2775,11.7555 L11.2775,22.2605 L8.8258,22.2605 L8.8258,11.7555 L11.2775,11.7555 Z" style="stroke-width: 0.4000; stroke: #ffffff; stroke-dasharray: none; stroke-linecap: round; stroke-linejoin: round; fill: none; "/>
    </g>
    <!--converted by libvisio2svg-->
  </g>
</svg>
