<svg xmlns="http://www.w3.org/2000/svg" xmlns:xlink="http://www.w3.org/1999/xlink" version="1.1" width="0.2883000000" height="0.3758000000" viewBox="0 0 20.7600 27.0605">
  <title><![CDATA[Security (gen.)-Sm]]></title>
  <g transform=" scale(1.000000) ">
    <g xmlns="http://www.w3.org/2000/svg" id="Layer1466">
      <path d="  M17.7903,11.7555 L17.7903,22.2605 L15.3387,22.2605 L15.3387,11.7555 L17.7903,11.7555 Z" style="stroke-width: 0.7200; stroke-linecap: round; stroke-linejoin: round; fill-rule: evenodd; fill: #ffffff; "/>
      <path d="  M17.7903,11.7555 L17.7903,22.2605 L15.3387,22.2605 L15.3387,11.7555 L17.7903,11.7555 Z" style="stroke-width: 0.7200; stroke: #ffffff; stroke-dasharray: none; stroke-linecap: round; stroke-linejoin: round; fill: none; "/>
    </g>
    <g xmlns="http://www.w3.org/2000/svg" id="Layer1467">
      <path d="  M15.3387,11.7555 L15.3387,22.2605 L6.5129,17.5082 L6.5129,7.0033 L15.3387,11.7555 Z" style="stroke-width: 0.7200; stroke-linecap: round; stroke-linejoin: round; fill-rule: evenodd; fill: #ffffff; "/>
      <path d="  M15.3387,11.7555 L15.3387,22.2605 L6.5129,17.5082 L6.5129,7.0033 L15.3387,11.7555 Z" style="stroke-width: 0.7200; stroke: #ffffff; stroke-dasharray: none; stroke-linecap: round; stroke-linejoin: round; fill: none; "/>
    </g>
    <g xmlns="http://www.w3.org/2000/svg" id="Layer1468">
      <path d="  M6.5129,5.7527 L9.2097,4.2520 L11.1710,4.2520 L20.4871,8.7541 L20.4871,10.2548 L17.7903,11.7555 L15.3387,11.7555 L6.5129,7.0033 L6.5129,5.7527 Z" style="stroke-width: 0.7200; stroke-linecap: round; stroke-linejoin: round; fill-rule: evenodd; fill: #ffffff; "/>
      <path d="  M6.5129,5.7527 L9.2097,4.2520 L11.1710,4.2520 L20.4871,8.7541 L20.4871,10.2548 L17.7903,11.7555 L15.3387,11.7555 L6.5129,7.0033 L6.5129,5.7527 Z" style="stroke-width: 0.7200; stroke: #ffffff; stroke-dasharray: none; stroke-linecap: round; stroke-linejoin: round; fill: none; "/>
    </g>
    <g xmlns="http://www.w3.org/2000/svg" id="Layer1469">
      <path d="  M9.2097,4.2520 L6.5129,5.7527 L6.5129,17.5082 L15.3387,22.2605 L17.7903,22.2605 L20.4871,20.7598 L20.4871,8.7541 L11.1710,4.2520 L9.2097,4.2520 Z" style="stroke-width: 1.6800; stroke-linecap: round; stroke-linejoin: round; fill-rule: evenodd; fill: #ffffff; "/>
      <path d="  M9.2097,4.2520 L6.5129,5.7527 L6.5129,17.5082 L15.3387,22.2605 L17.7903,22.2605 L20.4871,20.7598 L20.4871,8.7541 L11.1710,4.2520 L9.2097,4.2520 Z" style="stroke-width: 1.6800; stroke: #ffffff; stroke-dasharray: none; stroke-linecap: round; stroke-linejoin: round; fill: none; "/>
    </g>
    <g xmlns="http://www.w3.org/2000/svg" id="Layer1470">
      <path d="  M10.6806,5.2525 L10.6806,3.0014 L10.6806,2.5012 L10.9258,2.2511 L11.1710,2.0009 L11.6613,2.0009 L12.3968,2.2511 L13.1323,2.5012 L14.3581,3.2515 L15.5839,4.5021 L16.3194,5.7527 L16.5645,6.7532 L16.3194,9.2544 L16.3194,9.5045 L16.5645,10.0047 L17.0549,10.2548 L17.3000,10.2548 L18.0355,10.0047 L18.2807,9.5045 L18.2807,6.7532 L18.0355,5.0024 L17.5452,4.2520 L17.0549,3.2515 L15.5839,1.7508 L14.1129,0.7504 L12.8871,0.2501 L11.6613,0.0000 L10.9258,0.0000 L10.1903,0.5002 L9.4548,1.0005 L9.2097,1.5007 L8.7193,2.2511 L8.7193,3.0014 L8.7193,5.2525 L8.7193,5.7527 L8.9645,6.0028 L9.4548,6.2529 L10.4355,6.0028 L10.6806,5.7527 L10.6806,5.2525 Z" style="stroke-width: 2.0000; stroke-linecap: round; stroke-linejoin: round; fill-rule: evenodd; fill: #ffffff; "/>
      <path d="  M10.6806,5.2525 L10.6806,3.0014 L10.6806,2.5012 L10.9258,2.2511 L11.1710,2.0009 L11.6613,2.0009 L12.3968,2.2511 L13.1323,2.5012 L14.3581,3.2515 L15.5839,4.5021 L16.3194,5.7527 L16.5645,6.7532 L16.3194,9.2544 L16.3194,9.5045 L16.5645,10.0047 L17.0549,10.2548 L17.3000,10.2548 L18.0355,10.0047 L18.2807,9.5045 L18.2807,6.7532 L18.0355,5.0024 L17.5452,4.2520 L17.0549,3.2515 L15.5839,1.7508 L14.1129,0.7504 L12.8871,0.2501 L11.6613,0.0000 L10.9258,0.0000 L10.1903,0.5002 L9.4548,1.0005 L9.2097,1.5007 L8.7193,2.2511 L8.7193,3.0014 L8.7193,5.2525 L8.7193,5.7527 L8.9645,6.0028 L9.4548,6.2529 L10.4355,6.0028 L10.6806,5.7527 L10.6806,5.2525 Z" style="stroke-width: 2.0000; stroke: #ffffff; stroke-dasharray: none; stroke-linecap: round; stroke-linejoin: round; fill: none; "/>
    </g>
    <g xmlns="http://www.w3.org/2000/svg" xmlns:xlink="http://www.w3.org/1999/xlink" id="Layer1471">
      <defs>
        <linearGradient id="grad667">
          <stop offset="0%" stop-color="#000099" stop-opacity="1.0000"/>
          <stop offset="100%" stop-color="#99c0ff" stop-opacity="1.0000"/>
        </linearGradient>
        <linearGradient xlink:href="#grad667" id="grad668" x1="0" y1="0" x2="0" y2="1" gradientTransform="rotate(135 .5 .5)" gradientUnits="objectBoundingBox">
  </linearGradient>
      </defs>
      <path d="  M20.4871,10.2548 L20.4871,20.7598 L17.7903,22.2605 L17.7903,11.7555 L20.4871,10.2548 Z" style="stroke-width: 0.7200; stroke-linecap: round; stroke-linejoin: round; fill-rule: evenodd; fill: url(#grad668); "/>
      <path d="  M20.4871,10.2548 L20.4871,20.7598 L17.7903,22.2605 L17.7903,11.7555 L20.4871,10.2548 Z" style="stroke-width: 0.7200; stroke: #ffffff; stroke-dasharray: none; stroke-linecap: round; stroke-linejoin: round; fill: none; "/>
    </g>
    <g xmlns="http://www.w3.org/2000/svg" id="Layer1472">
      <defs>
        <radialGradient id="grad669" cx="0.0000%" cy="0.0000%" r="100.0000%">
          <stop offset="0%" stop-color="#99ccff" stop-opacity="1.0000"/>
          <stop offset="100%" stop-color="#0066ff" stop-opacity="1.0000"/>
        </radialGradient>
      </defs>
      <path d="  M15.3387,11.7555 L15.3387,22.2605 L6.5129,17.5082 L6.5129,7.0033 L15.3387,11.7555 Z" style="stroke-width: 0.7200; stroke-linecap: round; stroke-linejoin: round; fill-rule: evenodd; fill: url(#grad669); "/>
      <path d="  M15.3387,11.7555 L15.3387,22.2605 L6.5129,17.5082 L6.5129,7.0033 L15.3387,11.7555 Z" style="stroke-width: 0.7200; stroke: #ffffff; stroke-dasharray: none; stroke-linecap: round; stroke-linejoin: round; fill: none; "/>
    </g>
    <g xmlns="http://www.w3.org/2000/svg" xmlns:xlink="http://www.w3.org/1999/xlink" id="Layer1473">
      <defs>
        <linearGradient id="grad670">
          <stop offset="0%" stop-color="#c0e5ff" stop-opacity="1.0000"/>
          <stop offset="100%" stop-color="#0099ff" stop-opacity="1.0000"/>
        </linearGradient>
        <linearGradient xlink:href="#grad670" id="grad671" x1="0" y1="0" x2="0" y2="1" gradientTransform="rotate(225 .5 .5)" gradientUnits="objectBoundingBox">
  </linearGradient>
      </defs>
      <path d="  M6.5129,5.7527 L9.2097,4.2520 L11.1710,4.2520 L20.4871,8.7541 L20.4871,10.2548 L17.7903,11.7555 L15.3387,11.7555 L6.5129,7.0033 L6.5129,5.7527 Z" style="stroke-width: 0.7200; stroke-linecap: round; stroke-linejoin: round; fill-rule: evenodd; fill: url(#grad671); "/>
      <path d="  M6.5129,5.7527 L9.2097,4.2520 L11.1710,4.2520 L20.4871,8.7541 L20.4871,10.2548 L17.7903,11.7555 L15.3387,11.7555 L6.5129,7.0033 L6.5129,5.7527 Z" style="stroke-width: 0.7200; stroke: #ffffff; stroke-dasharray: none; stroke-linecap: round; stroke-linejoin: round; fill: none; "/>
    </g>
    <path xmlns="http://www.w3.org/2000/svg" d="  M9.2097,4.2520 L6.5129,5.7527 L6.5129,17.5082 L15.3387,22.2605 L17.7903,22.2605 L20.4871,20.7598 L20.4871,8.7541 L11.1710,4.2520 L9.2097,4.2520 Z" style="stroke-width: 0.7200; stroke: #ffffff; stroke-dasharray: none; stroke-linecap: round; stroke-linejoin: round; fill: none; "/>
    <path xmlns="http://www.w3.org/2000/svg" d="  M15.3387,11.7555 L17.7903,11.7555" style="stroke-width: 0.7200; stroke: #ffffff; stroke-dasharray: none; stroke-linecap: round; stroke-linejoin: round; fill: none; "/>
    <path xmlns="http://www.w3.org/2000/svg" d="  M7.9839,7.7536 L15.3387,11.7555" style="stroke-width: 0.7200; stroke: #ffffff; stroke-dasharray: none; stroke-linecap: round; stroke-linejoin: round; fill: none; "/>
    <path xmlns="http://www.w3.org/2000/svg" d="  M17.7903,11.7555 L20.4871,10.2548" style="stroke-width: 0.7200; stroke: #ffffff; stroke-dasharray: none; stroke-linecap: round; stroke-linejoin: round; fill: none; "/>
    <g xmlns="http://www.w3.org/2000/svg" id="Layer1474">
      <defs>
        <radialGradient id="grad672" cx="0.0000%" cy="0.0000%" r="100.0000%">
          <stop offset="0%" stop-color="#99ccff" stop-opacity="1.0000"/>
          <stop offset="100%" stop-color="#0066ff" stop-opacity="1.0000"/>
        </radialGradient>
      </defs>
      <path d="  M10.6806,5.2525 L10.6806,3.0014 L10.6806,2.5012 L10.9258,2.2511 L11.1710,2.0009 L11.6613,2.0009 L12.3968,2.2511 L13.1323,2.5012 L14.3581,3.2515 L15.5839,4.5021 L16.3194,5.7527 L16.4129,6.5605 L16.4129,7.4605 L16.3194,9.2544 L16.3194,9.5045 L16.5645,10.0047 L17.0549,10.2548 L17.3000,10.2548 L18.0355,10.0047 L18.2807,9.5045 L18.2807,6.7532 L18.0355,5.0024 L17.5129,4.0605 L17.0549,3.2515 L15.5839,1.7508 L14.1129,0.7504 L12.8871,0.2501 L11.6613,0.0000 L10.9129,0.2605 L10.1903,0.5002 L9.4548,1.0005 L9.2097,1.5007 L8.7193,2.2511 L8.7193,3.0014 L8.7193,5.2525 L8.7774,6.2602 L9.0226,6.5104 L9.5129,6.7605 L10.4935,6.5104 L10.7387,6.2602 L10.6806,5.2525 Z" style="stroke-width: 0.4000; stroke-linecap: round; stroke-linejoin: round; fill-rule: evenodd; fill: url(#grad672); "/>
      <path d="  M10.6806,5.2525 L10.6806,3.0014 L10.6806,2.5012 L10.9258,2.2511 L11.1710,2.0009 L11.6613,2.0009 L12.3968,2.2511 L13.1323,2.5012 L14.3581,3.2515 L15.5839,4.5021 L16.3194,5.7527 L16.4129,6.5605 L16.4129,7.4605 L16.3194,9.2544 L16.3194,9.5045 L16.5645,10.0047 L17.0549,10.2548 L17.3000,10.2548 L18.0355,10.0047 L18.2807,9.5045 L18.2807,6.7532 L18.0355,5.0024 L17.5129,4.0605 L17.0549,3.2515 L15.5839,1.7508 L14.1129,0.7504 L12.8871,0.2501 L11.6613,0.0000 L10.9129,0.2605 L10.1903,0.5002 L9.4548,1.0005 L9.2097,1.5007 L8.7193,2.2511 L8.7193,3.0014 L8.7193,5.2525 L8.7774,6.2602 L9.0226,6.5104 L9.5129,6.7605 L10.4935,6.5104 L10.7387,6.2602 L10.6806,5.2525 Z" style="stroke-width: 0.4000; stroke: #ffffff; stroke-dasharray: none; stroke-linecap: round; stroke-linejoin: round; fill: none; "/>
    </g>
    <g xmlns="http://www.w3.org/2000/svg" xmlns:xlink="http://www.w3.org/1999/xlink" id="Layer1475">
      <defs>
        <linearGradient id="grad673">
          <stop offset="0%" stop-color="#c0e5ff" stop-opacity="1.0000"/>
          <stop offset="100%" stop-color="#0099ff" stop-opacity="1.0000"/>
        </linearGradient>
        <linearGradient xlink:href="#grad673" id="grad674" x1="0" y1="0" x2="0" y2="1" gradientTransform="rotate(225 .5 .5)" gradientUnits="objectBoundingBox">
  </linearGradient>
      </defs>
      <path d="  M17.7903,11.7555 L17.7903,22.2605 L15.3387,22.2605 L15.3387,11.7555 L17.7903,11.7555 Z" style="stroke-width: 0.4000; stroke-linecap: round; stroke-linejoin: round; fill-rule: evenodd; fill: url(#grad674); "/>
      <path d="  M17.7903,11.7555 L17.7903,22.2605 L15.3387,22.2605 L15.3387,11.7555 L17.7903,11.7555 Z" style="stroke-width: 0.4000; stroke: #ffffff; stroke-dasharray: none; stroke-linecap: round; stroke-linejoin: round; fill: none; "/>
    </g>
    <path xmlns="http://www.w3.org/2000/svg" d="  M9.3175,17.3895 L18.9619,22.2250 L20.7600,24.8928 L20.7600,25.3931 L19.6157,26.2268 L17.6542,27.0605 L16.5099,25.3931 L15.0387,25.7265 L14.0580,23.8924 L12.5868,24.5594 L11.2791,22.8919 L8.1732,21.0578 L7.8463,21.5580 L7.5194,21.8915 L7.0290,22.0582 L6.5386,22.2250 L6.0482,22.3917 L5.3943,22.2250 L4.9039,22.0582 L4.2501,21.7247 L3.2693,21.2245 L2.4520,20.5576 L1.7981,19.8906 L1.1443,19.0569 L0.6539,18.0564 L0.3269,17.2227 L0.1635,16.3890 L0.0000,15.3886 L0.1635,14.7216 L0.3269,14.2214 L0.8173,13.7211 L1.1443,13.3877 L2.2885,12.5540 L2.9424,12.2205 L3.7597,12.2205 L4.5770,12.3872 L5.3943,12.8874 L5.8847,13.2209 L6.5386,13.5544 L7.5194,14.5549 L8.3367,15.7220 L8.9906,17.2227 L9.3175,17.3895 Z" style="stroke-width: 2.0000; stroke: #ffffff; stroke-dasharray: none; stroke-linecap: round; stroke-linejoin: round; fill: none; "/>
    <g xmlns="http://www.w3.org/2000/svg" xmlns:xlink="http://www.w3.org/1999/xlink" id="Layer1476">
      <defs>
        <linearGradient id="grad675">
          <stop offset="0%" stop-color="#c0e5ff" stop-opacity="1.0000"/>
          <stop offset="100%" stop-color="#0099ff" stop-opacity="1.0000"/>
        </linearGradient>
        <linearGradient xlink:href="#grad675" id="grad676" x1="0" y1="0" x2="0" y2="1" gradientTransform="rotate(225 .5 .5)" gradientUnits="objectBoundingBox">
  </linearGradient>
      </defs>
      <path d="  M9.3175,17.3895 L18.9619,22.2250 L20.7600,24.8928 L20.7600,25.3931 L19.6157,26.2268 L19.6157,25.7265 L17.9811,23.0587 L8.1732,18.2232 L7.8463,18.0564 L7.3559,16.5558 L6.5386,15.2218 L5.3943,14.2214 L4.2501,13.3877 L3.2693,13.0542 L2.2885,12.8874 L1.7981,13.0542 L1.1443,13.3877 L2.2885,12.5540 L2.9424,12.2205 L3.7597,12.2205 L4.5770,12.3872 L5.3943,12.8874 L5.8847,13.2209 L6.5386,13.5544 L7.5194,14.5549 L8.3367,15.7220 L8.9906,17.2227 L9.3175,17.3895 Z" style="stroke-width: 0.4000; stroke-linecap: round; stroke-linejoin: round; fill-rule: evenodd; fill: url(#grad676); "/>
      <path d="  M9.3175,17.3895 L18.9619,22.2250 L20.7600,24.8928 L20.7600,25.3931 L19.6157,26.2268 L19.6157,25.7265 L17.9811,23.0587 L8.1732,18.2232 L7.8463,18.0564 L7.3559,16.5558 L6.5386,15.2218 L5.3943,14.2214 L4.2501,13.3877 L3.2693,13.0542 L2.2885,12.8874 L1.7981,13.0542 L1.1443,13.3877 L2.2885,12.5540 L2.9424,12.2205 L3.7597,12.2205 L4.5770,12.3872 L5.3943,12.8874 L5.8847,13.2209 L6.5386,13.5544 L7.5194,14.5549 L8.3367,15.7220 L8.9906,17.2227 L9.3175,17.3895 Z" style="stroke-width: 0.4000; stroke: #ffffff; stroke-dasharray: none; stroke-linecap: round; stroke-linejoin: round; fill: none; "/>
    </g>
    <g xmlns="http://www.w3.org/2000/svg" xmlns:xlink="http://www.w3.org/1999/xlink" id="Layer1477">
      <defs>
        <linearGradient id="grad677">
          <stop offset="0%" stop-color="#000099" stop-opacity="1.0000"/>
          <stop offset="100%" stop-color="#99c0ff" stop-opacity="1.0000"/>
        </linearGradient>
        <linearGradient xlink:href="#grad677" id="grad678" x1="0" y1="0" x2="0" y2="1" gradientTransform="rotate(135 .5 .5)" gradientUnits="objectBoundingBox">
  </linearGradient>
      </defs>
      <path d="  M17.9811,23.0587 L18.9619,22.2250 L20.7600,24.8928 L20.7600,25.3931 L19.6157,26.2268 L19.6157,25.7265 L17.9811,23.0587 Z" style="stroke-width: 0.4000; stroke-linecap: round; stroke-linejoin: round; fill-rule: evenodd; fill: url(#grad678); "/>
      <path d="  M17.9811,23.0587 L18.9619,22.2250 L20.7600,24.8928 L20.7600,25.3931 L19.6157,26.2268 L19.6157,25.7265 L17.9811,23.0587 Z" style="stroke-width: 0.4000; stroke: #ffffff; stroke-dasharray: none; stroke-linecap: round; stroke-linejoin: round; fill: none; "/>
    </g>
    <g xmlns="http://www.w3.org/2000/svg" id="Layer1478">
      <path d="  M3.9231,17.3895 L3.9231,17.7229 L3.9231,18.0564 L3.5962,18.3899 L3.2693,18.3899 L2.7789,18.2232 L1.9616,17.3895 L1.6346,17.0560 L1.4712,16.7225 L1.4712,16.2223 L1.4712,15.8888 L1.7981,15.7220 L2.1250,15.5553 L2.6154,15.7220 L2.6154,16.2223 L2.9424,16.7225 L3.4328,17.0560 L3.9231,17.3895 Z" style="stroke-width: 0.4000; stroke-linecap: round; stroke-linejoin: round; fill-rule: evenodd; fill: #0066ff; "/>
      <path d="  M3.9231,17.3895 L3.9231,17.7229 L3.9231,18.0564 L3.5962,18.3899 L3.2693,18.3899 L2.7789,18.2232 L1.9616,17.3895 L1.6346,17.0560 L1.4712,16.7225 L1.4712,16.2223 L1.4712,15.8888 L1.7981,15.7220 L2.1250,15.5553 L2.6154,15.7220 L2.6154,16.2223 L2.9424,16.7225 L3.4328,17.0560 L3.9231,17.3895 Z" style="stroke-width: 0.4000; stroke: #ffffff; stroke-dasharray: none; stroke-linecap: round; stroke-linejoin: round; fill: none; "/>
    </g>
    <path xmlns="http://www.w3.org/2000/svg" d="  M8.9906,17.2227 L7.8463,18.0564" style="stroke-width: 0.4000; stroke: #ffffff; stroke-dasharray: none; stroke-linecap: round; stroke-linejoin: round; fill: none; "/>
    <path xmlns="http://www.w3.org/2000/svg" d="  M18.9619,22.2250 L17.9811,23.0587" style="stroke-width: 0.4000; stroke: #ffffff; stroke-dasharray: none; stroke-linecap: round; stroke-linejoin: round; fill: none; "/>
    <g xmlns="http://www.w3.org/2000/svg" id="Layer1479">
      <defs>
        <radialGradient id="grad679" cx="0.0000%" cy="0.0000%" r="100.0000%">
          <stop offset="0%" stop-color="#99ccff" stop-opacity="1.0000"/>
          <stop offset="100%" stop-color="#0066ff" stop-opacity="1.0000"/>
        </radialGradient>
      </defs>
      <path d="  M1.4712,16.2223 L1.7981,17.3895 L2.2885,17.8897 L2.7789,18.2232 L3.2693,18.3899 L3.5962,18.3899 L3.9231,18.0564 L4.0341,17.8096 L3.9231,17.0560 L3.5962,16.5558 L3.2693,16.0555 L2.7789,15.7220 L2.2885,15.5553 L1.7981,15.7220 L1.4712,16.2223 Z M8.1732,18.2232 L17.9811,23.0587 L19.6157,25.7265 L19.6157,26.2268 L17.6542,27.0605 L16.5099,25.3931 L15.0387,25.7265 L14.0580,23.8924 L12.5868,24.5594 L11.2791,22.8919 L8.0346,21.2762 L7.8463,21.5580 L7.5194,21.8915 L7.0290,22.0582 L6.5386,22.2250 L6.0482,22.3917 L5.3943,22.2250 L4.9039,22.0582 L4.2501,21.7247 L3.2693,21.2245 L2.4520,20.5576 L1.7981,19.8906 L1.1443,19.0569 L0.6539,18.0564 L0.3269,17.2227 L0.1635,16.3890 L0.0000,15.3886 L0.1635,14.7216 L0.3269,14.2214 L0.8173,13.7211 L1.1443,13.3877 L1.7981,13.0542 L2.4520,13.0542 L3.2693,13.0542 L4.2501,13.3877 L5.3943,14.2214 L6.5386,15.2218 L7.3559,16.5558 L7.8463,18.0564 L8.1732,18.2232 Z" style="stroke-width: 0.4000; stroke-linecap: round; stroke-linejoin: round; fill-rule: evenodd; fill: url(#grad679); "/>
      <path d="  M1.4712,16.2223 L1.7981,17.3895 L2.2885,17.8897 L2.7789,18.2232 L3.2693,18.3899 L3.5962,18.3899 L3.9231,18.0564 L4.0341,17.8096 L3.9231,17.0560 L3.5962,16.5558 L3.2693,16.0555 L2.7789,15.7220 L2.2885,15.5553 L1.7981,15.7220 L1.4712,16.2223 Z M8.1732,18.2232 L17.9811,23.0587 L19.6157,25.7265 L19.6157,26.2268 L17.6542,27.0605 L16.5099,25.3931 L15.0387,25.7265 L14.0580,23.8924 L12.5868,24.5594 L11.2791,22.8919 L8.0346,21.2762 L7.8463,21.5580 L7.5194,21.8915 L7.0290,22.0582 L6.5386,22.2250 L6.0482,22.3917 L5.3943,22.2250 L4.9039,22.0582 L4.2501,21.7247 L3.2693,21.2245 L2.4520,20.5576 L1.7981,19.8906 L1.1443,19.0569 L0.6539,18.0564 L0.3269,17.2227 L0.1635,16.3890 L0.0000,15.3886 L0.1635,14.7216 L0.3269,14.2214 L0.8173,13.7211 L1.1443,13.3877 L1.7981,13.0542 L2.4520,13.0542 L3.2693,13.0542 L4.2501,13.3877 L5.3943,14.2214 L6.5386,15.2218 L7.3559,16.5558 L7.8463,18.0564 L8.1732,18.2232 Z" style="stroke-width: 0.4000; stroke: #ffffff; stroke-dasharray: none; stroke-linecap: round; stroke-linejoin: round; fill: none; "/>
    </g>
    <path xmlns="http://www.w3.org/2000/svg" d="  M8.5002,20.0573 L19.6157,25.7265" style="stroke-width: 0.4000; stroke: #ffffff; stroke-dasharray: none; stroke-linecap: round; stroke-linejoin: round; fill: none; "/>
    <path xmlns="http://www.w3.org/2000/svg" d="  M6.2117,17.3895 L6.2117,20.2241" style="stroke-width: 0.4000; stroke: #ffffff; stroke-dasharray: none; stroke-linecap: round; stroke-linejoin: round; fill: none; "/>
    <!--converted by libvisio2svg-->
  </g>
</svg>
