<svg xmlns="http://www.w3.org/2000/svg" xmlns:xlink="http://www.w3.org/1999/xlink" version="1.1" width="0.3090000000" height="0.2599000000" viewBox="0 0 22.2500 18.7128">
  <title><![CDATA[Sub site-Sm]]></title>
  <g transform=" scale(1.000000) ">
    <path xmlns="http://www.w3.org/2000/svg" d="  M22.1027,17.8128 L22.1027,0.9508 Q22.1027,0.0508 21.2027,0.0508 L0.9061,0.0508 Q0.0061,0.0508 0.0061,0.9508 L0.0061,17.8128 Q0.0061,18.7128 0.9061,18.7128 L21.2027,18.7128 Q22.1027,18.7128 22.1027,17.8128 Z" style="stroke-width: 3.1200; stroke: #ffffff; stroke-dasharray: none; stroke-linecap: round; stroke-linejoin: round; fill: none; "/>
    <g xmlns="http://www.w3.org/2000/svg" xmlns:xlink="http://www.w3.org/1999/xlink" id="Layer1253">
      <defs>
        <linearGradient id="grad435">
          <stop offset="0%" stop-color="#ffff00" stop-opacity="1.0000"/>
          <stop offset="100%" stop-color="#ff6600" stop-opacity="1.0000"/>
        </linearGradient>
        <linearGradient xlink:href="#grad435" id="grad436" x1="0" y1="0" x2="0" y2="1" gradientTransform="rotate(45 .5 .5)" gradientUnits="objectBoundingBox">
  </linearGradient>
      </defs>
      <path d="  M22.1733,17.8128 L22.1733,0.9508 Q22.1733,0.0508 21.2733,0.0508 L0.9767,0.0508 Q0.0767,0.0508 0.0767,0.9508 L0.0767,17.8128 Q0.0767,18.7128 0.9767,18.7128 L21.2733,18.7128 Q22.1733,18.7128 22.1733,17.8128 Z" style="stroke-width: 0.7200; stroke-linecap: round; stroke-linejoin: round; fill-rule: evenodd; fill: url(#grad436); "/>
      <path d="  M22.1733,17.8128 L22.1733,0.9508 Q22.1733,0.0508 21.2733,0.0508 L0.9767,0.0508 Q0.0767,0.0508 0.0767,0.9508 L0.0767,17.8128 Q0.0767,18.7128 0.9767,18.7128 L21.2733,18.7128 Q22.1733,18.7128 22.1733,17.8128 Z" style="stroke-width: 0.7200; stroke: #3366cc; stroke-dasharray: none; stroke-linecap: round; stroke-linejoin: round; fill: none; "/>
    </g>
    <path xmlns="http://www.w3.org/2000/svg" d="  M0.4186,18.3624 L5.7814,18.3624 L5.7814,3.2222 L0.4186,3.2222 L0.4186,18.3624 Z" style="fill-rule: evenodd; fill: #80b4ff; "/>
    <path xmlns="http://www.w3.org/2000/svg" d="  M0.0000,0.9849 L0.0767,3.3857 L22.1733,3.3088 L22.2500,0.9849 A0.9821,0.9849 0.0000 0,0 21.2679,0.0000 L0.9821,0.0000 A0.9821,0.9849 0.0000 0,0 0.0000,0.9849 Z" style="fill-rule: evenodd; fill: #0066ff; "/>
    <path xmlns="http://www.w3.org/2000/svg" d="  M22.1027,17.8128 L22.1027,0.9508 Q22.1027,0.0508 21.2027,0.0508 L0.9061,0.0508 Q0.0061,0.0508 0.0061,0.9508 L0.0061,17.8128 Q0.0061,18.7128 0.9061,18.7128 L21.2027,18.7128 Q22.1027,18.7128 22.1027,17.8128 Z" style="stroke-width: 0.7200; stroke: #0099ff; stroke-dasharray: none; stroke-linecap: round; stroke-linejoin: round; fill: none; "/>
    <path xmlns="http://www.w3.org/2000/svg" d="  M19.2891,2.6157 L21.1304,2.6157 L21.1304,0.7689 L19.2891,0.7689 L19.2891,2.6157 Z" style="fill-rule: evenodd; fill: #ff3300; "/>
    <path xmlns="http://www.w3.org/2000/svg" d="  M16.5270,2.6157 L18.3684,2.6157 L18.3684,0.7689 L16.5270,0.7689 L16.5270,2.6157 Z" style="fill-rule: evenodd; fill: #ffffff; "/>
    <path xmlns="http://www.w3.org/2000/svg" d="  M13.7649,2.6157 L15.6063,2.6157 L15.6063,0.7689 L13.7649,0.7689 L13.7649,2.6157 Z" style="fill-rule: evenodd; fill: #ffffff; "/>
    <path xmlns="http://www.w3.org/2000/svg" d="  M13.7570,14.9365 L13.7570,8.6146" style="stroke-width: 0.5000; stroke: #3366cc; stroke-dasharray: none; stroke-linecap: round; stroke-linejoin: round; fill: none; "/>
    <path xmlns="http://www.w3.org/2000/svg" d="  M19.2833,12.1597 L8.6303,12.1597" style="stroke-width: 0.5000; stroke: #3366cc; stroke-dasharray: none; stroke-linecap: round; stroke-linejoin: round; fill: none; "/>
    <path xmlns="http://www.w3.org/2000/svg" d="  M8.6303,14.9365 L8.6303,12.1597" style="stroke-width: 0.5000; stroke: #3366cc; stroke-dasharray: none; stroke-linecap: round; stroke-linejoin: round; fill: none; "/>
    <path xmlns="http://www.w3.org/2000/svg" d="  M19.2833,14.9365 L19.2833,12.1597" style="stroke-width: 0.5000; stroke: #3366cc; stroke-dasharray: none; stroke-linecap: round; stroke-linejoin: round; fill: none; "/>
    <defs xmlns="http://www.w3.org/2000/svg">
      <radialGradient id="grad437" cx="0.0000%" cy="0.0000%" r="100.0000%">
        <stop offset="0%" stop-color="#99ccff" stop-opacity="1.0000"/>
        <stop offset="100%" stop-color="#0066ff" stop-opacity="1.0000"/>
      </radialGradient>
    </defs>
    <path xmlns="http://www.w3.org/2000/svg" d="  M11.0744,10.2162 L16.5072,10.2162 L16.5072,5.0492 L11.0744,5.0492 L11.0744,10.2162 Z" style="fill-rule: evenodd; fill: url(#grad437); "/>
    <defs xmlns="http://www.w3.org/2000/svg">
      <radialGradient id="grad438" cx="0.0000%" cy="0.0000%" r="100.0000%">
        <stop offset="0%" stop-color="#99ccff" stop-opacity="1.0000"/>
        <stop offset="100%" stop-color="#0066ff" stop-opacity="1.0000"/>
      </radialGradient>
    </defs>
    <path xmlns="http://www.w3.org/2000/svg" d="  M12.4423,16.8711 L15.1393,16.8711 L15.1393,14.1737 L12.4423,14.1737 L12.4423,16.8711 Z" style="fill-rule: evenodd; fill: url(#grad438); "/>
    <defs xmlns="http://www.w3.org/2000/svg">
      <radialGradient id="grad439" cx="0.0000%" cy="0.0000%" r="100.0000%">
        <stop offset="0%" stop-color="#99ccff" stop-opacity="1.0000"/>
        <stop offset="100%" stop-color="#0066ff" stop-opacity="1.0000"/>
      </radialGradient>
    </defs>
    <path xmlns="http://www.w3.org/2000/svg" d="  M7.1975,16.8711 L9.8945,16.8711 L9.8945,14.1737 L7.1975,14.1737 L7.1975,16.8711 Z" style="fill-rule: evenodd; fill: url(#grad439); "/>
    <defs xmlns="http://www.w3.org/2000/svg">
      <radialGradient id="grad440" cx="0.0000%" cy="0.0000%" r="100.0000%">
        <stop offset="0%" stop-color="#99ccff" stop-opacity="1.0000"/>
        <stop offset="100%" stop-color="#0066ff" stop-opacity="1.0000"/>
      </radialGradient>
    </defs>
    <path xmlns="http://www.w3.org/2000/svg" d="  M17.8169,16.8711 L20.5138,16.8711 L20.5138,14.1737 L17.8169,14.1737 L17.8169,16.8711 Z" style="fill-rule: evenodd; fill: url(#grad440); "/>
    <!--converted by libvisio2svg-->
  </g>
</svg>
