<svg xmlns="http://www.w3.org/2000/svg" xmlns:xlink="http://www.w3.org/1999/xlink" version="1.1" width="0.4583000000" height="0.3854000000" viewBox="0 0 33.0000 27.7500">
  <title><![CDATA[Sub site]]></title>
  <g transform=" scale(1.000000) ">
    <path xmlns="http://www.w3.org/2000/svg" d="  M32.7815,26.8500 L32.7815,0.9753 Q32.7815,0.0753 31.8815,0.0753 L0.9091,0.0753 Q0.0091,0.0753 0.0091,0.9753 L0.0091,26.8500 Q0.0091,27.7500 0.9091,27.7500 L31.8815,27.7500 Q32.7815,27.7500 32.7815,26.8500 Z" style="stroke-width: 3.1200; stroke: #ffffff; stroke-dasharray: none; stroke-linecap: round; stroke-linejoin: round; fill: none; "/>
    <g xmlns="http://www.w3.org/2000/svg" xmlns:xlink="http://www.w3.org/1999/xlink" id="Layer1252">
      <defs>
        <linearGradient id="grad429">
          <stop offset="0%" stop-color="#ffff00" stop-opacity="1.0000"/>
          <stop offset="100%" stop-color="#ff6600" stop-opacity="1.0000"/>
        </linearGradient>
        <linearGradient xlink:href="#grad429" id="grad430" x1="0" y1="0" x2="0" y2="1" gradientTransform="rotate(45 .5 .5)" gradientUnits="objectBoundingBox">
  </linearGradient>
      </defs>
      <path d="  M32.8862,26.8500 L32.8862,0.9753 Q32.8862,0.0753 31.9862,0.0753 L1.0138,0.0753 Q0.1138,0.0753 0.1138,0.9753 L0.1138,26.8500 Q0.1138,27.7500 1.0138,27.7500 L31.9862,27.7500 Q32.8862,27.7500 32.8862,26.8500 Z" style="stroke-width: 0.7200; stroke-linecap: round; stroke-linejoin: round; fill-rule: evenodd; fill: url(#grad430); "/>
      <path d="  M32.8862,26.8500 L32.8862,0.9753 Q32.8862,0.0753 31.9862,0.0753 L1.0138,0.0753 Q0.1138,0.0753 0.1138,0.9753 L0.1138,26.8500 Q0.1138,27.7500 1.0138,27.7500 L31.9862,27.7500 Q32.8862,27.7500 32.8862,26.8500 Z" style="stroke-width: 0.7200; stroke: #3366cc; stroke-dasharray: none; stroke-linecap: round; stroke-linejoin: round; fill: none; "/>
    </g>
    <path xmlns="http://www.w3.org/2000/svg" d="  M0.2812,27.4687 L8.5747,27.4687 L8.5747,4.7783 L0.2812,4.7783 L0.2812,27.4687 Z" style="fill-rule: evenodd; fill: #80b4ff; "/>
    <path xmlns="http://www.w3.org/2000/svg" d="  M0.0000,1.4606 L0.1138,5.0208 L32.8862,4.9067 L33.0000,1.4606 A1.4566,1.4606 0.0000 0,0 31.5434,0.0000 L1.4566,0.0000 A1.4566,1.4606 0.0000 0,0 0.0000,1.4606 Z" style="fill-rule: evenodd; fill: #0066ff; "/>
    <path xmlns="http://www.w3.org/2000/svg" d="  M32.7815,26.8500 L32.7815,0.9753 Q32.7815,0.0753 31.8815,0.0753 L0.9091,0.0753 Q0.0091,0.0753 0.0091,0.9753 L0.0091,26.8500 Q0.0091,27.7500 0.9091,27.7500 L31.8815,27.7500 Q32.7815,27.7500 32.7815,26.8500 Z" style="stroke-width: 0.7200; stroke: #0099ff; stroke-dasharray: none; stroke-linecap: round; stroke-linejoin: round; fill: none; "/>
    <path xmlns="http://www.w3.org/2000/svg" d="  M28.6085,3.8789 L31.3395,3.8789 L31.3395,1.1403 L28.6085,1.1403 L28.6085,3.8789 Z" style="fill-rule: evenodd; fill: #ff3300; "/>
    <path xmlns="http://www.w3.org/2000/svg" d="  M24.5119,3.8789 L27.2430,3.8789 L27.2430,1.1403 L24.5119,1.1403 L24.5119,3.8789 Z" style="fill-rule: evenodd; fill: #ffffff; "/>
    <path xmlns="http://www.w3.org/2000/svg" d="  M20.4154,3.8789 L23.1464,3.8789 L23.1464,1.1403 L20.4154,1.1403 L20.4154,3.8789 Z" style="fill-rule: evenodd; fill: #ffffff; "/>
    <path xmlns="http://www.w3.org/2000/svg" d="  M20.4036,22.1500 L20.4036,12.7750" style="stroke-width: 0.5000; stroke: #3366cc; stroke-dasharray: none; stroke-linecap: round; stroke-linejoin: round; fill: none; "/>
    <path xmlns="http://www.w3.org/2000/svg" d="  M28.6000,18.0321 L12.8000,18.0321" style="stroke-width: 0.5000; stroke: #3366cc; stroke-dasharray: none; stroke-linecap: round; stroke-linejoin: round; fill: none; "/>
    <path xmlns="http://www.w3.org/2000/svg" d="  M12.8000,22.1500 L12.8000,18.0321" style="stroke-width: 0.5000; stroke: #3366cc; stroke-dasharray: none; stroke-linecap: round; stroke-linejoin: round; fill: none; "/>
    <path xmlns="http://www.w3.org/2000/svg" d="  M28.6000,22.1500 L28.6000,18.0321" style="stroke-width: 0.5000; stroke: #3366cc; stroke-dasharray: none; stroke-linecap: round; stroke-linejoin: round; fill: none; "/>
    <defs xmlns="http://www.w3.org/2000/svg">
      <radialGradient id="grad431" cx="0.0000%" cy="0.0000%" r="100.0000%">
        <stop offset="0%" stop-color="#99ccff" stop-opacity="1.0000"/>
        <stop offset="100%" stop-color="#0066ff" stop-opacity="1.0000"/>
      </radialGradient>
    </defs>
    <path xmlns="http://www.w3.org/2000/svg" d="  M16.4250,15.1500 L24.4826,15.1500 L24.4826,7.4876 L16.4250,7.4876 L16.4250,15.1500 Z" style="fill-rule: evenodd; fill: url(#grad431); "/>
    <defs xmlns="http://www.w3.org/2000/svg">
      <radialGradient id="grad432" cx="0.0000%" cy="0.0000%" r="100.0000%">
        <stop offset="0%" stop-color="#99ccff" stop-opacity="1.0000"/>
        <stop offset="100%" stop-color="#0066ff" stop-opacity="1.0000"/>
      </radialGradient>
    </defs>
    <path xmlns="http://www.w3.org/2000/svg" d="  M18.4538,25.0188 L22.4538,25.0188 L22.4538,21.0188 L18.4538,21.0188 L18.4538,25.0188 Z" style="fill-rule: evenodd; fill: url(#grad432); "/>
    <defs xmlns="http://www.w3.org/2000/svg">
      <radialGradient id="grad433" cx="0.0000%" cy="0.0000%" r="100.0000%">
        <stop offset="0%" stop-color="#99ccff" stop-opacity="1.0000"/>
        <stop offset="100%" stop-color="#0066ff" stop-opacity="1.0000"/>
      </radialGradient>
    </defs>
    <path xmlns="http://www.w3.org/2000/svg" d="  M10.6750,25.0188 L14.6750,25.0188 L14.6750,21.0188 L10.6750,21.0188 L10.6750,25.0188 Z" style="fill-rule: evenodd; fill: url(#grad433); "/>
    <defs xmlns="http://www.w3.org/2000/svg">
      <radialGradient id="grad434" cx="0.0000%" cy="0.0000%" r="100.0000%">
        <stop offset="0%" stop-color="#99ccff" stop-opacity="1.0000"/>
        <stop offset="100%" stop-color="#0066ff" stop-opacity="1.0000"/>
      </radialGradient>
    </defs>
    <path xmlns="http://www.w3.org/2000/svg" d="  M26.4250,25.0188 L30.4250,25.0188 L30.4250,21.0188 L26.4250,21.0188 L26.4250,25.0188 Z" style="fill-rule: evenodd; fill: url(#grad434); "/>
    <!--converted by libvisio2svg-->
  </g>
</svg>
