<svg xmlns="http://www.w3.org/2000/svg" xmlns:xlink="http://www.w3.org/1999/xlink" version="1.1" width="0.7033000000" height="0.1370000000" viewBox="0 0 50.6357 9.8652">
  <title><![CDATA[Tunnel-Sm]]></title>
  <g transform=" scale(1.000000) ">
    <g xmlns="http://www.w3.org/2000/svg" id="Layer1393">
      <path d="  M3.4375,9.4013 L2.8396,9.2445 L2.2418,9.0877 L1.6440,8.6173 L1.0462,7.9901 L0.5978,7.3629 L0.2989,6.5789 L0.1495,5.7950 L0.0000,4.8542 L0.1495,4.0702 L0.2989,3.1294 L0.5978,2.5022 L1.0462,1.7183 L1.6440,1.2479 L2.2418,0.7775 L2.8396,0.4639 L3.4375,0.4639 L4.1847,0.4639 L4.7826,0.7775 L5.3804,1.2479 L5.8287,1.7183 L6.2771,2.5022 L6.5760,3.1294 L6.8749,4.0702 L6.8749,4.8542 L6.8749,5.7950 L6.5760,6.5789 L6.2771,7.3629 L5.8287,7.9901 L5.3804,8.6173 L4.7826,9.0877 L4.1847,9.2445 L3.4375,9.4013 Z" style="stroke-width: 2.4000; stroke-linecap: round; stroke-linejoin: round; fill-rule: evenodd; fill: #ffffff; "/>
      <path d="  M3.4375,9.4013 L2.8396,9.2445 L2.2418,9.0877 L1.6440,8.6173 L1.0462,7.9901 L0.5978,7.3629 L0.2989,6.5789 L0.1495,5.7950 L0.0000,4.8542 L0.1495,4.0702 L0.2989,3.1294 L0.5978,2.5022 L1.0462,1.7183 L1.6440,1.2479 L2.2418,0.7775 L2.8396,0.4639 L3.4375,0.4639 L4.1847,0.4639 L4.7826,0.7775 L5.3804,1.2479 L5.8287,1.7183 L6.2771,2.5022 L6.5760,3.1294 L6.8749,4.0702 L6.8749,4.8542 L6.8749,5.7950 L6.5760,6.5789 L6.2771,7.3629 L5.8287,7.9901 L5.3804,8.6173 L4.7826,9.0877 L4.1847,9.2445 L3.4375,9.4013 Z" style="stroke-width: 2.4000; stroke: #ffffff; stroke-dasharray: none; stroke-linecap: round; stroke-linejoin: round; fill: none; "/>
    </g>
    <g xmlns="http://www.w3.org/2000/svg" xmlns:xlink="http://www.w3.org/1999/xlink" id="Layer1394">
      <defs>
        <linearGradient id="grad576">
          <stop offset="0%" stop-color="#0066ff" stop-opacity="1.0000"/>
          <stop offset="50%" stop-color="#c0e5ff" stop-opacity="1.0000"/>
          <stop offset="100%" stop-color="#0066ff" stop-opacity="1.0000"/>
        </linearGradient>
        <linearGradient xlink:href="#grad576" id="grad577" x1="0" y1="0" x2="0" y2="1" gradientTransform="rotate(-0 .5 .5)" gradientUnits="objectBoundingBox">
  </linearGradient>
      </defs>
      <path d="  M2.7500,0.0000 L3.6051,0.0000 L4.2892,0.3461 L4.8022,0.8654 L5.4863,1.3846 L5.8283,2.2500 L6.1704,2.9422 L6.3414,3.9807 L6.5124,4.8460 L6.3414,5.8845 L6.1704,6.7499 L5.8283,7.6152 L5.4863,8.3075 L4.8022,8.9998 L4.2892,9.5190 L3.6051,9.6921 L2.7500,9.8652 L46.7023,9.8652 L47.3863,9.6921 L48.2414,9.5190 L48.7545,8.9998 L49.4386,8.3075 L49.9516,7.6152 L50.2937,6.7499 L50.4647,5.8845 L50.6357,4.8460 L50.4647,3.9807 L50.2937,2.9422 L49.9516,2.2500 L49.4386,1.3846 L48.7545,0.8654 L48.2414,0.3461 L47.3863,0.0000 L46.7023,0.0000 L2.7500,0.0000 Z" style="stroke-width: 1.2000; stroke-linecap: round; stroke-linejoin: round; fill-rule: evenodd; fill: url(#grad577); "/>
      <path d="  M2.7500,0.0000 L3.6051,0.0000 L4.2892,0.3461 L4.8022,0.8654 L5.4863,1.3846 L5.8283,2.2500 L6.1704,2.9422 L6.3414,3.9807 L6.5124,4.8460 L6.3414,5.8845 L6.1704,6.7499 L5.8283,7.6152 L5.4863,8.3075 L4.8022,8.9998 L4.2892,9.5190 L3.6051,9.6921 L2.7500,9.8652 L46.7023,9.8652 L47.3863,9.6921 L48.2414,9.5190 L48.7545,8.9998 L49.4386,8.3075 L49.9516,7.6152 L50.2937,6.7499 L50.4647,5.8845 L50.6357,4.8460 L50.4647,3.9807 L50.2937,2.9422 L49.9516,2.2500 L49.4386,1.3846 L48.7545,0.8654 L48.2414,0.3461 L47.3863,0.0000 L46.7023,0.0000 L2.7500,0.0000 Z" style="stroke-width: 1.2000; stroke: #ffffff; stroke-dasharray: none; stroke-linecap: round; stroke-linejoin: round; fill: none; "/>
    </g>
    <g xmlns="http://www.w3.org/2000/svg" xmlns:xlink="http://www.w3.org/1999/xlink" id="Layer1395">
      <defs>
        <linearGradient id="grad578">
          <stop offset="0%" stop-color="#000099" stop-opacity="1.0000"/>
          <stop offset="100%" stop-color="#c0e5ff" stop-opacity="1.0000"/>
        </linearGradient>
        <linearGradient xlink:href="#grad578" id="grad579" x1="0" y1="0" x2="0" y2="1" gradientTransform="rotate(-0 .5 .5)" gradientUnits="objectBoundingBox">
  </linearGradient>
      </defs>
      <path d="  M3.4375,9.4013 L2.8396,9.2445 L2.2418,9.0877 L1.6440,8.6173 L1.0462,7.9901 L0.5978,7.3629 L0.2989,6.5789 L0.1495,5.7950 L0.0000,4.8542 L0.1495,4.0702 L0.2989,3.1294 L0.5978,2.5022 L1.0462,1.7183 L1.6440,1.2479 L2.2418,0.7775 L2.8396,0.4639 L3.4375,0.4639 L4.1847,0.4639 L4.7826,0.7775 L5.3804,1.2479 L5.8287,1.7183 L6.2771,2.5022 L6.5760,3.1294 L6.8749,4.0702 L6.8749,4.8542 L6.8749,5.7950 L6.5760,6.5789 L6.2771,7.3629 L5.8287,7.9901 L5.3804,8.6173 L4.7826,9.0877 L4.1847,9.2445 L3.4375,9.4013 Z" style="stroke-width: 0.7200; stroke-linecap: round; stroke-linejoin: round; fill-rule: evenodd; fill: url(#grad579); "/>
      <path d="  M3.4375,9.4013 L2.8396,9.2445 L2.2418,9.0877 L1.6440,8.6173 L1.0462,7.9901 L0.5978,7.3629 L0.2989,6.5789 L0.1495,5.7950 L0.0000,4.8542 L0.1495,4.0702 L0.2989,3.1294 L0.5978,2.5022 L1.0462,1.7183 L1.6440,1.2479 L2.2418,0.7775 L2.8396,0.4639 L3.4375,0.4639 L4.1847,0.4639 L4.7826,0.7775 L5.3804,1.2479 L5.8287,1.7183 L6.2771,2.5022 L6.5760,3.1294 L6.8749,4.0702 L6.8749,4.8542 L6.8749,5.7950 L6.5760,6.5789 L6.2771,7.3629 L5.8287,7.9901 L5.3804,8.6173 L4.7826,9.0877 L4.1847,9.2445 L3.4375,9.4013 Z" style="stroke-width: 0.7200; stroke: #ffffff; stroke-dasharray: none; stroke-linecap: round; stroke-linejoin: round; fill: none; "/>
    </g>
    <!--converted by libvisio2svg-->
  </g>
</svg>
