<svg xmlns="http://www.w3.org/2000/svg" xmlns:xlink="http://www.w3.org/1999/xlink" version="1.1" width="1.0230000000" height="0.1993000000" viewBox="0 0 73.6527 14.3495">
  <title><![CDATA[Tunnel]]></title>
  <g transform=" scale(1.000000) ">
    <g xmlns="http://www.w3.org/2000/svg" id="Layer1387">
      <path d="  M5.0000,13.6747 L4.1304,13.4467 L3.2609,13.2186 L2.3913,12.5344 L1.5217,11.6221 L0.8696,10.7098 L0.4348,9.5695 L0.2174,8.4291 L0.0000,7.0607 L0.2174,5.9204 L0.4348,4.5519 L0.8696,3.6397 L1.5217,2.4993 L2.3913,1.8151 L3.2609,1.1309 L4.1304,0.6747 L5.0000,0.6747 L6.0870,0.6747 L6.9565,1.1309 L7.8261,1.8151 L8.4783,2.4993 L9.1304,3.6397 L9.5652,4.5519 L10.0000,5.9204 L10.0000,7.0607 L10.0000,8.4291 L9.5652,9.5695 L9.1304,10.7098 L8.4783,11.6221 L7.8261,12.5344 L6.9565,13.2186 L6.0870,13.4467 L5.0000,13.6747 Z" style="stroke-width: 2.4000; stroke-linecap: round; stroke-linejoin: round; fill-rule: evenodd; fill: #ffffff; "/>
      <path d="  M5.0000,13.6747 L4.1304,13.4467 L3.2609,13.2186 L2.3913,12.5344 L1.5217,11.6221 L0.8696,10.7098 L0.4348,9.5695 L0.2174,8.4291 L0.0000,7.0607 L0.2174,5.9204 L0.4348,4.5519 L0.8696,3.6397 L1.5217,2.4993 L2.3913,1.8151 L3.2609,1.1309 L4.1304,0.6747 L5.0000,0.6747 L6.0870,0.6747 L6.9565,1.1309 L7.8261,1.8151 L8.4783,2.4993 L9.1304,3.6397 L9.5652,4.5519 L10.0000,5.9204 L10.0000,7.0607 L10.0000,8.4291 L9.5652,9.5695 L9.1304,10.7098 L8.4783,11.6221 L7.8261,12.5344 L6.9565,13.2186 L6.0870,13.4467 L5.0000,13.6747 Z" style="stroke-width: 2.4000; stroke: #ffffff; stroke-dasharray: none; stroke-linecap: round; stroke-linejoin: round; fill: none; "/>
    </g>
    <g xmlns="http://www.w3.org/2000/svg" xmlns:xlink="http://www.w3.org/1999/xlink" id="Layer1388">
      <defs>
        <linearGradient id="grad568">
          <stop offset="0%" stop-color="#0066ff" stop-opacity="1.0000"/>
          <stop offset="50%" stop-color="#c0e5ff" stop-opacity="1.0000"/>
          <stop offset="100%" stop-color="#0066ff" stop-opacity="1.0000"/>
        </linearGradient>
        <linearGradient xlink:href="#grad568" id="grad569" x1="0" y1="0" x2="0" y2="1" gradientTransform="rotate(-0 .5 .5)" gradientUnits="objectBoundingBox">
  </linearGradient>
      </defs>
      <path d="  M4.0000,0.0000 L5.2438,0.0000 L6.2388,0.5035 L6.9851,1.2587 L7.9802,2.0140 L8.4777,3.2727 L8.9752,4.2797 L9.2240,5.7901 L9.4727,7.0489 L9.2240,8.5593 L8.9752,9.8181 L8.4777,11.0768 L7.9802,12.0838 L6.9851,13.0908 L6.2388,13.8460 L5.2438,14.0977 L4.0000,14.3495 L67.9313,14.3495 L68.9263,14.0977 L70.1701,13.8460 L70.9164,13.0908 L71.9114,12.0838 L72.6577,11.0768 L73.1552,9.8181 L73.4040,8.5593 L73.6527,7.0489 L73.4040,5.7901 L73.1552,4.2797 L72.6577,3.2727 L71.9114,2.0140 L70.9164,1.2587 L70.1701,0.5035 L68.9263,0.0000 L67.9313,0.0000 L4.0000,0.0000 Z" style="stroke-width: 1.2000; stroke-linecap: round; stroke-linejoin: round; fill-rule: evenodd; fill: url(#grad569); "/>
      <path d="  M4.0000,0.0000 L5.2438,0.0000 L6.2388,0.5035 L6.9851,1.2587 L7.9802,2.0140 L8.4777,3.2727 L8.9752,4.2797 L9.2240,5.7901 L9.4727,7.0489 L9.2240,8.5593 L8.9752,9.8181 L8.4777,11.0768 L7.9802,12.0838 L6.9851,13.0908 L6.2388,13.8460 L5.2438,14.0977 L4.0000,14.3495 L67.9313,14.3495 L68.9263,14.0977 L70.1701,13.8460 L70.9164,13.0908 L71.9114,12.0838 L72.6577,11.0768 L73.1552,9.8181 L73.4040,8.5593 L73.6527,7.0489 L73.4040,5.7901 L73.1552,4.2797 L72.6577,3.2727 L71.9114,2.0140 L70.9164,1.2587 L70.1701,0.5035 L68.9263,0.0000 L67.9313,0.0000 L4.0000,0.0000 Z" style="stroke-width: 1.2000; stroke: #ffffff; stroke-dasharray: none; stroke-linecap: round; stroke-linejoin: round; fill: none; "/>
    </g>
    <g xmlns="http://www.w3.org/2000/svg" xmlns:xlink="http://www.w3.org/1999/xlink" id="Layer1389">
      <defs>
        <linearGradient id="grad570">
          <stop offset="0%" stop-color="#000099" stop-opacity="1.0000"/>
          <stop offset="100%" stop-color="#c0e5ff" stop-opacity="1.0000"/>
        </linearGradient>
        <linearGradient xlink:href="#grad570" id="grad571" x1="0" y1="0" x2="0" y2="1" gradientTransform="rotate(-0 .5 .5)" gradientUnits="objectBoundingBox">
  </linearGradient>
      </defs>
      <path d="  M5.0000,13.6747 L4.1304,13.4467 L3.2609,13.2186 L2.3913,12.5344 L1.5217,11.6221 L0.8696,10.7098 L0.4348,9.5695 L0.2174,8.4291 L0.0000,7.0607 L0.2174,5.9204 L0.4348,4.5519 L0.8696,3.6397 L1.5217,2.4993 L2.3913,1.8151 L3.2609,1.1309 L4.1304,0.6747 L5.0000,0.6747 L6.0870,0.6747 L6.9565,1.1309 L7.8261,1.8151 L8.4783,2.4993 L9.1304,3.6397 L9.5652,4.5519 L10.0000,5.9204 L10.0000,7.0607 L10.0000,8.4291 L9.5652,9.5695 L9.1304,10.7098 L8.4783,11.6221 L7.8261,12.5344 L6.9565,13.2186 L6.0870,13.4467 L5.0000,13.6747 Z" style="stroke-width: 0.7200; stroke-linecap: round; stroke-linejoin: round; fill-rule: evenodd; fill: url(#grad571); "/>
      <path d="  M5.0000,13.6747 L4.1304,13.4467 L3.2609,13.2186 L2.3913,12.5344 L1.5217,11.6221 L0.8696,10.7098 L0.4348,9.5695 L0.2174,8.4291 L0.0000,7.0607 L0.2174,5.9204 L0.4348,4.5519 L0.8696,3.6397 L1.5217,2.4993 L2.3913,1.8151 L3.2609,1.1309 L4.1304,0.6747 L5.0000,0.6747 L6.0870,0.6747 L6.9565,1.1309 L7.8261,1.8151 L8.4783,2.4993 L9.1304,3.6397 L9.5652,4.5519 L10.0000,5.9204 L10.0000,7.0607 L10.0000,8.4291 L9.5652,9.5695 L9.1304,10.7098 L8.4783,11.6221 L7.8261,12.5344 L6.9565,13.2186 L6.0870,13.4467 L5.0000,13.6747 Z" style="stroke-width: 0.7200; stroke: #ffffff; stroke-dasharray: none; stroke-linecap: round; stroke-linejoin: round; fill: none; "/>
    </g>
    <!--converted by libvisio2svg-->
  </g>
</svg>
