<svg xmlns="http://www.w3.org/2000/svg" xmlns:xlink="http://www.w3.org/1999/xlink" version="1.1" width="0.6291000000" height="0.4304000000" viewBox="0 0 45.2982 30.9895">
  <title><![CDATA[Tunnel (angled)-Sm]]></title>
  <g transform=" scale(1.000000) ">
    <g xmlns="http://www.w3.org/2000/svg" id="Layer1396">
      <path d="  M43.8581,22.5040 L44.2975,22.9387 L44.7368,23.3734 L45.0193,24.0796 L45.2235,24.9217 L45.2982,25.6890 L45.1650,26.5174 L44.9025,27.2711 L44.5615,28.1606 L44.0401,28.7648 L43.4403,29.5048 L42.8678,29.8985 L42.0875,30.3533 L41.3346,30.4618 L40.5817,30.5702 L39.9072,30.5429 L39.3894,30.2440 L38.7423,29.8703 L38.3813,29.2998 L38.0988,28.5936 L37.9457,27.9620 L37.9494,27.0589 L38.0041,26.3663 L38.2157,25.4021 L38.6077,24.7231 L39.0780,23.9084 L39.7289,23.3789 L40.3798,22.8494 L41.0816,22.5304 L41.7835,22.2114 L42.5365,22.1030 L43.1326,22.2661 L43.8581,22.5040 Z" style="stroke-width: 2.4000; stroke-linecap: round; stroke-linejoin: round; fill-rule: evenodd; fill: #ffffff; "/>
      <path d="  M43.8581,22.5040 L44.2975,22.9387 L44.7368,23.3734 L45.0193,24.0796 L45.2235,24.9217 L45.2982,25.6890 L45.1650,26.5174 L44.9025,27.2711 L44.5615,28.1606 L44.0401,28.7648 L43.4403,29.5048 L42.8678,29.8985 L42.0875,30.3533 L41.3346,30.4618 L40.5817,30.5702 L39.9072,30.5429 L39.3894,30.2440 L38.7423,29.8703 L38.3813,29.2998 L38.0988,28.5936 L37.9457,27.9620 L37.9494,27.0589 L38.0041,26.3663 L38.2157,25.4021 L38.6077,24.7231 L39.0780,23.9084 L39.7289,23.3789 L40.3798,22.8494 L41.0816,22.5304 L41.7835,22.2114 L42.5365,22.1030 L43.1326,22.2661 L43.8581,22.5040 Z" style="stroke-width: 2.4000; stroke: #ffffff; stroke-dasharray: none; stroke-linecap: round; stroke-linejoin: round; fill: none; "/>
    </g>
    <g xmlns="http://www.w3.org/2000/svg" xmlns:xlink="http://www.w3.org/1999/xlink" id="Layer1397">
      <defs>
        <linearGradient id="grad580">
          <stop offset="0%" stop-color="#0066ff" stop-opacity="1.0000"/>
          <stop offset="50%" stop-color="#c0e5ff" stop-opacity="1.0000"/>
          <stop offset="100%" stop-color="#0066ff" stop-opacity="1.0000"/>
        </linearGradient>
        <linearGradient xlink:href="#grad580" id="grad581" x1="0" y1="0" x2="0" y2="1" gradientTransform="rotate(-0 .5 .5)" gradientUnits="objectBoundingBox">
  </linearGradient>
      </defs>
      <path d="  M39.7529,30.9895 L39.0123,30.5619 L38.5930,29.9201 L38.4083,29.2139 L38.0754,28.4222 L38.2119,27.5018 L38.2618,26.7312 L38.6329,25.7464 L38.9175,24.9114 L39.5848,24.0976 L40.1656,23.4337 L40.8945,22.8553 L41.5369,22.4268 L42.4755,22.1693 L43.1794,21.9761 L43.8584,22.1683 L44.6855,22.4460 L6.6217,0.4698 L5.9427,0.2777 L5.1156,0.0000 L4.4117,0.1931 L3.4731,0.4506 L2.6826,0.7936 L1.9537,1.3720 L1.3729,2.0360 L0.7056,2.8498 L0.4210,3.6847 L0.0499,4.6695 L0.0000,5.4401 L0.0116,6.4461 L0.3445,7.2378 L0.5292,7.9439 L1.0966,8.6713 L1.6891,9.0133 L39.7529,30.9895 Z" style="stroke-width: 1.2000; stroke-linecap: round; stroke-linejoin: round; fill-rule: evenodd; fill: url(#grad581); "/>
      <path d="  M39.7529,30.9895 L39.0123,30.5619 L38.5930,29.9201 L38.4083,29.2139 L38.0754,28.4222 L38.2119,27.5018 L38.2618,26.7312 L38.6329,25.7464 L38.9175,24.9114 L39.5848,24.0976 L40.1656,23.4337 L40.8945,22.8553 L41.5369,22.4268 L42.4755,22.1693 L43.1794,21.9761 L43.8584,22.1683 L44.6855,22.4460 L6.6217,0.4698 L5.9427,0.2777 L5.1156,0.0000 L4.4117,0.1931 L3.4731,0.4506 L2.6826,0.7936 L1.9537,1.3720 L1.3729,2.0360 L0.7056,2.8498 L0.4210,3.6847 L0.0499,4.6695 L0.0000,5.4401 L0.0116,6.4461 L0.3445,7.2378 L0.5292,7.9439 L1.0966,8.6713 L1.6891,9.0133 L39.7529,30.9895 Z" style="stroke-width: 1.2000; stroke: #ffffff; stroke-dasharray: none; stroke-linecap: round; stroke-linejoin: round; fill: none; "/>
    </g>
    <g xmlns="http://www.w3.org/2000/svg" xmlns:xlink="http://www.w3.org/1999/xlink" id="Layer1398">
      <defs>
        <linearGradient id="grad582">
          <stop offset="0%" stop-color="#000099" stop-opacity="1.0000"/>
          <stop offset="100%" stop-color="#c0e5ff" stop-opacity="1.0000"/>
        </linearGradient>
        <linearGradient xlink:href="#grad582" id="grad583" x1="0" y1="0" x2="0" y2="1" gradientTransform="rotate(180 .5 .5)" gradientUnits="objectBoundingBox">
  </linearGradient>
      </defs>
      <path d="  M43.8581,22.5040 L44.2975,22.9387 L44.7368,23.3734 L45.0193,24.0796 L45.2235,24.9217 L45.2982,25.6890 L45.1650,26.5174 L44.9025,27.2711 L44.5615,28.1606 L44.0401,28.7648 L43.4403,29.5048 L42.8678,29.8985 L42.0875,30.3533 L41.3346,30.4618 L40.5817,30.5702 L39.9072,30.5429 L39.3894,30.2440 L38.7423,29.8703 L38.3813,29.2998 L38.0988,28.5936 L37.9457,27.9620 L37.9494,27.0589 L38.0041,26.3663 L38.2157,25.4021 L38.6077,24.7231 L39.0780,23.9084 L39.7289,23.3789 L40.3798,22.8494 L41.0816,22.5304 L41.7835,22.2114 L42.5365,22.1030 L43.1326,22.2661 L43.8581,22.5040 Z" style="stroke-width: 0.7200; stroke-linecap: round; stroke-linejoin: round; fill-rule: evenodd; fill: url(#grad583); "/>
      <path d="  M43.8581,22.5040 L44.2975,22.9387 L44.7368,23.3734 L45.0193,24.0796 L45.2235,24.9217 L45.2982,25.6890 L45.1650,26.5174 L44.9025,27.2711 L44.5615,28.1606 L44.0401,28.7648 L43.4403,29.5048 L42.8678,29.8985 L42.0875,30.3533 L41.3346,30.4618 L40.5817,30.5702 L39.9072,30.5429 L39.3894,30.2440 L38.7423,29.8703 L38.3813,29.2998 L38.0988,28.5936 L37.9457,27.9620 L37.9494,27.0589 L38.0041,26.3663 L38.2157,25.4021 L38.6077,24.7231 L39.0780,23.9084 L39.7289,23.3789 L40.3798,22.8494 L41.0816,22.5304 L41.7835,22.2114 L42.5365,22.1030 L43.1326,22.2661 L43.8581,22.5040 Z" style="stroke-width: 0.7200; stroke: #ffffff; stroke-dasharray: none; stroke-linecap: round; stroke-linejoin: round; fill: none; "/>
    </g>
    <!--converted by libvisio2svg-->
  </g>
</svg>
