<svg xmlns="http://www.w3.org/2000/svg" xmlns:xlink="http://www.w3.org/1999/xlink" version="1.1" width="0.3736000000" height="0.5455000000" viewBox="0 0 26.8987 39.2794">
  <title><![CDATA[Users]]></title>
  <g transform=" scale(1.000000) ">
    <g xmlns="http://www.w3.org/2000/svg" id="Layer1148">
      <path d="  M16.8904,3.4278 C16.8904,1.7139 18.6304,0.0000 20.3715,0.0000 C22.5466,0.0000 23.8516,1.7139 23.8516,3.4278 C23.8516,5.1427 22.5456,6.8566 20.3715,6.8566 C18.6304,6.8566 16.8904,5.1427 16.8904,3.4278 Z" style="stroke-width: 1.2000; stroke-linecap: round; stroke-linejoin: round; fill-rule: evenodd; fill: #ffffff; "/>
      <path d="  M16.8904,3.4278 C16.8904,1.7139 18.6304,0.0000 20.3715,0.0000 C22.5466,0.0000 23.8516,1.7139 23.8516,3.4278 C23.8516,5.1427 22.5456,6.8566 20.3715,6.8566 C18.6304,6.8566 16.8904,5.1427 16.8904,3.4278 Z" style="stroke-width: 1.2000; stroke: #ffffff; stroke-dasharray: none; stroke-linecap: round; stroke-linejoin: round; fill: none; "/>
    </g>
    <g xmlns="http://www.w3.org/2000/svg" id="Layer1149">
      <path d="  M16.8904,3.4278 C16.8904,1.7139 18.6304,0.0000 20.3715,0.0000 C22.5466,0.0000 23.8516,1.7139 23.8516,3.4278 C23.8516,4.2848 23.4166,5.1427 22.9816,5.9997 C26.8977,8.1416 26.8977,8.1416 26.8977,8.1416 C26.8977,17.5681 26.8977,17.5681 26.8977,17.5681 C25.5917,17.9971 25.5917,17.9971 25.5917,17.9971 C25.5917,29.1365 25.5917,29.1365 25.5917,29.1365 C21.6765,31.2794 21.6765,31.2794 21.6765,31.2794 C16.0193,28.2785 16.0193,28.2785 16.0193,28.2785 C16.0193,16.2822 16.0193,16.2822 16.0193,16.2822 C14.7143,15.4252 14.7143,15.4252 14.7143,15.4252 C14.7143,5.9997 14.7143,5.9997 14.7143,5.9997 C17.3244,4.7138 17.3244,4.7138 17.3244,4.7138 C16.8904,4.2848 16.8904,3.8578 16.8904,3.4278 Z" style="stroke-width: 0.7200; stroke-linecap: round; stroke-linejoin: round; fill-rule: evenodd; fill: #ffffff; "/>
      <path d="  M16.8904,3.4278 C16.8904,1.7139 18.6304,0.0000 20.3715,0.0000 C22.5466,0.0000 23.8516,1.7139 23.8516,3.4278 C23.8516,4.2848 23.4166,5.1427 22.9816,5.9997 C26.8977,8.1416 26.8977,8.1416 26.8977,8.1416 C26.8977,17.5681 26.8977,17.5681 26.8977,17.5681 C25.5917,17.9971 25.5917,17.9971 25.5917,17.9971 C25.5917,29.1365 25.5917,29.1365 25.5917,29.1365 C21.6765,31.2794 21.6765,31.2794 21.6765,31.2794 C16.0193,28.2785 16.0193,28.2785 16.0193,28.2785 C16.0193,16.2822 16.0193,16.2822 16.0193,16.2822 C14.7143,15.4252 14.7143,15.4252 14.7143,15.4252 C14.7143,5.9997 14.7143,5.9997 14.7143,5.9997 C17.3244,4.7138 17.3244,4.7138 17.3244,4.7138 C16.8904,4.2848 16.8904,3.8578 16.8904,3.4278 Z" style="stroke-width: 0.7200; stroke: #ffffff; stroke-dasharray: none; stroke-linecap: round; stroke-linejoin: round; fill: none; "/>
    </g>
    <g xmlns="http://www.w3.org/2000/svg" xmlns:xlink="http://www.w3.org/1999/xlink" id="Layer1150">
      <defs>
        <linearGradient id="grad245">
          <stop offset="0%" stop-color="#c0e5ff" stop-opacity="1.0000"/>
          <stop offset="100%" stop-color="#0099ff" stop-opacity="1.0000"/>
        </linearGradient>
        <linearGradient xlink:href="#grad245" id="grad246" x1="0" y1="0" x2="0" y2="1" gradientTransform="rotate(225 .5 .5)" gradientUnits="objectBoundingBox">
  </linearGradient>
      </defs>
      <path d="  M14.7143,5.9997 L19.0654,3.8578 L26.8987,8.1416 L22.9826,9.8555 L14.7143,5.9997 Z" style="stroke-width: 0.7200; stroke-linecap: round; stroke-linejoin: round; fill-rule: evenodd; fill: url(#grad246); "/>
      <path d="  M14.7143,5.9997 L19.0654,3.8578 L26.8987,8.1416 L22.9826,9.8555 L14.7143,5.9997 Z" style="stroke-width: 0.7200; stroke: #ffffff; stroke-dasharray: none; stroke-linecap: round; stroke-linejoin: round; fill: none; "/>
    </g>
    <g xmlns="http://www.w3.org/2000/svg" xmlns:xlink="http://www.w3.org/1999/xlink" id="Layer1151">
      <defs>
        <linearGradient id="grad247">
          <stop offset="0%" stop-color="#000099" stop-opacity="1.0000"/>
          <stop offset="100%" stop-color="#99c0ff" stop-opacity="1.0000"/>
        </linearGradient>
        <linearGradient xlink:href="#grad247" id="grad248" x1="0" y1="0" x2="0" y2="1" gradientTransform="rotate(135 .5 .5)" gradientUnits="objectBoundingBox">
  </linearGradient>
      </defs>
      <path d="  M21.6775,18.8530 L25.5927,16.7101 L25.5927,29.1355 L21.6775,31.2774 L21.6775,18.8530 Z" style="stroke-width: 0.7200; stroke-linecap: round; stroke-linejoin: round; fill-rule: evenodd; fill: url(#grad248); "/>
      <path d="  M21.6775,18.8530 L25.5927,16.7101 L25.5927,29.1355 L21.6775,31.2774 L21.6775,18.8530 Z" style="stroke-width: 0.7200; stroke: #ffffff; stroke-dasharray: none; stroke-linecap: round; stroke-linejoin: round; fill: none; "/>
    </g>
    <g xmlns="http://www.w3.org/2000/svg" id="Layer1152">
      <defs>
        <radialGradient id="grad249" cx="0.0000%" cy="0.0000%" r="100.0000%">
          <stop offset="0%" stop-color="#99ccff" stop-opacity="1.0000"/>
          <stop offset="100%" stop-color="#0066ff" stop-opacity="1.0000"/>
        </radialGradient>
      </defs>
      <path d="  M14.7143,5.9997 L22.9826,9.8555 L22.9826,19.7090 L21.6775,18.8530 L21.6775,31.2774 L16.0193,28.2785 L16.0193,16.2822 L14.7143,15.4252 L14.7143,5.9997 Z" style="stroke-width: 0.7200; stroke-linecap: round; stroke-linejoin: round; fill-rule: evenodd; fill: url(#grad249); "/>
      <path d="  M14.7143,5.9997 L22.9826,9.8555 L22.9826,19.7090 L21.6775,18.8530 L21.6775,31.2774 L16.0193,28.2785 L16.0193,16.2822 L14.7143,15.4252 L14.7143,5.9997 Z" style="stroke-width: 0.7200; stroke: #ffffff; stroke-dasharray: none; stroke-linecap: round; stroke-linejoin: round; fill: none; "/>
    </g>
    <g xmlns="http://www.w3.org/2000/svg" xmlns:xlink="http://www.w3.org/1999/xlink" id="Layer1153">
      <defs>
        <linearGradient id="grad250">
          <stop offset="0%" stop-color="#000099" stop-opacity="1.0000"/>
          <stop offset="100%" stop-color="#99c0ff" stop-opacity="1.0000"/>
        </linearGradient>
        <linearGradient xlink:href="#grad250" id="grad251" x1="0" y1="0" x2="0" y2="1" gradientTransform="rotate(135 .5 .5)" gradientUnits="objectBoundingBox">
  </linearGradient>
      </defs>
      <path d="  M22.9826,9.8555 L26.8987,8.1416 L26.8987,17.5671 L22.9826,19.7090 L22.9826,9.8555 Z" style="stroke-width: 0.7200; stroke-linecap: round; stroke-linejoin: round; fill-rule: evenodd; fill: url(#grad251); "/>
      <path d="  M22.9826,9.8555 L26.8987,8.1416 L26.8987,17.5671 L22.9826,19.7090 L22.9826,9.8555 Z" style="stroke-width: 0.7200; stroke: #ffffff; stroke-dasharray: none; stroke-linecap: round; stroke-linejoin: round; fill: none; "/>
    </g>
    <path xmlns="http://www.w3.org/2000/svg" d="  M21.6775,31.2774 L21.6775,18.8530 L22.9826,19.7090 L25.5927,17.9961" style="stroke-width: 0.7200; stroke: #ffffff; stroke-dasharray: none; stroke-linecap: round; stroke-linejoin: round; fill: none; "/>
    <path xmlns="http://www.w3.org/2000/svg" d="  M16.0193,16.2822 L14.7143,15.4252 L14.7143,5.9997 L19.0654,3.8578 L26.8987,8.1416 L26.8987,17.5671 L25.5927,17.9961 L25.5927,29.1355 L21.6775,31.2774 L16.0193,28.2785 L16.0193,16.2822 Z" style="stroke-width: 1.2000; stroke: #ffffff; stroke-dasharray: none; stroke-linecap: round; stroke-linejoin: round; fill: none; "/>
    <path xmlns="http://www.w3.org/2000/svg" d="  M14.7143,5.9997 L22.9826,9.8555" style="stroke-width: 0.7200; stroke: #ffffff; stroke-dasharray: none; stroke-linecap: round; stroke-linejoin: round; fill: none; "/>
    <path xmlns="http://www.w3.org/2000/svg" d="  M22.9826,9.8555 L22.9826,19.7090" style="stroke-width: 0.7200; stroke: #ffffff; stroke-dasharray: none; stroke-linecap: round; stroke-linejoin: round; fill: none; "/>
    <path xmlns="http://www.w3.org/2000/svg" d="  M22.9826,9.8555 L26.8987,8.1416" style="stroke-width: 0.7200; stroke: #ffffff; stroke-dasharray: none; stroke-linecap: round; stroke-linejoin: round; fill: none; "/>
    <path xmlns="http://www.w3.org/2000/svg" d="  M18.6304,19.2810 L18.6304,29.5645" style="stroke-width: 0.7200; stroke: #ffffff; stroke-dasharray: none; stroke-linecap: round; stroke-linejoin: round; fill: none; "/>
    <g xmlns="http://www.w3.org/2000/svg" id="Layer1154">
      <path d="  M16.8904,3.4278 C16.8904,1.7139 18.6304,0.0000 20.3715,0.0000 C22.5466,0.0000 23.8516,1.7139 23.8516,3.4278 C23.8516,5.1427 22.5456,6.8566 20.3715,6.8566 C18.6304,6.8566 16.8904,5.1427 16.8904,3.4278 Z" style="stroke-width: 0.7200; stroke-linecap: round; stroke-linejoin: round; fill-rule: evenodd; fill: #ffffff; "/>
      <path d="  M16.8904,3.4278 C16.8904,1.7139 18.6304,0.0000 20.3715,0.0000 C22.5466,0.0000 23.8516,1.7139 23.8516,3.4278 C23.8516,5.1427 22.5456,6.8566 20.3715,6.8566 C18.6304,6.8566 16.8904,5.1427 16.8904,3.4278 Z" style="stroke-width: 0.7200; stroke: #ffffff; stroke-dasharray: none; stroke-linecap: round; stroke-linejoin: round; fill: none; "/>
    </g>
    <path xmlns="http://www.w3.org/2000/svg" d="  M18.1944,18.3530 L19.4995,19.2090 L19.4995,19.6380 L18.1944,19.2090 L18.1944,18.3530 Z" style="fill-rule: evenodd; fill: #0099ff; "/>
    <g xmlns="http://www.w3.org/2000/svg" id="Layer1155">
      <defs>
        <radialGradient id="grad252" cx="0.0000%" cy="0.0000%" r="100.0000%">
          <stop offset="0%" stop-color="#ffffff" stop-opacity="1.0000"/>
          <stop offset="100%" stop-color="#0066ff" stop-opacity="1.0000"/>
        </radialGradient>
      </defs>
      <path d="  M16.8904,3.4278 C16.8904,1.7139 18.6304,0.0000 20.3715,0.0000 C22.5466,0.0000 23.8516,1.7139 23.8516,3.4278 C23.8516,5.1427 22.5456,6.8566 20.3715,6.8566 C18.6304,6.8566 16.8904,5.1427 16.8904,3.4278 Z" style="stroke-width: 0.7200; stroke-linecap: round; stroke-linejoin: round; fill-rule: evenodd; fill: url(#grad252); "/>
      <path d="  M16.8904,3.4278 C16.8904,1.7139 18.6304,0.0000 20.3715,0.0000 C22.5466,0.0000 23.8516,1.7139 23.8516,3.4278 C23.8516,5.1427 22.5456,6.8566 20.3715,6.8566 C18.6304,6.8566 16.8904,5.1427 16.8904,3.4278 Z" style="stroke-width: 0.7200; stroke: #ffffff; stroke-dasharray: none; stroke-linecap: round; stroke-linejoin: round; fill: none; "/>
    </g>
    <g xmlns="http://www.w3.org/2000/svg" id="Layer1156">
      <path d="  M2.1761,5.6268 C2.1761,3.9129 3.9161,2.1990 5.6572,2.1990 C7.8323,2.1990 9.1373,3.9129 9.1373,5.6268 C9.1373,7.3417 7.8313,9.0556 5.6572,9.0556 C3.9161,9.0556 2.1761,7.3417 2.1761,5.6268 Z" style="stroke-width: 1.2000; stroke-linecap: round; stroke-linejoin: round; fill-rule: evenodd; fill: #ffffff; "/>
      <path d="  M2.1761,5.6268 C2.1761,3.9129 3.9161,2.1990 5.6572,2.1990 C7.8323,2.1990 9.1373,3.9129 9.1373,5.6268 C9.1373,7.3417 7.8313,9.0556 5.6572,9.0556 C3.9161,9.0556 2.1761,7.3417 2.1761,5.6268 Z" style="stroke-width: 1.2000; stroke: #ffffff; stroke-dasharray: none; stroke-linecap: round; stroke-linejoin: round; fill: none; "/>
    </g>
    <g xmlns="http://www.w3.org/2000/svg" id="Layer1157">
      <path d="  M2.1761,5.6268 C2.1761,3.9129 3.9161,2.1990 5.6572,2.1990 C7.8323,2.1990 9.1373,3.9129 9.1373,5.6268 C9.1373,6.4837 8.7023,7.3417 8.2673,8.1986 C12.1835,10.3405 12.1835,10.3405 12.1835,10.3405 C12.1835,19.7671 12.1835,19.7671 12.1835,19.7671 C10.8774,20.1960 10.8774,20.1960 10.8774,20.1960 C10.8774,31.3355 10.8774,31.3355 10.8774,31.3355 C6.9623,33.4783 6.9623,33.4783 6.9623,33.4783 C1.3050,30.4775 1.3050,30.4775 1.3050,30.4775 C1.3050,18.4811 1.3050,18.4811 1.3050,18.4811 C0.0000,17.6242 0.0000,17.6242 0.0000,17.6242 C0.0000,8.1986 0.0000,8.1986 0.0000,8.1986 C2.6101,6.9127 2.6101,6.9127 2.6101,6.9127 C2.1761,6.4837 2.1761,6.0568 2.1761,5.6268 Z" style="stroke-width: 0.7200; stroke-linecap: round; stroke-linejoin: round; fill-rule: evenodd; fill: #ffffff; "/>
      <path d="  M2.1761,5.6268 C2.1761,3.9129 3.9161,2.1990 5.6572,2.1990 C7.8323,2.1990 9.1373,3.9129 9.1373,5.6268 C9.1373,6.4837 8.7023,7.3417 8.2673,8.1986 C12.1835,10.3405 12.1835,10.3405 12.1835,10.3405 C12.1835,19.7671 12.1835,19.7671 12.1835,19.7671 C10.8774,20.1960 10.8774,20.1960 10.8774,20.1960 C10.8774,31.3355 10.8774,31.3355 10.8774,31.3355 C6.9623,33.4783 6.9623,33.4783 6.9623,33.4783 C1.3050,30.4775 1.3050,30.4775 1.3050,30.4775 C1.3050,18.4811 1.3050,18.4811 1.3050,18.4811 C0.0000,17.6242 0.0000,17.6242 0.0000,17.6242 C0.0000,8.1986 0.0000,8.1986 0.0000,8.1986 C2.6101,6.9127 2.6101,6.9127 2.6101,6.9127 C2.1761,6.4837 2.1761,6.0568 2.1761,5.6268 Z" style="stroke-width: 0.7200; stroke: #ffffff; stroke-dasharray: none; stroke-linecap: round; stroke-linejoin: round; fill: none; "/>
    </g>
    <g xmlns="http://www.w3.org/2000/svg" xmlns:xlink="http://www.w3.org/1999/xlink" id="Layer1158">
      <defs>
        <linearGradient id="grad253">
          <stop offset="0%" stop-color="#c0e5ff" stop-opacity="1.0000"/>
          <stop offset="100%" stop-color="#0099ff" stop-opacity="1.0000"/>
        </linearGradient>
        <linearGradient xlink:href="#grad253" id="grad254" x1="0" y1="0" x2="0" y2="1" gradientTransform="rotate(225 .5 .5)" gradientUnits="objectBoundingBox">
  </linearGradient>
      </defs>
      <path d="  M0.0000,8.1986 L4.3512,6.0568 L12.1845,10.3405 L8.2683,12.0544 L0.0000,8.1986 Z" style="stroke-width: 0.7200; stroke-linecap: round; stroke-linejoin: round; fill-rule: evenodd; fill: url(#grad254); "/>
      <path d="  M0.0000,8.1986 L4.3512,6.0568 L12.1845,10.3405 L8.2683,12.0544 L0.0000,8.1986 Z" style="stroke-width: 0.7200; stroke: #ffffff; stroke-dasharray: none; stroke-linecap: round; stroke-linejoin: round; fill: none; "/>
    </g>
    <g xmlns="http://www.w3.org/2000/svg" xmlns:xlink="http://www.w3.org/1999/xlink" id="Layer1159">
      <defs>
        <linearGradient id="grad255">
          <stop offset="0%" stop-color="#000099" stop-opacity="1.0000"/>
          <stop offset="100%" stop-color="#99c0ff" stop-opacity="1.0000"/>
        </linearGradient>
        <linearGradient xlink:href="#grad255" id="grad256" x1="0" y1="0" x2="0" y2="1" gradientTransform="rotate(135 .5 .5)" gradientUnits="objectBoundingBox">
  </linearGradient>
      </defs>
      <path d="  M6.9633,21.0520 L10.8784,18.9091 L10.8784,31.3345 L6.9633,33.4763 L6.9633,21.0520 Z" style="stroke-width: 0.7200; stroke-linecap: round; stroke-linejoin: round; fill-rule: evenodd; fill: url(#grad256); "/>
      <path d="  M6.9633,21.0520 L10.8784,18.9091 L10.8784,31.3345 L6.9633,33.4763 L6.9633,21.0520 Z" style="stroke-width: 0.7200; stroke: #ffffff; stroke-dasharray: none; stroke-linecap: round; stroke-linejoin: round; fill: none; "/>
    </g>
    <g xmlns="http://www.w3.org/2000/svg" id="Layer1160">
      <defs>
        <radialGradient id="grad257" cx="0.0000%" cy="0.0000%" r="100.0000%">
          <stop offset="0%" stop-color="#99ccff" stop-opacity="1.0000"/>
          <stop offset="100%" stop-color="#0066ff" stop-opacity="1.0000"/>
        </radialGradient>
      </defs>
      <path d="  M0.0000,8.1986 L8.2683,12.0544 L8.2683,21.9079 L6.9633,21.0520 L6.9633,33.4763 L1.3050,30.4775 L1.3050,18.4811 L0.0000,17.6242 L0.0000,8.1986 Z" style="stroke-width: 0.7200; stroke-linecap: round; stroke-linejoin: round; fill-rule: evenodd; fill: url(#grad257); "/>
      <path d="  M0.0000,8.1986 L8.2683,12.0544 L8.2683,21.9079 L6.9633,21.0520 L6.9633,33.4763 L1.3050,30.4775 L1.3050,18.4811 L0.0000,17.6242 L0.0000,8.1986 Z" style="stroke-width: 0.7200; stroke: #ffffff; stroke-dasharray: none; stroke-linecap: round; stroke-linejoin: round; fill: none; "/>
    </g>
    <g xmlns="http://www.w3.org/2000/svg" xmlns:xlink="http://www.w3.org/1999/xlink" id="Layer1161">
      <defs>
        <linearGradient id="grad258">
          <stop offset="0%" stop-color="#000099" stop-opacity="1.0000"/>
          <stop offset="100%" stop-color="#99c0ff" stop-opacity="1.0000"/>
        </linearGradient>
        <linearGradient xlink:href="#grad258" id="grad259" x1="0" y1="0" x2="0" y2="1" gradientTransform="rotate(135 .5 .5)" gradientUnits="objectBoundingBox">
  </linearGradient>
      </defs>
      <path d="  M8.2683,12.0544 L12.1845,10.3405 L12.1845,19.7661 L8.2683,21.9079 L8.2683,12.0544 Z" style="stroke-width: 0.7200; stroke-linecap: round; stroke-linejoin: round; fill-rule: evenodd; fill: url(#grad259); "/>
      <path d="  M8.2683,12.0544 L12.1845,10.3405 L12.1845,19.7661 L8.2683,21.9079 L8.2683,12.0544 Z" style="stroke-width: 0.7200; stroke: #ffffff; stroke-dasharray: none; stroke-linecap: round; stroke-linejoin: round; fill: none; "/>
    </g>
    <path xmlns="http://www.w3.org/2000/svg" d="  M6.9633,33.4763 L6.9633,21.0520 L8.2683,21.9079 L10.8784,20.1950" style="stroke-width: 0.7200; stroke: #ffffff; stroke-dasharray: none; stroke-linecap: round; stroke-linejoin: round; fill: none; "/>
    <path xmlns="http://www.w3.org/2000/svg" d="  M1.3050,18.4811 L0.0000,17.6242 L0.0000,8.1986 L4.3512,6.0568 L12.1845,10.3405 L12.1845,19.7661 L10.8784,20.1950 L10.8784,31.3345 L6.9633,33.4763 L1.3050,30.4775 L1.3050,18.4811 Z" style="stroke-width: 1.2000; stroke: #ffffff; stroke-dasharray: none; stroke-linecap: round; stroke-linejoin: round; fill: none; "/>
    <path xmlns="http://www.w3.org/2000/svg" d="  M0.0000,8.1986 L8.2683,12.0544" style="stroke-width: 0.7200; stroke: #ffffff; stroke-dasharray: none; stroke-linecap: round; stroke-linejoin: round; fill: none; "/>
    <path xmlns="http://www.w3.org/2000/svg" d="  M8.2683,12.0544 L8.2683,21.9079" style="stroke-width: 0.7200; stroke: #ffffff; stroke-dasharray: none; stroke-linecap: round; stroke-linejoin: round; fill: none; "/>
    <path xmlns="http://www.w3.org/2000/svg" d="  M8.2683,12.0544 L12.1845,10.3405" style="stroke-width: 0.7200; stroke: #ffffff; stroke-dasharray: none; stroke-linecap: round; stroke-linejoin: round; fill: none; "/>
    <path xmlns="http://www.w3.org/2000/svg" d="  M3.9161,21.4800 L3.9161,31.7634" style="stroke-width: 0.7200; stroke: #ffffff; stroke-dasharray: none; stroke-linecap: round; stroke-linejoin: round; fill: none; "/>
    <g xmlns="http://www.w3.org/2000/svg" id="Layer1162">
      <path d="  M2.1761,5.6268 C2.1761,3.9129 3.9161,2.1990 5.6572,2.1990 C7.8323,2.1990 9.1373,3.9129 9.1373,5.6268 C9.1373,7.3417 7.8313,9.0556 5.6572,9.0556 C3.9161,9.0556 2.1761,7.3417 2.1761,5.6268 Z" style="stroke-width: 0.7200; stroke-linecap: round; stroke-linejoin: round; fill-rule: evenodd; fill: #ffffff; "/>
      <path d="  M2.1761,5.6268 C2.1761,3.9129 3.9161,2.1990 5.6572,2.1990 C7.8323,2.1990 9.1373,3.9129 9.1373,5.6268 C9.1373,7.3417 7.8313,9.0556 5.6572,9.0556 C3.9161,9.0556 2.1761,7.3417 2.1761,5.6268 Z" style="stroke-width: 0.7200; stroke: #ffffff; stroke-dasharray: none; stroke-linecap: round; stroke-linejoin: round; fill: none; "/>
    </g>
    <path xmlns="http://www.w3.org/2000/svg" d="  M3.4801,20.5520 L4.7852,21.4079 L4.7852,21.8369 L3.4801,21.4079 L3.4801,20.5520 Z" style="fill-rule: evenodd; fill: #0099ff; "/>
    <g xmlns="http://www.w3.org/2000/svg" id="Layer1163">
      <defs>
        <radialGradient id="grad260" cx="0.0000%" cy="0.0000%" r="100.0000%">
          <stop offset="0%" stop-color="#ffffff" stop-opacity="1.0000"/>
          <stop offset="100%" stop-color="#0066ff" stop-opacity="1.0000"/>
        </radialGradient>
      </defs>
      <path d="  M2.1761,5.6268 C2.1761,3.9129 3.9161,2.1990 5.6572,2.1990 C7.8323,2.1990 9.1373,3.9129 9.1373,5.6268 C9.1373,7.3417 7.8313,9.0556 5.6572,9.0556 C3.9161,9.0556 2.1761,7.3417 2.1761,5.6268 Z" style="stroke-width: 0.7200; stroke-linecap: round; stroke-linejoin: round; fill-rule: evenodd; fill: url(#grad260); "/>
      <path d="  M2.1761,5.6268 C2.1761,3.9129 3.9161,2.1990 5.6572,2.1990 C7.8323,2.1990 9.1373,3.9129 9.1373,5.6268 C9.1373,7.3417 7.8313,9.0556 5.6572,9.0556 C3.9161,9.0556 2.1761,7.3417 2.1761,5.6268 Z" style="stroke-width: 0.7200; stroke: #ffffff; stroke-dasharray: none; stroke-linecap: round; stroke-linejoin: round; fill: none; "/>
    </g>
    <g xmlns="http://www.w3.org/2000/svg" id="Layer1164">
      <path d="  M13.8904,11.4278 C13.8904,9.7139 15.6304,8.0000 17.3715,8.0000 C19.5466,8.0000 20.8516,9.7139 20.8516,11.4278 C20.8516,13.1427 19.5456,14.8566 17.3715,14.8566 C15.6304,14.8566 13.8904,13.1427 13.8904,11.4278 Z" style="stroke-width: 1.2000; stroke-linecap: round; stroke-linejoin: round; fill-rule: evenodd; fill: #ffffff; "/>
      <path d="  M13.8904,11.4278 C13.8904,9.7139 15.6304,8.0000 17.3715,8.0000 C19.5466,8.0000 20.8516,9.7139 20.8516,11.4278 C20.8516,13.1427 19.5456,14.8566 17.3715,14.8566 C15.6304,14.8566 13.8904,13.1427 13.8904,11.4278 Z" style="stroke-width: 1.2000; stroke: #ffffff; stroke-dasharray: none; stroke-linecap: round; stroke-linejoin: round; fill: none; "/>
    </g>
    <g xmlns="http://www.w3.org/2000/svg" id="Layer1165">
      <path d="  M13.8904,11.4278 C13.8904,9.7139 15.6304,8.0000 17.3715,8.0000 C19.5466,8.0000 20.8516,9.7139 20.8516,11.4278 C20.8516,12.2848 20.4166,13.1427 19.9816,13.9997 C23.8977,16.1416 23.8977,16.1416 23.8977,16.1416 C23.8977,25.5681 23.8977,25.5681 23.8977,25.5681 C22.5917,25.9971 22.5917,25.9971 22.5917,25.9971 C22.5917,37.1365 22.5917,37.1365 22.5917,37.1365 C18.6765,39.2794 18.6765,39.2794 18.6765,39.2794 C13.0193,36.2785 13.0193,36.2785 13.0193,36.2785 C13.0193,24.2822 13.0193,24.2822 13.0193,24.2822 C11.7143,23.4252 11.7143,23.4252 11.7143,23.4252 C11.7143,13.9997 11.7143,13.9997 11.7143,13.9997 C14.3244,12.7138 14.3244,12.7138 14.3244,12.7138 C13.8904,12.2848 13.8904,11.8578 13.8904,11.4278 Z" style="stroke-width: 0.7200; stroke-linecap: round; stroke-linejoin: round; fill-rule: evenodd; fill: #ffffff; "/>
      <path d="  M13.8904,11.4278 C13.8904,9.7139 15.6304,8.0000 17.3715,8.0000 C19.5466,8.0000 20.8516,9.7139 20.8516,11.4278 C20.8516,12.2848 20.4166,13.1427 19.9816,13.9997 C23.8977,16.1416 23.8977,16.1416 23.8977,16.1416 C23.8977,25.5681 23.8977,25.5681 23.8977,25.5681 C22.5917,25.9971 22.5917,25.9971 22.5917,25.9971 C22.5917,37.1365 22.5917,37.1365 22.5917,37.1365 C18.6765,39.2794 18.6765,39.2794 18.6765,39.2794 C13.0193,36.2785 13.0193,36.2785 13.0193,36.2785 C13.0193,24.2822 13.0193,24.2822 13.0193,24.2822 C11.7143,23.4252 11.7143,23.4252 11.7143,23.4252 C11.7143,13.9997 11.7143,13.9997 11.7143,13.9997 C14.3244,12.7138 14.3244,12.7138 14.3244,12.7138 C13.8904,12.2848 13.8904,11.8578 13.8904,11.4278 Z" style="stroke-width: 0.7200; stroke: #ffffff; stroke-dasharray: none; stroke-linecap: round; stroke-linejoin: round; fill: none; "/>
    </g>
    <g xmlns="http://www.w3.org/2000/svg" xmlns:xlink="http://www.w3.org/1999/xlink" id="Layer1166">
      <defs>
        <linearGradient id="grad261">
          <stop offset="0%" stop-color="#c0e5ff" stop-opacity="1.0000"/>
          <stop offset="100%" stop-color="#0099ff" stop-opacity="1.0000"/>
        </linearGradient>
        <linearGradient xlink:href="#grad261" id="grad262" x1="0" y1="0" x2="0" y2="1" gradientTransform="rotate(225 .5 .5)" gradientUnits="objectBoundingBox">
  </linearGradient>
      </defs>
      <path d="  M11.7143,13.9997 L16.0654,11.8578 L23.8987,16.1416 L19.9826,17.8555 L11.7143,13.9997 Z" style="stroke-width: 0.7200; stroke-linecap: round; stroke-linejoin: round; fill-rule: evenodd; fill: url(#grad262); "/>
      <path d="  M11.7143,13.9997 L16.0654,11.8578 L23.8987,16.1416 L19.9826,17.8555 L11.7143,13.9997 Z" style="stroke-width: 0.7200; stroke: #ffffff; stroke-dasharray: none; stroke-linecap: round; stroke-linejoin: round; fill: none; "/>
    </g>
    <g xmlns="http://www.w3.org/2000/svg" xmlns:xlink="http://www.w3.org/1999/xlink" id="Layer1167">
      <defs>
        <linearGradient id="grad263">
          <stop offset="0%" stop-color="#000099" stop-opacity="1.0000"/>
          <stop offset="100%" stop-color="#99c0ff" stop-opacity="1.0000"/>
        </linearGradient>
        <linearGradient xlink:href="#grad263" id="grad264" x1="0" y1="0" x2="0" y2="1" gradientTransform="rotate(135 .5 .5)" gradientUnits="objectBoundingBox">
  </linearGradient>
      </defs>
      <path d="  M18.6775,26.8530 L22.5927,24.7101 L22.5927,37.1355 L18.6775,39.2774 L18.6775,26.8530 Z" style="stroke-width: 0.7200; stroke-linecap: round; stroke-linejoin: round; fill-rule: evenodd; fill: url(#grad264); "/>
      <path d="  M18.6775,26.8530 L22.5927,24.7101 L22.5927,37.1355 L18.6775,39.2774 L18.6775,26.8530 Z" style="stroke-width: 0.7200; stroke: #ffffff; stroke-dasharray: none; stroke-linecap: round; stroke-linejoin: round; fill: none; "/>
    </g>
    <g xmlns="http://www.w3.org/2000/svg" id="Layer1168">
      <defs>
        <radialGradient id="grad265" cx="0.0000%" cy="0.0000%" r="100.0000%">
          <stop offset="0%" stop-color="#99ccff" stop-opacity="1.0000"/>
          <stop offset="100%" stop-color="#0066ff" stop-opacity="1.0000"/>
        </radialGradient>
      </defs>
      <path d="  M11.7143,13.9997 L19.9826,17.8555 L19.9826,27.7090 L18.6775,26.8530 L18.6775,39.2774 L13.0193,36.2785 L13.0193,24.2822 L11.7143,23.4252 L11.7143,13.9997 Z" style="stroke-width: 0.7200; stroke-linecap: round; stroke-linejoin: round; fill-rule: evenodd; fill: url(#grad265); "/>
      <path d="  M11.7143,13.9997 L19.9826,17.8555 L19.9826,27.7090 L18.6775,26.8530 L18.6775,39.2774 L13.0193,36.2785 L13.0193,24.2822 L11.7143,23.4252 L11.7143,13.9997 Z" style="stroke-width: 0.7200; stroke: #ffffff; stroke-dasharray: none; stroke-linecap: round; stroke-linejoin: round; fill: none; "/>
    </g>
    <g xmlns="http://www.w3.org/2000/svg" xmlns:xlink="http://www.w3.org/1999/xlink" id="Layer1169">
      <defs>
        <linearGradient id="grad266">
          <stop offset="0%" stop-color="#000099" stop-opacity="1.0000"/>
          <stop offset="100%" stop-color="#99c0ff" stop-opacity="1.0000"/>
        </linearGradient>
        <linearGradient xlink:href="#grad266" id="grad267" x1="0" y1="0" x2="0" y2="1" gradientTransform="rotate(135 .5 .5)" gradientUnits="objectBoundingBox">
  </linearGradient>
      </defs>
      <path d="  M19.9826,17.8555 L23.8987,16.1416 L23.8987,25.5671 L19.9826,27.7090 L19.9826,17.8555 Z" style="stroke-width: 0.7200; stroke-linecap: round; stroke-linejoin: round; fill-rule: evenodd; fill: url(#grad267); "/>
      <path d="  M19.9826,17.8555 L23.8987,16.1416 L23.8987,25.5671 L19.9826,27.7090 L19.9826,17.8555 Z" style="stroke-width: 0.7200; stroke: #ffffff; stroke-dasharray: none; stroke-linecap: round; stroke-linejoin: round; fill: none; "/>
    </g>
    <path xmlns="http://www.w3.org/2000/svg" d="  M18.6775,39.2774 L18.6775,26.8530 L19.9826,27.7090 L22.5927,25.9961" style="stroke-width: 0.7200; stroke: #ffffff; stroke-dasharray: none; stroke-linecap: round; stroke-linejoin: round; fill: none; "/>
    <path xmlns="http://www.w3.org/2000/svg" d="  M13.0193,24.2822 L11.7143,23.4252 L11.7143,13.9997 L16.0654,11.8578 L23.8987,16.1416 L23.8987,25.5671 L22.5927,25.9961 L22.5927,37.1355 L18.6775,39.2774 L13.0193,36.2785 L13.0193,24.2822 Z" style="stroke-width: 1.2000; stroke: #ffffff; stroke-dasharray: none; stroke-linecap: round; stroke-linejoin: round; fill: none; "/>
    <path xmlns="http://www.w3.org/2000/svg" d="  M11.7143,13.9997 L19.9826,17.8555" style="stroke-width: 0.7200; stroke: #ffffff; stroke-dasharray: none; stroke-linecap: round; stroke-linejoin: round; fill: none; "/>
    <path xmlns="http://www.w3.org/2000/svg" d="  M19.9826,17.8555 L19.9826,27.7090" style="stroke-width: 0.7200; stroke: #ffffff; stroke-dasharray: none; stroke-linecap: round; stroke-linejoin: round; fill: none; "/>
    <path xmlns="http://www.w3.org/2000/svg" d="  M19.9826,17.8555 L23.8987,16.1416" style="stroke-width: 0.7200; stroke: #ffffff; stroke-dasharray: none; stroke-linecap: round; stroke-linejoin: round; fill: none; "/>
    <path xmlns="http://www.w3.org/2000/svg" d="  M15.6304,27.2810 L15.6304,37.5645" style="stroke-width: 0.7200; stroke: #ffffff; stroke-dasharray: none; stroke-linecap: round; stroke-linejoin: round; fill: none; "/>
    <g xmlns="http://www.w3.org/2000/svg" id="Layer1170">
      <path d="  M13.8904,11.4278 C13.8904,9.7139 15.6304,8.0000 17.3715,8.0000 C19.5466,8.0000 20.8516,9.7139 20.8516,11.4278 C20.8516,13.1427 19.5456,14.8566 17.3715,14.8566 C15.6304,14.8566 13.8904,13.1427 13.8904,11.4278 Z" style="stroke-width: 0.7200; stroke-linecap: round; stroke-linejoin: round; fill-rule: evenodd; fill: #ffffff; "/>
      <path d="  M13.8904,11.4278 C13.8904,9.7139 15.6304,8.0000 17.3715,8.0000 C19.5466,8.0000 20.8516,9.7139 20.8516,11.4278 C20.8516,13.1427 19.5456,14.8566 17.3715,14.8566 C15.6304,14.8566 13.8904,13.1427 13.8904,11.4278 Z" style="stroke-width: 0.7200; stroke: #ffffff; stroke-dasharray: none; stroke-linecap: round; stroke-linejoin: round; fill: none; "/>
    </g>
    <path xmlns="http://www.w3.org/2000/svg" d="  M15.1944,26.3530 L16.4995,27.2090 L16.4995,27.6380 L15.1944,27.2090 L15.1944,26.3530 Z" style="fill-rule: evenodd; fill: #0099ff; "/>
    <g xmlns="http://www.w3.org/2000/svg" id="Layer1171">
      <defs>
        <radialGradient id="grad268" cx="0.0000%" cy="0.0000%" r="100.0000%">
          <stop offset="0%" stop-color="#ffffff" stop-opacity="1.0000"/>
          <stop offset="100%" stop-color="#0066ff" stop-opacity="1.0000"/>
        </radialGradient>
      </defs>
      <path d="  M13.8904,11.4278 C13.8904,9.7139 15.6304,8.0000 17.3715,8.0000 C19.5466,8.0000 20.8516,9.7139 20.8516,11.4278 C20.8516,13.1427 19.5456,14.8566 17.3715,14.8566 C15.6304,14.8566 13.8904,13.1427 13.8904,11.4278 Z" style="stroke-width: 0.7200; stroke-linecap: round; stroke-linejoin: round; fill-rule: evenodd; fill: url(#grad268); "/>
      <path d="  M13.8904,11.4278 C13.8904,9.7139 15.6304,8.0000 17.3715,8.0000 C19.5466,8.0000 20.8516,9.7139 20.8516,11.4278 C20.8516,13.1427 19.5456,14.8566 17.3715,14.8566 C15.6304,14.8566 13.8904,13.1427 13.8904,11.4278 Z" style="stroke-width: 0.7200; stroke: #ffffff; stroke-dasharray: none; stroke-linecap: round; stroke-linejoin: round; fill: none; "/>
    </g>
    <!--converted by libvisio2svg-->
  </g>
</svg>
