<svg xmlns="http://www.w3.org/2000/svg" xmlns:xlink="http://www.w3.org/1999/xlink" version="1.1" width="0.3904000000" height="0.3856000000" viewBox="0 0 28.1099 27.7649">
  <title><![CDATA[User accounts]]></title>
  <g transform=" scale(1.000000) ">
    <path xmlns="http://www.w3.org/2000/svg" d="  M6.9653,27.4403 L0.0000,27.4403 L2.2388,21.9019 L4.7264,21.9019 L4.7264,19.1327 L0.4975,14.3495 L0.4975,4.2797 L5.7215,0.0000 L15.9206,0.0000 L22.8859,0.0000 L27.6123,3.0209 L27.1148,6.5454 L26.3685,6.5454 L26.3685,7.0489 L25.3735,10.5733 L28.1099,14.3495 L25.3735,15.3565 L25.3735,18.6292 L23.6322,20.1396 L21.1446,20.1396 L21.1446,25.1745 L19.4033,26.6850 L20.6471,25.9298 L21.3933,24.9228 L21.8909,24.1676 L22.3884,23.1606 L25.3735,27.4403 L18.4082,27.4403 L18.1595,27.4403 L11.6917,27.4403 L6.9653,27.4403 Z" style="stroke-width: 2.0000; stroke: #ffffff; stroke-dasharray: none; stroke-linecap: round; stroke-linejoin: round; fill: none; "/>
    <path xmlns="http://www.w3.org/2000/svg" d="  M21.1446,25.1745 L18.4082,27.4403 L16.4181,26.9368 L14.6768,26.4333 L13.4330,25.6780 L12.4380,24.9228 L11.6917,24.1676 L11.1942,23.4123 L11.1942,22.6571 L11.6917,21.9019 L11.6917,17.8739 L12.4380,9.5663 L20.6471,4.2797 L25.8710,4.2797 L26.6173,6.0419 L26.3685,7.0489 L25.3735,10.5733 L28.1099,14.3495 L25.3735,15.3565 L25.3735,18.6292 L23.6322,20.1396 L21.1446,20.1396 L21.1446,25.1745 Z" style="fill-rule: evenodd; fill: #ffffff; "/>
    <path xmlns="http://www.w3.org/2000/svg" d="  M25.8710,6.5454 L27.1148,6.5454 L27.6123,3.0209 L22.8859,0.0000 L12.4380,0.0000 L7.2140,4.2797 L7.2140,14.3495 L11.6917,19.1327 L12.9355,19.1327 L15.4231,15.6082 L13.6818,13.8460 L13.4330,11.8320 L14.1793,10.5733 L18.1595,8.8111 L20.1495,6.0419 L21.8909,4.7832 L24.1297,4.7832 L25.8710,6.5454 Z" style="fill-rule: evenodd; fill: #ffffff; "/>
    <path xmlns="http://www.w3.org/2000/svg" d="  M18.4082,27.4403 L15.1743,26.1815 L13.9305,25.4263 L12.9355,24.6711 L12.1892,24.1676 L11.6917,23.4123 L11.6917,22.6571 L11.6917,21.9019 L9.4529,21.9019 L6.9653,27.4403 L18.4082,27.4403 Z" style="fill-rule: evenodd; fill: #ffffff; "/>
    <defs xmlns="http://www.w3.org/2000/svg" xmlns:xlink="http://www.w3.org/1999/xlink">
      <linearGradient id="grad269">
        <stop offset="0%" stop-color="#000099" stop-opacity="1.0000"/>
        <stop offset="100%" stop-color="#99c0ff" stop-opacity="1.0000"/>
      </linearGradient>
      <linearGradient xlink:href="#grad269" id="grad270" x1="0" y1="0" x2="0" y2="1" gradientTransform="rotate(135 .5 .5)" gradientUnits="objectBoundingBox">
  </linearGradient>
    </defs>
    <path xmlns="http://www.w3.org/2000/svg" d="  M25.8710,6.5454 L27.1148,6.5454 L27.6123,3.0209 L22.8859,0.0000 L12.4380,0.0000 L7.2140,4.2797 L7.2140,14.3495 L11.6917,19.1327 L12.9355,19.1327 L15.4231,15.6082 L13.6818,13.8460 L13.4330,11.8320 L14.1793,10.5733 L18.1595,8.8111 L20.1495,6.0419 L21.8909,4.7832 L24.1297,4.7832 L25.8710,6.5454 Z" style="fill-rule: evenodd; fill: url(#grad270); "/>
    <path xmlns="http://www.w3.org/2000/svg" d="  M11.6917,27.4403 L10.4479,23.1606 L10.4479,17.8739 L13.4330,9.0628 L11.6917,4.7832 L12.9355,0.0000 L17.6619,0.0000 L21.6421,2.5175 L20.6471,7.0489 L19.9008,7.3006 L19.4033,10.0698 L21.8909,14.3495 L18.9057,15.6082 L18.9057,19.6361 L16.9157,20.8949 L15.1743,20.8949 L15.1743,22.1536 L15.4231,22.1536 L19.9008,27.4403 L11.6917,27.4403 Z" style="fill-rule: evenodd; fill: #ffffff; "/>
    <path xmlns="http://www.w3.org/2000/svg" d="  M14.1793,25.1745 L11.6917,27.4403 L7.7116,26.1815 L6.4678,25.4263 L5.2240,24.6711 L4.4777,24.1676 L4.2289,23.4123 L4.2289,22.6571 L4.7264,21.9019 L4.7264,17.3704 L5.7215,9.0628 L13.4330,4.2797 L18.9057,4.2797 L19.9008,6.0419 L19.4033,7.0489 L18.1595,10.5733 L21.1446,14.3495 L18.1595,15.3565 L18.1595,18.6292 L16.9157,20.1396 L14.1793,20.1396 L14.1793,25.1745 Z" style="fill-rule: evenodd; fill: #ffffff; "/>
    <path xmlns="http://www.w3.org/2000/svg" d="  M18.9057,6.5454 L20.1495,6.5454 L20.6471,3.0209 L15.9206,0.0000 L5.7215,0.0000 L0.4975,4.2797 L0.4975,14.3495 L4.7264,19.1327 L5.9702,19.1327 L8.2091,15.6082 L6.9653,13.8460 L6.4678,11.8320 L7.2140,10.0698 L11.1942,8.8111 L13.4330,6.0419 L15.1743,4.7832 L17.1644,4.7832 L18.9057,6.5454 Z" style="fill-rule: evenodd; fill: #ffffff; "/>
    <path xmlns="http://www.w3.org/2000/svg" d="  M11.6917,27.4403 L8.2091,26.1815 L6.9653,25.4263 L5.9702,24.6711 L5.4727,24.1676 L4.9752,23.4123 L4.7264,22.6571 L4.7264,21.9019 L2.2388,21.9019 L0.0000,27.4403 L11.6917,27.4403 Z" style="fill-rule: evenodd; fill: #ffffff; "/>
    <path xmlns="http://www.w3.org/2000/svg" d="  M10.6967,27.4403 L18.4082,27.4403 L15.4231,23.1606 L14.9256,24.4193 L13.9305,25.4263 L12.4380,26.4333 L10.6967,27.4403 Z" style="fill-rule: evenodd; fill: #ffffff; "/>
    <path xmlns="http://www.w3.org/2000/svg" d="  M18.9057,6.5454 L20.1495,6.5454 L20.6471,3.0209 L15.9206,0.0000 L5.7215,0.0000 L0.4975,4.2797 L0.4975,14.3495 L4.7264,19.1327 L5.9702,19.1327 L8.2091,15.6082 L6.9653,13.8460 L6.4678,11.8320 L7.2140,10.0698 L11.1942,8.8111 L13.4330,6.0419 L15.1743,4.7832 L17.1644,4.7832 L18.9057,6.5454 Z" style="fill-rule: evenodd; fill: #ffffff; "/>
    <path xmlns="http://www.w3.org/2000/svg" d="  M14.1793,25.1745 L11.6917,27.4403 L7.7116,26.1815 L6.4678,25.4263 L5.2240,24.6711 L4.4777,24.1676 L4.2289,23.4123 L4.2289,22.6571 L4.7264,21.9019 L4.7264,17.3704 L5.7215,9.0628 L13.4330,4.2797 L18.9057,4.2797 L19.9008,6.0419 L19.4033,7.0489 L18.1595,10.5733 L21.1446,14.3495 L18.1595,15.3565 L18.1595,18.6292 L16.9157,20.1396 L14.1793,20.1396 L14.1793,25.1745 Z" style="fill-rule: evenodd; fill: #ffffff; "/>
    <path xmlns="http://www.w3.org/2000/svg" d="  M18.9057,6.5454 L20.1495,6.5454 L20.6471,3.0209 L15.9206,0.0000 L5.7215,0.0000 L0.4975,4.2797 L0.4975,14.3495 L4.7264,19.1327 L5.9702,19.1327 L8.2091,15.6082 L6.9653,13.8460 L6.4678,11.8320 L7.2140,10.0698 L11.1942,8.8111 L13.4330,6.0419 L15.1743,4.7832 L17.1644,4.7832 L18.9057,6.5454 Z" style="fill-rule: evenodd; fill: #ffffff; "/>
    <path xmlns="http://www.w3.org/2000/svg" d="  M11.6917,27.4403 L8.2091,26.1815 L6.9653,25.4263 L5.9702,24.6711 L5.4727,24.1676 L4.9752,23.4123 L4.7264,22.6571 L4.7264,21.9019 L2.2388,21.9019 L0.0000,27.4403 L11.6917,27.4403 Z" style="fill-rule: evenodd; fill: #ffffff; "/>
    <path xmlns="http://www.w3.org/2000/svg" d="  M10.6967,27.4403 L18.4082,27.4403 L15.4231,23.1606 L14.9256,24.4193 L13.9305,25.4263 L12.4380,26.4333 L10.6967,27.4403 Z" style="fill-rule: evenodd; fill: #ffffff; "/>
    <path xmlns="http://www.w3.org/2000/svg" d="  M18.9057,6.5454 L20.1495,6.5454 L20.6471,3.0209 L15.9206,0.0000 L5.7215,0.0000 L0.4975,4.2797 L0.4975,14.3495 L4.7264,19.1327 L5.9702,19.1327 L8.2091,15.6082 L6.9653,13.8460 L6.4678,11.8320 L7.2140,10.0698 L11.1942,8.8111 L13.4330,6.0419 L15.1743,4.7832 L17.1644,4.7832 L18.9057,6.5454 Z" style="fill-rule: evenodd; fill: #ffffff; "/>
    <defs xmlns="http://www.w3.org/2000/svg" xmlns:xlink="http://www.w3.org/1999/xlink">
      <linearGradient id="grad271">
        <stop offset="0%" stop-color="#0066ff" stop-opacity="1.0000"/>
        <stop offset="100%" stop-color="#ffffff" stop-opacity="1.0000"/>
      </linearGradient>
      <linearGradient xlink:href="#grad271" id="grad272" x1="0" y1="0" x2="0" y2="1" gradientTransform="rotate(90 .5 .5)" gradientUnits="objectBoundingBox">
  </linearGradient>
    </defs>
    <path xmlns="http://www.w3.org/2000/svg" d="  M21.1446,25.1745 L18.4082,27.4403 L16.4181,26.9368 L14.6768,26.4333 L13.4330,25.6780 L12.4380,24.9228 L11.6917,24.1676 L11.1942,23.4123 L11.1942,22.6571 L11.6917,21.9019 L11.6917,17.8739 L12.4380,9.5663 L20.6471,4.2797 L25.8710,4.2797 L26.6173,6.0419 L26.3685,7.0489 L25.3735,10.5733 L28.1099,14.3495 L25.3735,15.3565 L25.3735,18.6292 L23.6322,20.1396 L21.1446,20.1396 L21.1446,25.1745 Z" style="fill-rule: evenodd; fill: url(#grad272); "/>
    <path xmlns="http://www.w3.org/2000/svg" d="  M26.3685,7.0489 L25.3735,10.5733 L28.1099,14.3495 L25.3735,15.3565 L25.3735,18.6292 L23.6322,20.1396 L21.6421,20.1396 L19.4033,20.1396" style="stroke-width: 0.5005; stroke: #ffffff; stroke-dasharray: none; stroke-linecap: round; stroke-linejoin: round; fill: none; "/>
    <path xmlns="http://www.w3.org/2000/svg" d="  M21.1446,20.1396 L21.1446,25.6780" style="stroke-width: 0.5005; stroke: #ffffff; stroke-dasharray: none; stroke-linecap: round; stroke-linejoin: round; fill: none; "/>
    <defs xmlns="http://www.w3.org/2000/svg">
      <linearGradient id="grad273">
        <stop offset="0%" stop-color="#000099" stop-opacity="1.0000"/>
        <stop offset="100%" stop-color="#c0e5ff" stop-opacity="1.0000"/>
      </linearGradient>
    </defs>
    <path xmlns="http://www.w3.org/2000/svg" d="  M25.8710,6.5454 L27.1148,6.5454 L27.6123,3.0209 L22.8859,0.0000 L12.4380,0.0000 L7.2140,4.2797 L7.2140,14.3495 L11.6917,19.1327 L12.9355,19.1327 L15.4231,15.6082 L13.6818,13.8460 L13.4330,11.8320 L14.1793,10.5733 L18.1595,8.8111 L20.1495,6.0419 L21.8909,4.7832 L24.1297,4.7832 L25.8710,6.5454 Z" style="fill-rule: evenodd; fill: url(#grad273); "/>
    <path xmlns="http://www.w3.org/2000/svg" d="  M11.6917,19.1327 L11.6917,21.9019" style="stroke-width: 0.5005; stroke: #ffffff; stroke-dasharray: none; stroke-linecap: round; stroke-linejoin: round; fill: none; "/>
    <g xmlns="http://www.w3.org/2000/svg" id="Layer1172">
      <path d="  M18.4082,27.4403 L15.1743,26.1815 L13.9305,25.4263 L12.9355,24.6711 L12.1892,24.1676 L11.6917,23.4123 L11.6917,22.6571 L11.6917,21.9019 L9.4529,21.9019 L6.9653,27.4403 L18.4082,27.4403 Z" style="stroke-width: 0.5005; stroke-linecap: round; stroke-linejoin: round; fill-rule: evenodd; fill: #0099ff; "/>
      <path d="  M18.4082,27.4403 L15.1743,26.1815 L13.9305,25.4263 L12.9355,24.6711 L12.1892,24.1676 L11.6917,23.4123 L11.6917,22.6571 L11.6917,21.9019 L9.4529,21.9019 L6.9653,27.4403 L18.4082,27.4403 Z" style="stroke-width: 0.5005; stroke: #ffffff; stroke-dasharray: none; stroke-linecap: round; stroke-linejoin: round; fill: none; "/>
    </g>
    <path xmlns="http://www.w3.org/2000/svg" d="  M18.4082,27.4403 L15.1743,26.1815 L13.9305,25.4263 L12.9355,24.6711 L12.1892,24.1676 L11.6917,23.4123 L11.6917,22.6571 L11.6917,21.9019 L9.4529,21.9019 L6.9653,27.4403 L18.4082,27.4403 Z" style="stroke-width: 0.5005; stroke: #ffffff; stroke-dasharray: none; stroke-linecap: round; stroke-linejoin: round; fill: none; "/>
    <g xmlns="http://www.w3.org/2000/svg" id="Layer1173">
      <path d="  M18.3661,27.7649 L25.5802,27.7649 L22.5951,23.4852 L22.0975,24.7440 L21.3513,26.0027 L20.1075,27.0097 L18.3661,27.7649 Z" style="stroke-width: 0.5005; stroke-linecap: round; stroke-linejoin: round; fill-rule: evenodd; fill: #0066ff; "/>
      <path d="  M18.3661,27.7649 L25.5802,27.7649 L22.5951,23.4852 L22.0975,24.7440 L21.3513,26.0027 L20.1075,27.0097 L18.3661,27.7649 Z" style="stroke-width: 0.5005; stroke: #ffffff; stroke-dasharray: none; stroke-linecap: round; stroke-linejoin: round; fill: none; "/>
    </g>
    <g xmlns="http://www.w3.org/2000/svg" xmlns:xlink="http://www.w3.org/1999/xlink" id="Layer1174">
      <defs>
        <linearGradient id="grad274">
          <stop offset="0%" stop-color="#000099" stop-opacity="1.0000"/>
          <stop offset="100%" stop-color="#99c0ff" stop-opacity="1.0000"/>
        </linearGradient>
        <linearGradient xlink:href="#grad274" id="grad275" x1="0" y1="0" x2="0" y2="1" gradientTransform="rotate(135 .5 .5)" gradientUnits="objectBoundingBox">
  </linearGradient>
      </defs>
      <path d="  M25.8710,6.5454 L27.1148,6.5454 L27.6123,3.0209 L22.8859,0.0000 L12.4380,0.0000 L7.2140,4.2797 L7.2140,14.3495 L11.6917,19.1327 L12.9355,19.1327 L15.4231,15.6082 L13.6818,13.8460 L13.4330,11.8320 L14.1793,10.5733 L18.1595,8.8111 L20.1495,6.0419 L21.8909,4.7832 L24.1297,4.7832 L25.8710,6.5454 Z" style="stroke-width: 0.5005; stroke-linecap: round; stroke-linejoin: round; fill-rule: evenodd; fill: url(#grad275); "/>
      <path d="  M25.8710,6.5454 L27.1148,6.5454 L27.6123,3.0209 L22.8859,0.0000 L12.4380,0.0000 L7.2140,4.2797 L7.2140,14.3495 L11.6917,19.1327 L12.9355,19.1327 L15.4231,15.6082 L13.6818,13.8460 L13.4330,11.8320 L14.1793,10.5733 L18.1595,8.8111 L20.1495,6.0419 L21.8909,4.7832 L24.1297,4.7832 L25.8710,6.5454 Z" style="stroke-width: 0.5005; stroke: #ffffff; stroke-dasharray: none; stroke-linecap: round; stroke-linejoin: round; fill: none; "/>
    </g>
    <path xmlns="http://www.w3.org/2000/svg" d="  M11.6917,27.4403 L10.4479,23.1606 L10.4479,17.8739 L13.4330,9.0628 L11.6917,4.7832 L12.9355,0.0000 L17.6619,0.0000 L21.6421,2.5175 L20.6471,7.0489 L19.9008,7.3006 L19.4033,10.0698 L21.8909,14.3495 L18.9057,15.6082 L18.9057,19.6361 L16.9157,20.8949 L15.1743,20.8949 L15.1743,22.1536 L15.4231,22.1536 L19.9008,27.4403 L11.6917,27.4403 Z" style="fill-rule: evenodd; fill: #4d99ff; "/>
    <path xmlns="http://www.w3.org/2000/svg" d="  M14.1793,25.1745 L11.6917,27.4403 L7.7116,26.1815 L6.4678,25.4263 L5.2240,24.6711 L4.4777,24.1676 L4.2289,23.4123 L4.2289,22.6571 L4.7264,21.9019 L4.7264,17.3704 L5.7215,9.0628 L13.4330,4.2797 L18.9057,4.2797 L19.9008,6.0419 L19.4033,7.0489 L18.1595,10.5733 L21.1446,14.3495 L18.1595,15.3565 L18.1595,18.6292 L16.9157,20.1396 L14.1793,20.1396 L14.1793,25.1745 Z" style="fill-rule: evenodd; fill: #ffffff; "/>
    <path xmlns="http://www.w3.org/2000/svg" d="  M18.9057,6.5454 L20.1495,6.5454 L20.6471,3.0209 L15.9206,0.0000 L5.7215,0.0000 L0.4975,4.2797 L0.4975,14.3495 L4.7264,19.1327 L5.9702,19.1327 L8.2091,15.6082 L6.9653,13.8460 L6.4678,11.8320 L7.2140,10.0698 L11.1942,8.8111 L13.4330,6.0419 L15.1743,4.7832 L17.1644,4.7832 L18.9057,6.5454 Z" style="fill-rule: evenodd; fill: #ffffff; "/>
    <path xmlns="http://www.w3.org/2000/svg" d="  M18.9057,6.5454 L20.1495,6.5454 L20.6471,3.0209 L15.9206,0.0000 L5.7215,0.0000 L0.4975,4.2797 L0.4975,14.3495 L4.7264,19.1327 L5.9702,19.1327 L8.2091,15.6082 L6.9653,13.8460 L6.4678,11.8320 L7.2140,10.0698 L11.1942,8.8111 L13.4330,6.0419 L15.1743,4.7832 L17.1644,4.7832 L18.9057,6.5454 Z" style="fill-rule: evenodd; fill: #ffffff; "/>
    <g xmlns="http://www.w3.org/2000/svg" id="Layer1175">
      <defs>
        <linearGradient id="grad276">
          <stop offset="0%" stop-color="#ffffff" stop-opacity="1.0000"/>
          <stop offset="100%" stop-color="#80b4ff" stop-opacity="1.0000"/>
        </linearGradient>
      </defs>
      <path d="  M14.1793,25.1745 L11.6917,27.4403 L7.7116,26.1815 L6.4678,25.4263 L5.2240,24.6711 L4.4777,24.1676 L4.2289,23.4123 L4.2289,22.6571 L4.7264,21.9019 L4.7264,17.3704 L5.7215,9.0628 L13.4330,4.2797 L18.9057,4.2797 L19.9008,6.0419 L19.4033,7.0489 L18.1595,10.5733 L21.1446,14.3495 L18.1595,15.3565 L18.1595,18.6292 L16.9157,20.1396 L14.1793,20.1396 L14.1793,25.1745 Z" style="stroke-width: 0.7200; stroke-linecap: round; stroke-linejoin: round; fill-rule: evenodd; fill: url(#grad276); "/>
      <path d="  M14.1793,25.1745 L11.6917,27.4403 L7.7116,26.1815 L6.4678,25.4263 L5.2240,24.6711 L4.4777,24.1676 L4.2289,23.4123 L4.2289,22.6571 L4.7264,21.9019 L4.7264,17.3704 L5.7215,9.0628 L13.4330,4.2797 L18.9057,4.2797 L19.9008,6.0419 L19.4033,7.0489 L18.1595,10.5733 L21.1446,14.3495 L18.1595,15.3565 L18.1595,18.6292 L16.9157,20.1396 L14.1793,20.1396 L14.1793,25.1745 Z" style="stroke-width: 0.7200; stroke: #ffffff; stroke-dasharray: none; stroke-linecap: round; stroke-linejoin: round; fill: none; "/>
    </g>
    <path xmlns="http://www.w3.org/2000/svg" d="  M19.4033,7.0489 L18.1595,10.5733 L21.1446,14.3495 L18.1595,15.3565 L18.1595,18.6292 L16.9157,20.1396 L14.6768,20.1396 L12.4380,20.1396" style="stroke-width: 0.5005; stroke: #ffffff; stroke-dasharray: none; stroke-linecap: round; stroke-linejoin: round; fill: none; "/>
    <path xmlns="http://www.w3.org/2000/svg" d="  M14.1793,20.1396 L14.1793,25.6780" style="stroke-width: 0.5005; stroke: #ffffff; stroke-dasharray: none; stroke-linecap: round; stroke-linejoin: round; fill: none; "/>
    <defs xmlns="http://www.w3.org/2000/svg">
      <radialGradient id="grad277" cx="100.0000%" cy="0.0000%" r="100.0000%">
        <stop offset="0%" stop-color="#99ccff" stop-opacity="1.0000"/>
        <stop offset="100%" stop-color="#0066ff" stop-opacity="1.0000"/>
      </radialGradient>
    </defs>
    <path xmlns="http://www.w3.org/2000/svg" d="  M18.9057,6.5454 L20.1495,6.5454 L20.6471,3.0209 L15.9206,0.0000 L5.7215,0.0000 L0.4975,4.2797 L0.4975,14.3495 L4.7264,19.1327 L5.9702,19.1327 L8.2091,15.6082 L6.9653,13.8460 L6.4678,11.8320 L7.2140,10.0698 L11.1942,8.8111 L13.4330,6.0419 L15.1743,4.7832 L17.1644,4.7832 L18.9057,6.5454 Z" style="fill-rule: evenodd; fill: url(#grad277); "/>
    <path xmlns="http://www.w3.org/2000/svg" d="  M4.7264,19.1327 L4.7264,21.9019" style="stroke-width: 0.5005; stroke: #ffffff; stroke-dasharray: none; stroke-linecap: round; stroke-linejoin: round; fill: none; "/>
    <g xmlns="http://www.w3.org/2000/svg" id="Layer1176">
      <path d="  M11.6917,27.4403 L8.2091,26.1815 L6.9653,25.4263 L5.9702,24.6711 L5.4727,24.1676 L4.9752,23.4123 L4.7264,22.6571 L4.7264,21.9019 L2.2388,21.9019 L0.0000,27.4403 L11.6917,27.4403 Z" style="stroke-width: 0.5005; stroke-linecap: round; stroke-linejoin: round; fill-rule: evenodd; fill: #0066ff; "/>
      <path d="  M11.6917,27.4403 L8.2091,26.1815 L6.9653,25.4263 L5.9702,24.6711 L5.4727,24.1676 L4.9752,23.4123 L4.7264,22.6571 L4.7264,21.9019 L2.2388,21.9019 L0.0000,27.4403 L11.6917,27.4403 Z" style="stroke-width: 0.5005; stroke: #ffffff; stroke-dasharray: none; stroke-linecap: round; stroke-linejoin: round; fill: none; "/>
    </g>
    <g xmlns="http://www.w3.org/2000/svg" id="Layer1177">
      <path d="  M10.6967,27.4403 L18.4082,27.4403 L15.4231,23.1606 L14.9256,24.4193 L13.9305,25.4263 L12.4380,26.4333 L10.6967,27.4403 Z" style="stroke-width: 0.5005; stroke-linecap: round; stroke-linejoin: round; fill-rule: evenodd; fill: #003399; "/>
      <path d="  M10.6967,27.4403 L18.4082,27.4403 L15.4231,23.1606 L14.9256,24.4193 L13.9305,25.4263 L12.4380,26.4333 L10.6967,27.4403 Z" style="stroke-width: 0.5005; stroke: #ffffff; stroke-dasharray: none; stroke-linecap: round; stroke-linejoin: round; fill: none; "/>
    </g>
    <path xmlns="http://www.w3.org/2000/svg" d="  M18.9057,6.5454 L20.1495,6.5454 L20.6471,3.0209 L15.9206,0.0000 L5.7215,0.0000 L0.4975,4.2797 L0.4975,14.3495 L4.7264,19.1327 L5.9702,19.1327 L8.2091,15.6082 L6.9653,13.8460 L6.4678,11.8320 L7.2140,10.0698 L11.1942,8.8111 L13.4330,6.0419 L15.1743,4.7832 L17.1644,4.7832 L18.9057,6.5454 Z" style="stroke-width: 0.5005; stroke: #ffffff; stroke-dasharray: none; stroke-linecap: round; stroke-linejoin: round; fill: none; "/>
    <path xmlns="http://www.w3.org/2000/svg" d="  M11.6917,27.4403 L8.2091,26.1815 L6.9653,25.4263 L5.9702,24.6711 L5.4727,24.1676 L4.9752,23.4123 L4.7264,22.6571 L4.7264,21.9019 L2.2388,21.9019 L0.0000,27.4403 L11.6917,27.4403 Z" style="fill-rule: evenodd; fill: #003399; "/>
    <!--converted by libvisio2svg-->
  </g>
</svg>
