<svg xmlns="http://www.w3.org/2000/svg" xmlns:xlink="http://www.w3.org/1999/xlink" version="1.1" width="0.2310000000" height="0.2310000000" viewBox="0 0 16.6317 16.6317">
  <title><![CDATA[Writing-Sm]]></title>
  <g transform=" scale(1.000000) ">
    <g xmlns="http://www.w3.org/2000/svg" id="Layer1528">
      <path d="  M16.2775,0.3542 L16.4546,0.8814 L16.6317,1.4086 L16.4577,1.9347 L16.2827,2.1097 L14.5324,3.8600 L14.1824,4.2100 L13.8313,4.2090 L13.3041,4.0319 L12.7769,3.8548 L12.5998,3.3276 L12.4227,2.8004 L12.4216,2.4493 L12.7717,2.0993 L14.5220,0.3490 L14.6970,0.1740 L15.2231,0.0000 L15.7503,0.1771 L16.2775,0.3542 Z" style="stroke-width: 0.4965; stroke-linecap: round; stroke-linejoin: round; fill-rule: evenodd; fill: #0099ff; "/>
      <path d="  M16.2775,0.3542 L16.4546,0.8814 L16.6317,1.4086 L16.4577,1.9347 L16.2827,2.1097 L14.5324,3.8600 L14.1824,4.2100 L13.8313,4.2090 L13.3041,4.0319 L12.7769,3.8548 L12.5998,3.3276 L12.4227,2.8004 L12.4216,2.4493 L12.7717,2.0993 L14.5220,0.3490 L14.6970,0.1740 L15.2231,0.0000 L15.7503,0.1771 L16.2775,0.3542 Z" style="stroke-width: 0.4965; stroke: #ffffff; stroke-dasharray: none; stroke-linecap: round; stroke-linejoin: round; fill: none; "/>
    </g>
    <g xmlns="http://www.w3.org/2000/svg" xmlns:xlink="http://www.w3.org/1999/xlink" id="Layer1529">
      <defs>
        <linearGradient id="grad716">
          <stop offset="0%" stop-color="#ffff00" stop-opacity="1.0000"/>
          <stop offset="100%" stop-color="#ff6600" stop-opacity="1.0000"/>
        </linearGradient>
        <linearGradient xlink:href="#grad716" id="grad717" x1="0" y1="0" x2="0" y2="1" gradientTransform="rotate(-0 .5 .5)" gradientUnits="objectBoundingBox">
  </linearGradient>
      </defs>
      <path d="  M15.7576,2.6348 L4.7309,13.6615 L2.9702,11.9008 L13.9969,0.8741 L15.7576,2.6348 Z" style="stroke-width: 0.4965; stroke-linecap: round; stroke-linejoin: round; fill-rule: evenodd; fill: url(#grad717); "/>
      <path d="  M15.7576,2.6348 L4.7309,13.6615 L2.9702,11.9008 L13.9969,0.8741 L15.7576,2.6348 Z" style="stroke-width: 0.4965; stroke: #ffffff; stroke-dasharray: none; stroke-linecap: round; stroke-linejoin: round; fill: none; "/>
    </g>
    <g xmlns="http://www.w3.org/2000/svg" id="Layer1530">
      <path d="  M15.7576,2.6348 L13.3072,5.0852 L11.5465,3.3245 L13.9969,0.8741 L15.7576,2.6348 Z" style="stroke-width: 0.4965; stroke-linecap: round; stroke-linejoin: round; fill-rule: evenodd; fill: #cccccc; "/>
      <path d="  M15.7576,2.6348 L13.3072,5.0852 L11.5465,3.3245 L13.9969,0.8741 L15.7576,2.6348 Z" style="stroke-width: 0.4965; stroke: #ffffff; stroke-dasharray: none; stroke-linecap: round; stroke-linejoin: round; fill: none; "/>
    </g>
    <g xmlns="http://www.w3.org/2000/svg" id="Layer1531">
      <path d="  M0.0000,16.6317 L2.9702,11.9008 L4.7309,13.6615 L0.0000,16.6317 Z" style="stroke-width: 0.4965; stroke-linecap: round; stroke-linejoin: round; fill-rule: evenodd; fill: #cccccc; "/>
      <path d="  M0.0000,16.6317 L2.9702,11.9008 L4.7309,13.6615 L0.0000,16.6317 Z" style="stroke-width: 0.4965; stroke: #ffffff; stroke-dasharray: none; stroke-linecap: round; stroke-linejoin: round; fill: none; "/>
    </g>
    <!--converted by libvisio2svg-->
  </g>
</svg>
