<svg xmlns="http://www.w3.org/2000/svg" xmlns:xlink="http://www.w3.org/1999/xlink" version="1.1" width="0.4693000000" height="0.4791000000" viewBox="0 0 33.7874 34.4937">
  <title><![CDATA[Writer]]></title>
  <g transform=" scale(1.000000) ">
    <g xmlns="http://www.w3.org/2000/svg" id="Layer1532">
      <path d="  M33.0800,1.4137 L33.6093,2.2930 L33.7874,3.1713 L33.4395,4.2235 L32.9154,5.0997 L29.7650,8.2502 L28.8888,8.7742 L27.8365,9.1222 L26.9583,8.9440 L26.0789,8.4147 L25.5497,7.5354 L25.1954,6.4811 L25.5434,5.4288 L26.0674,4.5527 L29.2179,1.4022 L30.0941,0.8781 L31.1463,0.5302 L32.2007,0.8844 L33.0800,1.4137 Z" style="stroke-width: 0.9931; stroke-linecap: round; stroke-linejoin: round; fill-rule: evenodd; fill: #0099ff; "/>
      <path d="  M33.0800,1.4137 L33.6093,2.2930 L33.7874,3.1713 L33.4395,4.2235 L32.9154,5.0997 L29.7650,8.2502 L28.8888,8.7742 L27.8365,9.1222 L26.9583,8.9440 L26.0789,8.4147 L25.5497,7.5354 L25.1954,6.4811 L25.5434,5.4288 L26.0674,4.5527 L29.2179,1.4022 L30.0941,0.8781 L31.1463,0.5302 L32.2007,0.8844 L33.0800,1.4137 Z" style="stroke-width: 0.9931; stroke: #ffffff; stroke-dasharray: none; stroke-linecap: round; stroke-linejoin: round; fill: none; "/>
    </g>
    <g xmlns="http://www.w3.org/2000/svg" xmlns:xlink="http://www.w3.org/1999/xlink" id="Layer1533">
      <defs>
        <linearGradient id="grad718">
          <stop offset="0%" stop-color="#ffff00" stop-opacity="1.0000"/>
          <stop offset="100%" stop-color="#ff6600" stop-opacity="1.0000"/>
        </linearGradient>
        <linearGradient xlink:href="#grad718" id="grad719" x1="0" y1="0" x2="0" y2="1" gradientTransform="rotate(-0 .5 .5)" gradientUnits="objectBoundingBox">
  </linearGradient>
      </defs>
      <path d="  M32.0403,5.9748 L9.4619,28.5532 L5.7644,24.8557 L28.3428,2.2773 L32.0403,5.9748 Z" style="stroke-width: 0.9931; stroke-linecap: round; stroke-linejoin: round; fill-rule: evenodd; fill: url(#grad719); "/>
      <path d="  M32.0403,5.9748 L9.4619,28.5532 L5.7644,24.8557 L28.3428,2.2773 L32.0403,5.9748 Z" style="stroke-width: 0.9931; stroke: #ffffff; stroke-dasharray: none; stroke-linecap: round; stroke-linejoin: round; fill: none; "/>
    </g>
    <g xmlns="http://www.w3.org/2000/svg" id="Layer1534">
      <path d="  M32.0403,5.9748 L27.1396,10.8756 L23.4420,7.1781 L28.3428,2.2773 L32.0403,5.9748 Z" style="stroke-width: 0.9931; stroke-linecap: round; stroke-linejoin: round; fill-rule: evenodd; fill: #cccccc; "/>
      <path d="  M32.0403,5.9748 L27.1396,10.8756 L23.4420,7.1781 L28.3428,2.2773 L32.0403,5.9748 Z" style="stroke-width: 0.9931; stroke: #ffffff; stroke-dasharray: none; stroke-linecap: round; stroke-linejoin: round; fill: none; "/>
    </g>
    <g xmlns="http://www.w3.org/2000/svg" id="Layer1535">
      <path d="  M0.0000,34.4937 L5.7644,24.8557 L9.4619,28.5532 L0.0000,34.4937 Z" style="stroke-width: 0.9931; stroke-linecap: round; stroke-linejoin: round; fill-rule: evenodd; fill: #cccccc; "/>
      <path d="  M0.0000,34.4937 L5.7644,24.8557 L9.4619,28.5532 L0.0000,34.4937 Z" style="stroke-width: 0.9931; stroke: #ffffff; stroke-dasharray: none; stroke-linecap: round; stroke-linejoin: round; fill: none; "/>
    </g>
    <g xmlns="http://www.w3.org/2000/svg" id="Layer1536">
      <path d="  M14.3904,3.4278 C14.3904,1.7139 16.1304,0.0000 17.8715,0.0000 C20.0466,0.0000 21.3516,1.7139 21.3516,3.4278 C21.3516,5.1427 20.0456,6.8566 17.8715,6.8566 C16.1304,6.8566 14.3904,5.1427 14.3904,3.4278 Z" style="stroke-width: 1.2000; stroke-linecap: round; stroke-linejoin: round; fill-rule: evenodd; fill: #ffffff; "/>
      <path d="  M14.3904,3.4278 C14.3904,1.7139 16.1304,0.0000 17.8715,0.0000 C20.0466,0.0000 21.3516,1.7139 21.3516,3.4278 C21.3516,5.1427 20.0456,6.8566 17.8715,6.8566 C16.1304,6.8566 14.3904,5.1427 14.3904,3.4278 Z" style="stroke-width: 1.2000; stroke: #ffffff; stroke-dasharray: none; stroke-linecap: round; stroke-linejoin: round; fill: none; "/>
    </g>
    <g xmlns="http://www.w3.org/2000/svg" id="Layer1537">
      <path d="  M14.3904,3.4278 C14.3904,1.7139 16.1304,0.0000 17.8715,0.0000 C20.0466,0.0000 21.3516,1.7139 21.3516,3.4278 C21.3516,4.2848 20.9166,5.1427 20.4816,5.9997 C24.3977,8.1416 24.3977,8.1416 24.3977,8.1416 C24.3977,17.5681 24.3977,17.5681 24.3977,17.5681 C23.0917,17.9971 23.0917,17.9971 23.0917,17.9971 C23.0917,29.1365 23.0917,29.1365 23.0917,29.1365 C19.1765,31.2794 19.1765,31.2794 19.1765,31.2794 C13.5193,28.2785 13.5193,28.2785 13.5193,28.2785 C13.5193,16.2822 13.5193,16.2822 13.5193,16.2822 C12.2143,15.4252 12.2143,15.4252 12.2143,15.4252 C12.2143,5.9997 12.2143,5.9997 12.2143,5.9997 C14.8244,4.7138 14.8244,4.7138 14.8244,4.7138 C14.3904,4.2848 14.3904,3.8578 14.3904,3.4278 Z" style="stroke-width: 0.7200; stroke-linecap: round; stroke-linejoin: round; fill-rule: evenodd; fill: #ffffff; "/>
      <path d="  M14.3904,3.4278 C14.3904,1.7139 16.1304,0.0000 17.8715,0.0000 C20.0466,0.0000 21.3516,1.7139 21.3516,3.4278 C21.3516,4.2848 20.9166,5.1427 20.4816,5.9997 C24.3977,8.1416 24.3977,8.1416 24.3977,8.1416 C24.3977,17.5681 24.3977,17.5681 24.3977,17.5681 C23.0917,17.9971 23.0917,17.9971 23.0917,17.9971 C23.0917,29.1365 23.0917,29.1365 23.0917,29.1365 C19.1765,31.2794 19.1765,31.2794 19.1765,31.2794 C13.5193,28.2785 13.5193,28.2785 13.5193,28.2785 C13.5193,16.2822 13.5193,16.2822 13.5193,16.2822 C12.2143,15.4252 12.2143,15.4252 12.2143,15.4252 C12.2143,5.9997 12.2143,5.9997 12.2143,5.9997 C14.8244,4.7138 14.8244,4.7138 14.8244,4.7138 C14.3904,4.2848 14.3904,3.8578 14.3904,3.4278 Z" style="stroke-width: 0.7200; stroke: #ffffff; stroke-dasharray: none; stroke-linecap: round; stroke-linejoin: round; fill: none; "/>
    </g>
    <g xmlns="http://www.w3.org/2000/svg" xmlns:xlink="http://www.w3.org/1999/xlink" id="Layer1538">
      <defs>
        <linearGradient id="grad720">
          <stop offset="0%" stop-color="#c0e5ff" stop-opacity="1.0000"/>
          <stop offset="100%" stop-color="#0099ff" stop-opacity="1.0000"/>
        </linearGradient>
        <linearGradient xlink:href="#grad720" id="grad721" x1="0" y1="0" x2="0" y2="1" gradientTransform="rotate(225 .5 .5)" gradientUnits="objectBoundingBox">
  </linearGradient>
      </defs>
      <path d="  M12.2143,5.9997 L16.5654,3.8578 L24.3987,8.1416 L20.4826,9.8555 L12.2143,5.9997 Z" style="stroke-width: 0.7200; stroke-linecap: round; stroke-linejoin: round; fill-rule: evenodd; fill: url(#grad721); "/>
      <path d="  M12.2143,5.9997 L16.5654,3.8578 L24.3987,8.1416 L20.4826,9.8555 L12.2143,5.9997 Z" style="stroke-width: 0.7200; stroke: #ffffff; stroke-dasharray: none; stroke-linecap: round; stroke-linejoin: round; fill: none; "/>
    </g>
    <g xmlns="http://www.w3.org/2000/svg" xmlns:xlink="http://www.w3.org/1999/xlink" id="Layer1539">
      <defs>
        <linearGradient id="grad722">
          <stop offset="0%" stop-color="#000099" stop-opacity="1.0000"/>
          <stop offset="100%" stop-color="#99c0ff" stop-opacity="1.0000"/>
        </linearGradient>
        <linearGradient xlink:href="#grad722" id="grad723" x1="0" y1="0" x2="0" y2="1" gradientTransform="rotate(135 .5 .5)" gradientUnits="objectBoundingBox">
  </linearGradient>
      </defs>
      <path d="  M19.1775,18.8530 L23.0927,16.7101 L23.0927,29.1355 L19.1775,31.2774 L19.1775,18.8530 Z" style="stroke-width: 0.7200; stroke-linecap: round; stroke-linejoin: round; fill-rule: evenodd; fill: url(#grad723); "/>
      <path d="  M19.1775,18.8530 L23.0927,16.7101 L23.0927,29.1355 L19.1775,31.2774 L19.1775,18.8530 Z" style="stroke-width: 0.7200; stroke: #ffffff; stroke-dasharray: none; stroke-linecap: round; stroke-linejoin: round; fill: none; "/>
    </g>
    <g xmlns="http://www.w3.org/2000/svg" id="Layer1540">
      <defs>
        <radialGradient id="grad724" cx="0.0000%" cy="0.0000%" r="100.0000%">
          <stop offset="0%" stop-color="#99ccff" stop-opacity="1.0000"/>
          <stop offset="100%" stop-color="#0066ff" stop-opacity="1.0000"/>
        </radialGradient>
      </defs>
      <path d="  M12.2143,5.9997 L20.4826,9.8555 L20.4826,19.7090 L19.1775,18.8530 L19.1775,31.2774 L13.5193,28.2785 L13.5193,16.2822 L12.2143,15.4252 L12.2143,5.9997 Z" style="stroke-width: 0.7200; stroke-linecap: round; stroke-linejoin: round; fill-rule: evenodd; fill: url(#grad724); "/>
      <path d="  M12.2143,5.9997 L20.4826,9.8555 L20.4826,19.7090 L19.1775,18.8530 L19.1775,31.2774 L13.5193,28.2785 L13.5193,16.2822 L12.2143,15.4252 L12.2143,5.9997 Z" style="stroke-width: 0.7200; stroke: #ffffff; stroke-dasharray: none; stroke-linecap: round; stroke-linejoin: round; fill: none; "/>
    </g>
    <g xmlns="http://www.w3.org/2000/svg" xmlns:xlink="http://www.w3.org/1999/xlink" id="Layer1541">
      <defs>
        <linearGradient id="grad725">
          <stop offset="0%" stop-color="#000099" stop-opacity="1.0000"/>
          <stop offset="100%" stop-color="#99c0ff" stop-opacity="1.0000"/>
        </linearGradient>
        <linearGradient xlink:href="#grad725" id="grad726" x1="0" y1="0" x2="0" y2="1" gradientTransform="rotate(135 .5 .5)" gradientUnits="objectBoundingBox">
  </linearGradient>
      </defs>
      <path d="  M20.4826,9.8555 L24.3987,8.1416 L24.3987,17.5671 L20.4826,19.7090 L20.4826,9.8555 Z" style="stroke-width: 0.7200; stroke-linecap: round; stroke-linejoin: round; fill-rule: evenodd; fill: url(#grad726); "/>
      <path d="  M20.4826,9.8555 L24.3987,8.1416 L24.3987,17.5671 L20.4826,19.7090 L20.4826,9.8555 Z" style="stroke-width: 0.7200; stroke: #ffffff; stroke-dasharray: none; stroke-linecap: round; stroke-linejoin: round; fill: none; "/>
    </g>
    <path xmlns="http://www.w3.org/2000/svg" d="  M19.1775,31.2774 L19.1775,18.8530 L20.4826,19.7090 L23.0927,17.9961" style="stroke-width: 0.7200; stroke: #ffffff; stroke-dasharray: none; stroke-linecap: round; stroke-linejoin: round; fill: none; "/>
    <path xmlns="http://www.w3.org/2000/svg" d="  M13.5193,16.2822 L12.2143,15.4252 L12.2143,5.9997 L16.5654,3.8578 L24.3987,8.1416 L24.3987,17.5671 L23.0927,17.9961 L23.0927,29.1355 L19.1775,31.2774 L13.5193,28.2785 L13.5193,16.2822 Z" style="stroke-width: 1.2000; stroke: #ffffff; stroke-dasharray: none; stroke-linecap: round; stroke-linejoin: round; fill: none; "/>
    <path xmlns="http://www.w3.org/2000/svg" d="  M12.2143,5.9997 L20.4826,9.8555" style="stroke-width: 0.7200; stroke: #ffffff; stroke-dasharray: none; stroke-linecap: round; stroke-linejoin: round; fill: none; "/>
    <path xmlns="http://www.w3.org/2000/svg" d="  M20.4826,9.8555 L20.4826,19.7090" style="stroke-width: 0.7200; stroke: #ffffff; stroke-dasharray: none; stroke-linecap: round; stroke-linejoin: round; fill: none; "/>
    <path xmlns="http://www.w3.org/2000/svg" d="  M20.4826,9.8555 L24.3987,8.1416" style="stroke-width: 0.7200; stroke: #ffffff; stroke-dasharray: none; stroke-linecap: round; stroke-linejoin: round; fill: none; "/>
    <path xmlns="http://www.w3.org/2000/svg" d="  M16.1304,19.2810 L16.1304,29.5645" style="stroke-width: 0.7200; stroke: #ffffff; stroke-dasharray: none; stroke-linecap: round; stroke-linejoin: round; fill: none; "/>
    <g xmlns="http://www.w3.org/2000/svg" id="Layer1542">
      <path d="  M14.3904,3.4278 C14.3904,1.7139 16.1304,0.0000 17.8715,0.0000 C20.0466,0.0000 21.3516,1.7139 21.3516,3.4278 C21.3516,5.1427 20.0456,6.8566 17.8715,6.8566 C16.1304,6.8566 14.3904,5.1427 14.3904,3.4278 Z" style="stroke-width: 0.7200; stroke-linecap: round; stroke-linejoin: round; fill-rule: evenodd; fill: #ffffff; "/>
      <path d="  M14.3904,3.4278 C14.3904,1.7139 16.1304,0.0000 17.8715,0.0000 C20.0466,0.0000 21.3516,1.7139 21.3516,3.4278 C21.3516,5.1427 20.0456,6.8566 17.8715,6.8566 C16.1304,6.8566 14.3904,5.1427 14.3904,3.4278 Z" style="stroke-width: 0.7200; stroke: #ffffff; stroke-dasharray: none; stroke-linecap: round; stroke-linejoin: round; fill: none; "/>
    </g>
    <path xmlns="http://www.w3.org/2000/svg" d="  M15.6944,18.3530 L16.9995,19.2090 L16.9995,19.6380 L15.6944,19.2090 L15.6944,18.3530 Z" style="fill-rule: evenodd; fill: #0099ff; "/>
    <g xmlns="http://www.w3.org/2000/svg" id="Layer1543">
      <defs>
        <radialGradient id="grad727" cx="0.0000%" cy="0.0000%" r="100.0000%">
          <stop offset="0%" stop-color="#ffffff" stop-opacity="1.0000"/>
          <stop offset="100%" stop-color="#0066ff" stop-opacity="1.0000"/>
        </radialGradient>
      </defs>
      <path d="  M14.3904,3.4278 C14.3904,1.7139 16.1304,0.0000 17.8715,0.0000 C20.0466,0.0000 21.3516,1.7139 21.3516,3.4278 C21.3516,5.1427 20.0456,6.8566 17.8715,6.8566 C16.1304,6.8566 14.3904,5.1427 14.3904,3.4278 Z" style="stroke-width: 0.7200; stroke-linecap: round; stroke-linejoin: round; fill-rule: evenodd; fill: url(#grad727); "/>
      <path d="  M14.3904,3.4278 C14.3904,1.7139 16.1304,0.0000 17.8715,0.0000 C20.0466,0.0000 21.3516,1.7139 21.3516,3.4278 C21.3516,5.1427 20.0456,6.8566 17.8715,6.8566 C16.1304,6.8566 14.3904,5.1427 14.3904,3.4278 Z" style="stroke-width: 0.7200; stroke: #ffffff; stroke-dasharray: none; stroke-linecap: round; stroke-linejoin: round; fill: none; "/>
    </g>
    <!--converted by libvisio2svg-->
  </g>
</svg>
