<svg xmlns="http://www.w3.org/2000/svg" xmlns:xlink="http://www.w3.org/1999/xlink" version="1.1" width="0.3340000000" height="0.5872000000" viewBox="0 0 24.0500 42.2800">
  <title><![CDATA[]]></title>
  <g transform=" scale(1.000000) ">
    <g xmlns="http://www.w3.org/2000/svg" id="Layer1034">
      <path d="  M0.0000,8.2559 L16.0333,0.0000 L24.0500,4.0028 L24.0500,34.0241 L8.0167,42.2800 L0.0000,38.0270 L0.0000,8.2559 Z" style="stroke-width: 1.2000; stroke-linecap: round; stroke-linejoin: round; fill-rule: evenodd; fill: #ffffff; "/>
      <path d="  M0.0000,8.2559 L16.0333,0.0000 L24.0500,4.0028 L24.0500,34.0241 L8.0167,42.2800 L0.0000,38.0270 L0.0000,8.2559 Z" style="stroke-width: 1.2000; stroke: #ffffff; stroke-dasharray: none; stroke-linecap: round; stroke-linejoin: round; fill: none; "/>
    </g>
    <g xmlns="http://www.w3.org/2000/svg" xmlns:xlink="http://www.w3.org/1999/xlink" id="Layer1035">
      <defs>
        <linearGradient id="grad40">
          <stop offset="0%" stop-color="#e6e6e6" stop-opacity="1.0000"/>
          <stop offset="100%" stop-color="#999999" stop-opacity="1.0000"/>
        </linearGradient>
        <linearGradient xlink:href="#grad40" id="grad41" x1="0" y1="0" x2="0" y2="1" gradientTransform="rotate(225 .5 .5)" gradientUnits="objectBoundingBox">
  </linearGradient>
      </defs>
      <path d="  M16.0333,0.0000 L24.0500,4.0028 L8.0167,12.5089 L0.0000,8.2559 L16.0333,0.0000 Z" style="stroke-width: 1.2000; stroke-linecap: round; stroke-linejoin: round; fill-rule: evenodd; fill: url(#grad41); "/>
      <path d="  M16.0333,0.0000 L24.0500,4.0028 L8.0167,12.5089 L0.0000,8.2559 L16.0333,0.0000 Z" style="stroke-width: 1.2000; stroke: #ffffff; stroke-dasharray: none; stroke-linecap: round; stroke-linejoin: round; fill: none; "/>
    </g>
    <g xmlns="http://www.w3.org/2000/svg" xmlns:xlink="http://www.w3.org/1999/xlink" id="Layer1036">
      <defs>
        <linearGradient id="grad42">
          <stop offset="0%" stop-color="#4d4d4d" stop-opacity="1.0000"/>
          <stop offset="100%" stop-color="#e6e6e6" stop-opacity="1.0000"/>
        </linearGradient>
        <linearGradient xlink:href="#grad42" id="grad43" x1="0" y1="0" x2="0" y2="1" gradientTransform="rotate(135 .5 .5)" gradientUnits="objectBoundingBox">
  </linearGradient>
      </defs>
      <path d="  M8.0167,12.5089 L8.0167,42.2800 L24.0500,34.0241 L24.0500,4.0028 L8.0167,12.5089 Z" style="stroke-width: 1.2000; stroke-linecap: round; stroke-linejoin: round; fill-rule: evenodd; fill: url(#grad43); "/>
      <path d="  M8.0167,12.5089 L8.0167,42.2800 L24.0500,34.0241 L24.0500,4.0028 L8.0167,12.5089 Z" style="stroke-width: 1.2000; stroke: #ffffff; stroke-dasharray: none; stroke-linecap: round; stroke-linejoin: round; fill: none; "/>
    </g>
    <g xmlns="http://www.w3.org/2000/svg" id="Layer1037">
      <defs>
        <radialGradient id="grad44" cx="0.0000%" cy="0.0000%" r="100.0000%">
          <stop offset="0%" stop-color="#cccccc" stop-opacity="1.0000"/>
          <stop offset="100%" stop-color="#808080" stop-opacity="1.0000"/>
        </radialGradient>
      </defs>
      <path d="  M8.0167,12.5089 L8.0167,42.2800 L0.0000,38.0270 L0.0000,8.2559 L8.0167,12.5089 Z" style="stroke-width: 1.2000; stroke-linecap: round; stroke-linejoin: round; fill-rule: evenodd; fill: url(#grad44); "/>
      <path d="  M8.0167,12.5089 L8.0167,42.2800 L0.0000,38.0270 L0.0000,8.2559 L8.0167,12.5089 Z" style="stroke-width: 1.2000; stroke: #ffffff; stroke-dasharray: none; stroke-linecap: round; stroke-linejoin: round; fill: none; "/>
    </g>
    <path xmlns="http://www.w3.org/2000/svg" d="  M0.0000,8.2559 L8.0167,12.5089" style="stroke-width: 1.2000; stroke: #ffffff; stroke-dasharray: none; stroke-linecap: round; stroke-linejoin: round; fill: none; "/>
    <path xmlns="http://www.w3.org/2000/svg" d="  M8.0167,12.5089 L24.0500,4.0028" style="stroke-width: 1.2000; stroke: #ffffff; stroke-dasharray: none; stroke-linecap: round; stroke-linejoin: round; fill: none; "/>
    <path xmlns="http://www.w3.org/2000/svg" d="  M2.5052,21.7654 L5.5115,23.0163" style="stroke-width: 0.7200; stroke: #ffffff; stroke-dasharray: none; stroke-linecap: round; stroke-linejoin: round; fill: none; "/>
    <path xmlns="http://www.w3.org/2000/svg" d="  M2.5052,18.5131 L5.5115,19.7640" style="stroke-width: 0.7200; stroke: #ffffff; stroke-dasharray: none; stroke-linecap: round; stroke-linejoin: round; fill: none; "/>
    <path xmlns="http://www.w3.org/2000/svg" d="  M16.0333,0.0000 L24.0500,4.0028 L24.0500,34.0241 L8.0167,42.2800 L0.0000,38.0270 L0.0000,8.2559 L16.0333,0.0000 Z" style="stroke-width: 1.2000; stroke: #ffffff; stroke-dasharray: none; stroke-linecap: round; stroke-linejoin: round; fill: none; "/>
    <path xmlns="http://www.w3.org/2000/svg" d="  M8.0167,42.2800 L8.0167,12.5089" style="stroke-width: 1.2000; stroke: #ffffff; stroke-dasharray: none; stroke-linecap: round; stroke-linejoin: round; fill: none; "/>
    <!--converted by libvisio2svg-->
  </g>
</svg>
